<?xml version="1.0" encoding="utf-8"?>
<!-- Generator: Adobe Illustrator 16.0.0, SVG Export Plug-In . SVG Version: 6.00 Build 0)  -->
<!DOCTYPE svg PUBLIC "-//W3C//DTD SVG 1.1//EN" "http://www.w3.org/Graphics/SVG/1.1/DTD/svg11.dtd">
<svg version="1.1" id="图层_1" xmlns="http://www.w3.org/2000/svg" xmlns:xlink="http://www.w3.org/1999/xlink" x="0px" y="0px"
	 width="1700.791px" height="1700.791px" viewBox="0 0 1700.791 1700.791" enable-background="new 0 0 1700.791 1700.791"
	 xml:space="preserve">
<g id="大圈">
	<path id="外环" fill="#211B5B" d="M850.402,8.629C385.521,8.629,8.628,385.511,8.629,850.39
		c0,464.906,376.894,841.771,841.773,841.771c464.879,0,841.76-376.864,841.76-841.771
		C1692.162,385.511,1315.281,8.629,850.402,8.629z M850.402,1665.885c-450.378,0-815.489-365.099-815.489-815.501
		c0-450.379,365.111-815.478,815.489-815.478c450.377,0,815.475,365.099,815.475,815.478
		C1665.877,1300.786,1300.779,1665.885,850.402,1665.885z"/>
	<path display="none" fill="#793B2B" d="M850.402,34.906c-450.378,0-815.489,365.099-815.489,815.478
		c0,450.402,365.111,815.501,815.489,815.501c450.377,0,815.475-365.099,815.475-815.501
		C1665.877,400.005,1300.779,34.906,850.402,34.906z"/>
</g>
<g id="小圈">
	<path id="内环" fill="#211B5B" d="M850.389,223.78c-346.062,0-626.609,280.548-626.609,626.608
		c0,346.072,280.549,626.621,626.609,626.621c346.074,0,626.621-280.549,626.621-626.621
		C1477.01,504.328,1196.464,223.78,850.389,223.78z M850.395,1447.341c-329.679,0-596.939-267.263-596.939-596.952
		c0-329.666,267.262-596.938,596.939-596.938c329.692,0,596.938,267.272,596.938,596.938
		C1447.334,1180.078,1180.088,1447.341,850.395,1447.341z"/>
	<path display="none" fill="#793B2B" d="M850.395,253.45c-329.679,0-596.939,267.272-596.939,596.938
		c0,329.689,267.262,596.952,596.939,596.952c329.692,0,596.938-267.263,596.938-596.952
		C1447.334,520.722,1180.088,253.45,850.395,253.45z"/>
</g>
<g id="文字">
	<path fill="#211B5B" d="M763.698,1218.636c-0.077,0.717-0.153,1.406-0.217,2.121l-0.039,0.475
		c-2.415,19.473-19.231,17.99-34.423,18.4c-64.35-0.104-117.044-0.181-181.395-0.31l-4.383-0.012
		c-16.1-0.039-32.174-0.053-48.261-0.076c-10.528-0.014-15.181-1.904-22.36-9.238c-0.998-1.021-1.994-2.008-2.952-3.028
		l-1.315-1.367c-6.888-7.143-13.607-14.502-20.021-22.104c-3.757-4.422,6.721-1.854,49.909-64.721
		c43.177-62.893,57.884-167.887,65.32-274.798c4.753-68.335,1.609-137.168,9.916-205.083c4.113-33.567,19.319-69.204,36.876-91.042
		c27.306-34.001,97.891-57.871,140.006-65.23c22.425-3.909,41.055-4.268,51.29-1.979c0.563,0.141,1.099,0.268,1.623,0.422
		c0.523,0.166,1.035,0.332,1.521,0.511l0,0c0.512,0.191,0.998,0.371,1.471,0.575c0.473,0.217,0.933,0.436,1.393,0.665l0,0
		c0.436,0.243,0.869,0.484,1.305,0.74c0.435,0.256,0.843,0.523,1.238,0.817l0,0c0.396,0.28,0.792,0.574,1.163,0.882l0,0
		c0.396,0.294,0.754,0.626,1.1,0.958l0,0c18.156,16.765,8.933,58.24-1.177,76.871c-21.951,50.51-132.146,83.271-177.482,120.569
		c-30.041,35.216-10.836,72.487,37.721,51.839c48.581-20.647,82.8-40.058,114.743-59.378c41.375-25.069,84.705,30.922,22.388,75.043
		c-3.145,2.211-6.465,4.651-10.005,7.156L635.283,874.57c-46.421,29.58-13.851,84.052,34.974,55.033l162.228-96.434
		c39.79-29.785,105.25,18.297,35.406,69.167l-208.967,129.615c-55.75,35.484-29.889,97.699,33.926,63.021
		c64.82-35.601,121.849-72.131,180.894-115.625c70.125-51.661,116.457,15.229,29.875,71.85c-4.114,3.104-8.254,6.172-12.42,9.187
		c-4.166,3.018-8.317,6.008-12.51,8.981c-4.179,2.966-8.345,5.943-12.496,8.896c-4.127,2.965-8.256,5.941-12.331,8.945
		c-4.089,2.987-8.113,6.004-12.088,9.084c-3.961,3.079-7.857,6.172-11.666,9.364c-3.82,3.156-7.553,6.402-11.182,9.736
		c-3.604,3.322-7.13,6.723-10.503,10.248c-3.386,3.502-6.645,7.131-9.75,10.86c-3.104,3.744-6.057,7.604-8.843,11.604
		c-2.784,3.998-5.404,8.139-7.818,12.443c-2.43,4.307-4.664,8.778-6.684,13.43c-2.007,4.641-3.834,9.479-5.419,14.504
		c-1.559,5.021-2.899,10.26-3.999,15.717c-0.933,4.64-1.56,9.47-2.173,14.438H763.698L763.698,1218.636z"/>
	<path fill="#211B5B" d="M817.582,1321.422c-2.313,0-4.127,0.739-5.431,2.225c-1.303,1.469-1.955,3.539-1.955,6.195
		c0,2.635,0.652,4.688,1.943,6.135c1.276,1.443,3.104,2.186,5.441,2.186c2.402,0,4.243-0.739,5.521-2.186
		c1.276-1.443,1.903-3.525,1.903-6.248c0-2.607-0.64-4.652-1.941-6.121C821.761,1322.149,819.934,1321.422,817.582,1321.422z"/>
	<path fill="#211B5B" d="M964.104,1321.14c-1.713,0-3.131,0.549-4.217,1.66c-1.101,1.063-1.636,2.479-1.636,4.205
		c0,1.766,0.55,3.207,1.66,4.293c1.111,1.073,2.595,1.623,4.435,1.623c1.636,0,2.989-0.537,4.024-1.623
		c1.047-1.062,1.584-2.439,1.584-4.164c0-1.767-0.537-3.209-1.635-4.308C967.196,1321.717,965.815,1321.14,964.104,1321.14z"/>
	<path fill="#211B5B" d="M964.105,1341.315c-1.765,0-3.313,0.703-4.64,2.107c-1.304,1.407-1.955,3.284-1.955,5.676
		c0,2.262,0.666,4.113,2.03,5.559c1.395,1.443,2.966,2.158,4.74,2.158c1.699,0,3.232-0.74,4.603-2.197
		c1.342-1.455,2.021-3.309,2.021-5.559c0-2.248-0.691-4.113-2.06-5.56C967.49,1342.045,965.906,1341.315,964.105,1341.315z"/>
	<path id="_x31_978_颜色修正" fill="#211B5B" d="M1153.343,1300.849c-1.034-1.16-2.978-1.838-5.931-1.838h-578.65v-0.002
		c-2.951,0-4.906,0.678-5.93,1.84c-0.92,1.035-0.075,1.471,0.844,2.082c38.385,25.545,79.594,45.873,124.061,60.977l4.318,1.215
		c3.207,0.896,6.4,1.75,9.635,2.595c3.246,0.817,6.479,1.623,9.735,2.401c3.245,0.767,6.518,1.509,9.802,2.224
		c3.271,0.717,6.566,1.405,9.864,2.059c3.31,0.664,6.618,1.291,9.94,1.892c3.348,0.588,6.684,1.163,10.019,1.725
		c3.359,0.537,6.722,1.049,10.081,1.533c3.387,0.475,6.76,0.934,10.157,1.369c3.387,0.434,6.798,0.842,10.21,1.213
		s6.836,0.729,10.261,1.049c3.45,0.317,6.888,0.61,10.323,0.881c3.463,0.256,6.926,0.512,10.401,0.715
		c3.476,0.23,6.951,0.41,10.452,0.551c3.487,0.181,7.002,0.308,10.491,0.408c3.514,0.104,7.026,0.18,10.555,0.219
		c3.539,0.063,7.064,0.103,10.617,0.103l3.387-0.025h0.115h0.012l3.478,0.025c3.539,0,7.078-0.039,10.592-0.103
		c3.554-0.039,7.054-0.115,10.556-0.219c3.515-0.102,7.002-0.229,10.504-0.408c3.488-0.141,6.979-0.317,10.438-0.551
		c3.476-0.203,6.951-0.459,10.4-0.715c3.438-0.271,6.887-0.563,10.323-0.881c3.438-0.32,6.861-0.678,10.287-1.049
		c3.397-0.371,6.812-0.779,10.195-1.213c3.398-0.437,6.784-0.896,10.146-1.369c3.373-0.484,6.746-0.996,10.094-1.533
		c3.35-0.562,6.686-1.137,10.007-1.725c16.472-2.978,32.853-6.683,48.989-11.168l4.318-1.214
		c44.453-15.104,85.674-35.434,124.059-60.977C1153.418,1302.321,1154.263,1301.897,1153.343,1300.849z M757.259,1364.636
		c0,0.039,0,0.039-0.038,0.039h-14.285c-0.039,0-0.09,0-0.09-0.025v-32.418c0-1.15,0.19-1.893-0.717-1.215
		c-2.068,1.51-4.101,2.772-6.056,3.744c-2.173,1.1-4.855,2.146-8.127,3.145c-0.063,0.023-0.089,0.039-0.089-0.024v-11.552
		c0-0.09,0.012-0.104,0.127-0.127c4.805-1.561,8.51-3.426,11.192-5.61c2.364-1.916,4.256-4.229,5.726-6.949
		c0.587-1.113,0.575-1.164,1.776-1.164h10.516c0.077,0,0.063,0.037,0.063,0.115L757.259,1364.636L757.259,1364.636z
		 M833.272,1358.926c-4.115,4.844-9.864,7.26-17.301,7.26c-5.149,0-9.304-1.24-12.498-3.705c-3.155-2.441-4.972-5.775-5.394-10.006
		c-0.01-0.117,0.028-0.117,0.144-0.117h12.496c0.077,0,0.077,0.015,0.103,0.09c0.46,1.533,1.188,2.658,2.121,3.388
		c0.983,0.754,2.249,1.125,3.809,1.125c2.528,0,4.535-1.089,5.979-3.271c1.469-2.174,2.376-5.381,2.67-9.584
		c-1.572,1.228-3.246,2.107-5.022,2.724c-1.774,0.612-3.627,0.907-5.558,0.907c-5.533,0-9.916-1.521-13.135-4.537
		c-3.222-3.026-4.844-7.155-4.844-12.407c0-5.877,1.854-10.502,5.521-13.875c3.706-3.373,8.74-5.072,15.143-5.072
		c7.039,0,12.444,2.301,16.253,6.873c3.771,4.588,5.673,11.156,5.673,19.742C839.431,1347.26,837.375,1354.069,833.272,1358.926z
		 M912.381,1322.547c0,0.537-0.242,0.588-0.651,0.959c-3.449,3.17-6.068,6.414-8.42,10.082c-2.939,4.625-5.267,9.774-6.978,15.436
		c-1.343,4.422-2.248,9.621-2.709,15.641c0,0.015-0.039,0.015-0.063,0.015h-14.121c-0.037,0-0.051-0.015-0.051-0.039
		c1.11-8.369,2.887-15.371,5.303-21.031c2.377-5.647,6.146-11.666,11.322-18.104c0.063-0.078,0.088-0.104-0.015-0.104h-25.196
		c-0.052,0-0.052,0-0.052-0.024v-11.984c0-0.043,0-0.043,0.052-0.043h38.474c2.799,0,3.104-0.217,3.104,2.227L912.381,1322.547
		L912.381,1322.547z M983.45,1356.854c-1.176,2.234-2.633,3.947-4.346,5.16c-1.711,1.229-3.847,2.108-6.39,2.672
		c-2.565,0.574-5.289,0.867-8.202,0.867c-5.419,0-9.57-0.625-12.445-1.929c-2.889-1.276-5.072-3.17-6.541-5.674
		c-1.496-2.491-2.25-5.276-2.25-8.369c0-3.018,0.703-5.559,2.096-7.643c1.405-2.094,3.565-3.703,6.479-4.854
		c-2.248-1.177-3.871-2.529-4.906-4c-1.396-2.006-2.097-4.316-2.097-6.927c0-4.293,2.021-7.807,6.067-10.555
		c3.131-2.068,7.311-3.131,12.496-3.131c6.863,0,11.922,1.305,15.207,3.924c3.283,2.619,4.92,5.902,4.92,9.863
		c0,2.313-0.651,4.473-1.957,6.479c-0.981,1.48-2.528,2.938-4.637,4.344c2.785,1.343,4.854,3.08,6.234,5.289
		c1.365,2.187,2.059,4.613,2.059,7.285C985.239,1352.241,984.627,1354.631,983.45,1356.854z"/>
	<path display="none" fill="#793B2B" d="M976.946,1337.088c2.107-1.406,3.654-2.863,4.638-4.345
		c1.305-2.008,1.957-4.166,1.957-6.479c0-3.961-1.638-7.244-4.921-9.863c-3.284-2.619-8.344-3.924-15.206-3.924
		c-5.188,0-9.365,1.063-12.496,3.131c-4.049,2.748-6.068,6.262-6.068,10.555c0,2.609,0.701,4.921,2.097,6.927
		c1.035,1.471,2.658,2.823,4.906,4c-2.914,1.149-5.074,2.76-6.479,4.854c-1.393,2.084-2.096,4.625-2.096,7.644
		c0,3.092,0.754,5.877,2.25,8.369c1.469,2.504,3.652,4.396,6.541,5.674c2.875,1.303,7.026,1.928,12.445,1.928
		c2.913,0,5.637-0.293,8.202-0.867c2.543-0.563,4.679-1.443,6.39-2.672c1.713-1.213,3.17-2.926,4.346-5.16
		c1.177-2.225,1.789-4.613,1.789-7.193c0-2.672-0.691-5.1-2.059-7.284C981.802,1340.168,979.731,1338.429,976.946,1337.088z"/>
	<path display="none" fill="#793B2B" d="M909.275,1313.345h-38.474c-0.052,0-0.052,0-0.052,0.043v11.983
		c0,0.025,0,0.025,0.052,0.025h25.196c0.103,0,0.076,0.025,0.015,0.104c-5.177,6.438-8.945,12.457-11.322,18.104
		c-2.416,5.66-4.192,12.662-5.303,21.031c0,0.024,0.014,0.039,0.051,0.039h14.121c0.022,0,0.063,0,0.063-0.015
		c0.461-6.02,1.366-11.219,2.709-15.641c1.711-5.66,4.037-10.812,6.978-15.437c2.352-3.668,4.971-6.911,8.42-10.082
		c0.409-0.37,0.651-0.422,0.651-0.959v-6.975C912.381,1313.129,912.074,1313.345,909.275,1313.345z"/>
	<path display="none" fill="#793B2B" d="M817.506,1311.842c-6.401,0-11.437,1.698-15.143,5.071
		c-3.667,3.373-5.521,7.998-5.521,13.875c0,5.252,1.622,9.382,4.844,12.408c3.219,3.017,7.602,4.537,13.135,4.537
		c1.931,0,3.782-0.295,5.558-0.908c1.776-0.614,3.45-1.496,5.022-2.723c-0.294,4.203-1.201,7.41-2.67,9.584
		c-1.444,2.184-3.451,3.271-5.979,3.271c-1.56,0-2.824-0.371-3.809-1.125c-0.933-0.729-1.661-1.854-2.121-3.387
		c-0.024-0.076-0.024-0.09-0.103-0.09h-12.496c-0.114,0-0.152,0-0.144,0.117c0.422,4.229,2.237,7.563,5.394,10.006
		c3.194,2.465,7.349,3.705,12.498,3.705c7.437,0,13.186-2.416,17.301-7.26c4.103-4.855,6.158-11.666,6.158-20.47
		c0-8.586-1.902-15.153-5.673-19.741C829.95,1314.142,824.545,1311.842,817.506,1311.842z"/>
	<path display="none" fill="#793B2B" d="M757.194,1312.478h-10.516c-1.201,0-1.189,0.051-1.776,1.164
		c-1.47,2.721-3.361,5.033-5.726,6.949c-2.684,2.186-6.389,4.051-11.192,5.61c-0.115,0.023-0.127,0.037-0.127,0.127v11.552
		c0,0.063,0.023,0.049,0.089,0.024c3.271-0.998,5.954-2.045,8.127-3.145c1.955-0.972,3.986-2.234,6.056-3.744
		c0.907-0.679,0.717,0.063,0.717,1.215v32.418c0,0.024,0.051,0.024,0.09,0.024h14.285c0.038,0,0.038,0,0.038-0.038v-52.043
		C757.259,1312.515,757.271,1312.478,757.194,1312.478z"/>
	<path fill="#211B5B" d="M275.626,1191.522l-14.081-30.205l-4.715,2.197c0.908,2.604,1.481,4.701,1.712,6.272
		c0.27,1.57,0.23,2.771-0.127,3.563c-0.345,0.846-1.021,1.406-2.006,1.738c-0.971,0.332-2.287,0.575-3.922,0.69
		c-2.851,0.229-5.917,0.406-9.227,0.521c-3.311,0.09-6.633,0.166-9.968,0.19c-3.335,0.025-6.517,0.025-9.558,0
		c-3.003-0.012-5.688-0.036-8.024-0.036c4-4.984,8.037-9.902,12.063-14.734c4.037-4.83,8.011-9.529,11.921-14.146
		c1.393-1.674,2.567-2.797,3.54-3.373c0.944-0.588,1.955-0.473,3.015,0.332c1.062,0.832,2.415,2.507,4.089,5.021l4.689-2.187
		l-17.392-37.323l-4.702,2.198c0.575,1.787,0.934,3.388,1.188,4.767c0.192,1.381,0.154,2.723-0.114,4
		c-0.242,1.313-0.868,2.721-1.764,4.268c-0.869,1.572-2.172,3.398-3.833,5.533c-3.118,3.975-5.903,7.524-8.396,10.692
		c-2.479,3.171-4.739,6.021-6.733,8.589c-2.02,2.504-3.896,4.803-5.622,6.875c-1.712,2.067-3.359,3.998-4.933,5.774
		c-0.64,0.688-1.239,1.289-1.826,1.826c-0.588,0.535-1.239,1.049-2.021,1.521c-0.754,0.473-1.725,0.983-2.898,1.532l-16.368,7.642
		c-2.99,1.405-5.432,2.401-7.349,3.018c-1.93,0.588-3.526,0.689-4.83,0.332c-1.277-0.356-2.479-1.24-3.615-2.635
		c-1.112-1.404-2.391-3.396-3.821-5.979l-4.702,2.199l19.78,42.445l4.702-2.195c-1.1-2.928-1.84-5.328-2.21-7.156
		c-0.396-1.854-0.332-3.424,0.204-4.649c0.55-1.24,1.636-2.416,3.31-3.488c1.688-1.062,4.025-2.301,7.016-3.668l18.105-8.434
		c1.61-0.767,2.965-1.304,4.038-1.623c1.062-0.332,2.083-0.535,3.065-0.613c0.997-0.076,2.197-0.127,3.564-0.152
		c4.141,0.025,7.833,0.063,11.04,0.129c3.231,0.052,6.197,0.142,8.868,0.242c2.708,0.103,5.328,0.242,7.857,0.355
		c2.556,0.143,5.227,0.309,7.985,0.475c2.773,0.217,5.1,0.498,6.938,0.867c1.84,0.348,3.424,0.896,4.701,1.586
		c1.277,0.703,2.429,1.635,3.464,2.838c1.048,1.199,2.096,2.693,3.182,4.562L275.626,1191.522z"/>
	<path fill="#211B5B" d="M231.39,1306.549l4.356-2.822c-1.265-2.326-2.121-4.219-2.594-5.789c-0.474-1.57-0.512-2.912-0.077-4.141
		c0.435-1.177,1.342-2.402,2.798-3.615c1.432-1.266,3.45-2.672,6.058-4.332l50.601-32.877c2.695-1.775,4.919-3.094,6.67-3.963
		c1.75-0.842,3.259-1.228,4.498-1.137c1.278,0.075,2.518,0.678,3.706,1.737c1.201,1.099,2.632,2.709,4.242,4.816l4.356-2.822
		l-23.613-36.379l-4.356,2.812c1.252,2.325,2.121,4.229,2.606,5.774c0.512,1.547,0.536,2.89,0.127,4.103
		c-0.436,1.188-1.38,2.43-2.875,3.682c-1.471,1.277-3.591,2.771-6.313,4.498l-50.612,32.877c-2.595,1.725-4.754,2.951-6.504,3.795
		c-1.726,0.793-3.208,1.162-4.46,1.062c-1.238-0.142-2.504-0.74-3.692-1.802c-1.228-1.088-2.619-2.633-4.203-4.678l-4.346,2.824
		L231.39,1306.549z"/>
	<path id="B_颜色修正" fill="#211B5B" d="M374.245,1329.702c-0.229-2.264-0.817-4.536-1.712-6.813
		c-0.933-2.313-2.21-4.701-3.896-7.193c-1.688-2.491-3.781-5.198-6.313-8.102l-27.638-31.791l-3.91,3.412
		c1.584,2.12,2.733,3.936,3.424,5.432c0.703,1.418,0.92,2.797,0.651,4.035c-0.27,1.24-1.048,2.582-2.352,4.014
		c-1.291,1.443-3.17,3.207-5.598,5.289l-45.312,39.383c-2.39,2.121-4.396,3.72-6.018,4.777c-1.636,1.074-3.105,1.623-4.396,1.674
		c-1.315,0.053-2.671-0.422-4.113-1.379c-1.405-0.973-3.131-2.467-5.111-4.447l-3.923,3.424l23.92,27.498
		c2.646,3.08,5.405,5.88,8.28,8.447c2.837,2.543,5.725,4.738,8.663,6.605c2.927,1.854,5.853,3.271,8.778,4.229
		c2.928,0.971,5.878,1.48,8.895,1.533c3.027,0.053,6.031-0.461,9.009-1.533c2.979-1.035,5.854-2.772,8.625-5.149
		c3.629-3.181,5.942-6.746,6.938-10.72c0.996-3.961,0.906-8.151-0.319-12.573c-1.201-4.421-3.322-8.933-6.363-13.57l0.344-0.305
		c2.159,1.659,4.55,3.104,7.104,4.344c2.556,1.24,5.239,2.084,8.063,2.479c2.799,0.435,5.66,0.279,8.484-0.5
		c2.875-0.754,5.673-2.287,8.42-4.637c2.863-2.521,4.907-5.305,6.108-8.371C374.232,1336.103,374.642,1332.946,374.245,1329.702z
		 M318.599,1367.461c-3.055,2.618-5.968,4.473-8.768,5.545c-2.836,1.1-5.455,1.571-7.909,1.481
		c-2.429-0.141-4.626-0.649-6.605-1.647c-1.955-0.957-3.591-2.234-4.919-3.779c-1.648-1.855-2.646-3.629-2.952-5.316
		c-0.319-1.674,0.089-3.426,1.214-5.227c1.11-1.84,3.015-3.922,5.699-6.209l22.668-19.691l2.057,2.375
		c5.163,5.943,7.73,11.644,7.705,17.123C326.763,1357.584,324.028,1362.707,318.599,1367.461z M359.181,1320.079
		c-0.153,2.109-0.896,4.308-2.173,6.605c-1.277,2.264-3.259,4.563-5.864,6.86c-4.972,4.384-9.635,6.402-13.967,6.031
		c-4.33-0.346-8.752-3.104-13.16-8.268l-2.377-2.721l22.182-19.281c1.546-1.342,2.851-2.299,3.91-2.926
		c1.086-0.588,1.979-0.83,2.684-0.74c0.613,0.063,1.354,0.369,2.187,0.881c0.843,0.486,1.813,1.316,2.822,2.479
		c1.329,1.496,2.301,3.168,2.989,5.035C359.104,1315.913,359.358,1317.944,359.181,1320.079z"/>
	<path display="none" fill="#793B2B" d="M355.424,1309.002c-1.01-1.162-1.979-1.992-2.822-2.479
		c-0.831-0.512-1.572-0.818-2.186-0.881c-0.704-0.09-1.599,0.151-2.685,0.74c-1.061,0.627-2.364,1.584-3.91,2.926l-22.182,19.281
		l2.377,2.721c4.408,5.164,8.83,7.922,13.16,8.268c4.332,0.371,8.995-1.647,13.967-6.03c2.606-2.3,4.587-4.599,5.864-6.861
		c1.276-2.299,2.02-4.496,2.173-6.605c0.178-2.135-0.077-4.166-0.769-6.043C357.724,1312.17,356.753,1310.497,355.424,1309.002z"/>
	<path display="none" fill="#793B2B" d="M317.026,1332.616l-22.668,19.691c-2.686,2.287-4.589,4.369-5.699,6.209
		c-1.125,1.801-1.533,3.553-1.214,5.227c0.307,1.688,1.304,3.462,2.952,5.316c1.328,1.545,2.964,2.822,4.919,3.779
		c1.979,0.998,4.178,1.508,6.605,1.647c2.453,0.09,5.073-0.383,7.91-1.481c2.799-1.072,5.712-2.927,8.767-5.546
		c5.43-4.754,8.164-9.877,8.188-15.346c0.025-5.479-2.542-11.18-7.705-17.123L317.026,1332.616z"/>
	<path fill="#211B5B" d="M379.396,1462.629l3.396-3.91c-1.84-1.892-3.192-3.486-4.075-4.869c-0.895-1.365-1.29-2.646-1.213-3.934
		c0.075-1.255,0.625-2.685,1.688-4.257c1.047-1.598,2.581-3.526,4.612-5.84l39.599-45.539c2.095-2.453,3.872-4.346,5.328-5.66
		c1.443-1.305,2.786-2.084,4-2.34c1.252-0.27,2.605-0.024,4.038,0.664c1.457,0.717,3.271,1.879,5.404,3.463l3.412-3.922
		l-32.735-28.455l-3.412,3.908c1.853,1.893,3.193,3.478,4.114,4.816c0.906,1.354,1.314,2.657,1.238,3.924
		c-0.077,1.266-0.64,2.694-1.738,4.332c-1.072,1.623-2.709,3.653-4.829,6.057l-39.585,45.564c-2.021,2.352-3.758,4.151-5.214,5.418
		c-1.432,1.252-2.747,2.02-4,2.248c-1.238,0.204-2.605,0-4.05-0.703c-1.471-0.701-3.246-1.813-5.315-3.334l-3.398,3.91
		L379.396,1462.629z"/>
	<path fill="#211B5B" d="M552.381,1455.207l-29.978-18.732l-2.67,4.268c2.76,1.867,4.767,3.59,6.082,5.148
		c1.304,1.561,2.031,3.067,2.16,4.563c0.127,1.496-0.219,3.08-0.997,4.806c-0.651,1.418-1.495,3.207-2.581,5.342
		s-2.44,4.664-4.103,7.563c-1.647,2.938-3.653,6.285-6.045,10.105l-14.564,23.309l-0.537-0.319l-7.794-84.191l-22.782-14.234
		l-2.671,4.269c1.712,1.24,3.092,2.492,4.103,3.705c1.009,1.188,1.775,2.455,2.235,3.744c0.447,1.291,0.741,2.723,0.806,4.241
		c0.076,1.035,0.037,2.021-0.129,2.979c-0.191,0.934-0.537,1.94-1.048,3.055c-0.498,1.109-1.214,2.389-2.095,3.91
		c-0.907,1.494-2.059,3.334-3.412,5.518l-17.416,27.845c-3.501,5.547-6.479,10.03-8.97,13.469c-2.467,3.412-4.498,6.067-6.059,7.908
		c-1.214,1.586-2.504,2.686-3.896,3.36c-1.38,0.664-2.979,0.83-4.753,0.498c-1.776-0.307-3.897-1.149-6.3-2.453l-2.67,4.271
		l30.397,18.975l2.646-4.256c-2.927-2.031-5.061-3.848-6.352-5.479c-1.291-1.648-1.955-3.261-1.993-4.83
		c-0.013-1.56,0.384-3.244,1.266-5.062c0.997-2.082,2.529-5.01,4.498-8.715c2.02-3.705,4.729-8.369,8.189-13.928l18.221-29.197
		l0.409,0.256l6.927,94.197l6.669,4.166l33.223-53.168c2.377-3.82,4.511-7.08,6.428-9.853c1.904-2.786,3.552-5.125,5.021-7.055
		c1.469-1.891,2.709-3.5,3.743-4.754c1.149-1.494,2.375-2.518,3.681-3.117c1.291-0.588,2.785-0.729,4.483-0.346
		c1.675,0.334,3.668,1.188,5.98,2.492L552.381,1455.207z"/>
	<path fill="#211B5B" d="M714.235,1510.979l-34.436-9.877l-1.405,4.982c3.22,1.11,5.711,2.25,7.411,3.448
		c1.725,1.203,2.86,2.506,3.397,3.91c0.563,1.418,0.678,2.979,0.422,4.703c-0.256,1.48-0.563,3.221-0.959,5.162
		c-0.407,1.992-0.933,4.369-1.608,7.143c-0.678,2.824-1.572,6.158-2.685,10.058l-5.085,17.672
		c-3.462,12.217-7.896,20.727-13.275,25.582c-5.354,4.842-11.769,6.156-19.229,4.012c-7.23-2.082-11.806-6.338-13.761-12.74
		c-1.955-6.389-1.394-14.909,1.673-25.555l10.503-36.559c0.896-3.23,1.738-5.763,2.505-7.642c0.817-1.84,1.674-3.17,2.67-3.949
		c0.984-0.776,2.264-1.174,3.797-1.188c1.532,0,3.515,0.23,5.93,0.703l1.431-4.982l-40.928-11.742l-1.444,4.994
		c2.402,0.896,4.319,1.777,5.674,2.607c1.354,0.844,2.248,1.879,2.722,3.066c0.459,1.188,0.512,2.785,0.205,4.766
		c-0.319,2.008-0.946,4.602-1.904,7.82l-10.656,37.157c-1.647,5.775-2.734,10.912-3.208,15.396
		c-0.511,4.521-0.408,8.521,0.294,12.074c0.716,3.526,1.994,6.733,3.91,9.598c1.635,2.541,3.59,4.74,5.904,6.617
		c2.3,1.903,4.83,3.502,7.614,4.805c2.785,1.355,5.687,2.441,8.728,3.297c3.297,0.945,6.604,1.433,9.929,1.47
		c3.348,0.053,6.58-0.369,9.725-1.199c3.156-0.869,6.096-2.146,8.843-3.859c3.348-2.236,6.247-5.033,8.728-8.432
		c2.479-3.375,4.625-7.224,6.465-11.553c1.814-4.332,3.449-8.972,4.855-14.007l4.639-16.147c1.138-3.988,2.172-7.312,3.054-9.98
		c0.896-2.657,1.698-4.905,2.401-6.721c0.716-1.828,1.433-3.516,2.084-5.021c0.664-1.648,1.57-2.951,2.721-3.896
		c1.138-0.944,2.606-1.508,4.408-1.674c1.765-0.18,3.962,0.051,6.543,0.676L714.235,1510.979z"/>
	<path fill="#211B5B" d="M834.449,1525.049l-35.1-4.295l-0.626,4.983c3.297,0.537,5.839,1.24,7.705,2.107
		c1.84,0.844,3.13,1.903,3.857,3.221c0.769,1.303,1.139,2.875,1.139,4.766c0.023,1.562,0.013,3.554-0.064,5.943
		c-0.102,2.4-0.256,5.25-0.537,8.586c-0.255,3.349-0.651,7.23-1.2,11.691l-3.349,27.307l-0.626-0.078l-42.64-73.012l-26.681-3.271
		l-0.6,5.01c2.083,0.396,3.859,0.934,5.277,1.623c1.418,0.639,2.645,1.479,3.603,2.438c0.958,0.998,1.84,2.148,2.53,3.502
		c0.523,0.906,0.881,1.826,1.137,2.746c0.23,0.922,0.346,2.006,0.346,3.209c0,1.228-0.091,2.685-0.257,4.445
		c-0.179,1.737-0.448,3.896-0.754,6.438l-4.012,32.599c-0.831,6.489-1.636,11.832-2.429,15.983c-0.806,4.142-1.521,7.41-2.146,9.736
		c-0.435,1.955-1.15,3.5-2.107,4.701c-0.996,1.176-2.352,2.006-4.09,2.453c-1.763,0.461-4.037,0.612-6.771,0.436l-0.613,4.982
		l35.563,4.371l0.6-4.996c-3.501-0.588-6.209-1.33-8.075-2.275c-1.865-0.945-3.131-2.135-3.846-3.525
		c-0.665-1.403-1.009-3.104-0.972-5.11c0.024-2.326,0.152-5.609,0.385-9.801c0.255-4.203,0.754-9.582,1.533-16.089l4.189-34.153
		l0.475,0.053l46.075,82.441l7.795,0.957l7.642-62.229c0.563-4.473,1.099-8.33,1.661-11.639c0.563-3.336,1.072-6.16,1.584-8.523
		c0.511-2.326,0.971-4.317,1.38-5.879c0.421-1.838,1.086-3.295,2.019-4.395c0.907-1.074,2.225-1.826,3.91-2.197
		c1.661-0.422,3.833-0.486,6.466-0.271L834.449,1525.049z"/>
	<path fill="#211B5B" d="M908.7,1622.146l-0.166-5.174c-2.633-0.115-4.715-0.371-6.301-0.768c-1.584-0.41-2.771-1.074-3.576-2.06
		c-0.807-0.981-1.366-2.389-1.688-4.279c-0.318-1.864-0.498-4.332-0.589-7.424l-2.106-60.299c-0.144-3.221-0.115-5.813,0.051-7.756
		c0.166-1.955,0.613-3.438,1.328-4.459c0.729-1.035,1.879-1.789,3.4-2.264c1.557-0.484,3.666-0.855,6.311-1.162l-0.178-5.177
		l-43.344,1.509l0.168,5.178c2.631,0.113,4.715,0.369,6.299,0.728s2.76,1.022,3.59,2.032c0.779,0.957,1.354,2.4,1.674,4.33
		c0.308,1.918,0.523,4.523,0.603,7.744l2.106,60.312c0.142,3.104,0.091,5.598-0.112,7.526c-0.192,1.877-0.642,3.346-1.381,4.369
		c-0.769,0.996-1.918,1.775-3.451,2.248c-1.545,0.486-3.604,0.869-6.157,1.176l0.19,5.177L908.7,1622.146z"/>
	<path fill="#211B5B" d="M1027.547,1499.582l-33.006,6.428l0.983,5.086c2.89-0.205,5.15-0.242,6.785,0.014
		c1.674,0.205,2.875,0.754,3.59,1.623c0.779,0.855,1.188,2.146,1.279,3.857c0.088,1.711-0.015,3.947-0.308,6.695
		c-0.347,4.024-0.817,8.444-1.382,13.25c-0.549,4.793-1.215,9.725-1.891,14.797c-0.689,5.1-1.382,10.057-2.121,14.924
		c-0.703,4.854-1.367,9.367-2.033,13.547l-0.308,0.063c-1.479-2.619-3.129-5.521-4.969-8.715c-1.828-3.194-3.758-6.529-5.776-10.006
		c-1.968-3.488-3.986-6.938-5.992-10.389c-1.967-3.463-3.896-6.746-5.674-9.853c-1.813-3.155-3.425-5.953-4.867-8.459
		c-1.433-2.516-2.606-4.563-3.463-6.157c-1.188-2.199-1.841-3.91-1.979-5.201c-0.153-1.238,0.422-2.313,1.688-3.183
		c1.264-0.844,3.486-1.789,6.604-2.771l-0.829-5.111l-42.423,8.242l0.996,5.086c2.133-0.205,3.986-0.219,5.494-0.053
		c1.521,0.19,2.899,0.641,4.142,1.418c1.252,0.754,2.491,1.957,3.769,3.563c1.254,1.638,2.723,3.795,4.334,6.506
		c1.801,3.017,3.973,6.732,6.529,11.091c2.594,4.385,5.43,9.227,8.508,14.479c3.094,5.275,6.301,10.797,9.662,16.521
		c3.346,5.725,6.654,11.461,9.988,17.172c3.298,5.75,6.479,11.244,9.496,16.521l6.938-1.354c0.981-6.695,1.967-13.431,2.989-20.201
		c1.021-6.822,2.058-13.431,3.078-19.884c1.011-6.467,1.994-12.495,2.929-18.145c0.918-5.646,1.786-10.684,2.555-15.078
		c0.74-4.383,1.404-7.936,1.916-10.631c0.69-3.975,1.381-7.182,2.121-9.598c0.729-2.4,1.56-4.279,2.558-5.607
		c0.959-1.355,2.196-2.402,3.641-3.195c1.481-0.766,3.285-1.52,5.457-2.209L1027.547,1499.582z"/>
	<path fill="#211B5B" d="M1144.909,1537.213c-0.051,3.526-0.293,6.631-0.729,9.354c-0.421,2.684-0.996,4.982-1.712,6.926
		c-0.563,1.599-1.433,2.965-2.53,4.142c-1.123,1.213-2.568,2.272-4.369,3.26c-1.789,0.971-3.985,1.902-6.594,2.861
		c-2.646,0.981-4.996,1.735-7.027,2.223c-2.006,0.5-3.692,0.678-5.021,0.473c-1.381-0.178-2.633-1.123-3.771-2.745
		c-1.125-1.646-2.301-4.166-3.526-7.63l-9.726-26.729l8.408-3.058c2.938-1.086,5.291-1.877,7.116-2.313
		c1.88-0.459,3.412-0.523,4.664-0.18c1.267,0.356,2.453,1.178,3.563,2.479c1.14,1.277,2.44,3.117,3.897,5.547l5.021-1.828
		l-10.543-28.953l-5.008,1.853c0.409,2.734,0.575,4.959,0.536,6.672c-0.051,1.699-0.446,3.064-1.215,4.125
		c-0.728,1.074-1.953,2.008-3.653,2.863c-1.699,0.832-4.013,1.764-6.912,2.785l-8.42,3.065l-11.283-31.012
		c-0.603-1.584-0.92-2.799-0.959-3.666c-0.024-0.844,0.281-1.521,0.935-2.021c0.664-0.484,1.762-0.982,3.271-1.509l5.315-1.94
		c2.965-1.086,5.521-1.826,7.563-2.25c2.084-0.422,3.81-0.549,5.213-0.396c1.394,0.164,2.597,0.562,3.578,1.199
		c1.533,0.857,3.092,2.135,4.627,3.809c1.531,1.674,3.168,3.73,4.854,6.134l4.791-2.429c-0.92-2.082-1.854-4.19-2.823-6.323
		c-0.959-2.146-1.865-4.189-2.724-6.107c-0.854-1.941-1.608-3.615-2.233-5.047c-0.652-1.433-1.101-2.467-1.382-3.094l-63.633,23.166
		l1.774,4.883c2.364-0.65,4.346-1.062,5.879-1.228c1.545-0.18,2.836,0.052,3.886,0.679c1.071,0.586,2.019,1.735,2.911,3.385
		c0.896,1.688,1.88,4,2.951,7.026l20.904,57.438c1.11,3.002,1.842,5.393,2.235,7.271c0.356,1.842,0.28,3.387-0.218,4.563
		c-0.512,1.189-1.52,2.25-3.026,3.221c-1.496,0.998-3.578,2.082-6.196,3.285l1.774,4.879l68.668-24.992
		c-0.078-0.983-0.229-2.235-0.422-3.809c-0.205-1.57-0.41-3.309-0.679-5.188c-0.295-1.918-0.563-3.849-0.854-5.789
		c-0.319-1.955-0.612-3.795-0.907-5.521c-0.293-1.737-0.537-3.207-0.806-4.446L1144.909,1537.213z"/>
	<path id="R_颜色修正" fill="#211B5B" d="M1273.377,1491.532c-1.509,0.256-3.231,0.295-5.188,0.025
		c-1.967-0.219-4.14-0.742-6.566-1.584c-1.42-0.424-2.965-0.996-4.639-1.713c-1.688-0.718-3.629-1.599-5.775-2.685
		c-2.159-1.1-4.627-2.416-7.438-3.936c-1.904-1.035-3.922-2.174-6.068-3.361c-2.084-1.227-4.151-2.416-6.196-3.643
		c-2.033-1.213-3.873-2.363-5.572-3.463c-1.647-1.086-3.002-2.021-4.051-2.785c2.196-2.988,3.885-6.209,5.034-9.531
		c1.15-3.359,1.572-6.836,1.229-10.453c-0.347-3.627-1.636-7.346-3.886-11.154c-2.489-4.075-5.379-7.116-8.701-9.123
		c-3.297-1.993-6.851-3.065-10.67-3.258c-2.287-0.09-4.61,0.103-7.002,0.588c-2.377,0.474-4.933,1.304-7.642,2.453
		c-2.684,1.176-5.674,2.76-8.932,4.715l-36.084,21.695l2.67,4.436c2.287-1.1,4.19-1.84,5.711-2.301
		c1.547-0.447,2.9-0.447,4.039-0.024c1.147,0.385,2.313,1.315,3.463,2.762c1.162,1.43,2.568,3.5,4.14,6.184l31.254,51.992
		c1.662,2.723,2.875,5.01,3.644,6.799c0.778,1.813,1.073,3.359,0.896,4.65c-0.166,1.291-0.817,2.543-1.979,3.758
		c-1.176,1.188-2.86,2.566-5.086,4.103l2.672,4.444l37.312-22.412l-2.672-4.444c-2.351,1.213-4.33,2.03-5.892,2.489
		c-1.596,0.437-2.978,0.423-4.188-0.051c-1.201-0.473-2.401-1.469-3.604-3.018c-1.24-1.531-2.646-3.681-4.269-6.427l-12.052-20.073
		l2.287-1.365c1.291-0.742,2.582-1.164,3.732-1.254c1.2-0.103,2.413,0.076,3.641,0.563c1.215,0.5,2.582,1.24,4.013,2.263
		c2.558,1.698,5.101,3.336,7.653,4.934c2.568,1.635,5.063,3.193,7.476,4.65c2.455,1.471,4.755,2.76,6.927,3.938
		c2.582,1.391,5.035,2.426,7.348,3.143c2.313,0.701,4.679,1.035,7.117,0.935c2.453-0.064,5.176-0.625,8.217-1.648
		c2.978-1.034,6.465-2.604,10.427-4.715c0.829-0.498,1.647-0.959,2.519-1.418c0.817-0.436,1.586-0.869,2.272-1.276
		L1273.377,1491.532z M1210.908,1469.67c-0.678,2.03-1.728,3.846-3.156,5.44c-1.48,1.586-3.45,3.146-5.979,4.627l-3.655,2.199
		l-19.422-32.328c-0.883-1.471-1.457-2.582-1.713-3.373c-0.293-0.807-0.384-1.482-0.256-2.045c0.141-0.625,0.536-1.328,1.2-2.07
		c0.679-0.715,1.726-1.506,3.093-2.352c1.752-1.072,3.668-1.736,5.789-2.097c2.12-0.317,4.355-0.151,6.682,0.513
		c2.34,0.664,4.652,1.991,7.002,3.961c2.326,1.969,4.576,4.717,6.748,8.279c2.146,3.565,3.539,6.965,4.166,10.196
		C1212.046,1463.844,1211.893,1466.885,1210.908,1469.67z"/>
	<path display="none" fill="#793B2B" d="M1207.24,1450.426c-2.172-3.563-4.422-6.312-6.748-8.279
		c-2.35-1.969-4.662-3.297-7.002-3.961c-2.324-0.664-4.562-0.83-6.682-0.512c-2.121,0.358-4.037,1.022-5.789,2.096
		c-1.367,0.846-2.414,1.637-3.093,2.352c-0.664,0.742-1.061,1.445-1.2,2.07c-0.128,0.563-0.037,1.238,0.256,2.045
		c0.256,0.791,0.83,1.902,1.713,3.373l19.422,32.328l3.655-2.199c2.528-1.481,4.498-3.041,5.979-4.627
		c1.429-1.596,2.479-3.41,3.155-5.44c0.984-2.785,1.138-5.826,0.498-9.048C1210.779,1457.39,1209.386,1453.991,1207.24,1450.426z"/>
	<path fill="#211B5B" d="M1302.729,1373.938c-3.515-3.066-6.604-5.775-9.265-8.191c-2.697-2.389-5.086-4.625-7.168-6.731
		c-1.315,0.512-2.938,1.176-4.869,2.069c-1.955,0.882-4.037,1.929-6.26,3.259c-2.226,1.291-4.423,2.823-6.582,4.602
		c-4.152,3.514-7.32,7.168-9.56,11.025c-2.209,3.832-3.537,7.729-3.985,11.627c-0.447,3.91-0.127,7.692,1.036,11.36
		c1.175,3.666,3.093,7.091,5.736,10.234c2.414,2.861,5.137,5.033,8.112,6.527c2.966,1.51,6.173,2.479,9.597,2.899
		c3.412,0.437,7.017,0.5,10.76,0.181c3.771-0.318,7.642-0.869,11.652-1.638c4.166-0.729,7.937-1.084,11.258-1.032
		c3.334,0.051,6.287,0.6,8.854,1.659c2.58,1.021,4.828,2.695,6.731,4.945c2.021,2.439,3.351,4.945,3.976,7.512
		c0.627,2.597,0.513,5.074-0.28,7.478c-0.791,2.414-2.326,4.549-4.574,6.479c-2.172,1.802-4.537,2.978-7.078,3.615
		c-2.53,0.611-5.1,0.805-7.782,0.535c-2.646-0.256-5.265-0.793-7.832-1.635c-2.568-0.844-4.996-1.814-7.232-2.9
		c-2.262-1.111-4.268-2.236-6.006-3.322l-2.963,4.754c1.699,1.584,3.449,3.232,5.313,4.894c1.879,1.699,3.681,3.271,5.457,4.83
		c1.813,1.532,3.463,2.901,4.933,4.053c1.508,1.147,2.733,1.992,3.719,2.541c1.24-0.318,2.595-0.74,4.088-1.238
		c1.472-0.522,3.234-1.201,5.229-2.069c1.93-0.881,3.909-1.941,5.94-3.207c2.021-1.252,4.063-2.722,6.12-4.435
		c4.166-3.539,7.438-7.311,9.787-11.348c2.365-3.986,3.834-8.063,4.422-12.215c0.589-4.104,0.32-8.127-0.793-12.023
		c-1.098-3.922-3.041-7.514-5.801-10.821c-3.312-3.925-7.078-6.646-11.207-8.191c-4.151-1.559-8.674-2.234-13.582-2.082
		c-4.894,0.152-10.146,0.83-15.769,2.045c-4.51,0.883-8.396,1.381-11.704,1.494c-3.322,0.104-6.185-0.332-8.611-1.277
		c-2.428-0.934-4.588-2.518-6.479-4.791c-1.967-2.377-3.192-4.815-3.692-7.373c-0.522-2.529-0.383-4.944,0.356-7.231
		c0.769-2.302,2.123-4.24,4-5.863c2.275-1.879,4.664-3.056,7.08-3.502c2.438-0.447,4.843-0.383,7.319,0.18
		c2.429,0.588,4.83,1.48,7.232,2.646c2.364,1.201,4.663,2.479,6.86,3.834L1302.729,1373.938z"/>
	<path fill="#211B5B" d="M1416.975,1369.095l-3.847-3.463c-1.903,1.789-3.526,3.131-4.933,3.985
		c-1.369,0.869-2.684,1.252-3.963,1.162c-1.24-0.113-2.67-0.688-4.229-1.774c-1.57-1.062-3.477-2.646-5.75-4.728l-44.852-40.365
		c-2.4-2.135-4.254-3.961-5.558-5.418c-1.267-1.481-2.032-2.838-2.263-4.063c-0.244-1.25,0.016-2.592,0.74-4.023
		c0.742-1.457,1.93-3.231,3.527-5.34l-3.848-3.463l-29.018,32.225l3.857,3.478c1.902-1.814,3.514-3.146,4.881-4.025
		c1.354-0.895,2.656-1.276,3.947-1.176c1.238,0.103,2.686,0.688,4.293,1.826c1.609,1.102,3.604,2.748,5.992,4.92l44.838,40.379
		c2.326,2.07,4.076,3.818,5.344,5.303c1.213,1.457,1.939,2.8,2.172,4.037c0.189,1.228-0.055,2.607-0.77,4.052
		c-0.729,1.442-1.891,3.194-3.438,5.252l3.848,3.477L1416.975,1369.095z"/>
	<path fill="#211B5B" d="M1429.802,1226.317c-2.106-1.24-4.28-2.504-6.579-3.871c-2.263-1.366-4.537-2.709-6.734-4.051
		c-2.248-1.33-4.317-2.619-6.223-3.809c-1.931-1.164-3.591-2.226-4.957-3.093l-2.199,3.256c0.627,1.689,0.832,3.209,0.651,4.552
		c-0.204,1.34-0.817,2.771-1.879,4.293l-30.396,45.065c-0.793,1.15-1.508,2.084-2.211,2.748c-0.729,0.703-1.496,1.177-2.392,1.494
		c-0.882,0.295-2.005,0.447-3.334,0.474l-2.084,3.131c2.147,1.508,4.485,3.258,7.004,5.176c2.517,1.955,5.16,3.975,7.896,6.107
		c2.721,2.159,5.455,4.28,8.215,6.399l3.004-4.42c-2.428-2.646-4.422-5.021-6.03-7.156c-1.584-2.119-2.657-4.037-3.146-5.672
		c-0.408-1.188-0.522-2.401-0.396-3.668c0.13-1.276,0.603-2.76,1.396-4.422c0.816-1.688,2.006-3.68,3.604-6.057l3.168-4.678
		l61.627,41.565c2.672,1.765,4.688,3.258,6.146,4.601c1.443,1.278,2.326,2.53,2.67,3.821c0.347,1.265,0.191,2.761-0.434,4.435
		c-0.64,1.688-1.699,3.819-3.183,6.389l4.293,2.9l26.104-38.691l-4.295-2.912c-1.892,2.428-3.525,4.293-4.906,5.596
		c-1.342,1.252-2.694,1.98-4.012,2.174c-1.342,0.179-2.836-0.153-4.586-0.998c-1.752-0.881-3.938-2.184-6.568-3.983l-61.615-41.578
		l3.962-5.854c1.726-2.595,3.36-4.611,4.933-6.029c1.561-1.404,3.233-2.25,4.959-2.467c1.737-0.229,3.896-0.052,6.465,0.575
		c2.582,0.587,5.713,1.646,9.418,3.142L1429.802,1226.317z"/>
	<path fill="#211B5B" d="M1464.252,1108.851l-14.604,29.938l4.664,2.287c1.457-2.338,2.723-4.102,3.795-5.264
		c1.047-1.215,2.006-1.93,2.85-2.16c0.882-0.254,1.738-0.104,2.619,0.473c0.857,0.552,1.865,1.42,2.979,2.607
		c2.006,2.068,4.063,4.357,6.232,6.848c2.146,2.506,4.293,5.035,6.414,7.629c2.109,2.568,4.127,5.035,6.031,7.412
		c1.879,2.351,3.541,4.445,5.021,6.273c-6.414,0.025-12.765-0.014-19.052-0.104c-6.272-0.114-12.444-0.229-18.489-0.383
		c-2.185-0.014-3.796-0.217-4.854-0.613c-1.062-0.37-1.599-1.2-1.646-2.543c0-1.354,0.444-3.463,1.354-6.338l-4.664-2.287
		l-18.055,37.005l4.648,2.274c1.035-1.561,2.045-2.863,2.979-3.91c0.934-1.035,2.008-1.84,3.17-2.44
		c1.188-0.625,2.645-1.033,4.42-1.314c1.777-0.293,4.025-0.447,6.723-0.522c5.048-0.063,9.57-0.13,13.582-0.181
		c4.025-0.063,7.668-0.115,10.927-0.154c3.222-0.022,6.173-0.012,8.866,0.015c2.697,0.039,5.229,0.104,7.591,0.205
		c0.944,0.053,1.804,0.153,2.579,0.28c0.793,0.115,1.611,0.308,2.468,0.603c0.832,0.293,1.841,0.728,2.989,1.303l16.254,7.922
		c2.966,1.418,5.289,2.697,6.979,3.81c1.66,1.125,2.733,2.301,3.271,3.526c0.535,1.214,0.613,2.707,0.242,4.472
		c-0.396,1.776-1.138,4-2.236,6.733l4.679,2.263l20.521-42.076l-4.649-2.273c-1.584,2.682-2.99,4.777-4.179,6.232
		c-1.188,1.457-2.467,2.377-3.743,2.748c-1.304,0.356-2.914,0.244-4.791-0.383c-1.895-0.627-4.332-1.662-7.271-3.132l-17.938-8.766
		c-1.598-0.768-2.889-1.482-3.809-2.107c-0.921-0.627-1.738-1.291-2.402-1.993c-0.688-0.729-1.481-1.623-2.362-2.695
		c-2.595-3.221-4.896-6.107-6.861-8.65c-1.993-2.543-3.77-4.895-5.379-7.055c-1.623-2.158-3.184-4.293-4.678-6.324
		c-1.494-2.059-3.041-4.254-4.664-6.49c-1.56-2.301-2.812-4.268-3.681-5.94c-0.896-1.648-1.457-3.222-1.726-4.65
		c-0.256-1.442-0.27-2.928,0.025-4.483c0.268-1.562,0.779-3.322,1.533-5.343L1464.252,1108.851z"/>
	<path id="院_颜色修正" fill="#211B5B" d="M1400.822,293.182c-6.86-2.313-14.233-3.782-20.66-1.647
		c-3.463-0.153-4.778-2.479-4.932-4.625c1.161-2.07,3.104-4.729,1.469-8.702c-3.081-1.457-6.236-0.612-9.202,1.354
		c-23.51,27.753-49.448,47.138-73.229,69.318c-4.104,10.338-2.799,15.576,2.594,18.732c15.922-16.943,30.08-35.33,47.828-50.767
		c4.918,5.929,1.147,12.317,3.104,17.595c1.508,2.121,22.821,0.792,23.971-6.899c0.808-4.804-2.096-9.735,1.662-14.502
		c4.112-4.729,29.709-0.46,30.054-5.047C1405.283,302.881,1406.789,298.753,1400.822,293.182z M1373.273,304.338
		c-3.461,3.156-4.779,8.396-8.088,12.317c-1.455,6.082-7.078,7.078-10.352,10.043c-1.264-4.269-2.926-6.913-3.77-9.699l2.352-9.188
		l14.567-14.591c5.086,3.078,12.637,4.089,16.894,7.359C1379.804,300.415,1377.695,303.534,1373.273,304.338z"/>
	<path display="none" fill="#793B2B" d="M1353.418,307.812l-2.353,9.188c0.844,2.786,2.506,5.432,3.771,9.699
		c3.271-2.965,8.896-3.961,10.351-10.043c3.309-3.923,4.627-9.161,8.088-12.317c4.422-0.805,6.53-3.924,11.604-3.757
		c-4.257-3.271-11.808-4.28-16.894-7.359L1353.418,307.812z"/>
	<path fill="#211B5B" d="M1352.036,348.216c5.162-3.77,52.468,27.114,61.104,42.69c-0.613,4.625-31.459,2.325-34.115,0.357
		c-0.359-0.346-0.5-6.428-4.422-4.806c-8.701,4.459-20.904,13.66-20.406,20.7c19.908,44.53,62.291,61.947,84.474,25.658
		c-1.188,14.271-8.228,25.938-7.409,34.973c0.18,3.132-4.74,4.741-9.673,5.75c-42.259,8.383-87.731-56.784-79.86-70.917
		c0.459-4.473,25.438-21.888,21.518-22.897c-19.703-4.548-35.637-4.076-43.521-5.417c-5.584-0.651-6.273-7.193-4.279-8.511
		c6.58-3.271,40.096,1.316,52.067,5.418c-3.116-4.421-17.431-12.496-19.907-16.278
		C1346.352,353.29,1348.256,350.669,1352.036,348.216z"/>
	<path fill="#211B5B" d="M1380.967,341.662c14.478,4.537,27.278,9.813,36.147,25.582c-0.817,4.435-7.36,5.442-10.018,3.462
		C1397.092,362.017,1372.431,347.207,1380.967,341.662z"/>
	<path fill="#211B5B" d="M1435.041,336.23c4.883-5.275,9.993-14.018-0.203-26.13c-3.271-3.947-4.384,12.317-14.426,18.055
		l-13.66-8.051c-0.307-1.992,2.147-5.072-2.12-6.03c-19.69-3.003-38.602,3.438-30.078,16.24c5.608,3.616,19.229-8.701,25.604-4.933
		c16.942,9.009,33.389,21.812,46.396,36.122c3.77,10.708-5.48,5.086-8.549,4.934c-6.58-0.347,6.543,18.398,16.073,19.689
		C1475.278,362.003,1429.765,337.497,1435.041,336.23z"/>
	<path fill="#211B5B" d="M1096.955,148.527c0.001-0.021,0.006-0.044,0.009-0.065c-0.087-0.032-0.176-0.067-0.263-0.101
		L1096.955,148.527z"/>
	<path id="学_颜色修正" fill="#211B5B" d="M1096.964,148.462c-0.002,0.021-0.007,0.044-0.009,0.065l-0.254-0.166
		C1096.788,148.394,1096.877,148.429,1096.964,148.462c0.77-10.243,36.309-39.831,30.696-41.271
		c-8.791-7.372-19.445-7.87-32.568-2.938c-2.185,0.769-1.111,5.049,0.383,6.352c1.342,1.572,8.715,2.376,9.328,3.91
		c0.396,1.585,1.01,4.075,0.127,6.21c-4.957-2.595-10.057-3.975-13.506-3.118c-3.027,2.146-5.214,5.841-4.65,8.102
		c1.916,1.879,6.184-0.128,8.203,3.246c-1.765,3.513-4.87,5.468-7.604,7.819c-0.053-0.204-0.104-0.435-0.143-0.64
		c-4.088-2.849-6.822-6.223-7.998-10.963l4.971-5.992c1.086-1.228,2.441-3.745,1.609-5.955c1.752,1.238,3.692,2.224,5.712,3.631
		c1.545,0.575,5.674,0.729,4.369-2.543c-4.806-3.065-7.987-7.091-9.008-12.343l5.635-7.117c1.979-2.67,4.152-7.525-1.775-11.053
		c-3.055-1.648-7.002,8.408-10.248,8.037c-1.929-3.104-1.776-7.245-5.571-9.162c-5.354-0.357-7.946,3.654-6.565,7.398
		c0.051,4.024,2.771,6.21,4.498,9.379c0.267,2.108-9.328,3.027-12.972,4.65c-0.459,0.129-0.625,0.385-0.844,0.436
		c5.508-13.52,12.61-25.377,9.418-26.706c-1.048-3.118-7.884-2.875-11.908,0.318c-5.916,10.746-13.646,45.465-8.446,57.577
		c-0.281,0.063-0.688,0.18-0.957,0.013l-0.691,0.167c-7.5-10.799,3.067-38.819-0.648-39.306c-1.395-1.827-5.625-0.563-7.604,2.107
		c-1.764,7.398-0.92,28.201,3.744,36.404l-18.644-2.824c-1.765-2.146-0.447-6.567-7.017-6.121
		c-28.545,5.609-48.951,21.646-28.418,33.095c10.058,2.058,19.219-18.873,30.644-17.392c29.019,3.36,59.899,11.027,87.373,22.387
		c12.55,11.027-3.643,8.586-7.87,9.864c-9.123,2.76,21.709,19.063,35.383,16.354C1139.823,168.161,1116.697,156.02,1096.964,148.462
		z M1082.594,143.735c-3.091-0.933-5.966-1.904-7.563-2.453c-2.864-1.201-12.868-3.771-21.021-4.831
		c-2.875-7.705-0.256-18.388,3.488-28.393c0.536,0.103,1.071,0.46,1.801,0.498l17.099-2.542c1.558,1.521,3.053,2.837,5.032,4.024
		c-2.323,1.253-5.227,6.785-7.448,6.619c-1.559-2.479-1.494-6.082-4.815-7.896c-4.614-0.318-6.582,3.31-5.854,6.21
		c0.204,3.77,2.772,5.546,3.911,8.113c0.459,1.788-7.961,2.708-10.95,4.179c-3.593,1.825-2.99,3.373-0.5,3.691l14.771-2.197
		c3.747,3.629,7.975,6.172,12.562,9.354c0.575,0.294,1.803,0.499,2.709,0.28C1084.241,139.722,1083.243,141.396,1082.594,143.735z"
		/>
	<path display="none" fill="#793B2B" d="M1083.104,138.113c-4.587-3.183-8.813-5.726-12.562-9.354l-14.771,2.197
		c-2.49-0.318-3.093-1.865,0.5-3.691c2.989-1.471,11.409-2.391,10.95-4.179c-1.14-2.567-3.707-4.345-3.911-8.113
		c-0.729-2.9,1.239-6.528,5.854-6.21c3.322,1.813,3.259,5.418,4.816,7.896c2.223,0.166,5.125-5.366,7.448-6.619
		c-1.979-1.188-3.476-2.504-5.032-4.024l-17.099,2.542c-0.729-0.038-1.265-0.396-1.802-0.498
		c-3.744,10.005-6.362,20.688-3.487,28.393c8.151,1.062,18.155,3.63,21.021,4.831c1.598,0.549,4.473,1.521,7.563,2.453
		c0.649-2.339,1.647-4.013,3.22-5.342C1084.906,138.612,1083.679,138.407,1083.104,138.113z"/>
	<path fill="#211B5B" d="M1028.095,153.637c19.347-2.173,37.938-0.537,53.771,7.258c8.445,7.22,9.66,12.189,6.646,15.333
		l-22.186,6.235l-0.355,5.354c8.063,5.404,24.752,4.127,37.566,12.458c2.248,5.213-1.125,11.997-4.09,11.551
		c-6.262-0.142-28.646-11.358-35.776-9.314c-5.623,30.539-18.095,44.888-23.769,44.172c-11.153-5.417-19.664-13.569-25.414-31.995
		c13.748,11.155,21.734,14.451,22.388,11.155c3.078-0.256,9.47-10.235,10.782-24.188c-3.129-12.625-31.266-8.307-44.771-12.586
		c-8.396-2.02-9.621-9.84,5.994-11.564c12.586,2.378,25.096,6.734,37.719,8.37c1.623-2.3-0.396-6.338-0.869-9.365l12.012,1.125
		c2.363-1.1,4.769-3.82,2.173-7.5C1054.125,163.95,1019.715,166.236,1028.095,153.637z"/>
	<path fill="#211B5B" d="M585.181,86.566c19.729-6.21,27.15,3.681,30.984,11.743c-1.009,6.978,50.996-34.808,68.873,0.997
		c-6.159,10.556-35.255,17.417-31.28,9.839c1.584-3.795,12.548-11.808-1.7-12.434c-23.65,8.345-46.779,21.646-66.149,37.375
		c-7.5,5.891,0.077,27.332-6.875,31.996c-19.651,4.511-17.595-20.405-4.396-42.333c3.832-4.51,5.84-0.307,8.254,0.333l16.355-12.42
		C597.882,97.376,578.817,88.815,585.181,86.566z"/>
	<path fill="#211B5B" d="M637.634,174.453c-2.466-0.103-3.985-2.273-1.93-6.938c5.878-7.016,12.229-13.417,18.988-13.852
		c6.542,3.118,18.515,43.433,22.156,64.834c2.414,6.823,15.295,9.148,18.564,15.615c1.521,5.635-7.691,8.139-13.174,8.625
		c-8.023-3.104-19.181-9.494-24.214-14.133c-7.258,5.276-8.484,22.692-14.771,25.197c-4.382,0.792-4.881-2.722-3.514-7.885
		c1.75-4.83,3.26-9.52,5.15-14.63c1.275-1.941,0.791-5.469-0.575-5.213c-3.847,0.383-7.36,0.855-11.091,1.418
		c-3.041-0.869-5.073-7.322-1.841-7.936c4.407-0.114,7.604-3.667,9.802-6.415c-4.141-11.116-9.431-21.824-11.846-33.555
		c0.896-3.027,3.183-3.552,5.75-4c1.238,0.077,2.401,5.329,3.947,6.287c2.402,0.602,5.764-1.813,8.356-1.508
		c1.903,1.277,3.092,3.858,2.709,5.674c-1.354,1.764-2.556,3.91-3.961,6.146c-0.806,1.955-1.674,5.726,1.291,4.447
		c1.608-1.79,3.297-1.931,4.815-1.7c1.675,1.138,3.066,3.809,1.955,4.716c-2.671,0.957-6.594,3.092-7.283,4.549
		c0.55,1.546,1.214,2.812,2.875,3.896c2.733,1.508,6.479,0.18,8.804-4.331c1.75-3.335-1.213-18.796-10.082-34.13
		C644.149,169.225,641.684,174.004,637.634,174.453z"/>
	<path fill="#211B5B" d="M607.798,176.408c-2.618-0.357-4.128-7.438-4.128-7.438c1.355-7.397,3.783-12.943,8.896-17.455
		c3.846-2.338,6.76,1.827,7.13,4.179C620.153,160.434,616.627,173.506,607.798,176.408z"/>
	<path fill="#211B5B" d="M619.554,139.939c-8.242-1.763-21.479,8.317-20.815,4.625c4.601-23.255,43.662-31.919,45.771-30.193
		c5.379,1.329,8.101,8.229,4.573,9.48c-9.226,2.505-18.412,5.737-19.65,9.865l4.331,13.786c0.806,1.432,3.91-0.868,4.817-3.896
		c0.906-2.287-2.416-3.374-4.346-7.359c-2.083-3.937,36.34-7.411,38.437,3.438c-0.512,4.115-4.498,7.487-9.902,8.881
		c-6.363-1.162-10.683-5.072-19.128-3.809l-40.302,96.537c-8.126,8.981-10.119,0.575-8.88-5.75
		c5.955-23.512,24.177-47.201,33.977-72.604C629.493,161.06,623.552,147.171,619.554,139.939z"/>
	<path fill="#211B5B" d="M329.37,299.969c16.05-4.792,6.899,8.482,6.542,13.25c-1.393,9.762,27.907-8.612,30.986-22.744
		c-33.337-33.249-70.942,28.379-72.438,20.57c-7.411-7.475-25.989-15.984-45.31-1.826c-6.364,4.791,22.668,11.372,30.142,23.281
		l-19.357,24.509c-2.836,0.396-6.722-3.705-9.085,2.428c-6.581,29.542,0.307,57.846,20.609,45.795
		c6.096-7.807-10.516-28.864-4.587-38.371C282.603,342.276,306.331,318.42,329.37,299.969z"/>
	<path id="宜_颜色修正" fill="#211B5B" d="M394.357,366.693c-12.381,10.414-7.309,12.216-22.961,27.92l-39.956-54.446
		c-4.332-4.792-18.822-7.526-27.307,7.947c-16.6,37.963,21.939,62.151,36.379,82.891c4.306,4.843-20.842,24.29-31.27,36.979
		c-5.724,9.596-0.778,16.292,2.671,15.192c12.306-6.224,65.358-75.084,107.397-108.638
		C429.804,363.767,411.557,353.073,394.357,366.693z M356.868,415.35c-6.517,7.667-10.631-0.18-21.363-12.241
		c1.546-3.667,5.545-4.74,6.196-9.123c1.61-2.53-5.099-7.809-8.229-7.335c-2.684,0.716-4.816,2.224-6.068,5.265
		c-2.186,0.703-4.982-2.069-5.073-5.48c-0.14-2.695,1.969-6.823,6.363-10.86c0.345-2.696-7.155-9.901-9.366-6.646
		c-0.242,2.031-2.951,5.291-5.66,3.398c-2.889-2.019-4.396-5.123-4.678-9.735c0.652-2.225-0.051-4.422,6.646-9.366
		c4.318-3.296,26.08,31.663,39.316,47.56C359.642,408.95,358.657,412.91,356.868,415.35z"/>
	<path display="none" fill="#793B2B" d="M315.635,353.225c-6.695,4.944-5.992,7.143-6.646,9.365
		c0.281,4.613,1.789,7.719,4.677,9.736c2.709,1.893,5.418-1.367,5.661-3.398c2.211-3.258,9.711,3.948,9.366,6.646
		c-4.396,4.037-6.503,8.165-6.363,10.86c0.091,3.411,2.889,6.185,5.073,5.48c1.252-3.041,3.386-4.549,6.068-5.265
		c3.131-0.475,9.84,4.805,8.229,7.335c-0.651,4.383-4.65,5.456-6.196,9.123c10.732,12.063,14.848,19.908,21.363,12.241
		c1.789-2.44,2.773-6.4-1.917-14.565C341.715,384.888,319.953,349.929,315.635,353.225z"/>
	<path fill="#211B5B" d="M1038.42,343.95c-5.494-1.931-11.014-3.809-16.586-5.574c-15.563-4.945-31.433-9.199-47.57-12.739
		c-16.141-3.525-15.256-2.771-30.682-4.408c-34.882,2.325-39.226,39.395-39.443,58.344c-0.309,26.271,1.955,60.529,33.361,67.519
		c8.103,0.588,25.197,3.82,46.83,6.186c49.117,5.315,87.301,8.063,135.178,20.395c20.893,5.379,47.713,18.707,54.434,23.396
		c26.846,18.746,34.857,39.216,37.094,113.122c0.256,8.421-0.166,28.635,0.408,33.222c0.063,0.576,0.115,7.079,0.281,18.223
		c0.168,11.129,0.473,26.885,1.049,45.937c0.588,19.052,1.443,41.413,2.76,65.741c2.861,53.335,3.527,106.146,10.822,159.263
		c5.699,41.553,16.918,106.745,39.049,142.639c31.203,50.573,54.422,47.532,70.176,26.192c37.873-74.11,59.25-158.048,59.25-246.993
		C1394.829,619.973,1246.39,420.22,1038.42,343.95z"/>
	<path fill="#211B5B" d="M1245.827,1226.942l-0.036,0.025c-0.474,0.512-0.984,1.01-1.482,1.494c-0.498,0.5-0.995,0.998-1.508,1.495
		c-0.511,0.498-1.011,0.996-1.521,1.496c-9.558,9.289-20.062,7.447-32.16,7.461l-12.127,0.015l-12.14,0.014l-12.125,0.013h-12.151
		l-12.113,0.014l-12.139,0.014l-12.14,0.012h-12.127l-12.14,0.015h-12.149l-12.127,0.012l-12.112,0.015l-12.14,0.014h-12.151
		l-12.128,0.014l-12.125,0.012l-12.127,0.015h-12.149l-12.14,0.012h-12.115l-12.139,0.015h-12.14l-12.138,0.014l-12.127,0.014
		l-12.127,0.012l-12.139,0.015h-12.141l-12.139,0.014c-8.254,0.191-26.961,3.193-24.47-20.535h-0.014
		c0.613-5.913,1.826-11.688,3.604-17.313c1.854-5.969,4.294-11.769,7.297-17.402c2.979-5.66,6.491-11.145,10.438-16.483
		c3.961-5.34,8.383-10.541,13.161-15.613c4.791-5.062,9.968-10.018,15.437-14.836c5.469-4.816,11.219-9.531,17.225-14.105
		c6.007-4.61,12.255-9.098,18.617-13.479c6.39-4.396,12.933-8.688,19.563-12.904c6.605-4.203,13.326-8.344,20.033-12.396
		c6.695-4.063,13.432-8.05,20.074-11.974c6.646-3.91,13.238-7.793,19.691-11.602c6.438-3.82,12.738-7.593,18.834-11.32
		c6.096-3.744,11.947-7.438,17.543-11.117c5.584-3.653,10.887-7.309,15.819-10.948c4.933-3.632,9.507-7.246,13.646-10.89
		c105.096-92.063,21.377-222.191-102.875-166.852c0.574-34.525-3.388-63.353-49.705-73.485
		c174.762-81.24,114.578-253.102-24.789-214.002c0,0-10.094-63.083,11.525-64.271c90.695,4.92,221.555,14.426,237.961,148.682
		c1.441,11.819,3.438,17.595,2.811,53.615c-0.612,36.008-5.84,128.607-0.407,200.635c9.226,122.079,43.546,244.261,107.563,291.819
		l0.318,0.256c1.791,1.303,3.604,2.58,5.418,3.77c0.204,0.129,0.396,0.256,0.588,0.369c1.866,1.215,3.719,2.365,5.637,3.439
		C1262.325,1209.463,1254.301,1218.47,1245.827,1226.942z"/>
	<path fill="#211B5B" d="M821.978,358.239c-2.735-24.469-15.986-37.132-40.57-38.882c-4.19-0.294-11.423,0.933-15.55,1.646
		c-4.127,0.717-8.229,1.496-12.306,2.288c-4.089,0.818-8.151,1.661-12.215,2.568c-4.037,0.906-8.088,1.839-12.102,2.836
		c-4.025,0.983-8.011,2.019-11.984,3.092c-3.961,1.086-7.947,2.198-11.884,3.349c-3.936,1.176-7.858,2.362-11.769,3.628
		c-3.91,1.238-7.781,2.529-11.653,3.858c-3.858,1.342-7.692,2.722-11.513,4.114c-3.821,1.431-7.63,2.875-11.411,4.37
		c-3.783,1.507-7.553,3.053-11.283,4.625c-3.744,1.571-7.438,3.194-11.143,4.854c-3.692,1.661-7.347,3.348-10.988,5.085
		c-3.668,1.737-7.297,3.501-10.887,5.328c-3.617,1.815-7.183,3.667-10.722,5.56c-3.553,1.892-7.093,3.819-10.594,5.774
		c-3.513,1.981-6.988,3.987-10.438,6.031c-3.464,2.032-6.899,4.115-10.3,6.223c-3.397,2.121-6.784,4.269-10.133,6.466
		c-3.347,2.186-6.682,4.407-9.979,6.67c-3.311,2.235-6.568,4.549-9.813,6.874s-6.466,4.689-9.659,7.093
		c-3.194,2.389-6.339,4.831-9.48,7.296c-3.145,2.465-6.249,4.958-9.315,7.5c-3.079,2.518-6.133,5.086-9.147,7.691
		c-3.028,2.606-6.006,5.215-8.971,7.896c-2.966,2.657-5.879,5.354-8.777,8.088c-2.901,2.723-5.764,5.482-8.612,8.28
		c-2.837,2.785-5.647,5.609-8.421,8.459c-2.771,2.849-5.507,5.724-8.229,8.65c-2.709,2.912-5.393,5.852-8.037,8.814
		c-84.665,95.093-135.854,220.328-135.827,357.995c0,6.402,0.115,12.791,0.332,19.144c0.229,6.35,0.563,12.688,0.998,19
		c0.434,6.286,0.995,12.561,1.66,18.795c0.651,6.223,1.405,12.444,2.274,18.604c0.855,6.185,1.827,12.33,2.913,18.425
		c1.062,6.095,2.235,12.177,3.526,18.195c1.276,6.031,2.646,12.023,4.128,17.979c1.469,5.954,3.054,11.87,4.728,17.747
		c1.66,5.88,3.437,11.72,5.303,17.507c1.864,5.801,3.809,11.539,5.864,17.235c2.058,5.699,4.204,11.361,6.453,16.982
		c2.224,5.606,4.549,11.166,6.978,16.688c2.414,5.533,4.905,11.027,7.525,16.406c22.872,47.137,58.087,23.115,81.253-30.744
		c34.309-79.758,41.938-172.65,45.72-258.826c2.505-57.115,6.951-111.191,12.229-171.157c6.146-53.513,0.92-105.07,46.881-133.778
		c45.949-28.699,155.761-33.414,191.857-37.313c36.109-3.922,35.535-4.51,51.802-12.752
		C816.969,432.273,826.743,400.687,821.978,358.239z"/>
	<path fill="#211B5B" d="M977.51,912.24c77.61-60.951,130.474,20.472,44.106,70.188C1027.47,950.778,1013.797,920.38,977.51,912.24z
		"/>
	<path fill="#211B5B" d="M861.666,643.893c80.985-63.122,147.916,11.514,45.297,72.681
		C909.722,684.502,898.554,648.52,861.666,643.893z"/>
</g>
</svg>
