<?xml version="1.0" encoding="utf-8"?>
<!-- Generator: Adobe Illustrator 25.3.1, SVG Export Plug-In . SVG Version: 6.00 Build 0)  -->
<svg version="1.1" id="图层_1" xmlns="http://www.w3.org/2000/svg" xmlns:xlink="http://www.w3.org/1999/xlink" x="0px" y="0px"
	 viewBox="0 0 300 300" style="enable-background:new 0 0 300 300;" xml:space="preserve">
<style type="text/css">
	.st0{fill:#9999FF;}
</style>
<g>
	<polygon class="st0" points="150.45,65.23 135.99,90.27 121.54,115.3 107.08,140.34 92.63,165.38 78.17,140.34 92.63,115.3 
		107.08,90.27 121.54,65.23 135.99,40.19 	"/>
	<polygon class="st0" points="222.72,90.27 208.27,115.3 193.81,90.27 193.81,90.26 208.27,65.23 	"/>
	<polygon class="st0" points="135.99,190.41 135.99,190.42 121.54,215.45 107.08,240.49 92.63,265.53 63.72,265.53 78.17,240.49 
		92.63,215.45 107.08,190.42 92.63,165.38 92.63,165.38 107.08,140.34 121.54,165.38 	"/>
	<polygon class="st0" points="193.81,90.26 193.81,90.27 179.36,115.3 164.9,140.34 150.45,165.38 135.99,140.34 150.45,115.3 
		164.9,90.27 164.9,90.26 150.45,65.23 135.99,40.19 150.45,15.15 164.9,40.19 179.36,65.23 	"/>
	<polygon class="st0" points="49.26,240.49 78.17,240.49 63.72,265.53 5.89,265.53 20.35,240.49 34.8,215.45 49.26,190.42 
		63.72,165.38 78.17,190.42 63.72,215.45 	"/>
	<polygon class="st0" points="193.81,190.42 179.36,215.45 164.9,240.49 150.45,265.53 121.54,265.53 135.99,240.49 150.45,215.45 
		164.9,190.42 179.36,165.38 	"/>
	<polygon class="st0" points="295,265.53 150.45,265.53 164.9,240.49 251.63,240.49 237.18,215.45 222.72,190.42 222.72,190.41 
		193.81,140.34 208.27,115.3 222.72,140.34 237.18,165.38 251.63,190.42 266.09,215.45 280.54,240.49 	"/>
</g>
</svg>
