<?xml version="1.0" encoding="utf-8"?>
<!-- Generator: Adobe Illustrator 16.0.0, SVG Export Plug-In . SVG Version: 6.00 Build 0)  -->
<!DOCTYPE svg PUBLIC "-//W3C//DTD SVG 1.0//EN" "http://www.w3.org/TR/2001/REC-SVG-20010904/DTD/svg10.dtd">
<svg version="1.0" id="图层_1" xmlns="http://www.w3.org/2000/svg" xmlns:xlink="http://www.w3.org/1999/xlink" x="0px" y="0px"
	 width="7139px" height="1824px" viewBox="0 0 7139 1824" enable-background="new 0 0 7139 1824" xml:space="preserve">
<g>
	<path id="外环_1_" fill="#793B2B" d="M1574.78,227.96c-377.595,0-683.723,306.118-683.723,683.712
		c0,377.616,306.127,683.723,683.723,683.723c377.593,0,683.711-306.105,683.711-683.723
		C2258.491,534.078,1952.373,227.96,1574.78,227.96z M1574.78,1574.05c-365.815,0-662.374-296.547-662.374-662.383
		c0-365.816,296.558-662.364,662.374-662.364c365.813,0,662.361,296.547,662.361,662.364
		C2237.142,1277.503,1940.594,1574.05,1574.78,1574.05z"/>
	<path id="内环_1_" fill="#793B2B" d="M1574.769,402.714c-281.084,0-508.957,227.873-508.957,508.957
		c0,281.094,227.873,508.968,508.957,508.968c281.096,0,508.967-227.874,508.967-508.968
		C2083.735,630.587,1855.864,402.714,1574.769,402.714z M1574.772,1396.539c-267.777,0-484.857-217.081-484.857-484.868
		c0-267.769,217.08-484.856,484.857-484.856c267.791,0,484.857,217.089,484.857,484.856
		C2059.63,1179.458,1842.563,1396.539,1574.772,1396.539z"/>
	<path fill="#793B2B" d="M1504.354,1210.776c-0.063,0.582-0.125,1.143-0.176,1.723l-0.031,0.386
		c-1.961,15.816-15.621,14.612-27.959,14.945c-52.268-0.084-95.068-0.146-147.336-0.251l-3.56-0.009
		c-13.077-0.032-26.133-0.043-39.199-0.063c-8.552-0.012-12.331-1.547-18.163-7.504c-0.81-0.83-1.619-1.631-2.396-2.461l-1.068-1.11
		c-5.595-5.802-11.054-11.778-16.263-17.953c-3.051-3.592,5.458-1.506,40.539-52.568c35.069-51.084,47.015-136.364,53.056-223.201
		c3.86-55.505,1.307-111.415,8.055-166.577c3.34-27.265,15.691-56.21,29.951-73.947c22.18-27.618,79.51-47.005,113.719-52.982
		c18.213-3.177,33.346-3.467,41.659-1.608c0.457,0.114,0.894,0.218,1.318,0.343c0.425,0.135,0.841,0.271,1.235,0.416l0,0
		c0.414,0.155,0.81,0.301,1.192,0.466c0.384,0.178,0.759,0.354,1.131,0.541l0,0c0.354,0.197,0.706,0.395,1.06,0.603
		c0.353,0.208,0.685,0.425,1.006,0.663l0,0c0.322,0.229,0.644,0.468,0.945,0.717l0,0c0.32,0.238,0.611,0.508,0.893,0.777l0,0
		c14.748,13.618,7.255,47.307-0.955,62.438c-17.831,41.026-107.335,67.64-144.159,97.933c-24.399,28.604-8.802,58.879,30.638,42.106
		c39.459-16.771,67.254-32.537,93.199-48.229c33.606-20.362,68.801,25.115,18.186,60.952c-2.555,1.796-5.251,3.779-8.126,5.813
		l-132.691,78.183c-37.705,24.026-11.25,68.271,28.406,44.7l131.769-78.328c32.318-24.191,85.487,14.862,28.758,56.18
		l-169.731,105.28c-45.283,28.821-24.276,79.355,27.556,51.188c52.649-28.916,98.971-58.588,146.93-93.915
		c56.958-41.962,94.591,12.369,24.266,58.357c-3.342,2.521-6.704,5.015-10.088,7.462c-3.384,2.45-6.756,4.88-10.161,7.297
		c-3.394,2.407-6.778,4.826-10.149,7.224c-3.353,2.408-6.707,4.826-10.017,7.267c-3.321,2.428-6.591,4.876-9.817,7.379
		c-3.218,2.502-6.384,5.013-9.477,7.605c-3.104,2.564-6.135,5.201-9.082,7.908c-2.926,2.699-5.792,5.461-8.531,8.324
		c-2.75,2.845-5.396,5.791-7.919,8.821c-2.521,3.041-4.919,6.177-7.182,9.425c-2.263,3.247-4.392,6.61-6.353,10.106
		c-1.973,3.498-3.787,7.131-5.429,10.908c-1.629,3.77-3.112,7.701-4.399,11.78c-1.267,4.078-2.356,8.334-3.248,12.767
		c-0.758,3.768-1.268,7.69-1.766,11.727h-0.033V1210.776z"/>
	<path fill="#793B2B" d="M1548.122,1294.263c-1.878,0-3.352,0.603-4.411,1.808c-1.058,1.192-1.588,2.875-1.588,5.031
		c0,2.141,0.53,3.811,1.579,4.983c1.038,1.172,2.521,1.775,4.42,1.775c1.951,0,3.445-0.603,4.484-1.775
		c1.037-1.173,1.545-2.863,1.545-5.075c0-2.118-0.519-3.777-1.576-4.972C1551.517,1294.854,1550.032,1294.263,1548.122,1294.263z"/>
	<path fill="#793B2B" d="M1667.133,1294.034c-1.391,0-2.543,0.444-3.425,1.349c-0.893,0.863-1.328,2.016-1.328,3.415
		c0,1.436,0.446,2.605,1.35,3.487c0.902,0.872,2.106,1.318,3.601,1.318c1.329,0,2.429-0.438,3.271-1.318
		c0.851-0.861,1.286-1.98,1.286-3.382c0-1.436-0.436-2.606-1.327-3.498C1669.644,1294.502,1668.522,1294.034,1667.133,1294.034z"/>
	<path fill="#793B2B" d="M1667.134,1310.422c-1.433,0-2.689,0.571-3.769,1.712c-1.058,1.145-1.589,2.668-1.589,4.609
		c0,1.838,0.541,3.342,1.65,4.516c1.133,1.172,2.408,1.753,3.85,1.753c1.381,0,2.625-0.602,3.738-1.785
		c1.09-1.182,1.642-2.687,1.642-4.515c0-1.826-0.563-3.341-1.673-4.515C1669.883,1311.014,1668.596,1310.422,1667.134,1310.422z"/>
	<path id="_x31_978_颜色修正_1_" fill="#793B2B" d="M1820.839,1277.554c-0.84-0.942-2.418-1.493-4.816-1.493h-470.004v-0.002
		c-2.396,0-3.984,0.552-4.814,1.495c-0.748,0.84-0.063,1.193,0.684,1.69c31.178,20.749,64.649,37.26,100.768,49.527l3.508,0.986
		c2.604,0.727,5.199,1.421,7.826,2.105c2.636,0.666,5.262,1.318,7.906,1.951c2.638,0.622,5.295,1.226,7.961,1.807
		c2.656,0.582,5.334,1.143,8.013,1.672c2.688,0.539,5.376,1.049,8.075,1.535c2.719,0.479,5.428,0.945,8.137,1.4
		c2.729,0.438,5.459,0.854,8.188,1.245c2.75,0.386,5.49,0.759,8.252,1.112c2.75,0.354,5.521,0.684,8.291,0.985
		c2.771,0.301,5.554,0.592,8.334,0.852c2.803,0.259,5.595,0.496,8.386,0.716c2.813,0.208,5.625,0.415,8.448,0.58
		c2.821,0.188,5.646,0.333,8.489,0.448c2.833,0.146,5.688,0.248,8.521,0.331c2.854,0.084,5.708,0.146,8.573,0.178
		c2.875,0.051,5.737,0.083,8.623,0.083l2.752-0.021h0.093h0.01l2.824,0.021c2.875,0,5.749-0.032,8.603-0.083
		c2.887-0.032,5.729-0.094,8.574-0.178c2.854-0.083,5.688-0.187,8.532-0.331c2.833-0.115,5.667-0.259,8.479-0.448
		c2.823-0.165,5.646-0.372,8.448-0.58c2.793-0.22,5.594-0.457,8.386-0.716c2.792-0.26,5.573-0.551,8.355-0.852
		c2.76-0.303,5.532-0.634,8.28-0.985c2.762-0.354,5.511-0.729,8.24-1.112c2.74-0.393,5.479-0.809,8.199-1.245
		c2.72-0.455,5.429-0.923,8.127-1.4c13.379-2.417,26.684-5.428,39.792-9.07l3.507-0.984c36.107-12.269,69.588-28.78,100.766-49.527
		C1820.901,1278.749,1821.587,1278.405,1820.839,1277.554z M1499.124,1329.363c0,0.031,0,0.031-0.031,0.031h-11.603
		c-0.032,0-0.073,0-0.073-0.021v-26.331c0-0.936,0.155-1.537-0.582-0.987c-1.681,1.228-3.331,2.253-4.918,3.041
		c-1.766,0.895-3.945,1.743-6.602,2.556c-0.053,0.019-0.071,0.03-0.071-0.021v-9.383c0-0.072,0.01-0.084,0.103-0.104
		c3.903-1.268,6.912-2.781,9.092-4.558c1.92-1.557,3.457-3.435,4.65-5.646c0.477-0.903,0.467-0.944,1.442-0.944h8.542
		c0.063,0,0.051,0.029,0.051,0.094V1329.363z M1560.866,1324.725c-3.342,3.936-8.012,5.897-14.053,5.897
		c-4.183,0-7.556-1.008-10.15-3.01c-2.563-1.983-4.038-4.691-4.38-8.127c-0.009-0.097,0.022-0.097,0.116-0.097h10.149
		c0.063,0,0.063,0.013,0.083,0.073c0.374,1.245,0.965,2.159,1.723,2.751c0.8,0.612,1.828,0.914,3.094,0.914
		c2.054,0,3.684-0.884,4.857-2.658c1.192-1.766,1.93-4.37,2.168-7.784c-1.277,0.996-2.638,1.712-4.08,2.212
		c-1.442,0.498-2.946,0.737-4.515,0.737c-4.495,0-8.055-1.234-10.669-3.685c-2.617-2.459-3.934-5.813-3.934-10.079
		c0-4.773,1.505-8.53,4.484-11.271c3.01-2.739,7.099-4.119,12.299-4.119c5.718,0,10.107,1.868,13.201,5.582
		c3.063,3.727,4.606,9.063,4.606,16.035C1565.868,1315.249,1564.197,1320.781,1560.866,1324.725z M1625.12,1295.177
		c0,0.437-0.197,0.479-0.529,0.778c-2.802,2.575-4.929,5.21-6.839,8.188c-2.387,3.757-4.278,7.94-5.667,12.537
		c-1.09,3.593-1.826,7.815-2.2,12.704c0,0.012-0.032,0.012-0.051,0.012h-11.47c-0.03,0-0.041-0.012-0.041-0.031
		c0.902-6.799,2.345-12.485,4.307-17.083c1.932-4.589,4.992-9.476,9.197-14.705c0.051-0.064,0.07-0.084-0.012-0.084h-20.465
		c-0.043,0-0.043,0-0.043-0.021v-9.733c0.002-0.034,0.002-0.034,0.043-0.034h31.25c2.272,0,2.521-0.177,2.521,1.809
		L1625.12,1295.177L1625.12,1295.177z M1682.846,1323.044c-0.954,1.813-2.139,3.205-3.53,4.19c-1.39,0.998-3.125,1.714-5.189,2.171
		c-2.083,0.466-4.296,0.704-6.662,0.704c-4.4,0-7.773-0.509-10.107-1.565c-2.347-1.038-4.12-2.575-5.313-4.609
		c-1.215-2.022-1.828-4.286-1.828-6.797c0-2.451,0.571-4.516,1.702-6.208c1.143-1.699,2.896-3.008,5.264-3.941
		c-1.826-0.955-3.145-2.056-3.985-3.249c-1.134-1.63-1.703-3.507-1.703-5.625c0-3.487,1.641-6.341,4.929-8.573
		c2.543-1.68,5.938-2.543,10.15-2.543c5.574,0,9.684,1.06,12.352,3.188c2.667,2.127,3.996,4.794,3.996,8.012
		c0,1.88-0.529,3.633-1.59,5.264c-0.798,1.202-2.055,2.386-3.766,3.528c2.262,1.09,3.942,2.502,5.063,4.296
		c1.109,1.774,1.672,3.747,1.672,5.917C1684.299,1319.296,1683.801,1321.236,1682.846,1323.044z"/>
	<path fill="#793B2B" d="M1107.923,1188.754l-11.438-24.534l-3.83,1.785c0.738,2.116,1.204,3.818,1.391,5.096
		c0.218,1.275,0.187,2.251-0.103,2.895c-0.28,0.687-0.831,1.142-1.629,1.412c-0.789,0.27-1.858,0.468-3.186,0.562
		c-2.315,0.187-4.806,0.33-7.494,0.424c-2.688,0.072-5.387,0.136-8.095,0.155c-2.709,0.021-5.293,0.021-7.763,0
		c-2.439-0.01-4.619-0.03-6.519-0.03c3.249-4.049,6.528-8.043,9.798-11.968c3.279-3.924,6.507-7.74,9.684-11.489
		c1.131-1.358,2.085-2.271,2.875-2.738c0.767-0.479,1.588-0.385,2.449,0.27c0.861,0.676,1.961,2.035,3.321,4.079l3.81-1.775
		l-14.126-30.315l-3.819,1.786c0.467,1.45,0.758,2.751,0.965,3.87c0.156,1.121,0.125,2.212-0.093,3.25
		c-0.198,1.066-0.706,2.209-1.433,3.466c-0.706,1.276-1.764,2.761-3.113,4.493c-2.533,3.229-4.795,6.112-6.82,8.687
		c-2.014,2.575-3.85,4.89-5.469,6.976c-1.641,2.034-3.166,3.901-4.567,5.584c-1.39,1.682-2.729,3.248-4.006,4.691
		c-0.519,0.559-1.006,1.047-1.483,1.483c-0.478,0.435-1.007,0.852-1.641,1.233c-0.612,0.385-1.401,0.801-2.355,1.245l-13.295,6.206
		c-2.429,1.143-4.412,1.951-5.969,2.451c-1.566,0.479-2.864,0.561-3.923,0.27c-1.038-0.289-2.013-1.008-2.937-2.14
		c-0.903-1.141-1.941-2.76-3.104-4.855l-3.819,1.786l16.066,34.476l3.819-1.783c-0.895-2.378-1.495-4.327-1.795-5.813
		c-0.322-1.505-0.27-2.78,0.166-3.777c0.447-1.007,1.329-1.962,2.688-2.833c1.37-0.861,3.27-1.869,5.698-2.979l14.707-6.851
		c1.308-0.622,2.408-1.059,3.28-1.317c0.861-0.271,1.692-0.436,2.49-0.498c0.811-0.063,1.786-0.104,2.896-0.125
		c3.362,0.021,6.362,0.052,8.967,0.104c2.625,0.042,5.034,0.114,7.203,0.197c2.2,0.082,4.328,0.196,6.382,0.288
		c2.076,0.115,4.245,0.251,6.487,0.386c2.253,0.177,4.142,0.404,5.636,0.704c1.495,0.283,2.781,0.729,3.818,1.289
		c1.039,0.569,1.973,1.326,2.813,2.305c0.851,0.974,1.702,2.188,2.584,3.704L1107.923,1188.754z"/>
	<path fill="#793B2B" d="M1071.993,1282.183l3.539-2.293c-1.027-1.889-1.723-3.427-2.106-4.702
		c-0.385-1.274-0.416-2.364-0.063-3.361c0.352-0.955,1.09-1.952,2.271-2.938c1.162-1.026,2.803-2.17,4.919-3.519l41.101-26.704
		c2.188-1.441,3.995-2.513,5.417-3.219c1.421-0.685,2.646-0.996,3.653-0.923c1.039,0.062,2.044,0.551,3.01,1.411
		c0.976,0.893,2.138,2.2,3.446,3.912l3.539-2.293l-19.18-29.548l-3.539,2.282c1.017,1.89,1.723,3.437,2.117,4.69
		c0.416,1.258,0.436,2.348,0.103,3.332c-0.353,0.967-1.121,1.974-2.335,2.989c-1.194,1.038-2.917,2.252-5.127,3.654l-41.11,26.703
		c-2.106,1.401-3.86,2.396-5.282,3.083c-1.402,0.644-2.605,0.943-3.623,0.861c-1.007-0.114-2.034-0.602-3-1.464
		c-0.996-0.884-2.127-2.138-3.414-3.799l-3.529,2.294L1071.993,1282.183z"/>
	<path id="B_颜色修正_1_" fill="#793B2B" d="M1188.025,1300.989c-0.186-1.839-0.665-3.687-1.39-5.533
		c-0.758-1.879-1.795-3.818-3.166-5.843c-1.37-2.024-3.071-4.225-5.126-6.581l-22.448-25.821l-3.176,2.771
		c1.287,1.723,2.22,3.195,2.781,4.41c0.571,1.152,0.747,2.271,0.529,3.277c-0.218,1.008-0.852,2.098-1.91,3.261
		c-1.049,1.172-2.574,2.604-4.546,4.296l-36.803,31.988c-1.941,1.723-3.57,3.021-4.888,3.881c-1.329,0.872-2.522,1.317-3.571,1.359
		c-1.068,0.043-2.169-0.343-3.341-1.12c-1.141-0.79-2.543-2.004-4.151-3.612l-3.187,2.781l19.429,22.334
		c2.148,2.502,4.391,4.775,6.726,6.861c2.304,2.065,4.65,3.85,7.037,5.364c2.377,1.507,4.754,2.658,7.13,3.437
		c2.378,0.788,4.774,1.202,7.225,1.245c2.459,0.042,4.899-0.375,7.317-1.245c2.418-0.842,4.754-2.253,7.006-4.184
		c2.947-2.584,4.826-5.479,5.635-8.707c0.81-3.218,0.736-6.621-0.259-10.214c-0.976-3.59-2.698-7.255-5.168-11.021l0.278-0.247
		c1.755,1.348,3.696,2.521,5.771,3.528c2.076,1.007,4.256,1.691,6.549,2.015c2.273,0.352,4.598,0.227,6.892-0.406
		c2.335-0.611,4.608-1.856,6.839-3.767c2.326-2.046,3.986-4.31,4.962-6.799C1188.015,1306.188,1188.348,1303.624,1188.025,1300.989z
		 M1142.827,1331.657c-2.481,2.128-4.847,3.633-7.121,4.504c-2.303,0.894-4.432,1.276-6.425,1.204
		c-1.972-0.114-3.757-0.528-5.365-1.339c-1.588-0.777-2.917-1.814-3.996-3.069c-1.339-1.507-2.148-2.948-2.397-4.318
		c-0.26-1.358,0.072-2.781,0.986-4.244c0.902-1.494,2.449-3.187,4.629-5.043l18.412-15.994l1.67,1.929
		c4.194,4.827,6.279,9.456,6.258,13.908C1149.458,1323.635,1147.237,1327.796,1142.827,1331.657z M1175.79,1293.173
		c-0.125,1.713-0.728,3.498-1.765,5.365c-1.038,1.839-2.646,3.706-4.764,5.573c-4.038,3.56-7.826,5.199-11.344,4.897
		c-3.517-0.28-7.108-2.521-10.689-6.715l-1.931-2.21l18.017-15.661c1.256-1.09,2.314-1.867,3.176-2.376
		c0.882-0.479,1.607-0.675,2.18-0.602c0.498,0.051,1.1,0.3,1.775,0.715c0.685,0.396,1.473,1.069,2.292,2.014
		c1.08,1.215,1.869,2.573,2.429,4.09C1175.727,1289.789,1175.934,1291.438,1175.79,1293.173z"/>
	<path fill="#793B2B" d="M1192.209,1408.957l2.759-3.177c-1.494-1.535-2.594-2.831-3.311-3.954
		c-0.727-1.109-1.048-2.148-0.985-3.195c0.063-1.019,0.508-2.18,1.371-3.457c0.851-1.298,2.097-2.863,3.747-4.743l32.164-36.987
		c1.701-1.993,3.145-3.53,4.328-4.599c1.172-1.06,2.263-1.691,3.249-1.899c1.017-0.22,2.116-0.021,3.28,0.539
		c1.184,0.582,2.656,1.525,4.39,2.813l2.771-3.186l-26.589-23.112l-2.771,3.175c1.504,1.537,2.594,2.824,3.342,3.912
		c0.736,1.101,1.068,2.159,1.005,3.188c-0.063,1.027-0.519,2.188-1.412,3.519c-0.871,1.317-2.201,2.969-3.922,4.92l-32.152,37.01
		c-1.641,1.91-3.053,3.372-4.235,4.4c-1.162,1.017-2.231,1.641-3.249,1.826c-1.005,0.166-2.116,0-3.289-0.571
		c-1.194-0.569-2.637-1.473-4.317-2.708l-2.76,3.176L1192.209,1408.957z"/>
	<path fill="#793B2B" d="M1332.714,1402.929l-24.348-15.215l-2.169,3.466c2.241,1.518,3.87,2.916,4.939,4.183
		c1.06,1.268,1.649,2.491,1.755,3.706c0.103,1.215-0.179,2.502-0.811,3.901c-0.529,1.152-1.214,2.605-2.096,4.339
		c-0.883,1.733-1.982,3.788-3.334,6.145c-1.338,2.387-2.967,5.104-4.908,8.209l-11.831,18.932l-0.437-0.26l-6.33-68.384
		l-18.506-11.563l-2.169,3.466c1.392,1.009,2.513,2.024,3.332,3.011c0.819,0.966,1.443,1.993,1.816,3.041
		c0.362,1.049,0.602,2.212,0.653,3.444c0.063,0.841,0.031,1.642-0.104,2.42c-0.156,0.759-0.436,1.577-0.852,2.48
		c-0.403,0.9-0.985,1.939-1.7,3.177c-0.737,1.213-1.672,2.707-2.771,4.481l-14.146,22.614c-2.844,4.507-5.263,8.148-7.286,10.94
		c-2.004,2.771-3.654,4.929-4.92,6.423c-0.986,1.288-2.034,2.182-3.165,2.729c-1.121,0.539-2.418,0.676-3.86,0.404
		c-1.443-0.249-3.166-0.935-5.117-1.992l-2.169,3.469l24.691,15.412l2.149-3.457c-2.376-1.649-4.11-3.125-5.158-4.451
		c-1.049-1.339-1.588-2.648-1.619-3.924c-0.01-1.267,0.311-2.635,1.027-4.109c0.81-1.69,2.055-4.068,3.653-7.079
		c1.641-3.009,3.841-6.798,6.653-11.313l14.799-23.716l0.333,0.208l5.625,76.511l5.417,3.385l26.985-43.186
		c1.931-3.104,3.663-5.751,5.221-8.002c1.547-2.265,2.885-4.163,4.079-5.73c1.193-1.535,2.2-2.843,3.04-3.86
		c0.935-1.214,1.93-2.046,2.989-2.531c1.049-0.479,2.263-0.592,3.643-0.281c1.36,0.271,2.979,0.965,4.857,2.024L1332.714,1402.929z"
		/>
	<path fill="#793B2B" d="M1464.179,1448.229l-27.97-8.021l-1.142,4.047c2.615,0.902,4.639,1.827,6.02,2.802
		c1.401,0.978,2.324,2.034,2.76,3.176c0.457,1.152,0.551,2.42,0.342,3.82c-0.207,1.202-0.455,2.615-0.777,4.192
		c-0.332,1.618-0.758,3.55-1.307,5.802c-0.552,2.295-1.277,5.002-2.181,8.168l-4.13,14.354c-2.813,9.923-6.413,16.835-10.784,20.779
		c-4.348,3.933-9.558,5-15.618,3.259c-5.875-1.691-9.59-5.148-11.178-10.35c-1.588-5.188-1.132-12.109,1.359-20.757l8.531-29.694
		c0.727-2.623,1.412-4.68,2.034-6.205c0.664-1.494,1.358-2.574,2.169-3.207c0.799-0.633,1.838-0.955,3.082-0.966
		c1.245,0,2.854,0.188,4.816,0.571l1.162-4.048l-33.243-9.537l-1.173,4.057c1.952,0.729,3.509,1.443,4.607,2.118
		c1.102,0.685,1.827,1.525,2.211,2.49c0.373,0.965,0.416,2.263,0.168,3.871c-0.261,1.631-0.77,3.736-1.547,6.352l-8.656,30.182
		c-1.338,4.691-2.222,8.863-2.605,12.506c-0.415,3.674-0.332,6.922,0.239,9.809c0.582,2.864,1.62,5.469,3.176,7.795
		c1.328,2.064,2.916,3.852,4.795,5.375c1.868,1.547,3.923,2.844,6.185,3.902c2.264,1.102,4.619,1.982,7.09,2.678
		c2.678,0.768,5.365,1.163,8.063,1.193c2.72,0.043,5.345-0.301,7.898-0.976c2.563-0.705,4.95-1.743,7.182-3.135
		c2.72-1.815,5.074-4.088,7.088-6.848c2.015-2.742,3.757-5.867,5.251-9.384c1.476-3.52,2.803-7.286,3.944-11.377l3.767-13.116
		c0.924-3.239,1.765-5.938,2.48-8.106c0.729-2.158,1.38-3.984,1.952-5.458c0.581-1.485,1.163-2.855,1.692-4.079
		c0.539-1.339,1.275-2.396,2.209-3.165c0.924-0.768,2.118-1.225,3.582-1.358c1.433-0.146,3.217,0.041,5.313,0.549L1464.179,1448.229
		z"/>
	<path fill="#793B2B" d="M1561.822,1459.657l-28.509-3.488l-0.508,4.048c2.678,0.438,4.741,1.008,6.258,1.712
		c1.494,0.687,2.541,1.548,3.134,2.616c0.624,1.059,0.924,2.335,0.924,3.87c0.021,1.269,0.01,2.886-0.053,4.828
		c-0.083,1.948-0.208,4.264-0.437,6.974c-0.207,2.719-0.529,5.873-0.976,9.496l-2.72,22.18l-0.508-0.063l-34.634-59.303
		l-21.67-2.658l-0.487,4.069c1.692,0.321,3.136,0.759,4.287,1.317c1.151,0.52,2.147,1.203,2.926,1.981
		c0.778,0.812,1.496,1.745,2.056,2.845c0.425,0.736,0.715,1.483,0.923,2.23c0.188,0.749,0.28,1.629,0.28,2.605
		c0,0.996-0.073,2.18-0.208,3.61c-0.146,1.412-0.364,3.165-0.612,5.229l-3.259,26.479c-0.675,5.271-1.328,9.61-1.973,12.982
		c-0.653,3.362-1.235,6.02-1.742,7.908c-0.354,1.588-0.936,2.844-1.713,3.818c-0.81,0.955-1.909,1.629-3.321,1.992
		c-1.433,0.374-3.28,0.498-5.5,0.354l-0.498,4.047l28.885,3.551l0.487-4.059c-2.844-0.478-5.043-1.081-6.559-1.849
		c-1.516-0.769-2.543-1.733-3.125-2.863c-0.539-1.142-0.818-2.522-0.789-4.151c0.021-1.89,0.125-4.557,0.313-7.961
		c0.207-3.414,0.612-7.782,1.245-13.066l3.404-27.741l0.385,0.043l37.425,66.962l6.331,0.777l6.207-50.544
		c0.457-3.633,0.893-6.767,1.35-9.454c0.457-2.71,0.871-5.003,1.286-6.923c0.415-1.89,0.789-3.509,1.121-4.775
		c0.342-1.491,0.882-2.676,1.64-3.569c0.737-0.871,1.807-1.482,3.176-1.783c1.351-0.344,3.113-0.396,5.253-0.221L1561.822,1459.657z
		"/>
	<path fill="#793B2B" d="M1622.131,1538.523l-0.135-4.202c-2.14-0.095-3.83-0.302-5.118-0.623c-1.287-0.334-2.251-0.873-2.905-1.673
		c-0.655-0.799-1.109-1.94-1.37-3.477c-0.26-1.516-0.405-3.52-0.479-6.03l-1.711-48.977c-0.117-2.616-0.093-4.724,0.042-6.3
		c0.135-1.588,0.498-2.793,1.079-3.623c0.592-0.841,1.526-1.452,2.762-1.839c1.265-0.393,2.978-0.694,5.126-0.942l-0.145-4.205
		l-35.207,1.226l0.138,4.206c2.137,0.092,3.829,0.299,5.116,0.59c1.285,0.292,2.24,0.831,2.916,1.651
		c0.633,0.776,1.1,1.95,1.359,3.517c0.25,1.56,0.426,3.676,0.488,6.291l1.712,48.986c0.114,2.521,0.073,4.547-0.092,6.114
		c-0.156,1.523-0.521,2.718-1.122,3.548c-0.623,0.811-1.559,1.441-2.803,1.826c-1.256,0.396-2.928,0.706-5.001,0.955l0.155,4.204
		L1622.131,1538.523z"/>
	<path fill="#793B2B" d="M1718.663,1438.972l-26.809,5.222l0.799,4.131c2.346-0.166,4.184-0.196,5.511,0.012
		c1.358,0.166,2.335,0.612,2.916,1.318c0.633,0.693,0.965,1.74,1.039,3.133c0.071,1.39-0.013,3.206-0.25,5.438
		c-0.281,3.271-0.664,6.859-1.122,10.763c-0.446,3.894-0.987,7.898-1.536,12.019c-0.56,4.144-1.122,8.169-1.723,12.122
		c-0.571,3.944-1.11,7.608-1.651,11.003l-0.25,0.051c-1.202-2.127-2.542-4.483-4.036-7.077c-1.483-2.597-3.052-5.304-4.69-8.127
		c-1.6-2.834-3.238-5.636-4.867-8.438c-1.598-2.813-3.165-5.479-4.608-8.002c-1.474-2.563-2.782-4.835-3.954-6.87
		c-1.164-2.044-2.117-3.706-2.813-5.002c-0.966-1.787-1.495-3.177-1.609-4.225c-0.125-1.007,0.344-1.879,1.372-2.585
		c1.026-0.686,2.832-1.453,5.365-2.251l-0.674-4.151l-34.457,6.694l0.809,4.131c1.732-0.166,3.238-0.178,4.463-0.043
		c1.235,0.156,2.354,0.521,3.363,1.152c1.017,0.612,2.024,1.59,3.062,2.896c1.019,1.33,2.211,3.082,3.521,5.284
		c1.462,2.449,3.228,5.468,5.303,9.009c2.107,3.561,4.41,7.493,6.911,11.76c2.514,4.285,5.117,8.77,7.848,13.419
		c2.719,4.648,5.406,9.31,8.114,13.948c2.679,4.67,5.263,9.133,7.713,13.418l5.636-1.099c0.798-5.438,1.599-10.908,2.429-16.408
		c0.83-5.542,1.671-10.907,2.5-16.149c0.821-5.252,1.62-10.149,2.379-14.737c0.746-4.587,1.451-8.678,2.075-12.247
		c0.601-3.561,1.141-6.445,1.556-8.635c0.562-3.229,1.122-5.834,1.724-7.796c0.592-1.95,1.266-3.477,2.076-4.556
		c0.779-1.101,1.785-1.95,2.957-2.595c1.204-0.622,2.668-1.233,4.434-1.795L1718.663,1438.972z"/>
	<path fill="#793B2B" d="M1813.99,1469.537c-0.041,2.865-0.238,5.386-0.593,7.597c-0.342,2.181-0.809,4.048-1.391,5.626
		c-0.457,1.299-1.163,2.408-2.055,3.363c-0.913,0.985-2.086,1.847-3.549,2.646c-1.453,0.789-3.238,1.545-5.356,2.324
		c-2.149,0.799-4.058,1.41-5.708,1.807c-1.629,0.404-3,0.55-4.079,0.384c-1.122-0.146-2.139-0.912-3.062-2.23
		c-0.914-1.338-1.869-3.384-2.865-6.196l-7.898-21.709l6.829-2.483c2.388-0.882,4.298-1.524,5.78-1.878
		c1.527-0.373,2.771-0.426,3.788-0.146c1.028,0.291,1.993,0.957,2.896,2.015c0.926,1.037,1.982,2.53,3.166,4.505l4.08-1.484
		l-8.563-23.517l-4.067,1.504c0.332,2.221,0.467,4.026,0.436,5.419c-0.041,1.38-0.362,2.488-0.986,3.351
		c-0.59,0.872-1.586,1.632-2.967,2.325c-1.381,0.676-3.26,1.434-5.614,2.263l-6.839,2.49l-9.165-25.188
		c-0.489-1.286-0.747-2.272-0.779-2.978c-0.021-0.687,0.229-1.236,0.759-1.644c0.539-0.394,1.431-0.798,2.655-1.225l4.317-1.577
		c2.408-0.882,4.484-1.483,6.145-1.827c1.692-0.343,3.094-0.445,4.234-0.319c1.131,0.133,2.107,0.454,2.906,0.974
		c1.246,0.696,2.511,1.734,3.758,3.094c1.244,1.359,2.572,3.03,3.943,4.981l3.892-1.974c-0.748-1.689-1.505-3.403-2.293-5.137
		c-0.779-1.74-1.515-3.401-2.212-4.96c-0.694-1.577-1.307-2.937-1.814-4.1c-0.529-1.163-0.894-2.004-1.121-2.513l-51.686,18.815
		l1.441,3.966c1.92-0.527,3.53-0.86,4.775-0.996c1.255-0.146,2.303,0.041,3.155,0.551c0.871,0.477,1.64,1.41,2.365,2.75
		c0.728,1.37,1.525,3.249,2.396,5.708l16.979,46.653c0.901,2.438,1.496,4.379,1.814,5.903c0.291,1.496,0.229,2.75-0.176,3.705
		c-0.416,0.968-1.234,1.828-2.459,2.616c-1.215,0.813-2.906,1.691-5.033,2.669l1.441,3.963l55.775-20.3
		c-0.063-0.801-0.188-1.816-0.344-3.094c-0.167-1.275-0.333-2.688-0.55-4.215c-0.24-1.558-0.458-3.125-0.695-4.701
		c-0.26-1.589-0.497-3.082-0.737-4.482c-0.237-1.412-0.436-2.605-0.653-3.612L1813.99,1469.537z"/>
	<path id="R_颜色修正_1_" fill="#793B2B" d="M1918.335,1432.436c-1.225,0.207-2.625,0.238-4.213,0.021
		c-1.598-0.178-3.362-0.604-5.333-1.287c-1.153-0.344-2.408-0.81-3.769-1.392c-1.371-0.582-2.947-1.298-4.69-2.181
		c-1.755-0.893-3.759-1.962-6.042-3.196c-1.546-0.841-3.186-1.766-4.93-2.729c-1.691-0.997-3.373-1.963-5.033-2.959
		c-1.651-0.985-3.146-1.92-4.526-2.813c-1.338-0.884-2.438-1.642-3.29-2.264c1.784-2.427,3.155-5.043,4.089-7.74
		c0.936-2.729,1.277-5.554,0.997-8.491c-0.281-2.945-1.329-5.966-3.156-9.061c-2.021-3.311-4.369-5.78-7.066-7.41
		c-2.678-1.618-5.564-2.489-8.667-2.646c-1.857-0.072-3.745,0.083-5.688,0.478c-1.931,0.385-4.006,1.06-6.206,1.993
		c-2.18,0.955-4.607,2.241-7.255,3.829l-29.309,17.622l2.168,3.604c1.858-0.895,3.403-1.494,4.639-1.868
		c1.256-0.363,2.356-0.363,3.281-0.021c0.932,0.313,1.878,1.069,2.813,2.243c0.943,1.161,2.086,2.843,3.361,5.021l25.387,42.23
		c1.35,2.212,2.334,4.069,2.959,5.521c0.631,1.473,0.871,2.729,0.727,3.777c-0.135,1.049-0.664,2.065-1.608,3.053
		c-0.955,0.965-2.323,2.084-4.131,3.332l2.17,3.609l30.306-18.204l-2.17-3.61c-1.908,0.985-3.518,1.649-4.785,2.022
		c-1.295,0.354-2.418,0.343-3.402-0.041c-0.977-0.384-1.95-1.193-2.928-2.451c-1.006-1.243-2.148-2.987-3.467-5.219l-9.787-16.306
		l1.856-1.108c1.049-0.604,2.097-0.946,3.032-1.02c0.975-0.082,1.96,0.063,2.957,0.457c0.986,0.405,2.097,1.008,3.258,1.838
		c2.078,1.38,4.143,2.709,6.217,4.007c2.086,1.328,4.111,2.594,6.071,3.777c1.994,1.193,3.862,2.24,5.626,3.197
		c2.098,1.129,4.09,1.972,5.968,2.554c1.878,0.569,3.8,0.841,5.781,0.758c1.993-0.053,4.204-0.508,6.674-1.339
		c2.417-0.842,5.251-2.116,8.468-3.829c0.674-0.404,1.34-0.779,2.047-1.152c0.664-0.354,1.287-0.706,1.846-1.037L1918.335,1432.436z
		 M1867.597,1414.676c-0.55,1.649-1.402,3.124-2.563,4.42c-1.204,1.288-2.803,2.555-4.857,3.759l-2.969,1.786l-15.775-26.259
		c-0.717-1.193-1.184-2.098-1.391-2.739c-0.238-0.654-0.313-1.203-0.208-1.66c0.114-0.509,0.437-1.079,0.976-1.683
		c0.551-0.581,1.4-1.224,2.512-1.91c1.423-0.87,2.979-1.409,4.701-1.702c1.723-0.259,3.539-0.123,5.428,0.416
		c1.9,0.539,3.779,1.618,5.688,3.218c1.89,1.599,3.717,3.831,5.48,6.725c1.743,2.896,2.875,5.657,3.384,8.282
		C1868.521,1409.943,1868.396,1412.413,1867.597,1414.676z"/>
	<path fill="#793B2B" d="M1942.177,1336.92c-2.854-2.491-5.365-4.691-7.525-6.652c-2.19-1.94-4.131-3.758-5.821-5.47
		c-1.068,0.416-2.388,0.955-3.955,1.683c-1.588,0.716-3.279,1.565-5.084,2.646c-1.808,1.049-3.592,2.294-5.346,3.737
		c-3.373,2.854-5.946,5.822-7.765,8.955c-1.793,3.111-2.873,6.279-3.238,9.443c-0.362,3.177-0.103,6.248,0.843,9.229
		c0.954,2.978,2.512,5.759,4.659,8.313c1.961,2.324,4.172,4.088,6.589,5.302c2.409,1.227,5.014,2.016,7.795,2.355
		c2.771,0.354,5.698,0.406,8.739,0.146c3.062-0.259,6.206-0.705,9.465-1.329c3.384-0.592,6.445-0.88,9.145-0.839
		c2.707,0.041,5.105,0.485,7.191,1.348c2.096,0.83,3.921,2.188,5.468,4.018c1.642,1.981,2.722,4.018,3.229,6.103
		c0.509,2.107,0.416,4.121-0.229,6.072c-0.643,1.961-1.89,3.694-3.716,5.264c-1.764,1.463-3.685,2.418-5.749,2.938
		c-2.056,0.496-4.142,0.652-6.322,0.435c-2.147-0.208-4.274-0.646-6.36-1.328c-2.087-0.686-4.058-1.474-5.875-2.354
		c-1.837-0.902-3.466-1.816-4.878-2.698l-2.407,3.86c1.38,1.286,2.802,2.625,4.317,3.975c1.525,1.38,2.988,2.657,4.432,3.924
		c1.473,1.245,2.813,2.357,4.006,3.291c1.225,0.934,2.221,1.618,3.021,2.064c1.006-0.26,2.106-0.603,3.319-1.007
		c1.195-0.426,2.627-0.976,4.246-1.682c1.567-0.716,3.176-1.577,4.826-2.604c1.64-1.018,3.299-2.209,4.971-3.602
		c3.384-2.875,6.04-5.938,7.949-9.218c1.921-3.237,3.114-6.548,3.592-9.921c0.479-3.333,0.261-6.602-0.644-9.767
		c-0.893-3.186-2.471-6.103-4.711-8.79c-2.689-3.188-5.75-5.396-9.104-6.653c-3.372-1.267-7.045-1.814-11.032-1.69
		c-3.974,0.124-8.239,0.674-12.807,1.661c-3.663,0.717-6.819,1.121-9.507,1.213c-2.698,0.084-5.022-0.27-6.994-1.037
		c-1.973-0.758-3.727-2.045-5.264-3.892c-1.597-1.932-2.594-3.912-3-5.989c-0.424-2.054-0.311-4.016,0.291-5.874
		c0.623-1.868,1.725-3.443,3.25-4.763c1.848-1.525,3.789-2.48,5.75-2.844c1.98-0.363,3.934-0.312,5.945,0.146
		c1.973,0.479,3.924,1.202,5.875,2.148c1.922,0.976,3.789,2.015,5.573,3.113L1942.177,1336.92z"/>
	<path fill="#793B2B" d="M2034.972,1332.985l-3.125-2.813c-1.546,1.453-2.863,2.543-4.005,3.238
		c-1.112,0.705-2.18,1.017-3.219,0.943c-1.008-0.093-2.169-0.562-3.437-1.442c-1.275-0.861-2.823-2.147-4.67-3.839l-36.43-32.786
		c-1.95-1.734-3.455-3.218-4.514-4.401c-1.028-1.203-1.651-2.305-1.838-3.301c-0.197-1.016,0.013-2.105,0.603-3.268
		c0.603-1.185,1.567-2.626,2.865-4.338l-3.125-2.813l-23.569,26.174l3.133,2.824c1.547-1.474,2.854-2.556,3.965-3.271
		c1.099-0.727,2.157-1.037,3.207-0.955c1.006,0.082,2.181,0.562,3.486,1.483c1.307,0.896,2.928,2.231,4.867,3.996l36.419,32.798
		c1.89,1.682,3.312,3.102,4.34,4.307c0.985,1.185,1.576,2.273,1.765,3.279c0.154,0.996-0.043,2.117-0.625,3.29
		c-0.592,1.173-1.535,2.595-2.791,4.267l3.125,2.823L2034.972,1332.985z"/>
	<path fill="#793B2B" d="M2045.392,1217.016c-1.712-1.007-3.478-2.033-5.345-3.144c-1.838-1.111-3.687-2.201-5.47-3.291
		c-1.826-1.08-3.507-2.127-5.055-3.094c-1.567-0.945-2.916-1.808-4.025-2.512l-1.786,2.646c0.509,1.372,0.677,2.605,0.529,3.696
		c-0.166,1.088-0.664,2.251-1.526,3.486l-24.688,36.604c-0.645,0.935-1.225,1.691-1.797,2.232c-0.592,0.569-1.215,0.954-1.941,1.213
		c-0.716,0.239-1.628,0.362-2.708,0.385l-1.692,2.543c1.744,1.225,3.644,2.646,5.688,4.203c2.044,1.588,4.19,3.229,6.414,4.961
		c2.21,1.755,4.431,3.478,6.672,5.199l2.44-3.592c-1.973-2.148-3.592-4.077-4.899-5.813c-1.286-1.721-2.158-3.278-2.554-4.605
		c-0.332-0.968-0.426-1.951-0.322-2.979c0.104-1.038,0.488-2.241,1.134-3.592c0.663-1.37,1.629-2.989,2.928-4.919l2.573-3.801
		l50.057,33.763c2.17,1.433,3.808,2.646,4.99,3.735c1.173,1.039,1.891,2.057,2.169,3.104c0.281,1.026,0.155,2.241-0.353,3.602
		c-0.52,1.37-1.379,3.104-2.584,5.188l3.486,2.355l21.204-31.428l-3.487-2.365c-1.537,1.974-2.864,3.487-3.985,4.547
		c-1.09,1.017-2.188,1.607-3.259,1.766c-1.09,0.144-2.305-0.126-3.726-0.813c-1.423-0.715-3.198-1.772-5.335-3.235l-50.046-33.771
		l3.218-4.757c1.401-2.105,2.729-3.745,4.006-4.896c1.268-1.142,2.625-1.828,4.027-2.005c1.411-0.186,3.164-0.041,5.251,0.469
		c2.097,0.476,4.64,1.338,7.649,2.551L2045.392,1217.016z"/>
	<path fill="#793B2B" d="M2073.372,1121.604l-11.862,24.316l3.788,1.857c1.184-1.898,2.211-3.331,3.083-4.275
		c0.851-0.986,1.629-1.566,2.313-1.754c0.717-0.207,1.412-0.084,2.127,0.384c0.696,0.447,1.516,1.153,2.42,2.118
		c1.63,1.68,3.301,3.539,5.063,5.563c1.744,2.035,3.487,4.09,5.21,6.195c1.713,2.086,3.352,4.09,4.899,6.021
		c1.526,1.908,2.876,3.609,4.077,5.096c-5.209,0.021-10.366-0.011-15.474-0.084c-5.096-0.094-10.108-0.186-15.019-0.312
		c-1.773-0.012-3.083-0.177-3.943-0.498c-0.861-0.302-1.298-0.977-1.337-2.065c0-1.099,0.36-2.813,1.101-5.146l-3.789-1.857
		l-14.666,30.056l3.776,1.85c0.841-1.269,1.661-2.326,2.418-3.177c0.759-0.842,1.631-1.494,2.575-1.983
		c0.964-0.507,2.148-0.839,3.59-1.067c1.443-0.236,3.27-0.363,5.46-0.425c4.101-0.051,7.772-0.104,11.032-0.146
		c3.27-0.052,6.228-0.094,8.874-0.125c2.616-0.02,5.014-0.011,7.202,0.012c2.191,0.031,4.246,0.084,6.166,0.166
		c0.768,0.043,1.465,0.125,2.096,0.229c0.645,0.094,1.309,0.249,2.004,0.488c0.676,0.238,1.495,0.591,2.429,1.059l13.202,6.436
		c2.408,1.15,4.296,2.189,5.667,3.093c1.349,0.914,2.222,1.869,2.657,2.865c0.436,0.985,0.498,2.199,0.197,3.632
		c-0.322,1.443-0.924,3.249-1.816,5.47l3.8,1.837l16.667-34.176l-3.775-1.847c-1.287,2.178-2.43,3.881-3.395,5.063
		c-0.966,1.185-2.004,1.932-3.041,2.232c-1.059,0.29-2.367,0.197-3.892-0.313c-1.538-0.509-3.52-1.351-5.906-2.543l-14.571-7.12
		c-1.298-0.623-2.346-1.203-3.093-1.711c-0.748-0.51-1.412-1.049-1.952-1.619c-0.559-0.593-1.203-1.318-1.918-2.189
		c-2.107-2.616-3.977-4.96-5.572-7.026c-1.621-2.064-3.063-3.976-4.369-5.729c-1.318-1.753-2.586-3.487-3.799-5.138
		c-1.214-1.672-2.471-3.455-3.789-5.271c-1.268-1.868-2.283-3.466-2.989-4.825c-0.728-1.339-1.185-2.615-1.401-3.776
		c-0.208-1.173-0.219-2.378,0.021-3.644c0.217-1.268,0.633-2.697,1.246-4.339L2073.372,1121.604z"/>
	<path id="院_颜色修正_1_" fill="#793B2B" d="M2021.853,459.085c-5.572-1.878-11.562-3.072-16.78-1.338
		c-2.813-0.125-3.882-2.015-4.007-3.757c0.943-1.683,2.521-3.841,1.193-7.068c-2.502-1.183-5.066-0.498-7.474,1.1
		c-19.097,22.543-40.165,38.287-59.479,56.305c-3.332,8.396-2.272,12.65,2.107,15.215c12.932-13.762,24.432-28.696,38.848-41.234
		c3.994,4.815,0.933,10.007,2.521,14.291c1.225,1.724,18.537,0.646,19.47-5.603c0.656-3.903-1.703-7.909,1.351-11.78
		c3.34-3.84,24.131-0.373,24.41-4.099C2025.476,466.964,2026.699,463.61,2021.853,459.085z M1999.476,468.146
		c-2.811,2.563-3.882,6.817-6.568,10.005c-1.182,4.938-5.749,5.749-8.407,8.156c-1.026-3.467-2.376-5.614-3.062-7.878l1.91-7.463
		l11.832-11.851c4.131,2.501,10.264,3.321,13.721,5.979C2004.781,464.96,2003.067,467.493,1999.476,468.146z"/>
	<path fill="#793B2B" d="M1982.228,503.786c4.192-3.063,42.615,22.022,49.631,34.676c-0.498,3.756-25.553,1.888-27.709,0.29
		c-0.293-0.281-0.406-5.221-3.592-3.902c-7.067,3.621-16.979,11.096-16.576,16.813c16.171,36.17,50.596,50.316,68.612,20.841
		c-0.965,11.592-6.682,21.068-6.019,28.406c0.146,2.543-3.85,3.852-7.856,4.67c-34.323,6.809-71.259-46.121-64.866-57.601
		c0.373-3.634,20.662-17.779,17.479-18.6c-16.004-3.694-28.946-3.312-35.35-4.4c-4.535-0.528-5.096-5.844-3.476-6.912
		c5.345-2.655,32.567,1.068,42.292,4.4c-2.531-3.59-14.156-10.149-16.169-13.223
		C1977.608,507.907,1979.155,505.778,1982.228,503.786z"/>
	<path fill="#793B2B" d="M2005.724,498.462c11.76,3.687,22.158,7.97,29.361,20.779c-0.665,3.601-5.979,4.421-8.137,2.813
		C2018.822,514.995,1998.792,502.966,2005.724,498.462z"/>
	<path fill="#793B2B" d="M2049.646,494.05c3.967-4.284,8.119-11.384-0.164-21.223c-2.657-3.207-3.561,10.006-11.718,14.665
		l-11.095-6.54c-0.249-1.618,1.744-4.12-1.723-4.897c-15.993-2.438-31.354,2.791-24.432,13.19c4.557,2.938,15.62-7.067,20.799-4.006
		c13.762,7.315,27.118,17.715,37.685,29.341c3.062,8.696-4.452,4.131-6.944,4.005c-5.344-0.28,5.314,14.946,13.057,15.995
		C2082.329,514.984,2045.36,495.08,2049.646,494.05z"/>
	<path fill="#793B2B" d="M1775.04,341.59c0.001-0.017,0.005-0.036,0.006-0.053c-0.07-0.027-0.143-0.055-0.212-0.082L1775.04,341.59z
		"/>
	<path id="学_颜色修正_1_" fill="#793B2B" d="M1775.046,341.538c-0.001,0.017-0.005,0.036-0.006,0.053l-0.206-0.135
		C1774.904,341.482,1774.976,341.511,1775.046,341.538c0.625-8.32,29.491-32.353,24.934-33.523
		c-7.141-5.987-15.795-6.392-26.453-2.387c-1.774,0.624-0.903,4.1,0.311,5.158c1.09,1.276,7.078,1.93,7.576,3.176
		c0.322,1.287,0.82,3.312,0.104,5.044c-4.025-2.106-8.168-3.228-10.97-2.533c-2.459,1.744-4.235,4.744-3.776,6.58
		c1.556,1.526,5.021-0.104,6.662,2.638c-1.433,2.854-3.955,4.44-6.175,6.352c-0.042-0.166-0.084-0.353-0.116-0.519
		c-3.319-2.314-5.541-5.055-6.496-8.904l4.039-4.868c0.882-0.996,1.982-3.042,1.307-4.837c1.423,1.007,3,1.806,4.64,2.949
		c1.255,0.467,4.608,0.592,3.55-2.065c-3.903-2.489-6.487-5.759-7.316-10.024l4.577-5.781c1.608-2.169,3.373-6.112-1.442-8.978
		c-2.48-1.34-5.688,6.829-8.324,6.528c-1.565-2.521-1.442-5.885-4.525-7.441c-4.348-0.291-6.454,2.968-5.333,6.009
		c0.041,3.269,2.25,5.044,3.653,7.618c0.217,1.712-7.578,2.459-10.537,3.776c-0.372,0.105-0.508,0.313-0.685,0.354
		c4.474-10.981,10.243-20.612,7.649-21.692c-0.85-2.532-6.403-2.335-9.672,0.259c-4.806,8.729-11.084,36.928-6.86,46.768
		c-0.229,0.051-0.56,0.146-0.776,0.01l-0.563,0.136c-6.092-8.771,2.491-31.531-0.527-31.926c-1.132-1.484-4.568-0.456-6.177,1.712
		c-1.433,6.009-0.747,22.906,3.041,29.569l-15.144-2.294c-1.432-1.745-0.362-5.336-5.697-4.973
		c-23.186,4.557-39.76,17.581-23.083,26.88c8.169,1.671,15.61-15.33,24.89-14.125c23.57,2.729,48.653,8.957,70.969,18.184
		c10.192,8.957-2.959,6.974-6.394,8.013c-7.41,2.241,17.633,15.484,28.739,13.284
		C1809.858,357.538,1791.075,347.677,1775.046,341.538z M1763.374,337.698c-2.511-0.758-4.846-1.547-6.145-1.993
		c-2.326-0.977-10.451-3.063-17.073-3.924c-2.335-6.258-0.208-14.936,2.833-23.063c0.436,0.083,0.871,0.374,1.462,0.405
		l13.888-2.065c1.266,1.236,2.48,2.306,4.087,3.271c-1.887,1.018-4.243,5.511-6.05,5.376c-1.266-2.014-1.213-4.94-3.912-6.414
		c-3.748-0.259-5.345,2.688-4.754,5.044c0.166,3.063,2.252,4.504,3.177,6.591c0.373,1.452-6.466,2.199-8.894,3.394
		c-2.918,1.482-2.43,2.739-0.406,3l11.997-1.786c3.044,2.947,6.478,5.013,10.203,7.598c0.467,0.238,1.464,0.405,2.2,0.229
		C1764.713,334.439,1763.901,335.798,1763.374,337.698z"/>
	<path fill="#793B2B" d="M1719.108,345.741c15.714-1.765,30.814-0.438,43.674,5.895c6.859,5.864,7.847,9.902,5.397,12.454
		l-18.019,5.065l-0.29,4.349c6.548,4.391,20.104,3.353,30.514,10.119c1.826,4.234-0.914,9.744-3.321,9.382
		c-5.086-0.115-23.27-9.227-29.061-7.565c-4.566,24.805-14.695,36.46-19.305,35.878c-9.061-4.399-15.973-11.021-20.643-25.987
		c11.167,9.061,17.654,11.737,18.185,9.061c2.5-0.207,7.69-8.313,8.758-19.646c-2.542-10.255-25.396-6.748-36.366-10.223
		c-6.818-1.642-7.814-7.993,4.869-9.394c10.223,1.932,20.384,5.47,30.637,6.798c1.318-1.868-0.322-5.147-0.705-7.607l9.756,0.914
		c1.918-0.894,3.873-3.104,1.764-6.093C1740.25,354.117,1712.301,355.975,1719.108,345.741z"/>
	<path fill="#793B2B" d="M1359.356,291.263c16.023-5.044,22.053,2.99,25.166,9.538c-0.818,5.667,41.422-28.271,55.94,0.811
		c-5.002,8.573-28.634,14.146-25.407,7.99c1.286-3.081,10.191-9.589-1.381-10.098c-19.209,6.777-37.996,17.582-53.729,30.358
		c-6.092,4.784,0.063,22.2-5.584,25.987c-15.962,3.663-14.292-16.574-3.57-34.385c3.112-3.663,4.743-0.249,6.704,0.271
		l13.285-10.088C1369.671,300.044,1354.188,293.09,1359.356,291.263z"/>
	<path fill="#793B2B" d="M1401.959,362.648c-2.003-0.083-3.237-1.849-1.565-5.637c4.772-5.697,9.933-10.897,15.422-11.25
		c5.313,2.533,15.039,35.277,17.996,52.661c1.961,5.542,12.424,7.431,15.08,12.684c1.235,4.577-6.248,6.61-10.701,7.006
		c-6.518-2.521-15.578-7.712-19.666-11.479c-5.896,4.287-6.892,18.434-11.998,20.467c-3.56,0.645-3.965-2.209-2.854-6.402
		c1.421-3.924,2.646-7.732,4.183-11.884c1.037-1.577,0.644-4.441-0.467-4.233c-3.125,0.311-5.979,0.694-9.008,1.151
		c-2.47-0.706-4.121-5.947-1.495-6.445c3.581-0.093,6.177-2.979,7.961-5.211c-3.362-9.029-7.659-17.728-9.622-27.254
		c0.728-2.459,2.586-2.886,4.67-3.249c1.006,0.063,1.951,4.329,3.207,5.105c1.951,0.488,4.682-1.474,6.787-1.225
		c1.547,1.038,2.512,3.134,2.2,4.607c-1.1,1.433-2.076,3.177-3.217,4.992c-0.655,1.588-1.36,4.65,1.048,3.612
		c1.307-1.454,2.678-1.567,3.912-1.381c1.359,0.924,2.491,3.093,1.588,3.83c-2.169,0.776-5.355,2.512-5.917,3.694
		c0.447,1.256,0.986,2.282,2.335,3.164c2.221,1.227,5.262,0.146,7.151-3.518c1.421-2.709-0.985-15.267-8.189-27.722
		C1407.252,358.402,1405.25,362.284,1401.959,362.648z"/>
	<path fill="#793B2B" d="M1377.726,364.236c-2.125-0.291-3.352-6.041-3.352-6.041c1.102-6.01,3.073-10.514,7.225-14.179
		c3.125-1.898,5.49,1.484,5.791,3.395C1387.762,351.262,1384.897,361.88,1377.726,364.236z"/>
	<path fill="#793B2B" d="M1387.274,334.615c-6.693-1.433-17.445,6.756-16.906,3.756c3.736-18.889,35.464-25.926,37.177-24.524
		c4.369,1.08,6.58,6.685,3.715,7.701c-7.493,2.034-14.956,4.661-15.961,8.013l3.519,11.199c0.654,1.162,3.176-0.706,3.912-3.166
		c0.737-1.856-1.961-2.74-3.528-5.978c-1.69-3.197,29.517-6.021,31.219,2.792c-0.415,3.342-3.653,6.082-8.043,7.213
		c-5.168-0.944-8.677-4.12-15.537-3.093l-32.735,78.411c-6.6,7.296-8.219,0.468-7.211-4.671
		c4.836-19.097,19.637-38.339,27.597-58.972C1395.349,351.771,1390.522,340.489,1387.274,334.615z"/>
	<path fill="#793B2B" d="M1151.576,464.598c13.036-3.892,5.604,6.892,5.313,10.764c-1.131,7.93,22.667-6.995,25.168-18.475
		c-27.078-27.007-57.622,23.051-58.836,16.709c-6.02-6.07-21.109-12.983-36.802-1.483c-5.169,3.892,18.412,9.236,24.482,18.909
		l-15.724,19.906c-2.303,0.324-5.458-3.009-7.379,1.973c-5.345,23.996,0.249,46.984,16.741,37.196
		c4.95-6.341-8.542-23.443-3.726-31.167C1113.59,498.962,1132.863,479.585,1151.576,464.598z"/>
	<path id="宜_颜色修正_1_" fill="#793B2B" d="M1204.361,518.793c-10.057,8.459-5.937,9.923-18.649,22.678l-32.454-44.223
		c-3.519-3.893-15.288-6.114-22.18,6.455c-13.482,30.835,17.821,50.48,29.548,67.326c3.498,3.934-16.928,19.729-25.397,30.037
		c-4.649,7.793-0.633,13.232,2.169,12.34c9.995-5.055,53.087-60.985,87.232-88.239
		C1233.152,516.417,1218.332,507.73,1204.361,518.793z M1173.911,558.314c-5.293,6.228-8.635-0.146-17.353-9.942
		c1.256-2.979,4.504-3.851,5.034-7.41c1.308-2.055-4.142-6.343-6.685-5.957c-2.179,0.58-3.912,1.806-4.929,4.275
		c-1.775,0.57-4.048-1.683-4.121-4.451c-0.113-2.189,1.599-5.543,5.168-8.822c0.28-2.188-5.812-8.043-7.607-5.397
		c-0.198,1.65-2.398,4.299-4.598,2.762c-2.346-1.64-3.57-4.161-3.799-7.908c0.53-1.806-0.041-3.59,5.397-7.607
		c3.508-2.678,21.184,25.719,31.935,38.631C1176.164,553.117,1175.364,556.333,1173.911,558.314z"/>
	<path fill="#793B2B" d="M1727.494,500.321c-4.462-1.569-8.945-3.095-13.472-4.527c-12.641-4.019-25.53-7.474-38.639-10.349
		c-13.109-2.864-12.391-2.251-24.92-3.581c-28.333,1.889-31.861,31.998-32.039,47.39c-0.25,21.337,1.588,49.165,27.1,54.841
		c6.58,0.479,20.466,3.104,38.037,5.024c39.895,4.316,70.907,6.548,109.795,16.563c16.971,4.369,38.755,15.194,44.214,19.004
		c21.806,15.227,28.313,31.854,30.129,91.884c0.208,6.839-0.136,23.258,0.332,26.982c0.052,0.469,0.094,5.75,0.229,14.802
		c0.135,9.039,0.383,21.837,0.852,37.311c0.479,15.477,1.172,33.639,2.242,53.398c2.324,43.319,2.865,86.216,8.791,129.359
		c4.629,33.75,13.74,86.702,31.717,115.855c25.345,41.078,44.204,38.607,57,21.274c30.762-60.195,48.125-128.373,48.125-200.616
		C2016.985,724.52,1896.417,562.271,1727.494,500.321z"/>
	<path fill="#793B2B" d="M1895.959,1217.523l-0.03,0.021c-0.384,0.416-0.8,0.82-1.203,1.214c-0.404,0.406-0.809,0.812-1.226,1.215
		c-0.414,0.405-0.819,0.811-1.235,1.216c-7.763,7.546-16.293,6.05-26.121,6.061l-9.851,0.011l-9.86,0.012l-9.848,0.011h-9.87
		l-9.839,0.011l-9.859,0.011l-9.86,0.01h-9.851l-9.858,0.013h-9.869l-9.851,0.009l-9.838,0.011l-9.859,0.012h-9.87l-9.851,0.012
		l-9.85,0.01l-9.85,0.011h-9.868l-9.86,0.01h-9.84l-9.859,0.013h-9.859l-9.859,0.011l-9.85,0.011l-9.85,0.01l-9.859,0.013h-9.86
		l-9.859,0.011c-6.704,0.155-21.898,2.594-19.875-16.68h-0.011c0.498-4.805,1.483-9.495,2.927-14.063
		c1.506-4.849,3.487-9.559,5.927-14.135c2.418-4.599,5.271-9.053,8.479-13.391c3.217-4.337,6.81-8.562,10.69-12.682
		c3.892-4.11,8.096-8.137,12.538-12.051c4.441-3.912,9.111-7.741,13.991-11.457c4.878-3.745,9.952-7.391,15.12-10.949
		c5.189-3.569,10.505-7.057,15.892-10.48c5.366-3.414,10.825-6.777,16.272-10.068c5.438-3.301,10.908-6.538,16.305-9.727
		c5.396-3.176,10.752-6.328,15.994-9.423c5.229-3.104,10.346-6.166,15.297-9.194c4.951-3.041,9.704-6.041,14.25-9.029
		c4.536-2.969,8.842-5.938,12.85-8.895c4.006-2.948,7.721-5.886,11.083-8.845c85.363-74.776,17.363-180.473-83.559-135.522
		c0.466-28.043-2.751-51.456-40.373-59.688c141.948-65.985,93.065-205.579-20.136-173.821c0,0-8.197-51.236,9.361-52.202
		c73.667,3.995,179.956,11.717,193.282,120.765c1.171,9.602,2.792,14.292,2.283,43.549c-0.497,29.247-4.743,104.462-0.331,162.964
		c7.492,99.158,35.369,198.399,87.367,237.028l0.259,0.208c1.455,1.058,2.927,2.096,4.401,3.062c0.166,0.104,0.32,0.208,0.478,0.301
		c1.517,0.985,3.021,1.921,4.578,2.793C1909.36,1203.325,1902.841,1210.642,1895.959,1217.523z"/>
	<path fill="#793B2B" d="M1551.692,511.928c-2.223-19.875-12.985-30.161-32.953-31.582c-3.404-0.238-9.278,0.757-12.631,1.338
		s-6.685,1.217-9.994,1.858c-3.321,0.664-6.621,1.35-9.922,2.086c-3.279,0.736-6.569,1.494-9.828,2.304
		c-3.271,0.799-6.508,1.641-9.735,2.512c-3.217,0.883-6.455,1.785-9.651,2.72c-3.196,0.954-6.384,1.919-9.559,2.947
		c-3.176,1.006-6.32,2.055-9.465,3.135c-3.135,1.09-6.248,2.21-9.352,3.341c-3.104,1.163-6.196,2.335-9.269,3.551
		c-3.073,1.224-6.134,2.479-9.165,3.756c-3.041,1.275-6.041,2.595-9.051,3.944c-2.999,1.349-5.967,2.718-8.926,4.129
		c-2.979,1.412-5.926,2.845-8.842,4.328c-2.938,1.476-5.834,2.979-8.709,4.515c-2.885,1.537-5.76,3.104-8.604,4.691
		c-2.854,1.61-5.678,3.239-8.479,4.898c-2.813,1.65-5.604,3.343-8.365,5.055c-2.76,1.723-5.512,3.466-8.23,5.251
		c-2.718,1.774-5.427,3.58-8.105,5.417c-2.688,1.816-5.334,3.695-7.971,5.585c-2.636,1.889-5.252,3.809-7.846,5.76
		c-2.595,1.94-5.148,3.925-7.701,5.927s-5.076,4.026-7.566,6.093c-2.5,2.043-4.98,4.131-7.431,6.247
		c-2.46,2.117-4.878,4.235-7.286,6.413c-2.408,2.159-4.773,4.352-7.129,6.569c-2.356,2.212-4.682,4.453-6.996,6.727
		c-2.304,2.263-4.588,4.558-6.839,6.871c-2.252,2.313-4.473,4.647-6.685,7.025c-2.2,2.365-4.379,4.753-6.528,7.16
		c-68.769,77.238-110.345,178.959-110.324,290.777c0,5.2,0.093,10.39,0.271,15.549c0.187,5.156,0.458,10.306,0.811,15.433
		c0.353,5.106,0.809,10.202,1.349,15.267c0.53,5.055,1.142,10.108,1.848,15.111c0.695,5.023,1.484,10.016,2.366,14.966
		c0.861,4.949,1.814,9.89,2.864,14.778c1.037,4.898,2.148,9.767,3.353,14.604c1.193,4.837,2.48,9.644,3.84,14.416
		c1.349,4.774,2.791,9.519,4.307,14.219c1.515,4.712,3.093,9.372,4.764,14c1.67,4.63,3.415,9.229,5.242,13.795
		c1.806,4.554,3.695,9.068,5.667,13.554c1.961,4.494,3.985,8.957,6.113,13.326c18.578,38.286,47.182,18.774,65.997-24.973
		c27.866-64.782,34.063-140.233,37.134-210.229c2.035-46.392,5.647-90.314,9.935-139.021c4.991-43.465,0.747-85.342,38.078-108.659
		c37.321-23.311,126.516-27.141,155.834-30.307c29.331-3.186,28.862-3.663,42.075-10.357
		C1547.623,572.061,1555.563,546.405,1551.692,511.928z"/>
	<path fill="#793B2B" d="M1678.021,961.909c63.039-49.507,105.977,16.627,35.826,57.009
		C1718.601,993.212,1707.494,968.521,1678.021,961.909z"/>
	<path fill="#793B2B" d="M1583.927,743.947c65.781-51.271,120.145,9.353,36.792,59.033
		C1622.961,776.931,1613.89,747.706,1583.927,743.947z"/>
</g>
<g>
	<path fill="#793B2B" d="M3084.642,532.357c-1.841-39.627-32.246-110.354-121.659-119.604
		c-29.897-2.655,34.506,89.118,25.342,141.28l-115.701,19.62c-8.85-6.065-9.444-27.374-31.438-16.142
		c-92.76,65.966-144.846,162.518-57.954,180.168c36.694-6.47,43.46-107.313,83.89-118.934
		c105.816-29.025,232.067-35.742,342.789-29.131c56.799,27.11-2.152,41.19-15.191,53.587c-28.409,23.75,99.507,46.43,143.723,14.715
		C3329.272,480.67,3069.166,557.989,3084.642,532.357z"/>
	<path fill="#793B2B" d="M6227.332,1219.75h-67.613v10.547c5.504,0.563,9.854,1.302,12.863,2.232c3.154,0.81,5.328,1.951,6.52,3.289
		c1.143,1.354,1.615,3.057,1.354,5.186c-0.211,2.057-0.842,4.658-2.018,7.754c-2.033,5.467-4.313,11.251-6.992,17.422
		c-2.559,6.188-5.223,12.322-8.047,18.479c-2.801,6.152-5.555,11.973-8.021,17.546c-2.613,5.536-4.855,10.441-6.805,14.715
		c-5.713-11.762-11.318-23.453-16.77-34.97c-5.434-11.495-10.691-22.837-15.635-33.825c-1.855-3.99-2.941-7.119-3.152-9.387
		c-0.244-2.232,0.807-4.008,3.152-5.292c2.473-1.178,6.66-2.27,12.725-3.147v-10.547h-83.172v10.547
		c3.717,0.388,6.992,0.984,9.707,1.776c2.699,0.737,5.082,1.987,7.188,3.534c2.137,1.6,4.188,3.901,6.271,6.892
		c1.998,2.951,4.209,6.856,6.623,11.674c4.697,9.158,8.871,17.422,12.586,24.771c3.682,7.279,6.975,13.905,9.953,19.85
		c2.873,5.854,5.557,11.287,7.891,16.207c2.313,4.924,4.484,9.617,6.395,14.029c0.877,1.743,1.508,3.359,1.996,4.906
		c0.439,1.563,0.771,3.201,0.912,5.01c0.211,1.776,0.299,4.009,0.299,6.63v36.638c0.035,6.682-0.229,12.026-0.738,16.068
		c-0.561,4.044-1.768,7.067-3.504,9.124c-1.768,2.093-4.379,3.517-7.92,4.431c-3.576,0.827-8.236,1.495-14.195,1.918v10.512h94.635
		v-10.512c-6.291-0.491-11.32-1.161-15.037-2.094c-3.717-0.809-6.518-2.337-8.305-4.324c-1.807-2.094-3.018-5.116-3.541-9.089
		c-0.527-4.008-0.807-9.354-0.734-16.034v-40.806c0-3.516,0.141-6.364,0.4-8.578c0.385-2.217,0.857-4.204,1.596-6.05
		c0.686-1.915,1.611-4.146,2.752-6.696c3.471-7.684,6.623-14.47,9.432-20.342c2.801-5.926,5.467-11.218,7.99-16.122
		c2.521-4.833,4.924-9.476,7.465-14.03c2.453-4.464,5.027-9.264,7.816-14.187c2.609-4.887,5.082-8.896,7.322-11.99
		c2.209-3.094,4.521-5.537,6.906-7.262c2.35-1.758,5.082-3.093,8.201-3.938c3.084-0.911,6.836-1.579,11.215-1.95v-10.512h0.035
		V1219.75z"/>
	<path fill="#793B2B" d="M5972.973,1269.768c-0.387-4.924-0.666-10.021-1.066-15.438c-0.314-5.361-0.613-10.638-0.947-15.93
		c-0.246-5.256-0.508-10.196-0.701-14.73c-0.279-4.572-0.367-8.544-0.473-11.852h-7.658c-2.277,2.973-4.662,5.028-7.133,6.262
		c-2.418,1.159-5.471,1.772-9.078,1.703h-109.881c-2.77,0-5.115-0.176-7.102-0.631c-1.875-0.459-3.605-1.252-5.15-2.43
		c-1.473-1.159-3.049-2.758-4.521-4.887h-7.641c-0.107,5.379-0.352,11.251-0.736,17.669c-0.402,6.434-0.877,13.15-1.332,20.2
		c-0.508,6.979-1.018,13.978-1.436,21.046h10.848c1.646-7.068,3.381-13.117,5.15-18.216c1.754-5.063,3.75-9.001,5.924-11.707
		c1.541-2.023,3.453-3.622,5.695-4.817c2.314-1.25,5.348-2.145,9.008-2.673c3.717-0.528,8.432-0.773,14.197-0.773h11.441v150.649
		c0.035,6.451-0.229,11.604-0.77,15.54c-0.564,3.869-1.736,6.823-3.473,8.792c-1.719,2.021-4.416,3.479-7.957,4.325
		c-3.557,0.825-8.236,1.495-14.16,1.915v10.514h93.971v-10.514c-6.102-0.42-11.039-1.108-14.725-1.915
		c-3.625-0.846-6.359-2.304-8.201-4.325c-1.818-1.969-3.01-4.923-3.555-8.792c-0.561-3.954-0.844-9.089-0.807-15.54v-150.649h14.301
		c6.344-0.068,11.531,0.424,15.703,1.459c4.188,0.984,7.533,2.866,10.023,5.521c2.313,2.637,4.453,6.47,6.256,11.568
		c1.82,4.938,3.629,11.426,5.537,19.373L5972.973,1269.768z"/>
	<path fill="#793B2B" d="M5732.844,1424.301v-10.514c-5.326-0.42-9.463-1.108-12.615-2.021c-3.189-0.879-5.557-2.338-7.117-4.395
		c-1.578-2.023-2.607-4.941-3.082-8.774c-0.51-3.833-0.736-8.808-0.668-15.119v-122.608c-0.068-6.471,0.158-11.674,0.668-15.559
		c0.453-3.869,1.504-6.805,3.082-8.79c1.578-2.005,3.945-3.464,7.117-4.272c3.152-0.879,7.289-1.528,12.615-1.915v-10.55h-87.625
		v10.55c5.26,0.387,9.379,1.055,12.602,1.915c3.209,0.81,5.52,2.269,7.117,4.272c1.543,1.985,2.596,4.921,3.047,8.79
		c0.527,3.885,0.736,9.088,0.705,15.559v122.608c0.033,6.382-0.246,11.394-0.771,15.276c-0.525,3.833-1.508,6.753-3.086,8.756
		c-1.576,1.951-4.012,3.446-7.113,4.289c-3.191,0.896-7.395,1.567-12.498,1.987v10.514L5732.844,1424.301L5732.844,1424.301z"/>
	<path fill="#793B2B" d="M5562.871,1267.867c-1.418-9.336-2.684-17.563-3.715-24.808c-1.055-7.189-1.824-13.8-2.313-19.795
		c-2.646-1.021-6.064-2.057-10.219-3.253c-4.135-1.214-8.766-2.232-13.914-3.077c-5.117-0.86-10.518-1.284-16.143-1.316
		c-11.008,0.032-20.68,1.579-29.127,4.692c-8.432,3.061-15.492,7.331-21.295,12.815c-5.746,5.504-10.145,11.762-13.123,19.021
		c-2.943,7.243-4.453,15.016-4.453,23.349c0.07,7.596,1.475,14.504,4.104,20.691c2.664,6.226,6.359,11.938,11.076,16.983
		c4.695,5.151,10.145,9.968,16.33,14.397c6.205,4.396,12.865,8.58,19.928,12.57c7.588,4.308,13.881,8.669,19.051,13.081
		c5.082,4.413,8.971,9.158,11.617,14.169c2.629,4.871,3.979,10.426,3.979,16.439c0,6.396-1.227,12.023-3.574,16.806
		c-2.383,4.854-5.82,8.58-10.164,11.254c-4.33,2.706-9.447,4.008-15.439,4.096c-5.783-0.088-11.076-1.231-15.859-3.569
		c-4.697-2.355-9.008-5.432-12.793-9.318c-3.82-3.902-7.168-8.121-10.025-12.745c-2.873-4.694-5.326-9.336-7.359-13.96
		c-2.035-4.658-3.576-8.982-4.801-12.973l-10.814,3.516c0.598,4.676,1.156,9.511,1.895,14.555c0.666,5.029,1.398,9.952,2.207,14.646
		c0.705,4.711,1.438,8.984,2.246,12.814c0.77,3.728,1.506,6.77,2.207,8.932c2.348,0.969,4.994,2.041,8.045,3.165
		c3.014,1.055,6.66,2.269,10.707,3.552c4.256,1.127,8.742,2.059,13.527,2.762c4.805,0.686,9.814,1.035,15.037,1.035
		c11.18-0.033,21.168-1.634,30.074-4.799c8.9-3.166,16.541-7.561,22.797-13.238c6.311-5.625,11.092-12.198,14.479-19.727
		c3.383-7.487,5.049-15.646,5.082-24.365c-0.033-10.39-2.35-19.515-6.73-27.322c-4.381-7.821-10.551-14.767-18.313-20.938
		c-7.781-6.137-16.754-11.921-27.061-17.318c-8.133-4.656-14.793-9.019-20.119-13.166c-5.223-4.132-9.111-8.492-11.621-13.029
		c-2.537-4.62-3.816-9.932-3.816-15.856c0.068-6.275,1.314-11.655,3.752-16.262c2.451-4.643,5.729-8.193,9.883-10.794
		c4.1-2.567,8.641-3.833,13.705-3.869c5.957,0.036,11.182,1.302,15.563,3.763c4.344,2.498,8.096,5.697,11.145,9.828
		c3.119,4.096,5.697,8.597,7.904,13.538c2.137,4.904,4.047,9.931,5.678,14.89L5562.871,1267.867z"/>
	<path fill="#793B2B" d="M5367.238,1412.926c-3.086-2.406-6.361-5.539-9.814-9.369c-2.031-2.268-4.082-4.903-6.256-7.945
		c-2.084-3.061-4.486-6.594-7.1-10.762c-2.539-4.113-5.52-9.053-8.9-14.732c-2.246-3.729-4.559-7.699-6.941-11.988
		c-2.398-4.308-4.748-8.614-6.955-12.852c-2.174-4.309-4.225-8.229-5.959-11.887c-1.824-3.639-3.262-6.717-4.26-9.16
		c6.906-2.898,13.127-6.731,18.576-11.287c5.539-4.64,9.885-10.229,13.039-16.878c3.189-6.627,4.838-14.448,4.855-23.435
		c-0.035-9.668-1.875-18.002-5.467-24.945c-3.646-6.893-8.641-12.447-14.826-16.791c-3.961-2.637-8.309-4.781-13.004-6.381
		c-4.627-1.671-9.955-2.885-15.875-3.622c-5.82-0.755-12.691-1.126-20.385-1.126h-85.082v10.551
		c5.188,0.455,9.375,1.142,12.494,1.95c3.014,0.844,5.381,2.231,6.99,4.113c1.545,1.915,2.561,4.748,3.018,8.476
		c0.508,3.69,0.699,8.771,0.666,15.048v122.978c0.033,6.454-0.193,11.674-0.738,15.612c-0.523,3.99-1.629,6.979-3.275,9.019
		c-1.646,2.059-4.102,3.553-7.359,4.468c-3.258,0.824-7.645,1.459-13.074,1.827v10.515h87.977v-10.515
		c-5.346-0.368-9.533-1.002-12.725-1.827c-3.17-0.915-5.557-2.409-7.186-4.468c-1.578-2.037-2.629-5.027-3.189-9.019
		c-0.523-3.938-0.771-9.158-0.734-15.612v-47.45h5.361c3.154,0.105,5.818,0.668,7.994,1.74c2.15,1.072,3.992,2.654,5.568,4.799
		c1.613,2.147,3.154,4.836,4.561,8.106c2.662,5.661,5.359,11.287,8.096,16.79c2.768,5.605,5.467,10.811,8.133,15.856
		c2.77,5.116,5.395,9.688,7.902,13.889c3.014,5.064,6.223,9.424,9.43,13.149c3.293,3.658,7.045,6.751,11.357,9.212
		c4.344,2.444,9.67,4.274,15.963,5.609c6.271,1.338,13.895,2.232,22.904,2.637c2.104,0.143,4.117,0.248,6.027,0.248
		c1.893,0.087,3.715,0.087,5.398,0.087l1.664-9.267C5373.303,1417.109,5370.287,1415.352,5367.238,1412.926z M5300.992,1299.793
		c-2.242,6.33-5.66,11.393-10.305,15.226c-3.295,2.814-6.973,4.888-11.125,6.171c-4.209,1.215-9.238,1.863-15.232,1.793h-8.551
		v-76.404c0-3.479,0.176-6.032,0.51-7.719c0.332-1.741,0.895-3.096,1.73-4.112c0.879-0.863,2.316-1.459,4.225-1.987
		c1.895-0.599,4.521-0.861,7.836-0.861c4.102-0.07,8.131,0.792,12.195,2.356c4.014,1.686,7.713,4.253,11.043,7.893
		c3.295,3.552,5.959,8.265,7.955,14.047c2.014,5.837,3.016,12.923,3.086,21.255
		C5304.359,1286.047,5303.236,1293.535,5300.992,1299.793z"/>
	<path fill="#793B2B" d="M5110.637,1372.033c-2.574,6.646-5.15,12.358-7.885,17.141c-2.611,4.768-5.328,8.88-8.025,12.148
		c-2.119,2.549-4.768,4.571-7.676,6.063c-2.943,1.495-6.396,2.55-10.518,3.201c-4.102,0.632-8.9,0.967-14.51,0.967
		c-5.678,0.036-10.709-0.229-14.828-0.667c-4.205-0.511-7.535-1.459-9.92-2.849c-2.504-1.195-4.236-3.693-5.27-7.596
		c-0.982-3.866-1.508-9.513-1.422-16.966v-57.629h18.123c6.271-0.035,11.318,0.123,15.104,0.456
		c3.855,0.456,6.869,1.391,8.977,2.917c2.17,1.444,3.889,3.869,5.082,7.086c1.242,3.322,2.414,7.809,3.537,13.469h10.762v-62.464
		h-10.762c-1.141,5.536-2.365,9.86-3.574,13.133c-1.297,3.181-2.98,5.483-5.154,6.979c-2.172,1.528-5.15,2.531-8.971,2.918
		c-3.785,0.438-8.799,0.544-15,0.544h-18.123v-66.895c-0.086-3.462,0.211-5.996,0.736-7.664c0.506-1.637,1.611-2.709,3.258-3.201
		c1.646-0.456,4.119-0.667,7.432-0.598h11.428c6.328,0,11.584,0.281,15.736,0.915c4.207,0.648,7.535,1.634,10.078,2.884
		c2.52,1.266,4.52,2.83,5.994,4.781c2.275,2.707,4.328,6.24,6.096,10.441c1.789,4.292,3.453,9.317,5.014,15.051l10.797-1.602
		c-0.316-4.5-0.701-9.124-1.018-13.87c-0.332-4.782-0.631-9.282-0.965-13.536c-0.279-4.291-0.508-7.982-0.734-11.13
		c-0.246-3.13-0.352-5.36-0.473-6.715h-136.836v10.547c4.961,0.369,8.973,0.984,12.021,1.724c3.051,0.757,5.293,2.074,6.904,3.974
		c1.578,1.846,2.559,4.644,3.152,8.439c0.563,3.689,0.807,8.808,0.771,15.152v124.261c0.035,6.438-0.209,11.57-0.84,15.367
		c-0.561,3.797-1.752,6.663-3.453,8.563c-1.877,1.896-4.486,3.269-8.063,4.042c-3.471,0.859-8.201,1.494-13.982,1.985v10.516
		h147.682c0.508-1.918,1.119-4.449,1.824-7.562c0.699-3.146,1.541-6.61,2.313-10.443c0.771-3.832,1.541-7.718,2.35-11.638
		c0.732-3.938,1.473-7.63,2.102-11.182c0.668-3.428,1.193-6.434,1.543-8.861L5110.637,1372.033z"/>
	<path fill="#793B2B" d="M4896.236,1219.75h-67.963v10.547c5.75,0.668,10.201,1.514,13.389,2.655
		c3.156,1.036,5.363,2.585,6.398,4.605c1.102,1.97,1.367,4.729,0.891,8.177c-0.561,3.428-1.576,7.874-3.207,13.184
		c-2.24,7.896-4.887,16.455-7.852,25.773c-2.908,9.302-6.027,18.847-9.357,28.639c-3.258,9.811-6.537,19.34-9.848,28.763
		c-3.189,9.317-6.238,18.021-9.184,26.108h-0.629c-1.963-5.82-4.121-12.323-6.625-19.373c-2.42-7.067-4.961-14.452-7.676-22.082
		c-2.631-7.647-5.258-15.313-7.867-22.891c-2.646-7.598-5.137-14.821-7.504-21.715c-2.348-6.926-4.486-13.061-6.273-18.563
		c-1.877-5.539-3.381-10.039-4.381-13.555c-1.473-4.837-2.105-8.477-1.877-11.112c0.143-2.549,1.648-4.413,4.523-5.624
		c2.854-1.25,7.641-2.234,14.195-2.973v-10.55h-87.016v10.55c4.35,0.388,7.992,1.055,10.867,1.951
		c2.98,0.879,5.57,2.338,7.709,4.344c2.105,2.021,4.137,4.887,5.961,8.596c1.893,3.728,3.818,8.597,5.922,14.68
		c2.455,6.717,5.398,14.944,8.834,24.598c3.486,9.65,7.254,20.34,11.393,32.014c4.084,11.654,8.342,23.857,12.723,36.429
		c4.451,12.676,8.834,25.35,13.145,37.975c4.258,12.71,8.449,24.876,12.338,36.568h14.615c4.486-12.958,9.045-25.984,13.67-39.084
		c4.695-13.133,9.182-25.896,13.668-38.289c4.521-12.377,8.729-24.033,12.725-34.9c4.084-10.863,7.658-20.531,10.777-29.059
		c3.225-8.476,5.854-15.332,7.904-20.518c2.91-7.597,5.59-13.593,7.957-18.057c2.348-4.519,4.836-7.841,7.357-10.127
		c2.457-2.319,5.33-3.954,8.555-4.923c3.242-0.931,7.15-1.704,11.709-2.232v-10.528L4896.236,1219.75L4896.236,1219.75z"/>
	<path fill="#793B2B" d="M4627.227,1424.301v-10.514c-5.326-0.42-9.498-1.108-12.688-2.021c-3.121-0.879-5.469-2.338-7.047-4.395
		c-1.541-2.023-2.609-4.941-3.082-8.774c-0.527-3.833-0.734-8.808-0.668-15.119v-122.608c-0.066-6.471,0.141-11.674,0.668-15.559
		c0.473-3.869,1.541-6.805,3.082-8.79c1.578-2.005,3.926-3.464,7.047-4.272c3.189-0.879,7.359-1.528,12.688-1.915v-10.55H4539.6
		v10.55c5.262,0.387,9.432,1.055,12.621,1.915c3.189,0.81,5.504,2.269,7.098,4.272c1.506,1.985,2.609,4.921,3.084,8.79
		c0.492,3.885,0.736,9.088,0.705,15.559v122.608c0.031,6.382-0.283,11.394-0.773,15.276c-0.543,3.833-1.543,6.753-3.119,8.756
		c-1.611,1.951-3.996,3.446-7.1,4.289c-3.172,0.896-7.359,1.567-12.514,1.987v10.514L4627.227,1424.301L4627.227,1424.301z"/>
	<path fill="#793B2B" d="M4467.432,1219.75h-71.447v9.896c6.73,0.368,12.004,1.247,15.949,2.584
		c3.904,1.214,6.764,3.112,8.604,5.483c1.824,2.394,2.963,5.435,3.402,9.125c0.455,3.271,0.895,7.279,1.33,12.114
		c0.438,4.869,0.807,10.635,1.051,17.422c0.314,6.77,0.492,14.803,0.492,23.999v55.766h-1.279l-103.535-136.356h-54.299v9.897
		c4.172,0.386,7.801,1.126,10.781,2.162c2.996,1.003,5.555,2.392,7.729,4.168c2.189,1.722,4.203,3.866,5.955,6.397
		c1.266,1.67,2.262,3.445,2.996,5.258c0.705,1.827,1.279,3.902,1.578,6.364c0.385,2.442,0.596,5.434,0.703,8.981
		c0.035,3.57,0.121,7.965,0.121,13.15v66.581c-0.068,13.146-0.418,24.065-1.051,32.629c-0.701,8.632-1.297,15.347-1.824,20.236
		c-0.455,4.06-1.541,7.349-3.221,9.984c-1.666,2.619-4.174,4.606-7.52,5.959c-3.33,1.371-7.814,2.232-13.393,2.515v10.231h72.396
		v-10.231c-7.201-0.388-12.793-1.299-16.754-2.726c-3.979-1.459-6.836-3.428-8.588-6.063c-1.701-2.655-2.803-5.96-3.225-9.969
		c-0.541-4.729-1.068-11.358-1.631-19.955c-0.539-8.545-0.857-19.444-0.895-32.61v-69.779h0.947l112.721,154.534h15.543v-127.143
		c0-9.197,0.211-17.23,0.545-24c0.367-6.783,0.809-12.554,1.264-17.422c0.473-4.836,0.98-8.844,1.365-12.111
		c0.387-3.799,1.387-6.946,2.908-9.336c1.563-2.429,4.014-4.291,7.223-5.558c3.275-1.248,7.605-2.057,13.072-2.302v-9.88h-0.016
		V1219.75z"/>
	<path fill="#793B2B" d="M4203.84,1219.75h-72.395v10.547c6.924,0.281,12.371,1.091,16.334,2.479
		c4.029,1.316,6.867,3.217,8.674,5.624c1.807,2.443,2.855,5.47,3.26,9.092c0.387,3.005,0.826,6.521,1.211,10.564
		c0.385,4.009,0.646,8.982,0.945,14.768c0.246,5.769,0.35,12.852,0.35,21.185v37.271c0.055,25.722-3.818,44.762-11.547,57.277
		c-7.729,12.433-19.4,18.565-35.121,18.532c-15.195,0-26.482-5.751-33.805-17.071c-7.361-11.393-11.023-28.323-10.971-50.793
		v-77.036c-0.055-6.823,0.154-12.255,0.631-16.316c0.541-4.061,1.488-7.119,2.979-9.193c1.488-2.058,3.77-3.553,6.711-4.432
		c2.979-0.879,6.939-1.528,11.936-1.915v-10.55h-86.064v10.55c5.203,0.387,9.357,1.055,12.479,1.915
		c3.068,0.879,5.416,2.374,6.992,4.432c1.521,2.074,2.523,5.135,3.014,9.193c0.527,4.08,0.719,9.493,0.684,16.316v78.006
		c0,12.287,0.756,22.925,2.313,31.962c1.545,9.089,3.961,16.842,7.311,23.362c3.328,6.454,7.623,12.026,12.934,16.686
		c4.572,4.025,9.639,7.227,15.125,9.564c5.555,2.39,11.355,4.113,17.438,5.116c6.08,1.091,12.268,1.528,18.559,1.528
		c7.027,0,13.811-0.879,20.311-2.673c6.588-1.758,12.637-4.341,18.33-7.771c5.627-3.412,10.709-7.596,15.021-12.465
		c5.256-6.225,9.322-13.238,12.215-21.309c2.98-7.946,4.994-16.648,6.188-26.09c1.084-9.459,1.682-19.444,1.629-30.028v-34.072
		c0-6.31,0.053-11.882,0.158-16.647c0.088-4.729,0.314-8.825,0.525-12.396c0.191-3.585,0.473-6.819,0.77-9.613
		c0.316-2.866,0.701-5.608,1.068-8.213c0.387-3.445,1.404-6.434,3.121-8.877c1.699-2.442,4.223-4.288,7.625-5.627
		c3.33-1.423,7.729-2.125,13.088-2.338v-10.547h-0.021V1219.75z"/>
	<path fill="#793B2B" d="M3763.348,1219.75H3691.9v9.896c6.729,0.368,12.021,1.247,15.947,2.584
		c3.926,1.214,6.781,3.112,8.586,5.483c1.857,2.394,2.963,5.435,3.438,9.125c0.398,3.271,0.91,7.279,1.313,12.114
		c0.422,4.869,0.773,10.635,1.07,17.422c0.314,6.77,0.49,14.803,0.49,23.999v55.766h-1.279l-103.539-136.356h-54.308v9.897
		c4.17,0.386,7.779,1.126,10.796,2.162c2.979,1.003,5.555,2.392,7.729,4.168c2.154,1.722,4.189,3.866,5.941,6.397
		c1.262,1.67,2.26,3.445,2.996,5.258c0.732,1.827,1.297,3.902,1.596,6.364c0.385,2.442,0.578,5.434,0.682,8.981
		c0.07,3.57,0.121,7.965,0.121,13.15v66.581c-0.051,13.146-0.418,24.065-1.068,32.629c-0.699,8.632-1.262,15.347-1.803,20.236
		c-0.51,4.06-1.543,7.349-3.244,9.984c-1.646,2.619-4.17,4.606-7.518,5.959c-3.33,1.371-7.834,2.232-13.406,2.515v10.231h72.412
		v-10.231c-7.184-0.388-12.809-1.299-16.77-2.726c-3.963-1.459-6.82-3.428-8.605-6.063c-1.684-2.655-2.787-5.96-3.225-9.969
		c-0.545-4.729-1.051-11.358-1.629-19.955c-0.545-8.545-0.861-19.444-0.912-32.61v-69.779h0.963l112.738,154.534h15.563v-127.143
		c0-9.197,0.191-17.23,0.506-24c0.389-6.783,0.809-12.554,1.279-17.422c0.477-4.836,0.965-8.844,1.367-12.111
		c0.369-3.799,1.385-6.946,2.928-9.336c1.523-2.429,3.961-4.291,7.17-5.558c3.293-1.248,7.639-2.057,13.088-2.302v-9.88h0.035
		V1219.75z"/>
	<path fill="#793B2B" d="M3490.519,1424.301v-10.514c-5.271-0.42-9.463-1.108-12.651-2.021c-3.154-0.879-5.485-2.338-7.081-4.395
		c-1.541-2.023-2.628-4.941-3.065-8.774c-0.525-3.833-0.755-8.808-0.665-15.119v-122.608c-0.072-6.471,0.139-11.674,0.665-15.559
		c0.455-3.869,1.524-6.805,3.065-8.79c1.578-2.005,3.908-3.464,7.081-4.272c3.188-0.879,7.358-1.528,12.651-1.915v-10.55h-87.623
		v10.55c5.291,0.387,9.463,1.055,12.67,1.915c3.173,0.81,5.504,2.269,7.08,4.272c1.543,1.985,2.629,4.921,3.084,8.79
		c0.509,3.885,0.756,9.088,0.701,15.559v122.608c0.055,6.382-0.229,11.394-0.753,15.276c-0.525,3.833-1.525,6.753-3.118,8.756
		c-1.563,1.951-3.944,3.446-7.082,4.289c-3.17,0.896-7.344,1.567-12.549,1.987v10.514L3490.519,1424.301L3490.519,1424.301z"/>
	<path fill="#793B2B" d="M3316.215,1338.296c-4.748-6.822-11.284-12.22-19.696-16.262c-8.431-4.044-18.157-6.822-29.268-8.3v-1.267
		c5.485-1.018,10.848-2.637,16.191-4.938c5.328-2.269,10.219-5.239,14.636-9.003c4.362-3.729,7.903-8.246,10.495-13.644
		c2.646-5.38,4.031-11.674,4.083-18.917c-0.052-7.718-1.698-14.521-4.817-20.518c-3.137-5.979-7.361-10.828-12.637-14.557
		c-3.871-2.637-8.219-4.78-12.951-6.381c-4.729-1.671-10.093-2.885-16.175-3.621c-6.027-0.756-12.968-1.127-20.75-1.127h-85.101
		v10.551c5.345,0.387,9.619,1.054,12.793,1.951c3.152,0.843,5.52,2.338,7.063,4.343c1.506,2.021,2.523,4.975,2.996,8.841
		c0.455,3.905,0.684,9.004,0.632,15.401v121.995c0.052,6.45-0.177,11.673-0.684,15.539c-0.526,3.938-1.632,6.929-3.296,8.985
		c-1.629,2.058-4.152,3.517-7.572,4.396c-3.327,0.896-7.85,1.563-13.527,1.986v10.512h73.655c8.204,0,16.142-0.456,23.801-1.458
		c7.695-0.968,14.879-2.462,21.608-4.466c6.714-1.986,12.74-4.588,18.07-7.788c5.5-3.199,10.25-7.068,14.386-11.568
		c4.17-4.552,7.396-9.844,9.728-15.839c2.33-5.962,3.486-12.625,3.522-20.079
		C3323.348,1353.328,3320.966,1345.064,3316.215,1338.296z M3223.438,1250.023c0-3.976,0.279-7.155,0.734-9.565
		c0.545-2.462,1.333-4.13,2.438-5.081c0.909-1.002,2.313-1.827,4.239-2.494c1.875-0.616,4.559-1.003,7.853-1.003
		c3.892-0.069,7.783,0.649,11.498,2.108c3.68,1.442,7.078,3.712,10.041,6.841c3.014,3.163,5.396,7.243,7.185,12.287
		c1.771,5.027,2.664,11.06,2.7,18.284c0.105,13.309-2.999,23.066-9.307,29.324c-6.312,6.171-16.353,9.265-30.038,9.23h-7.325
		v-59.934h-0.019V1250.023z M3275.54,1386.785c-2.032,5.729-4.729,10.39-8.148,14.025c-3.383,3.658-7.134,6.313-11.197,8.07
		c-4.137,1.706-8.253,2.638-12.426,2.655c-5.028,0.036-9.043-0.773-12.073-2.567c-2.963-1.738-5.083-4.728-6.362-8.945
		c-1.279-4.168-1.93-9.9-1.875-17.178v-60.83h6.344c15.947,0,28.075,3.657,36.363,10.971c8.325,7.349,12.495,18.301,12.549,33
		C3278.625,1374.091,3277.59,1381.017,3275.54,1386.785z"/>
	<path fill="#793B2B" d="M3080.802,1424.301v-10.514c-5.273-0.42-9.479-1.108-12.672-2.021c-3.152-0.879-5.482-2.338-7.078-4.395
		c-1.523-2.023-2.593-4.941-3.068-8.774c-0.523-3.833-0.717-8.808-0.684-15.119v-122.608c-0.033-6.471,0.159-11.674,0.684-15.559
		c0.477-3.869,1.526-6.805,3.068-8.79c1.596-2.005,3.926-3.464,7.078-4.272c3.191-0.879,7.396-1.528,12.672-1.915v-10.55h-87.641
		v10.55c5.308,0.387,9.46,1.055,12.669,1.915c3.171,0.81,5.485,2.269,7.079,4.272c1.563,1.985,2.613,4.921,3.066,8.79
		c0.545,3.885,0.753,9.088,0.721,15.559v122.608c0.032,6.382-0.248,11.394-0.757,15.276c-0.522,3.833-1.541,6.753-3.118,8.756
		c-1.577,1.951-3.941,3.446-7.097,4.289c-3.19,0.896-7.344,1.567-12.549,1.987v10.514L3080.802,1424.301L3080.802,1424.301z"/>
	<path fill="#793B2B" d="M2921.676,1219.75h-67.646v10.547c5.52,0.563,9.849,1.302,12.914,2.232c3.119,0.81,5.293,1.951,6.449,3.289
		c1.228,1.354,1.699,3.057,1.438,5.186c-0.211,2.057-0.912,4.658-2.051,7.754c-2.018,5.467-4.348,11.251-6.957,17.422
		c-2.577,6.188-5.293,12.322-8.078,18.479c-2.807,6.152-5.504,11.973-8.045,17.546c-2.596,5.536-4.838,10.441-6.783,14.715
		c-5.712-11.762-11.303-23.453-16.77-34.97c-5.453-11.495-10.691-22.837-15.6-33.825c-1.927-3.99-2.979-7.119-3.207-9.387
		c-0.244-2.232,0.807-4.008,3.207-5.292c2.417-1.178,6.66-2.27,12.706-3.147v-10.547h-83.242v10.547
		c3.767,0.388,7.009,0.984,9.761,1.776c2.698,0.737,5.064,1.987,7.185,3.534c2.12,1.6,4.241,3.901,6.257,6.892
		c2.016,2.951,4.242,6.856,6.643,11.674c4.663,9.158,8.866,17.422,12.566,24.771c3.697,7.279,6.973,13.905,9.954,19.85
		c2.894,5.854,5.555,11.287,7.866,16.207c2.35,4.924,4.508,9.617,6.449,14.029c0.861,1.743,1.49,3.359,1.948,4.906
		c0.488,1.563,0.787,3.201,0.963,5.01c0.212,1.776,0.28,4.009,0.28,6.63v36.638c0.051,6.682-0.229,12.026-0.734,16.068
		c-0.597,4.044-1.773,7.067-3.508,9.124c-1.716,2.093-4.397,3.517-7.937,4.431c-3.541,0.827-8.273,1.495-14.196,1.918v10.512h94.635
		v-10.512c-6.293-0.491-11.306-1.161-15.039-2.094c-3.68-0.809-6.5-2.337-8.289-4.324c-1.803-2.094-3.014-5.116-3.556-9.089
		c-0.509-4.008-0.789-9.354-0.755-16.034v-40.806c0-3.516,0.159-6.364,0.508-8.578c0.299-2.217,0.771-4.204,1.473-6.05
		c0.754-1.915,1.633-4.146,2.804-6.696c3.472-7.684,6.608-14.47,9.412-20.342c2.856-5.926,5.521-11.218,8.026-16.122
		c2.504-4.833,4.961-9.476,7.431-14.03c2.506-4.464,5.063-9.264,7.834-14.187c2.646-4.887,5.063-8.896,7.325-11.99
		c2.207-3.094,4.521-5.537,6.922-7.262c2.331-1.758,5.063-3.093,8.204-3.938c3.064-0.911,6.815-1.579,11.232-1.95V1219.75z"/>
	<path fill="#793B2B" d="M5673.471,660.152c-1.857-23.596,77.004-81.082,65.648-94.129c-8.973-18.37-16.068-33.298-46.74-31.979
		c-24.201,12.287-47.598,28.322-58.779,51.195c-9.604,8.912-19.172,6.31-25.375,1.019c-2.559-8.578-4.484-20.85-19.453-26.863
		c-12.02,4.412-18.084,15.139-20.592,28.271c12.424,136.496-3.873,257.471-7.061,379.991c16.893,38.396,34.346,48.696,57.023,42.563
		c-3.451-87.568-15.473-174.245-10.109-262.729c28.861,2.428,36.064,29.431,55.344,38.081c9.604,1.546,62.248-59.229,44.689-82.665
		C5697.27,688.052,5676.344,682.902,5673.471,660.152z M5661.482,691.869c12.443,19.988,0.334,37.709-0.35,54.357
		c-14.791-7.875-26.254-10.408-35.893-15.471l-18.471-30.607l-0.668-77.741c21.557-5.521,44.131-23.154,64.141-26.003
		c-13.77,13.257-11.004,27.195-20.504,41.21C5649.076,655.229,5659.662,672.6,5661.482,691.869z"/>
	<path fill="#793B2B" d="M5711.395,810.627c3.471-23.84,210.828-69.393,275.391-51.513c10.813,13.854-76.639,90.753-88.891,92.687
		c-1.855,0-18.592-15.611-24.588-0.81c-10.936,35.179-18.365,92.28,1.824,109.526c171.746,64.119,330.029-3.761,291.248-159.314
		c35.121,40.927,47.791,90.646,74.131,112.356c8.902,7.722,0.246,25.229-10.004,41.123
		c-88.768,135.792-383.293,85.917-400.381,27.373c-10.742-13.026,8.273-126.229-4.748-118.318
		c-64.018,41.017-104.762,85.073-129.141,102.707c-16.439,13.308-35.75-2.146-34.033-10.952
		c8.604-26.337,109.109-104.396,151.625-125.668c-20.049-3.305-79.422,13.854-96.002,10.478
		C5710.029,839.336,5708.102,827.257,5711.395,810.627z"/>
	<path fill="#793B2B" d="M5770.07,715.498c50.262-26.936,98.174-47.471,163.699-29.591c9.764,13.891-4.801,34.124-17.016,36.06
		C5867.123,725.921,5762.428,753.119,5770.07,715.498z"/>
	<path fill="#793B2B" d="M5827.305,487.279c59.432,4.624,69.33,41.438,70.609,68.514c-10.445,17.527,175.074-40.138,183.889,80.625
		c-28.6,22.203-113.367,7.998-95.125-8.791c8.5-7.893,47.877-17.896,9.309-35.988c-72.66-2.83-150.229,7.51-218.957,29.237
		c-26.92,7.228-29.83,76.372-54.33,81.945c-56.711-10.988-24.188-78.764,35.754-123.806c13.826-8.949,15.596,5.784,21.766,10.251
		l57.514-15.473C5848.789,531.618,5808.08,485.594,5827.305,487.279z"/>
	<path fill="#793B2B" d="M4991.15,643.891c0.037,0.053,0,0.141,0.037,0.211l-1.143-0.246
		C4990.416,643.873,4990.801,643.891,4991.15,643.891c-10.443-37.201,77.777-187.588,56.045-185.602
		c-40.412-14.926-78.773-3.095-118.922,31.119c-6.66,5.503,2.486,19.303,9.445,22.026c6.762,3.886,33.873-2.637,37.959,2.021
		c3.434,5.135,8.727,13.149,8.34,21.801c-20.818-2.83-40.621-1.212-51.697,6.17c-8.061,11.554-11.041,27.374-6.17,34.705
		c9.184,4.203,21.732-8.35,33.158,1.002c-1.822,14.752-10.309,25.634-16.912,37.465c-0.455-0.686-0.963-1.371-1.367-2.057
		c-18.049-4.957-32-13.378-42.217-28.745l9.936-27.585c2.35-5.729,3.857-16.383-1.84-23.188c7.799,2.182,15.877,3.234,24.781,5.609
		c6.221,0.051,20.99-4.643,12.215-14.541c-20.855-4.816-37.227-15.05-47.479-32.365l10.9-32.421
		c3.525-12.006,5.031-31.942-20.416-36.898c-12.863-2.007-14.004,38.712-25.953,41.489c-10.813-8.525-15.527-23.384-31.369-25.371
		c-19.385,5.559-23.469,23.086-13.83,34.636c5.26,14.241,17.633,18.496,27.832,27.497c3.574,7.242-29.195,22.694-39.959,33.104
		c-1.506,1.039-1.752,2.129-2.418,2.621c2.244-55.01,12.336-106.117-0.629-106.787c-7.678-9.669-31.582-0.121-41.748,16.298
		c-7.219,45.729,9.535,178.709,43.289,215.083c-0.842,0.564-2.209,1.478-3.33,1.231l-2.209,1.495
		c-40.27-28.816-38.557-141.631-52.262-138.607c-7.322-4.712-20.641,5.188-24.27,17.177c3.207,28.461,32.631,101.246,59.551,124.382
		l-69.541,13.697c-8.971-5.346-9.918-22.698-32.561-12.746c-93.828,56.275-145.58,139.206-58.395,153.673
		c38.135-5.538,43.885-91.488,86.172-100.756c106.938-25.104,225.863-37.289,337.496-32.013
		c58.289,23.118-2.031,35.091-15.334,44.988c-28.793,21.433,100.91,39.978,145.842,12.902
		C5167.805,659.132,5070.574,645.488,4991.15,643.891z M4934.301,645.367c-12.059,0.686-23.502,0.913-29.828,1
		c-11.672-0.599-50.262,3.022-80.51,9.672c-19.893-23.665-24.221-64.908-23.676-105.188c1.943-0.368,4.363,0.3,7.01-0.544
		l57.221-30.818c7.357,3.445,14.389,6.171,22.887,7.893c-6.658,7.402-9.85,30.732-17.945,32.932
		c-8.643-6.77-13.039-19.64-27.021-21.854c-16.758,4.764-19.086,20.128-12.865,29.533c5.537,13.1,16.844,16.104,24.186,23.771
		c3.818,5.784-24.748,19.744-33.438,28.763c-10.41,11.111-6.311,15.771,2.979,13.782l49.385-26.616
		c17.842,8.034,36.014,11.692,56.342,17.088c2.42,0.335,6.98-0.509,9.889-2.427C4935.035,629.121,4933.633,636.243,4934.301,645.367
		z"/>
	<path fill="#793B2B" d="M4991.188,644.102c-0.037-0.07,0-0.158-0.037-0.211c-0.367,0-0.734-0.018-1.105-0.035L4991.188,644.102z"/>
	<path fill="#793B2B" d="M4754.143,749.99c65.754-32.33,133.488-50.229,199.348-42.756c39.063,14.783,49.736,30.853,43.006,45.937
		l-70.432,50.301l5.504,19.46c35.414,8.914,92.74-16.877,148.646-3.689c14.578,15.646,11.32,43.97,0.244,46.202
		c-22.291,7.506-115.77-3.728-138.379,12.553c19.016,115.505-6.904,182.348-27.861,187.006
		c-46.336-5.029-86.787-23.065-130.564-81.136c62.883,22.081,95.285,23.646,93.375,11.075c10.551-4.832,20.453-48.38,7.359-99.542
		c-27.092-40.806-121.098,10.427-174.27,12.446c-32.316,3.569-46.547-22.661,6.449-48.697c47.512-7.611,97.334-8.104,144.037-18.372
		c2.77-10.248-9.443-22.063-14.93-32.155l43.813-11.305c6.977-6.908,11.986-19.637-1.785-29.358
		C4859.326,753.364,4740.578,805.404,4754.143,749.99z"/>
	<path fill="#793B2B" d="M3922.055,396.037c77.707,2.283,91.832,46.746,95.461,80.147c-12.182,23.664,224.021-60.739,243.123,88.927
		c-34.822,29.922-146.51,18.336-123.113-3.746c10.375-11.531,59.164-26.512,9.408-46.396
		c-94.264,0.456-192.756,19.146-280.924,51.178c-33.91,11.623-33.51,97.363-63.932,105.325
		c-75.305-8.261-37.258-94.389,36.682-156.063c19.172-11.377,21.082,6.029,28.863,11.339l73.289-23.964
		C3953.773,450.237,3896.695,396.125,3922.055,396.037z"/>
	<path fill="#793B2B" d="M3999.674,773.918c-8.623-3.465-11.305-13.082,1.717-27.093c29.564-17.757,59.953-32.685,84.523-25.825
		c19.314,19.198,12.074,177.583-1.457,258.26c0.107,27.286,42.99,51.461,46.568,78.555c-1.51,21.922-37.328,19.441-57.361,14.396
		c-24.641-20.973-56.309-57.543-68.506-80.274c-32.248,9.792-58.131,70.235-83.471,71.377c-16.58-2.601-14.002-15.732-2.82-32.365
		c12.178-15.084,23.361-29.888,36.383-45.763c6.922-5.346,9.531-18.46,4.414-19.285c-14.127-3.411-27.236-5.994-41.148-8.599
		c-9.639-6.962-8.955-32.418,3.35-30.608c15.77,5.029,31.488-3.64,42.688-10.651c-1.035-44.708-6.59-89.4-0.629-134.177
		c6.922-9.669,15.701-8.669,25.303-7.086c4.332,1.829,1.963,21.939,6.262,27.268c7.813,5.081,22.713,0.722,31.523,4.993
		c5.137,6.928,6.223,17.581,2.561,23.576c-6.906,4.536-13.846,10.726-21.592,16.946c-5.293,5.944-12.984,18.285-0.928,17.406
		c7.939-4.361,14.07-2.742,19.189-0.087c4.504,6.134,6.223,17.403,1.121,19.285c-10.617,0.036-27.182,2.778-31.439,7.101
		c0.037,6.174,0.844,11.48,5.381,17.406c7.816,8.789,22.73,8.72,36.574-4.482c10.393-9.687,18.91-68.39,6.328-133.965
		C4029.273,763.298,4014.641,777.346,3999.674,773.918z"/>
	<path fill="#793B2B" d="M3891.352,743.871c-8.797-4.482-5.447-31.575-5.447-31.575c13.98-24.664,29.459-41.385,53.135-51.125
		c16.543-3.567,21.713,14.875,20.172,23.7C3954.984,702.311,3926.365,744.505,3891.352,743.871z"/>
	<path fill="#793B2B" d="M3978.152,628.578c-27.076-16.492-86.484,3.059-79.6-9.268c45.041-77.144,194.406-59.615,199.752-50.809
		c17.42,11.411,18.594,39.311,4.488,39.382c-35.822-2.497-72.416-2.338-81.969,10.848l-1.578,54.359
		c1.037,6.136,14.951,1.794,21.84-7.895c6.08-7.015-4.383-14.942-6.273-31.559c-2.559-16.611,138.041,18.618,132.154,59.863
		c-6.902,13.994-25.254,21.079-46.107,19.304c-21.119-11.99-31.65-31.207-63.18-37.234l-262.174,293.757
		c-39.992,21.939-36.662-10.462-24.5-31.469c50.141-76.354,144.146-138.115,210.215-216.369
		C3987.336,716.129,3983.395,659.325,3978.152,628.578z"/>
	<path fill="#793B2B" d="M3222.983,940.46c-60.725-2.162-51.121,15.683-134.295,20.095l25.711-253.27
		c-0.021-24.365-33.562-68.635-96.144-46.801c-141.935,64.225-95.392,229.235-107.396,323.752
		c-0.175,24.42-119.293,15.26-180.314,24.42c-40.167,12.394-43.232,43.616-30.825,49.209
		c49.982,13.692,371.39-44.832,573.103-32.402C3329.131,1021.859,3305.247,945.788,3222.983,940.46z M3027.247,936.259
		c-7.484,34.668-20.227,43.212-31.388,45.499c-37.451,4.976-29.126-27.354-28.705-88.236c13.563-6.276,27.407,0.755,40.235-9.811
		c10.866-3.026,5.486-34.759-4.435-41.298c-9.233-4.817-19.085-5.926-30.144-0.58c-7.938-3.588-8.744-18.391-0.387-28.165
		c6.416-7.913,22.662-14.102,45.11-14.276c7.765-6.682,5.014-45.762-9.375-42.3c-5.748,5.082-21.539,7.314-24.36-4.764
		c-2.891-12.922,0.685-25.492,11.549-39.012c7.449-4.589,10.987-12.534,42.131-9.441
		C3057.776,705.527,3030.402,858.321,3027.247,936.259z"/>
</g>
</svg>
