<?xml version="1.0" encoding="utf-8"?>
<!-- Generator: Adobe Illustrator 25.3.1, SVG Export Plug-In . SVG Version: 6.00 Build 0)  -->
<svg version="1.1" id="图层_1" xmlns="http://www.w3.org/2000/svg" xmlns:xlink="http://www.w3.org/1999/xlink" x="0px" y="0px"
	 viewBox="0 0 7139 1824" style="enable-background:new 0 0 7139 1824;" xml:space="preserve">
<metadata><?xpacket begin="﻿" id="W5M0MpCehiHzreSzNTczkc9d"?>
<x:xmpmeta xmlns:x="adobe:ns:meta/" x:xmptk="Adobe XMP Core 6.0-c006 120.b669747, 2021/05/19-19:07:51        ">
   <rdf:RDF xmlns:rdf="http://www.w3.org/1999/02/22-rdf-syntax-ns#">
      <rdf:Description rdf:about=""
            xmlns:xmp="http://ns.adobe.com/xap/1.0/"
            xmlns:xmpGImg="http://ns.adobe.com/xap/1.0/g/img/"
            xmlns:xmpTPg="http://ns.adobe.com/xap/1.0/t/pg/"
            xmlns:stDim="http://ns.adobe.com/xap/1.0/sType/Dimensions#"
            xmlns:xmpG="http://ns.adobe.com/xap/1.0/g/"
            xmlns:dc="http://purl.org/dc/elements/1.1/"
            xmlns:xmpMM="http://ns.adobe.com/xap/1.0/mm/"
            xmlns:stEvt="http://ns.adobe.com/xap/1.0/sType/ResourceEvent#">
         <xmp:CreatorTool>Adobe Illustrator 25.3 (Windows)</xmp:CreatorTool>
         <xmp:CreateDate>2022-05-17T22:54:09+08:00</xmp:CreateDate>
         <xmp:Thumbnails>
            <rdf:Alt>
               <rdf:li rdf:parseType="Resource">
                  <xmpGImg:width>256</xmpGImg:width>
                  <xmpGImg:height>68</xmpGImg:height>
                  <xmpGImg:format>JPEG</xmpGImg:format>
                  <xmpGImg:image>/9j/4AAQSkZJRgABAgEASABIAAD/7QAsUGhvdG9zaG9wIDMuMAA4QklNA+0AAAAAABAASAAAAAEA&#xA;AQBIAAAAAQAB/+4ADkFkb2JlAGTAAAAAAf/bAIQABgQEBAUEBgUFBgkGBQYJCwgGBggLDAoKCwoK&#xA;DBAMDAwMDAwQDA4PEA8ODBMTFBQTExwbGxscHx8fHx8fHx8fHwEHBwcNDA0YEBAYGhURFRofHx8f&#xA;Hx8fHx8fHx8fHx8fHx8fHx8fHx8fHx8fHx8fHx8fHx8fHx8fHx8fHx8fHx8f/8AAEQgARAEAAwER&#xA;AAIRAQMRAf/EAaIAAAAHAQEBAQEAAAAAAAAAAAQFAwIGAQAHCAkKCwEAAgIDAQEBAQEAAAAAAAAA&#xA;AQACAwQFBgcICQoLEAACAQMDAgQCBgcDBAIGAnMBAgMRBAAFIRIxQVEGE2EicYEUMpGhBxWxQiPB&#xA;UtHhMxZi8CRygvElQzRTkqKyY3PCNUQnk6OzNhdUZHTD0uIIJoMJChgZhJRFRqS0VtNVKBry4/PE&#xA;1OT0ZXWFlaW1xdXl9WZ2hpamtsbW5vY3R1dnd4eXp7fH1+f3OEhYaHiImKi4yNjo+Ck5SVlpeYmZ&#xA;qbnJ2en5KjpKWmp6ipqqusra6voRAAICAQIDBQUEBQYECAMDbQEAAhEDBCESMUEFURNhIgZxgZEy&#xA;obHwFMHR4SNCFVJicvEzJDRDghaSUyWiY7LCB3PSNeJEgxdUkwgJChgZJjZFGidkdFU38qOzwygp&#xA;0+PzhJSktMTU5PRldYWVpbXF1eX1RlZmdoaWprbG1ub2R1dnd4eXp7fH1+f3OEhYaHiImKi4yNjo&#xA;+DlJWWl5iZmpucnZ6fkqOkpaanqKmqq6ytrq+v/aAAwDAQACEQMRAD8A9U4qknmTzbp2h+jAyS3u&#xA;qXdRYaVar6lxMR1IXoqL+07EKMrnkEfe248Rl5DvYl5qtfzLuvLl9qtxfppPoR+tHo+nNR1jVgzm&#xA;e9Yc2ZI6kiEID/NlOQZOEm68v2t+I4hICr8z+pZ+X/knyfr3lSw1rVNPh1K9vUZ5prj15iGDlXX/&#xA;AEia5JKspHKor4L0xw4oyjZCc+acZmINAfjyTDzF+X/kTTdKmvrbyzDJJDQ0tG+qyKtRycyI8TUX&#xA;rsa5LJigBdMMefITXExX8qX8/ap5fn1Kw1rjNBcNFHp1/wCrd2UsaqOPGd63EVKkfDI3QVXKcHGR&#xA;YPzb9V4cZUR8ti9B0Lzml3qH6F1i0bRvMAUutjKweOdF6yWswosy+I2YdxmTDLZo7FxJ4aHFE3H8&#xA;c2SZa0uxV2KuxV2KuxV2KuxV2KuxV2KuxV2KuxV2KuxV2KuxV2KuxV2KuxV2KuxV2KpJ5s8xnRNO&#xA;RreD65qt7ItrpVgDQzXD9AT+yigFnbsoOV5J8I823Fj4j3Ac3lmh+aB5U85XEnmm74vd+v8AWNXN&#xA;o8j3ksBETwrIGYwxQyA+kiR0KgM1KgZiQycMvV/a508XiQ9A+F8k+8y+f7jUtMmuYLm30DyixMX6&#xA;e1CL15rw+FjZN9tT/O4NR0XbLJ5eId0e/wDY1Y8Aia+qfcOnvLy6y85/lTa3kOmx6LqmradLKBLc&#xA;3V61vQuQGeO0tjHCanfficxhLGNqJHvc04spF2Afd+ksh/Mi+/Lvybry6Amh30azWwluL2x1G4hc&#xA;LMWQp6TtIkg4rvy+WWZRCBoD7WrTjJkjxWPknnkv8w54rJF0G8PmbRbKIerpEsSW2tWdvGOI9NI+&#xA;MN0iKB9jftXJ48pHLcfa1ZsAJ9Q4ZHr/AAn9Sv5u8y3Xmu/06y0eyF9pcsbXdjcQiQ3PqR8VE6TR&#xA;g/U2hdiBz6sCrgVGDLkMzQG34+SMWMYwTI0fx82beUNf1GW4ufL2vMp1/TVVzMq+mt5auaR3SJ+z&#xA;U/DIv7LfMZk45n6TzDjZcYrij9J+w9zJ8taHYq7FVkk0MZRZJFRpG4RhiAWalaLXqaDBaaeHfnj5&#xA;k8w+UvOOla3oequi3EJjutNMpeEtAwNZIK0pIklOldjQ1zD1EjGVguz0eOOSBjIfF6Hpn5teQbzT&#xA;rS6m1uztZriGOWS2kmUPEzqGaNq03Umhy+OeJHNw5aXICRRZTYahp+oWy3VhcxXds/2J4HWWM08G&#xA;QkHLQQeTRKJBoojCh2KsY81/mT5P8q3UNprV96NzcI0kcEaPK/EbAssYYryOy165VPNGPNvxaecx&#xA;cQ8W8s6n5w0jzzquv+VdAvZvLeqvI0VneH6lC5l+MOGkrH8D140/Z22zChIiVxGxdjkjCUBGZHEP&#xA;iy7Wfzq83+Vrq1HmzyxBaW94SYktr6GWcRilX4KX5e1eIPjlx1Eon1Bx4aOEx6JfY9Z0zUbTU9Ot&#xA;dRs39S0vIkngfpVJFDLt22OZcTYtwZRMTRROFio3l5bWVnPeXUgitraN5p5W6LHGpZmNPADATQtI&#xA;BJoPmfV/zc8/zxau9hrBa0mu7qNHESRGK2jMbRPBKRGOfCo4A8qEmlaEa2WeW+7uoaXGKsMx0X83&#xA;fO2vfmHpuhadbW8GlySsLiOVed0LeAkTG4o4EUtIzRabEj7Xe6OeUpABxp6WEcZkeb23M11rsVdi&#xA;qV6x5o8u6M1suq6jBZteMEthK4UuT4e2+56ZCWSMeZZwxSlyFpT5y/MCy8p6no1vqFq7WWrytB9d&#xA;jYUhkUoF5oeqnnWoO1OmQyZeAi+rZhwHICRzDIrfUdPuZGjt7qKaRPtpG6sw+YBNMtEgeTSYkcwi&#xA;MKGHaIg1zzxqutyHnaaETpGlKeiz0D3swB/aLMsVfBTlEfVMnu2/W5E/TAR/nbn9DGPzKn0XUvMU&#xA;smqlm0DyhbC61lQ201xckG3s0U7VkoC57qQu1TlWajLflFv04lGO31T5frefeWf0V58ufMHnLz3N&#xA;IND0GOMW+mW7FI0SQtwhj48SAOAUBSCzGpOUwqdylyDl5LxCMMf1S6oDy/508vz+cdLs/LnknToY&#xA;ZrqKKM3QnvbkKZBWQEyKqso+L7J4+OCMxxbRDKeGQgTKZ+56T+btpr8mqXGoReWNH17S9OtUed7i&#xA;pv0jHJnp6ckbhB1Aoe+X57vkCHD0pjVcUok/JgUVh5K1jyff+cfKMM/lrzN5aMU01pHO8sR5MAHV&#xA;pOTUYBqUp0owINcpqJjxR2IcoynGYhP1RknXlLWtH1u4sfM08bQR3V0lh5nt7WWS3EN5cUEN6hiZ&#xA;SIbvgI50J4k7kEqDkoEE2fj+v49WvLAxBj5WPd3fDo9T/MOJrCCy822yn615flElzw6yafKQl3GR&#xA;0NE/eCvQrmVmFVIdPucHTm7gf4vv6MuVldQykMrCqsNwQehBy5x28Vdir520XTtS/N78xNSudbku&#xA;LXQNG5JDawtwMZ5FYogSDR24lpGpXam21NfEHLLfk7echp8YEfqKaebdI/J7ydPLp1p5Wm1/VrWH&#xA;6zfxpJPItvAaH1LiQs6x1qKUX7qisskccdqssMUs2Tcy4QneneV/I3nLyA+q+VfLOnRahOrRQw3q&#xA;NGscqHi4aSH4zQbqQd9q03yYhGcLiN2qWSePJU5GlH8kvy489+T9Uvm1eSFNJuYiv1WOYyEzqylJ&#xA;QoXj9jkp3Bx0+KUTvyTrNRjyAVzewZluvdirzHSvy+udL/MLzH588yXUMtmqSS6bJ8TvBEBUyMCv&#xA;wmGFOApXqcxY4qkZSc2WcSxxxx5vHPMmn6Xq+saVqunHUdWOtG6pHrcqKXaBwqymSI24SAg/zALx&#xA;I6CmYc6Jsde92OORiCDQruet/llaaXrdguj6/wCSIbdtGiEVpfXMSXtvJGzF+MNxMHJH7zkoV2Wh&#xA;rXMvBRFGPJwNSTE3GfP4PU4IIYIUggjWKGJQkcSAKqqooFVRsAMywKcEm1+KGAedfzb8laNqJ8uX&#xA;qT6ncXCtFe2tmgl9NHQ1R/iWrMD9ld/GmY+XPEbHdy8OlnIcQ2eDGEafbS6Vq2jXr6AbprvS4ryW&#xA;DSZWLRiESM88cx/u0WqxmhPWtBmDy2N18naXe4I4uvVP/wAv9Z806JqWt+dINGt9at/QEd3KNRsh&#xA;LBECDWT0d2Z/TFW9KrEV3JOWYpGNyq2rPCMgIXXwL2T8uPzV0PzxHPHaxSWeo2qh7izlIb4GNOcb&#xA;j7S12OwPtmZizCfvddqNNLFz3DNcucZDapX9GXdGKn0ZKMpKsPgO4I3ByMuRZR5h8naroCTeW/J9&#xA;7aGfUNS1S3uILWGRzOfrNvcJGsCoTxSNEkLolN2O9RtmrlHYHvd7GfqkDsAz7UI/yg0RbfT/ADrq&#xA;t/5n161UR3cL3FzcpBNT94qcGjQAN8PHkT45efDH1WS4sfGlvACMfgyDWPyX0XXIdF1fyhMnlgKq&#xA;XSyrBKbkiQBkaplQqVH7NOvfLDpxKjHZqhrJRsT9T1uMMqKHbmwADNSlT3NMy3XsV/KxD/gTS7l9&#xA;5r5ZL6ZupZ7uV52JPj+8ynB9Ab9T/eHy2eHfmdq8p8gadIrHl5p1jUtVuSK/ZtpfQhj8eKxlKA+G&#xA;YeSXpB/nEl2enh+8P9GICU6KGh/IzzDKAwW71e1t3btSNVl28dyMiNoH3tk988f6pTzyr5ml9VNH&#xA;/KXy0yXxCi917UFSW549y5q0UKGn81D2WuThLpAb97Vlx9cstu4Mq/M2XTvKEGoebNMtTc6t5mtP&#xA;0XNfW5T6hFIwrPJQEsZJPTqKinw7mtazy1HcfxfJo095KgeUTfm82/LKBpfKvn0mvorpILAGnxhy&#xA;6bf7E5RjG0vc5moPqh/WQf5Vs11qWraA3xRa3pd1EqdhPbxm5gk+aNDtgx9R3j9rLU7AS7iP1PqT&#xA;R5F8yeRrJ7ohhrGmR/We+9zAPU/4kc2UfVDfqHST9GQ10Kj+XN7LeeRNBnlqZvqUMcpPUvEojY/S&#xA;UwYTcAnUCsh97I8taXYqsit4IjI0UaxmVucpVQCzEU5NTqaDrgASS+UoNXa61L8wdTmu7lLieG6B&#xA;tUXlbyRyzeiBK/LYxmRPTHH6c1XFZJd6YUICnuf5FWv1f8rtG2o0vryt135XElOv+TTM/TfQHV60&#xA;3lLPcvcV2KuxViP5hee9N8uWcdj9WOqa1qgMOn6MgDtMXqv7xd6R12Pj0HelObKIiuZLkYMBmb5A&#xA;dXhXm/Q7638y3mneZfRvL+XRJb53QvDFaywQzPBBbLEAvppwVQrDix3zBnEiVHudpimDEGPLir3v&#xA;dfyk9T/lW3l/1K8vqi05dePI8fo40pmdp/oDq9V/eSZdlzjuxV5N5W8j6F+V8+q+a/NOspcy3Uno&#xA;wX0kb8wJWLt8K+o7SyEb8ewPvmJDGMfqkXPy5pZqhAPPPPl7+VV3peoan5Z0m71TVLl2M+o3P130&#xA;IBIG5SKxdRzVivEOCMx8hh/CHLwRyggSIA+DvIE8Fn5XK2n5cXvmRNRAF7qEzMYZDExFIQsEihUY&#xA;Hcb16nbDj2H03+PcucXLeYjX473vXlTyb5W0WNL/AErRotLvLqBROFBMihqO0RZt9mG/yzNx44jc&#xA;CnV5c0pbE2GRZa0oDX5jBoWpTilYrWZxy6fDGx3yGQ1E+5njFyHveR/lx5J0mHyBpfnSwt7ceZLS&#xA;zuWt3vJClkJRM6+vMAQAyxrTlXp8gRi4sY4OIc3P1GY+IYH6b+Lz2fzd+bXmDzBFaaXf+tdX8kkd&#xA;nPpsaWkUzQrzlEc7JAzcF+0WbplHFOR2csYsUI2Ry7930T5C8s6roGhrBq+rXWsapMRLd3FzNJMq&#xA;sR/dwiQnii/j19hsMUDEbmy6jPkE5bCgq6/5vstE17QtMvCqJrkk0EUpNCsyBDGKeDluPzK4zycM&#xA;gO9GPEZRJH8KE/Kxw35e6GnRoLf6tIPCS3doXH/BIcjgPoDLU/3heCfmZYyr+Xvlpab6JqOraXeD&#xA;rxma45qPpSKuYUx6AO63a6eX7yX9IRKlcodN/ICxWUfFrGuNcpGajlFFEY2Py5QjE/3fvKRvnPlF&#xA;N9PHnXzrpJtdKgg8k/l9bqTcTKTFCyDZzJM3B7hvHop/a3yQ4pjb0x/Hza5cGM2fXk/HyZb5IvPL&#xA;d75Y1Tyj5BM897pKG9t9XvreKWCa7JoOAlPFOdOC8lFFqd6EmyFGJjHnzcfMJCQnk5Hah3IDS5NN&#xA;vvMPmnQrFraTVrzyq0OqyWIVbabU0UrI0SqApI9Va8abg7dcjGrIH837WcrEYyPLj2vueYflMTb+&#xA;Z7jVj/daPpuoXkpPQAWrxLX5vKo+eUYud+Rc3U7xrvI+99SeToE0fyHo8dyPSFlpsBua/slIQ0n4&#xA;1zZY9oD3OkyniyGupUPyxglh/L/QRKKPJaRzFfAT/vQO/Z8GAVAJ1JvIfeyfLWhLvMWv6d5f0W61&#xA;jUmZbKzUPKUUu27BVCqO5ZgP15GcxEWWeOBnIAc3ncf/ADkP5cuVI0/Qtau5DTgqW8VDXpusrnf5&#xA;Zj/m49AXL/ISHMxeU2dp+Y0vlfXtAtPKd96HmC8ju3u5IJUKoj+qEHJVU1Kr8VfHx2xQJ8JFc3PJ&#xA;x8QkZD0hkOmTf85GafodjpWk6WbCzsoxHFxitmkYD+f12k3r4AZZE5QKAaZDTmRJNk+961+WN95/&#xA;utElHnW0W31CKXjBKPTVpYyoPJ0iJQENUbUr4dzlYTMj1OBqY4xL0HZmGXOO7FWKaN+X9nZeb9S8&#xA;131y2pateMVsnlUKtnb04iKIVbfjsW2r7VatUcVSMjuW+ecmAgNh97wP8wfJvmbWb7zF5q0w3t/o&#xA;ljcvbma7ctM6xs3rGFAP954X2HgPk1MHJAm5DcO1wZYxEYGhI/j5vdfyg1rStV/L3RzpzEixt47K&#xA;7Rq1S4hjUSA/OvIexGZuCQMBTq9XAxyG+u7Msucd2KqF5YWN7EIb23iuYQwcRzIsi8l6NRgRUYDE&#xA;HmkSI5PPfzc84T+XvLmp6ZLoU0um39lLaWeoWxVrdHljMfGdaKYuPKopXkOhrWmPnycIIrZy9Li4&#xA;5A3uCjPyLtLi2/K/Rln5BpPXlRGFOKSTuyU9mB5fTktMPQGOtN5Sz3L3FdiqC1zT21LRdQ05XEbX&#xA;ttNbiQioUyxlK09uWRnGwQyhLhkD3PPtA/Km6uvy+0Tyx5kuprePTJ5pLyzs5VMV2jTvLGsj8eXE&#xA;cugI++nGiOG4gHo5c9UBkMo9fsV/zD8seZ7S58saz5I0+2mk8s/WkTTGpGpiuYkjoi1jBoqttyrU&#xA;ilcOWEhRiOSMGSJEhM/VW6TP+cH5lxRGGT8uL9rsbeqn1hoq+PFbdtv9nkPHnX0tn5TH/PH4+LGo&#xA;vIH5nfmN5pttY84QfonSbdlCwN+7KxKwZo4YSWcM/d3/ABoBlfhzyG5bBuOfFhjUNy9I0rU7jy1q&#xA;vmHQksZ9QkNx+ldItLfgGkgv3pKF5sqqkN0WDmvwqwalMvjLhJFX1HxcSURMRlddD8P2MSudOtrz&#xA;UbnQvOUQsrTzPJBJerbSR/6FrMa/AVYGUIt5Co4l+rAimUVZqXX7D+1vEiBxQ34ftj+x51+d2u27&#xA;63a+VNOtXs9H8sRm0topAys7kDnJ8W5U8Rxb9r7X7WV55b0OQcvRw9PGdzJT8uXHm780PMWl+XdS&#xA;v5F0i2UepFAqxQwwQJSojQBOZA4qWGxPhgjxZCIkpyCGGJkBupedPP01qLryn5VgOh+XLWR4JY46&#xA;rc3TIeDyXMh+M8qfZ8Njgnk6DYJxYL9cvVL7vcx/yF5puPK3mzT9ZhQyrA/GeBeskUg4SKPfifh9&#xA;6ZGE+E2258XHAxey3/lbynZapNpvlyOR/wBOG31HW7a4KxCG15etb6cnMRmJ7ycqvF2qqip2GZEo&#xA;RBodfxXxdfHJMi5fw7D9fwZd5g1/X9Q8sHy7e6fNp3mHWJY9JV29MxyLMpNxcw+m83wR24Zn/kY8&#xA;anrls5yMeEipHZx8eOIlxA3Eb/j4vQbW2htbaK2gXhBAixxIOgRBxUfQBmSBQpxCbNqmFDsVStfN&#xA;fldklkXWLEpBT13FzCQlTxHM8vhqdt8h4ke8NnhT7iq3Gv6FbWsN3c6lawWtyK29xJNGkcgpX4HZ&#xA;gG28MJnEb2gY5E0AV13rmi2VvDcXmoW1tb3ABgmmmjjSQEVBRmIDbb7YmYHMoEJHYBVsdR0/UIfX&#xA;sLqG7grT1YJFkSo7ckJGESB5IlEjmFCw1/QtQaRbDUrW7aJecogmjlKr4twY0GATieRZSxyHMFy+&#xA;YdAawbUF1O0NgjcHuxPGYQ+3wmTlxB3G1ceONXey+HK6o2i7a6trqBLi1mSe3kHKOaJg6MPFWWoO&#xA;EEHkxII2KlqGp6Zp0Am1G7hs4Hb01kuJEiQsQTxBcgVoDtjKQHNMYk8haBsNR8o2bQ2On3Wn27Xd&#xA;Jre1t5IUMvqdHREI5cqdQN8hGUBsKZSjM7m0XFrOjzT3EEV9byT2gJu4klRniC7H1FBqlPfJcY72&#xA;JhLuWReYdAmspb6LU7SSygPGe6SeNokJpQO4bivUdTjxxq7Sccrqjbk1/QnsH1FNStW0+JuEl4Jo&#xA;zCrEgUaQNxBqw798eONXey+HK6o2sbzN5bS3huW1WzW3uCy28xuIgkjKaMEblRiD1pg8SPeF8OXK&#xA;i3feYfL2mzC2vtTtLObiGEM88UTcTsDxZgabYmcRzIWOOR3AJVJNb0aOwTUZL+2TT5KBLxpoxC1T&#xA;QUkJ4np44eMVd7I4JXVbrtP1jSNSV206+t71YyBIbeVJQpPSvAtTGMgeRWUDHmKW3et6LZ3UVpd3&#xA;9tb3c5Agt5Zo0kcsaDgjEM1TttiZgGiVEJEWA1f69oenzJBf6jbWk0g5RxTzRxMwJpUK5BIriZxH&#xA;MpjjkeQJa1DzBoGnTLBqGpWtnMyh1iuJ44mKkkBgrsDSoO+MpxHMrHHI8gS3Br+hXFlNfwajay2N&#xA;uxWe6SaNoo2ABIdw3FTRgdz3xExV3spxyBqjakvmjy0whK6tZMLliluRcRH1GBAKp8XxGpAoMHiR&#xA;7wvhS7ilvnbQL6+httW0cL+ntILyWSueKTxSDjPaueyzIKA/ssAcjlgTuOYbMOQDY/SfxbzVoLae&#xA;BrgRRReTTHJb3uklS2o3upPRVtbrkzXBvlm+JX6KByBIY8cT/c/aT3e9zLI2/j7+gHeOlJxD5l80&#xA;abYXOkzXt1d29q3ojW7KOG71KxdFR2hv7VllWcRiVQ00Na/M5YMkgK/tHvazjjI3Xw5A+4/oLHot&#xA;c/Ni9YNofnvStYhZxxVRZWtwEFeQkgmt+SMdu5yHiTPKQPybeDEPqgR8/wBbcmrfnXawsdW826Vp&#xA;RCArNcS6eEqGPIlVhkdqrsAo648eTqQPkvBhPKJPzTfRvOHnCS0W2h10X8l8yxJ5k1O3t9O02Jm2&#xA;pZxlIpryWuw/ZrTJRyy7/jyH7WueGF3VV0G5+PcoabYaLDDMNSgkm0u1l+ta/Lqf1iz1C3uZPVEe&#xA;peufTWblwaMLH9hgPTLbs0YgdeXXv97KUpdOfStx7vx8WX+RtJvb+6TzPqn1jjHB9U0C3vGLXEdq&#xA;aGS5nr0nuioZqD4VouX4ok+o/Bx88wBwj4/q9wZxmQ4rsVdiryDzF5bW3/NmLSbZ0j0fzpAJtata&#xA;fabT29ZuNKU9YLxb/Wc9cw5w/eV0k7DHkvFZ5w5fFM/z/iiHkGFQi8Uv7UIKCgFSKD6Mlq/oYaE/&#xA;vPg7/nIGNf8AAMfFVqt/a8KjYbkY6v6Piug/vPgoflIJrPzl5302+hSPVvrUNzdG0NbLjIrMgiFA&#xA;Uaj/ABctz9GDT7SkDzTqt4QI5faj/wApooE1fz0YlUV1+5BKgdt6fQSclg5y97HVHaH9V57rkeqe&#xA;ULTX9ctEN35Z8x3Osadq9ktKWtyLu5gtpVXoq8Qo/DuuUTBjZHI2HLgRkMYn6o8JHyFvfNJRI9Ks&#xA;kRQqLBEqqooAAgAAAzOhyDqp8ywv894+f5V638PJk+rMu1SKXUVSP9jXKtR9BcjRf3o/HRFQ/o67&#xA;80+UZLf0Z2g0q7mRk4sUjYWyI4p0U8iB9OAUZR9yDYhK+8fpYj5703XLLzzqfnHy4eWoaBbWUl7Y&#xA;DYXVpL63rq1OrKsQPy6bgZVkBEzIdKcjBKJxiEuUr+bIfKF1Yaj+U19fWkIis779M3EMJUDjHJd3&#xA;LIpA22Wgy2NHGfi05QRlAPMcP3B35R6dZ6h+T+lWF3GJLW7t7iKeM/tK88oOOCIOOj5rqpEZiQxz&#xA;8qbe6u57bypqUPP/AAJeXbSyMtVeSQlLMiv+TJOw8OKnKsAJPCf4fx+tu1RAHGP4wP2/oTj8x4rh&#xA;vzK8hmxhtpr911VVS7JWJgLZaByqu1BViu3XLMw9ca57tenP7ud8tkRr8FvH+Suq2vpwJPb6fMt/&#xA;Bb0MMd6BzuUShIHGctQDp2xkB4RH4tECfGB8/s6fYxf8pWin/MAy3US6Xe2/l6xhtbOI8lvIGjjc&#xA;3RcBQSBxHGm3j8JyrT/V3bN2q2x7bjiPw8l3neS50DzRrPmdYode8q6hcWdl5hsjyW6s57YJ6Rjb&#xA;4TtyV1ody3ybDk2kTzj1XD6oiP0yF15p/wDmhGjefPy85KG/3IT9RXoIiPxyef64+/8AU1ab+7n7&#xA;l/57aVpw/L3XtV9BTqDw2Vubg1LCKO+RlVa7LvK1ade/QZLURHCT1RopHxAOm/3My0XRNJg0t1it&#xA;UWPUUjkvYqVjkcwJESUPw7oig0G+WQgK97jzmSfc83/K/QfQ83az5fuHW40zyXdNJosbglkbU6up&#xA;JOxMSRsBt1dj4Ux8MPUQeUXM1OT0CQ5z5/B69mY69i3mLybNcag2uaBcLp2vcVWYyKXtbtY90S6j&#xA;FDVf2ZF+Ne3hlM8VmxsW/HmocMt4/d7mJ6dfaV5W/Sz6pp82g67fIVtru7d59OMqwLEpiv1B4+qY&#xA;leRpeLk/aqQMpBELsUfs+bkSBnVHiiPn8kBc6ZqOpabY3MVhaeYJnTjcmeGz1FkAjgt1c3MYkqzT&#xA;mSc/vD+75AUNKQokbb/ayEgCRZj8x39PsR7+UvqQ+tWGl6fpkVrq72tzI1lbQOdPcqBcRzTIWJjq&#xA;TUGhFfDJHGfIb93Rj4t7Ek+nvPPuSXU4NL1m81bTY7m58yStfC40ltMle5uLdeQLI90QsECFXaJi&#xA;0zHjw+EFKZCQBJH1NkSYgH6dt7/V1+TN9H8jX19cw6j5qMbCBkltNEhZpYUkjAVJrud/jvLhVUDk&#xA;/wAK9hmRHETvL5fr73GnnAFQ+f6u4M4zIcV2KuxV2KpXeeVvLt7qkWq3enwTalBT0bt1BkTj04t1&#xA;GQOOJNkbtgyyAoHZU1ny/omtwJBq1lFfQxtzSOZQ6hulQD3wygJc0QySjyNLNV8r+XtWtYLTU9Ph&#xA;vLa2/uIZlDqlBTYH2GCWOJ5hY5ZRNgq2laHo2kRPFpdlBZJK3OUQRqnNv5nIFWPucMYCPIIlOUuZ&#xA;tQ0nyt5d0h55NM0+Cze6/wB6WiUKZO/xU69cEccRyDKWWUuZWQeUfLMGmXWlw6bAmn3tfrVqEHCT&#xA;l1LDx98RjiBVKcsibvcJtGiRosaDiiAKqjsBsBk2tTurW2u7aS2uokntplKTQyKHR1YUKspqCDgI&#xA;tIJBsJdoHlLy15eWUaLp0Nj65BmMS0ZqdAWNTQV2GRhjjHkGeTLKf1G1e30DRbfVJ9Vgs4o9SuRx&#xA;uLpVpI48GPfCIAG+qDkkRV7LYvLuhxaO2jR2USaU3PlZBf3VJHMjjj4F2JpjwCq6Kckr4r3VdJ0b&#xA;StHsxZaXax2doGLCCFeKAt1IA8cYxA2CJTMjZ3X22m2Ftc3V1bwJFcXrrJdyqKNIyII1LfJVAwiI&#xA;G6mRIA7kFqnlLy1qt7He6jpsF1eRKFinkQM6gGtFPbrkZY4k2QyjllEUC23lXy42jjRW06A6SGLf&#xA;UuA9LkWLk8fdiTj4caqtl8WV8V7rIvJ3leGawnh0yCKbSwV0+VF4tCrEkqrCh4/Gfh6b4+FHbbkp&#xA;zSN783T+T/K9xqp1abTYJNQZkkeZlryeIUjdl+yWT9liKjAcUSbrdRmkBV7Kuq+V/L2rXUF1qWnw&#xA;3dza/wC88sqhmj35fCe2+GWOJ5hEcsoigVXWNC0bWrYWurWcV7bKwcQzKGXkOhocMoCXNYTlE2DS&#xA;JtLS2s7aO1tY1ht4V4xRLsqqOwwgACgxJJNlAad5W8u6bfzahYafBbXtxX17iNQrvyNTyPffIxxx&#xA;BsBnLLIiidk0ybW7FVsvp+m/q8fS4n1OVOPGm9a7UpiVDzzWf+VEfWT9d/Qv1up5fVvT9avfl9W+&#xA;OvzzGn4PWvx7nMh4/Ti/HvQ1h/yoD60vD9E+vtw+u0p3+z9a+H7v6ZGHg9KTL8xXX8e56Lpv6N+p&#xA;Rfoz0fqVP3P1bh6VP8nh8P3ZkxqtuTiSu9+aJyTF2KuxV2KuxV2KuxV2KuxV2KuxV2KuxV2KuxV2&#xA;KuxV2KuxV2KuxV2KuxV2KuxV2Kv/2Q==</xmpGImg:image>
               </rdf:li>
            </rdf:Alt>
         </xmp:Thumbnails>
         <xmp:MetadataDate>2022-05-17T22:54:09+08:00</xmp:MetadataDate>
         <xmp:ModifyDate>2022-05-17T22:54:09+08:00</xmp:ModifyDate>
         <xmpTPg:MaxPageSize rdf:parseType="Resource">
            <stDim:w>7139.000000</stDim:w>
            <stDim:h>1824.000000</stDim:h>
            <stDim:unit>Pixels</stDim:unit>
         </xmpTPg:MaxPageSize>
         <xmpTPg:NPages>1</xmpTPg:NPages>
         <xmpTPg:HasVisibleTransparency>False</xmpTPg:HasVisibleTransparency>
         <xmpTPg:HasVisibleOverprint>False</xmpTPg:HasVisibleOverprint>
         <xmpTPg:PlateNames>
            <rdf:Seq>
               <rdf:li>Cyan</rdf:li>
               <rdf:li>Magenta</rdf:li>
               <rdf:li>Yellow</rdf:li>
               <rdf:li>Black</rdf:li>
            </rdf:Seq>
         </xmpTPg:PlateNames>
         <xmpTPg:SwatchGroups>
            <rdf:Seq>
               <rdf:li rdf:parseType="Resource">
                  <xmpG:groupName>默认色板组</xmpG:groupName>
                  <xmpG:groupType>0</xmpG:groupType>
               </rdf:li>
            </rdf:Seq>
         </xmpTPg:SwatchGroups>
         <dc:format>image/svg+xml</dc:format>
         <xmpMM:DerivedFrom rdf:parseType="Resource"/>
         <xmpMM:DocumentID>xmp.did:08c5af32-5748-e54d-a733-a807d024b39c</xmpMM:DocumentID>
         <xmpMM:InstanceID>xmp.iid:08c5af32-5748-e54d-a733-a807d024b39c</xmpMM:InstanceID>
         <xmpMM:OriginalDocumentID>xmp.did:08c5af32-5748-e54d-a733-a807d024b39c</xmpMM:OriginalDocumentID>
         <xmpMM:History>
            <rdf:Seq>
               <rdf:li rdf:parseType="Resource">
                  <stEvt:action>saved</stEvt:action>
                  <stEvt:instanceID>xmp.iid:08c5af32-5748-e54d-a733-a807d024b39c</stEvt:instanceID>
                  <stEvt:when>2022-05-17T22:54:09+08:00</stEvt:when>
                  <stEvt:softwareAgent>Adobe Illustrator 25.3 (Windows)</stEvt:softwareAgent>
                  <stEvt:changed>/</stEvt:changed>
               </rdf:li>
            </rdf:Seq>
         </xmpMM:History>
      </rdf:Description>
   </rdf:RDF>
</x:xmpmeta>
                                                                                                    
                                                                                                    
                                                                                                    
                                                                                                    
                                                                                                    
                                                                                                    
                                                                                                    
                                                                                                    
                                                                                                    
                                                                                                    
                                                                                                    
                                                                                                    
                                                                                                    
                                                                                                    
                                                                                                    
                                                                                                    
                                                                                                    
                                                                                                    
                                                                                                    
                                                                                                    
                           
<?xpacket end="w"?>
	</metadata>
<g>
	<path id="外环_1_" style="fill:#77331D;" d="M1574.8,228c-377.6,0-683.7,306.1-683.7,683.7s306.1,683.7,683.7,683.7
		s683.7-306.1,683.7-683.7S1952.4,228,1574.8,228z M1574.8,1574.1c-365.8,0-662.4-296.5-662.4-662.4
		c0-365.8,296.6-662.4,662.4-662.4s662.4,296.5,662.4,662.4C2237.1,1277.5,1940.6,1574.1,1574.8,1574.1z"/>
	<path id="内环_1_" style="fill:#77331D;" d="M1574.8,402.7c-281.1,0-509,227.9-509,509s227.9,509,509,509s509-227.9,509-509
		C2083.7,630.6,1855.9,402.7,1574.8,402.7z M1574.8,1396.5c-267.8,0-484.9-217.1-484.9-484.9s217.1-484.9,484.9-484.9
		s484.9,217.1,484.9,484.9C2059.6,1179.5,1842.6,1396.5,1574.8,1396.5z"/>
	<path style="fill:#77331D;" d="M1504.4,1210.8c-0.1,0.6-0.1,1.1-0.2,1.7v0.4c-2,15.8-15.6,14.6-28,14.9
		c-52.3-0.1-95.1-0.1-147.3-0.3h-3.6c-13.1,0-26.1,0-39.2-0.1c-8.6,0-12.3-1.5-18.2-7.5c-0.8-0.8-1.6-1.6-2.4-2.5l-1.1-1.1
		c-5.6-5.8-11.1-11.8-16.3-18c-3.1-3.6,5.5-1.5,40.5-52.6c35.1-51.1,47-136.4,53.1-223.2c3.9-55.5,1.3-111.4,8.1-166.6
		c3.3-27.3,15.7-56.2,30-73.9c22.2-27.6,79.5-47,113.7-53c18.2-3.2,33.3-3.5,41.7-1.6c0.5,0.1,0.9,0.2,1.3,0.3s0.8,0.3,1.2,0.4l0,0
		c0.4,0.2,0.8,0.3,1.2,0.5c0.4,0.2,0.8,0.4,1.1,0.5l0,0c0.4,0.2,0.7,0.4,1.1,0.6s0.7,0.4,1,0.7l0,0c0.3,0.2,0.6,0.5,0.9,0.7l0,0
		c0.3,0.2,0.6,0.5,0.9,0.8l0,0c14.7,13.6,7.3,47.3-1,62.4c-17.8,41-107.3,67.6-144.2,97.9c-24.4,28.6-8.8,58.9,30.6,42.1
		c39.5-16.8,67.3-32.5,93.2-48.2c33.6-20.4,68.8,25.1,18.2,61c-2.6,1.8-5.3,3.8-8.1,5.8l-132.7,78.2c-37.7,24-11.2,68.3,28.4,44.7
		l131.8-78.3c32.3-24.2,85.5,14.9,28.8,56.2L1419.2,1059c-45.3,28.8-24.3,79.4,27.6,51.2c52.6-28.9,99-58.6,146.9-93.9
		c57-42,94.6,12.4,24.3,58.4c-3.3,2.5-6.7,5-10.1,7.5c-3.4,2.4-6.8,4.9-10.2,7.3c-3.4,2.4-6.8,4.8-10.1,7.2c-3.4,2.4-6.7,4.8-10,7.3
		c-3.3,2.4-6.6,4.9-9.8,7.4c-3.2,2.5-6.4,5-9.5,7.6s-6.1,5.2-9.1,7.9c-2.9,2.7-5.8,5.5-8.5,8.3c-2.8,2.8-5.4,5.8-7.9,8.8
		s-4.9,6.2-7.2,9.4c-2.3,3.2-4.4,6.6-6.4,10.1s-3.8,7.1-5.4,10.9s-3.1,7.7-4.4,11.8c-1.3,4.1-2.4,8.3-3.2,12.8
		C1505.4,1202.8,1504.9,1206.8,1504.4,1210.8L1504.4,1210.8L1504.4,1210.8L1504.4,1210.8L1504.4,1210.8L1504.4,1210.8L1504.4,1210.8
		z"/>
	<path style="fill:#77331D;" d="M1548.1,1294.3c-1.9,0-3.4,0.6-4.4,1.8c-1.1,1.2-1.6,2.9-1.6,5s0.5,3.8,1.6,5c1,1.2,2.5,1.8,4.4,1.8
		c2,0,3.4-0.6,4.5-1.8c1-1.2,1.5-2.9,1.5-5.1c0-2.1-0.5-3.8-1.6-5C1551.5,1294.9,1550,1294.3,1548.1,1294.3z"/>
	<path style="fill:#77331D;" d="M1667.1,1294c-1.4,0-2.5,0.4-3.4,1.3s-1.3,2-1.3,3.4s0.4,2.6,1.3,3.5s2.1,1.3,3.6,1.3
		c1.3,0,2.4-0.4,3.3-1.3s1.3-2,1.3-3.4s-0.4-2.6-1.3-3.5C1669.6,1294.5,1668.5,1294,1667.1,1294z"/>
	<path style="fill:#77331D;" d="M1667.1,1310.4c-1.4,0-2.7,0.6-3.8,1.7c-1.1,1.1-1.6,2.7-1.6,4.6c0,1.8,0.5,3.3,1.6,4.5
		s2.4,1.8,3.9,1.8c1.4,0,2.6-0.6,3.7-1.8c1.1-1.2,1.6-2.7,1.6-4.5s-0.6-3.3-1.7-4.5C1669.9,1311,1668.6,1310.4,1667.1,1310.4z"/>
	<path id="_x31_978_颜色修正_1_" style="fill:#77331D;" d="M1820.8,1277.6c-0.8-0.9-2.4-1.5-4.8-1.5h-470l0,0
		c-2.4,0-4,0.6-4.8,1.5c-0.7,0.8-0.1,1.2,0.7,1.7c31.2,20.7,64.6,37.3,100.8,49.5l3.5,1c2.6,0.7,5.2,1.4,7.8,2.1
		c2.6,0.7,5.3,1.3,7.9,1.9s5.3,1.2,8,1.8c2.7,0.6,5.3,1.1,8,1.7c2.7,0.5,5.4,1,8.1,1.5s5.4,0.9,8.1,1.4c2.7,0.4,5.5,0.9,8.2,1.2
		c2.8,0.4,5.5,0.8,8.3,1.1c2.8,0.4,5.5,0.7,8.3,1s5.6,0.6,8.3,0.9c2.8,0.3,5.6,0.5,8.4,0.7s5.6,0.4,8.4,0.6s5.6,0.3,8.5,0.4
		c2.8,0.1,5.7,0.2,8.5,0.3c2.9,0.1,5.7,0.1,8.6,0.2s5.7,0.1,8.6,0.1h2.8h0.1l0,0h2.8c2.9,0,5.7,0,8.6-0.1c2.9,0,5.7-0.1,8.6-0.2
		s5.7-0.2,8.5-0.3c2.8-0.1,5.7-0.3,8.5-0.4c2.8-0.2,5.6-0.4,8.4-0.6s5.6-0.5,8.4-0.7c2.8-0.3,5.6-0.6,8.4-0.9s5.5-0.6,8.3-1
		s5.5-0.7,8.2-1.1s5.5-0.8,8.2-1.2c2.7-0.5,5.4-0.9,8.1-1.4c13.4-2.4,26.7-5.4,39.8-9.1l3.5-1c36.1-12.3,69.6-28.8,100.8-49.5
		C1820.9,1278.7,1821.6,1278.4,1820.8,1277.6z M1499.1,1329.4L1499.1,1329.4h-11.6h-0.1V1303c0-0.9,0.2-1.5-0.6-1
		c-1.7,1.2-3.3,2.3-4.9,3c-1.8,0.9-3.9,1.7-6.6,2.6c-0.1,0-0.1,0-0.1,0v-9.4c0-0.1,0-0.1,0.1-0.1c3.9-1.3,6.9-2.8,9.1-4.6
		c1.9-1.6,3.5-3.4,4.7-5.6c0.5-0.9,0.5-0.9,1.4-0.9h8.5c0.1,0,0.1,0,0.1,0.1V1329.4z M1560.9,1324.7c-3.3,3.9-8,5.9-14.1,5.9
		c-4.2,0-7.6-1-10.2-3s-4-4.7-4.4-8.1c0-0.1,0-0.1,0.1-0.1h10.1c0.1,0,0.1,0,0.1,0.1c0.4,1.2,1,2.2,1.7,2.8c0.8,0.6,1.8,0.9,3.1,0.9
		c2.1,0,3.7-0.9,4.9-2.7c1.2-1.8,1.9-4.4,2.2-7.8c-1.3,1-2.6,1.7-4.1,2.2c-1.4,0.5-2.9,0.7-4.5,0.7c-4.5,0-8.1-1.2-10.7-3.7
		s-3.9-5.8-3.9-10.1c0-4.8,1.5-8.5,4.5-11.3c3-2.7,7.1-4.1,12.3-4.1c5.7,0,10.1,1.9,13.2,5.6s4.6,9.1,4.6,16
		C1565.9,1315.2,1564.2,1320.8,1560.9,1324.7z M1625.1,1295.2c0,0.4-0.2,0.5-0.5,0.8c-2.8,2.6-4.9,5.2-6.8,8.2
		c-2.4,3.8-4.3,7.9-5.7,12.5c-1.1,3.6-1.8,7.8-2.2,12.7c0,0,0,0-0.1,0h-11.5l0,0c0.9-6.8,2.3-12.5,4.3-17.1c1.9-4.6,5-9.5,9.2-14.7
		c0.1-0.1,0.1-0.1,0-0.1h-20.5l0,0v-9.7l0,0h31.2c2.3,0,2.5-0.2,2.5,1.8L1625.1,1295.2L1625.1,1295.2z M1682.8,1323
		c-1,1.8-2.1,3.2-3.5,4.2s-3.1,1.7-5.2,2.2s-4.3,0.7-6.7,0.7c-4.4,0-7.8-0.5-10.1-1.6c-2.3-1-4.1-2.6-5.3-4.6
		c-1.2-2-1.8-4.3-1.8-6.8s0.6-4.5,1.7-6.2s2.9-3,5.3-3.9c-1.8-1-3.1-2.1-4-3.2c-1.1-1.6-1.7-3.5-1.7-5.6c0-3.5,1.6-6.3,4.9-8.6
		c2.5-1.7,5.9-2.5,10.2-2.5c5.6,0,9.7,1.1,12.4,3.2c2.7,2.1,4,4.8,4,8c0,1.9-0.5,3.6-1.6,5.3c-0.8,1.2-2.1,2.4-3.8,3.5
		c2.3,1.1,3.9,2.5,5.1,4.3c1.1,1.8,1.7,3.7,1.7,5.9C1684.3,1319.3,1683.8,1321.2,1682.8,1323z"/>
	<path style="fill:#77331D;" d="M1107.9,1188.8l-11.4-24.5l-3.8,1.8c0.7,2.1,1.2,3.8,1.4,5.1c0.2,1.3,0.2,2.3-0.1,2.9
		c-0.3,0.7-0.8,1.1-1.6,1.4c-0.8,0.3-1.9,0.5-3.2,0.6c-2.3,0.2-4.8,0.3-7.5,0.4s-5.4,0.1-8.1,0.2c-2.7,0-5.3,0-7.8,0
		c-2.4,0-4.6,0-6.5,0c3.2-4,6.5-8,9.8-12c3.3-3.9,6.5-7.7,9.7-11.5c1.1-1.4,2.1-2.3,2.9-2.7c0.8-0.5,1.6-0.4,2.4,0.3
		c0.9,0.7,2,2,3.3,4.1l3.8-1.8l-14.1-30.3l-3.8,1.8c0.5,1.4,0.8,2.8,1,3.9s0.1,2.2-0.1,3.2c-0.2,1.1-0.7,2.2-1.4,3.5
		c-0.7,1.3-1.8,2.8-3.1,4.5c-2.5,3.2-4.8,6.1-6.8,8.7s-3.8,4.9-5.5,7c-1.6,2-3.2,3.9-4.6,5.6s-2.7,3.2-4,4.7c-0.5,0.6-1,1-1.5,1.5
		c-0.5,0.4-1,0.9-1.6,1.2c-0.6,0.4-1.4,0.8-2.4,1.2l-13.3,6.2c-2.4,1.1-4.4,2-6,2.5s-2.9,0.6-3.9,0.3c-1-0.3-2-1-2.9-2.1
		s-1.9-2.8-3.1-4.9l-3.8,1.8l16.1,34.5l3.8-1.8c-0.9-2.4-1.5-4.3-1.8-5.8s-0.3-2.8,0.2-3.8c0.4-1,1.3-2,2.7-2.8
		c1.4-0.9,3.3-1.9,5.7-3l14.7-6.9c1.3-0.6,2.4-1.1,3.3-1.3c0.9-0.3,1.7-0.4,2.5-0.5s1.8-0.1,2.9-0.1c3.4,0,6.4,0.1,9,0.1
		s5,0.1,7.2,0.2s4.3,0.2,6.4,0.3c2.1,0.1,4.2,0.3,6.5,0.4c2.3,0.2,4.1,0.4,5.6,0.7c1.5,0.3,2.8,0.7,3.8,1.3c1,0.6,2,1.3,2.8,2.3
		c0.9,1,1.7,2.2,2.6,3.7L1107.9,1188.8z"/>
	<path style="fill:#77331D;" d="M1072,1282.2l3.5-2.3c-1-1.9-1.7-3.4-2.1-4.7c-0.4-1.3-0.4-2.4-0.1-3.4c0.4-1,1.1-2,2.3-2.9
		c1.2-1,2.8-2.2,4.9-3.5l41.1-26.7c2.2-1.4,4-2.5,5.4-3.2s2.6-1,3.7-0.9c1,0.1,2,0.6,3,1.4c1,0.9,2.1,2.2,3.4,3.9l3.5-2.3
		l-19.2-29.5l-3.5,2.3c1,1.9,1.7,3.4,2.1,4.7c0.4,1.3,0.4,2.3,0.1,3.3c-0.4,1-1.1,2-2.3,3c-1.2,1-2.9,2.3-5.1,3.7l-41.1,26.7
		c-2.1,1.4-3.9,2.4-5.3,3.1c-1.4,0.6-2.6,0.9-3.6,0.9c-1-0.1-2-0.6-3-1.5s-2.1-2.1-3.4-3.8l-3.5,2.3L1072,1282.2z"/>
	<path id="B_颜色修正_1_" style="fill:#77331D;" d="M1188,1301c-0.2-1.8-0.7-3.7-1.4-5.5c-0.8-1.9-1.8-3.8-3.2-5.8
		c-1.4-2-3.1-4.2-5.1-6.6l-22.4-25.8l-3.2,2.8c1.3,1.7,2.2,3.2,2.8,4.4c0.6,1.2,0.7,2.3,0.5,3.3s-0.9,2.1-1.9,3.3
		c-1,1.2-2.6,2.6-4.5,4.3l-36.8,32c-1.9,1.7-3.6,3-4.9,3.9s-2.5,1.3-3.6,1.4c-1.1,0-2.2-0.3-3.3-1.1c-1.1-0.8-2.5-2-4.1-3.6
		l-3.2,2.8l19.4,22.3c2.1,2.5,4.4,4.8,6.7,6.9c2.3,2.1,4.6,3.9,7,5.4s4.8,2.7,7.1,3.4c2.4,0.8,4.8,1.2,7.2,1.2
		c2.5,0,4.9-0.4,7.3-1.2c2.4-0.8,4.8-2.3,7-4.2c2.9-2.6,4.8-5.5,5.6-8.7c0.8-3.2,0.7-6.6-0.3-10.2s-2.7-7.3-5.2-11l0.3-0.2
		c1.8,1.3,3.7,2.5,5.8,3.5c2.1,1,4.3,1.7,6.5,2c2.3,0.4,4.6,0.2,6.9-0.4s4.6-1.9,6.8-3.8c2.3-2,4-4.3,5-6.8
		C1188,1306.2,1188.3,1303.6,1188,1301z M1142.8,1331.7c-2.5,2.1-4.8,3.6-7.1,4.5c-2.3,0.9-4.4,1.3-6.4,1.2c-2-0.1-3.8-0.5-5.4-1.3
		s-2.9-1.8-4-3.1c-1.3-1.5-2.1-2.9-2.4-4.3s0.1-2.8,1-4.2c0.9-1.5,2.4-3.2,4.6-5l18.4-16l1.7,1.9c4.2,4.8,6.3,9.5,6.3,13.9
		C1149.5,1323.6,1147.2,1327.8,1142.8,1331.7z M1175.8,1293.2c-0.1,1.7-0.7,3.5-1.8,5.4c-1,1.8-2.6,3.7-4.8,5.6
		c-4,3.6-7.8,5.2-11.3,4.9c-3.5-0.3-7.1-2.5-10.7-6.7l-1.9-2.2l18-15.7c1.3-1.1,2.3-1.9,3.2-2.4c0.9-0.5,1.6-0.7,2.2-0.6
		c0.5,0.1,1.1,0.3,1.8,0.7c0.7,0.4,1.5,1.1,2.3,2c1.1,1.2,1.9,2.6,2.4,4.1S1175.9,1291.4,1175.8,1293.2z"/>
	<path style="fill:#77331D;" d="M1192.2,1409l2.8-3.2c-1.5-1.5-2.6-2.8-3.3-4c-0.7-1.1-1-2.1-1-3.2c0.1-1,0.5-2.2,1.4-3.5
		s2.1-2.9,3.7-4.7l32.2-37c1.7-2,3.1-3.5,4.3-4.6c1.2-1.1,2.3-1.7,3.2-1.9c1-0.2,2.1,0,3.3,0.5c1.2,0.6,2.7,1.5,4.4,2.8l2.8-3.2
		l-26.6-23.1l-2.8,3.2c1.5,1.5,2.6,2.8,3.3,3.9c0.7,1.1,1.1,2.2,1,3.2s-0.5,2.2-1.4,3.5s-2.2,3-3.9,4.9l-32.2,37
		c-1.6,1.9-3.1,3.4-4.2,4.4c-1.2,1-2.2,1.6-3.2,1.8c-1,0.2-2.1,0-3.3-0.6c-1.2-0.6-2.6-1.5-4.3-2.7l-2.8,3.2L1192.2,1409z"/>
	<path style="fill:#77331D;" d="M1332.7,1402.9l-24.3-15.2l-2.2,3.5c2.2,1.5,3.9,2.9,4.9,4.2c1.1,1.3,1.6,2.5,1.8,3.7
		c0.1,1.2-0.2,2.5-0.8,3.9c-0.5,1.2-1.2,2.6-2.1,4.3c-0.9,1.7-2,3.8-3.3,6.1c-1.3,2.4-3,5.1-4.9,8.2l-11.8,18.9l-0.4-0.3l-6.3-68.4
		l-18.5-11.6l-2.2,3.5c1.4,1,2.5,2,3.3,3s1.4,2,1.8,3s0.6,2.2,0.7,3.4c0.1,0.8,0,1.6-0.1,2.4c-0.2,0.8-0.4,1.6-0.9,2.5
		c-0.4,0.9-1,1.9-1.7,3.2c-0.7,1.2-1.7,2.7-2.8,4.5l-14.1,22.6c-2.8,4.5-5.3,8.1-7.3,10.9s-3.7,4.9-4.9,6.4c-1,1.3-2,2.2-3.2,2.7
		c-1.1,0.5-2.4,0.7-3.9,0.4c-1.4-0.2-3.2-0.9-5.1-2l-2.2,3.5l24.7,15.4l2.1-3.5c-2.4-1.6-4.1-3.1-5.2-4.5c-1-1.3-1.6-2.6-1.6-3.9
		s0.3-2.6,1-4.1c0.8-1.7,2.1-4.1,3.7-7.1s3.8-6.8,6.7-11.3l14.8-23.7l0.3,0.2l5.6,76.5l5.4,3.4l27-43.2c1.9-3.1,3.7-5.8,5.2-8
		c1.5-2.3,2.9-4.2,4.1-5.7s2.2-2.8,3-3.9c0.9-1.2,1.9-2,3-2.5s2.3-0.6,3.6-0.3c1.4,0.3,3,1,4.9,2L1332.7,1402.9z"/>
	<path style="fill:#77331D;" d="M1464.2,1448.2l-28-8l-1.1,4c2.6,0.9,4.6,1.8,6,2.8s2.3,2,2.8,3.2c0.5,1.1,0.6,2.4,0.3,3.8
		c-0.2,1.2-0.5,2.6-0.8,4.2s-0.8,3.6-1.3,5.8c-0.6,2.3-1.3,5-2.2,8.2l-4.1,14.4c-2.8,9.9-6.4,16.8-10.8,20.8
		c-4.3,3.9-9.6,5-15.6,3.3c-5.9-1.7-9.6-5.1-11.2-10.4c-1.6-5.2-1.1-12.1,1.4-20.8l8.5-29.7c0.7-2.6,1.4-4.7,2-6.2
		c0.7-1.5,1.4-2.6,2.2-3.2c0.8-0.6,1.8-1,3.1-1c1.2,0,2.9,0.2,4.8,0.6l1.2-4l-33.2-9.5l-1.2,4.1c2,0.7,3.5,1.4,4.6,2.1
		s1.8,1.5,2.2,2.5c0.4,1,0.4,2.3,0.2,3.9c-0.3,1.6-0.8,3.7-1.5,6.4l-8.7,30.2c-1.3,4.7-2.2,8.9-2.6,12.5c-0.4,3.7-0.3,6.9,0.2,9.8
		c0.6,2.9,1.6,5.5,3.2,7.8c1.3,2.1,2.9,3.9,4.8,5.4s3.9,2.8,6.2,3.9c2.3,1.1,4.6,2,7.1,2.7c2.7,0.8,5.4,1.2,8.1,1.2s5.3-0.3,7.9-1
		s4.9-1.7,7.2-3.1c2.7-1.8,5.1-4.1,7.1-6.8c2-2.7,3.8-5.9,5.3-9.4s2.8-7.3,3.9-11.4l3.8-13.1c0.9-3.2,1.8-5.9,2.5-8.1s1.4-4,2-5.5
		s1.2-2.9,1.7-4.1c0.5-1.3,1.3-2.4,2.2-3.2c0.9-0.8,2.1-1.2,3.6-1.4c1.4-0.1,3.2,0,5.3,0.5L1464.2,1448.2z"/>
	<path style="fill:#77331D;" d="M1561.8,1459.7l-28.5-3.5l-0.5,4c2.7,0.4,4.7,1,6.3,1.7c1.5,0.7,2.5,1.5,3.1,2.6s0.9,2.3,0.9,3.9
		c0,1.3,0,2.9-0.1,4.8s-0.2,4.3-0.4,7c-0.2,2.7-0.5,5.9-1,9.5l-2.7,22.2l-0.5-0.1l-34.6-59.3l-21.7-2.7l-0.5,4.1
		c1.7,0.3,3.1,0.8,4.3,1.3c1.2,0.5,2.1,1.2,2.9,2s1.5,1.7,2.1,2.8c0.4,0.7,0.7,1.5,0.9,2.2c0.2,0.7,0.3,1.6,0.3,2.6
		s-0.1,2.2-0.2,3.6s-0.4,3.2-0.6,5.2l-3.3,26.5c-0.7,5.3-1.3,9.6-2,13s-1.2,6-1.7,7.9c-0.4,1.6-0.9,2.8-1.7,3.8
		c-0.8,1-1.9,1.6-3.3,2s-3.3,0.5-5.5,0.4l-0.5,4l28.9,3.6l0.5-4.1c-2.8-0.5-5-1.1-6.6-1.9c-1.5-0.8-2.5-1.7-3.1-2.9
		c-0.5-1.1-0.8-2.5-0.8-4.2c0-1.9,0.1-4.6,0.3-8c0.2-3.4,0.6-7.8,1.2-13.1l3.4-27.7h0.4l37.4,67l6.3,0.8l6.2-50.5
		c0.5-3.6,0.9-6.8,1.3-9.5c0.5-2.7,0.9-5,1.3-6.9s0.8-3.5,1.1-4.8c0.3-1.5,0.9-2.7,1.6-3.6s1.8-1.5,3.2-1.8c1.4-0.3,3.1-0.4,5.3-0.2
		L1561.8,1459.7z"/>
	<path style="fill:#77331D;" d="M1622.1,1538.5l-0.1-4.2c-2.1-0.1-3.8-0.3-5.1-0.6c-1.3-0.3-2.3-0.9-2.9-1.7
		c-0.7-0.8-1.1-1.9-1.4-3.5c-0.3-1.5-0.4-3.5-0.5-6l-1.7-49c-0.1-2.6-0.1-4.7,0-6.3c0.1-1.6,0.5-2.8,1.1-3.6
		c0.6-0.8,1.5-1.4,2.8-1.8s3-0.7,5.1-0.9l-0.1-4.2l-35.2,1.2l0.1,4.2c2.1,0.1,3.8,0.3,5.1,0.6c1.3,0.3,2.2,0.8,2.9,1.7
		c0.6,0.8,1.1,1.9,1.4,3.5c0.2,1.6,0.4,3.7,0.5,6.3l1.7,49c0.1,2.5,0.1,4.5-0.1,6.1c-0.2,1.5-0.5,2.7-1.1,3.5s-1.6,1.4-2.8,1.8
		c-1.3,0.4-2.9,0.7-5,1l0.2,4.2L1622.1,1538.5z"/>
	<path style="fill:#77331D;" d="M1718.7,1439l-26.8,5.2l0.8,4.1c2.3-0.2,4.2-0.2,5.5,0c1.4,0.2,2.3,0.6,2.9,1.3c0.6,0.7,1,1.7,1,3.1
		c0.1,1.4,0,3.2-0.2,5.4c-0.3,3.3-0.7,6.9-1.1,10.8s-1,7.9-1.5,12c-0.6,4.1-1.1,8.2-1.7,12.1s-1.1,7.6-1.7,11l-0.2,0.1
		c-1.2-2.1-2.5-4.5-4-7.1s-3.1-5.3-4.7-8.1c-1.6-2.8-3.2-5.6-4.9-8.4c-1.6-2.8-3.2-5.5-4.6-8c-1.5-2.6-2.8-4.8-4-6.9
		c-1.2-2-2.1-3.7-2.8-5c-1-1.8-1.5-3.2-1.6-4.2s0.3-1.9,1.4-2.6c1-0.7,2.8-1.5,5.4-2.3l-0.7-4.2l-34.5,6.7l0.8,4.1
		c1.7-0.2,3.2-0.2,4.5,0c1.2,0.2,2.4,0.5,3.4,1.2c1,0.6,2,1.6,3.1,2.9c1,1.3,2.2,3.1,3.5,5.3c1.5,2.4,3.2,5.5,5.3,9
		c2.1,3.6,4.4,7.5,6.9,11.8s5.1,8.8,7.8,13.4c2.7,4.6,5.4,9.3,8.1,13.9c2.7,4.7,5.3,9.1,7.7,13.4l5.6-1.1c0.8-5.4,1.6-10.9,2.4-16.4
		s1.7-10.9,2.5-16.1c0.8-5.3,1.6-10.1,2.4-14.7c0.7-4.6,1.5-8.7,2.1-12.2c0.6-3.6,1.1-6.4,1.6-8.6c0.6-3.2,1.1-5.8,1.7-7.8
		c0.6-1.9,1.3-3.5,2.1-4.6c0.8-1.1,1.8-1.9,3-2.6c1.2-0.6,2.7-1.2,4.4-1.8L1718.7,1439z"/>
	<path style="fill:#77331D;" d="M1814,1469.5c0,2.9-0.2,5.4-0.6,7.6c-0.3,2.2-0.8,4-1.4,5.6c-0.5,1.3-1.2,2.4-2.1,3.4
		s-2.1,1.8-3.5,2.6c-1.5,0.8-3.2,1.5-5.4,2.3c-2.1,0.8-4.1,1.4-5.7,1.8s-3,0.6-4.1,0.4c-1.1-0.1-2.1-0.9-3.1-2.2
		c-0.9-1.3-1.9-3.4-2.9-6.2l-7.9-21.7l6.8-2.5c2.4-0.9,4.3-1.5,5.8-1.9s2.8-0.4,3.8-0.1s2,1,2.9,2s2,2.5,3.2,4.5l4.1-1.5l-8.6-23.5
		l-4.1,1.5c0.3,2.2,0.5,4,0.4,5.4c0,1.4-0.4,2.5-1,3.4s-1.6,1.6-3,2.3c-1.4,0.7-3.3,1.4-5.6,2.3l-6.8,2.5l-9.2-25.2
		c-0.5-1.3-0.7-2.3-0.8-3c0-0.7,0.2-1.2,0.8-1.6c0.5-0.4,1.4-0.8,2.7-1.2l4.3-1.6c2.4-0.9,4.5-1.5,6.1-1.8c1.7-0.3,3.1-0.4,4.2-0.3
		s2.1,0.5,2.9,1c1.2,0.7,2.5,1.7,3.8,3.1c1.2,1.4,2.6,3,3.9,5l3.9-2c-0.7-1.7-1.5-3.4-2.3-5.1s-1.5-3.4-2.2-5s-1.3-2.9-1.8-4.1
		s-0.9-2-1.1-2.5l-51.7,18.8l1.4,4c1.9-0.5,3.5-0.9,4.8-1s2.3,0,3.2,0.6c0.9,0.5,1.6,1.4,2.4,2.8c0.7,1.4,1.5,3.2,2.4,5.7l17,46.7
		c0.9,2.4,1.5,4.4,1.8,5.9s0.2,2.8-0.2,3.7c-0.4,1-1.2,1.8-2.5,2.6c-1.2,0.8-2.9,1.7-5,2.7l1.4,4l55.8-20.3
		c-0.1-0.8-0.2-1.8-0.3-3.1c-0.2-1.3-0.3-2.7-0.6-4.2c-0.2-1.6-0.5-3.1-0.7-4.7c-0.3-1.6-0.5-3.1-0.7-4.5s-0.4-2.6-0.7-3.6
		L1814,1469.5z"/>
	<path id="R_颜色修正_1_" style="fill:#77331D;" d="M1918.3,1432.4c-1.2,0.2-2.6,0.2-4.2,0s-3.4-0.6-5.3-1.3
		c-1.2-0.3-2.4-0.8-3.8-1.4s-2.9-1.3-4.7-2.2c-1.8-0.9-3.8-2-6-3.2c-1.5-0.8-3.2-1.8-4.9-2.7c-1.7-1-3.4-2-5-3
		c-1.7-1-3.1-1.9-4.5-2.8c-1.3-0.9-2.4-1.6-3.3-2.3c1.8-2.4,3.2-5,4.1-7.7s1.3-5.6,1-8.5s-1.3-6-3.2-9.1c-2-3.3-4.4-5.8-7.1-7.4
		s-5.6-2.5-8.7-2.6c-1.9-0.1-3.7,0.1-5.7,0.5c-1.9,0.4-4,1.1-6.2,2c-2.2,1-4.6,2.2-7.3,3.8l-29.3,17.6l2.2,3.6
		c1.9-0.9,3.4-1.5,4.6-1.9c1.3-0.4,2.4-0.4,3.3,0c0.9,0.3,1.9,1.1,2.8,2.2c0.9,1.2,2.1,2.8,3.4,5l25.4,42.2c1.4,2.2,2.3,4.1,3,5.5
		c0.6,1.5,0.9,2.7,0.7,3.8c-0.1,1-0.7,2.1-1.6,3.1c-1,1-2.3,2.1-4.1,3.3l2.2,3.6l30.3-18.2l-2.2-3.6c-1.9,1-3.5,1.6-4.8,2
		s-2.4,0.3-3.4,0c-1-0.4-1.9-1.2-2.9-2.5c-1-1.2-2.1-3-3.5-5.2l-9.8-16.3l1.9-1.1c1-0.6,2.1-0.9,3-1c1-0.1,2,0.1,3,0.5
		s2.1,1,3.3,1.8c2.1,1.4,4.1,2.7,6.2,4s4.1,2.6,6.1,3.8c2,1.2,3.9,2.2,5.6,3.2c2.1,1.1,4.1,2,6,2.6s3.8,0.8,5.8,0.8
		c2-0.1,4.2-0.5,6.7-1.3c2.4-0.8,5.3-2.1,8.5-3.8c0.7-0.4,1.3-0.8,2-1.2c0.7-0.4,1.3-0.7,1.8-1L1918.3,1432.4z M1867.6,1414.7
		c-0.6,1.6-1.4,3.1-2.6,4.4s-2.8,2.6-4.9,3.8l-3,1.8l-15.8-26.3c-0.7-1.2-1.2-2.1-1.4-2.7c-0.2-0.7-0.3-1.2-0.2-1.7
		c0.1-0.5,0.4-1.1,1-1.7s1.4-1.2,2.5-1.9c1.4-0.9,3-1.4,4.7-1.7c1.7-0.3,3.5-0.1,5.4,0.4s3.8,1.6,5.7,3.2c1.9,1.6,3.7,3.8,5.5,6.7
		c1.7,2.9,2.9,5.7,3.4,8.3C1868.5,1409.9,1868.4,1412.4,1867.6,1414.7z"/>
	<path style="fill:#77331D;" d="M1942.2,1336.9c-2.9-2.5-5.4-4.7-7.5-6.7c-2.2-1.9-4.1-3.8-5.8-5.5c-1.1,0.4-2.4,1-4,1.7
		s-3.3,1.6-5.1,2.6c-1.8,1-3.6,2.3-5.3,3.7c-3.4,2.9-5.9,5.8-7.8,9c-1.8,3.1-2.9,6.3-3.2,9.4c-0.4,3.2-0.1,6.2,0.8,9.2
		c1,3,2.5,5.8,4.7,8.3c2,2.3,4.2,4.1,6.6,5.3c2.4,1.2,5,2,7.8,2.4s5.7,0.4,8.7,0.1c3.1-0.3,6.2-0.7,9.5-1.3c3.4-0.6,6.4-0.9,9.1-0.8
		c2.7,0,5.1,0.5,7.2,1.3s3.9,2.2,5.5,4c1.6,2,2.7,4,3.2,6.1s0.4,4.1-0.2,6.1s-1.9,3.7-3.7,5.3c-1.8,1.5-3.7,2.4-5.7,2.9
		c-2.1,0.5-4.1,0.7-6.3,0.4c-2.1-0.2-4.3-0.6-6.4-1.3c-2.1-0.7-4.1-1.5-5.9-2.4s-3.5-1.8-4.9-2.7l-2.4,3.9c1.4,1.3,2.8,2.6,4.3,4
		s3,2.7,4.4,3.9c1.5,1.2,2.8,2.4,4,3.3s2.2,1.6,3,2.1c1-0.3,2.1-0.6,3.3-1c1.2-0.4,2.6-1,4.2-1.7s3.2-1.6,4.8-2.6
		c1.6-1,3.3-2.2,5-3.6c3.4-2.9,6-5.9,7.9-9.2c1.9-3.2,3.1-6.5,3.6-9.9c0.5-3.3,0.3-6.6-0.6-9.8c-0.9-3.2-2.5-6.1-4.7-8.8
		c-2.7-3.2-5.8-5.4-9.1-6.7c-3.4-1.3-7-1.8-11-1.7c-4,0.1-8.2,0.7-12.8,1.7c-3.7,0.7-6.8,1.1-9.5,1.2s-5-0.3-7-1
		c-2-0.8-3.7-2-5.3-3.9c-1.6-1.9-2.6-3.9-3-6s-0.3-4,0.3-5.9c0.6-1.9,1.7-3.4,3.2-4.8c1.8-1.5,3.8-2.5,5.8-2.8
		c2-0.4,3.9-0.3,5.9,0.1c2,0.5,3.9,1.2,5.9,2.1c1.9,1,3.8,2,5.6,3.1L1942.2,1336.9z"/>
	<path style="fill:#77331D;" d="M2035,1333l-3.1-2.8c-1.5,1.5-2.9,2.5-4,3.2s-2.2,1-3.2,0.9s-2.2-0.6-3.4-1.4
		c-1.3-0.9-2.8-2.1-4.7-3.8l-36.4-32.8c-1.9-1.7-3.5-3.2-4.5-4.4c-1-1.2-1.7-2.3-1.8-3.3c-0.2-1,0-2.1,0.6-3.3
		c0.6-1.2,1.6-2.6,2.9-4.3l-3.1-2.8l-23.6,26.2l3.1,2.8c1.5-1.5,2.9-2.6,4-3.3c1.1-0.7,2.2-1,3.2-1c1,0.1,2.2,0.6,3.5,1.5
		s2.9,2.2,4.9,4l36.4,32.8c1.9,1.7,3.3,3.1,4.3,4.3c1,1.2,1.6,2.3,1.8,3.3c0.2,1,0,2.1-0.6,3.3c-0.6,1.2-1.5,2.6-2.8,4.3l3.1,2.8
		L2035,1333z"/>
	<path style="fill:#77331D;" d="M2045.4,1217c-1.7-1-3.5-2-5.3-3.1s-3.7-2.2-5.5-3.3c-1.8-1.1-3.5-2.1-5.1-3.1
		c-1.6-0.9-2.9-1.8-4-2.5l-1.8,2.6c0.5,1.4,0.7,2.6,0.5,3.7s-0.7,2.3-1.5,3.5l-24.7,36.6c-0.6,0.9-1.2,1.7-1.8,2.2
		c-0.6,0.6-1.2,1-1.9,1.2c-0.7,0.2-1.6,0.4-2.7,0.4l-1.7,2.5c1.7,1.2,3.6,2.6,5.7,4.2c2,1.6,4.2,3.2,6.4,5c2.2,1.8,4.4,3.5,6.7,5.2
		l2.4-3.6c-2-2.1-3.6-4.1-4.9-5.8c-1.3-1.7-2.2-3.3-2.6-4.6c-0.3-1-0.4-2-0.3-3s0.5-2.2,1.1-3.6c0.7-1.4,1.6-3,2.9-4.9l2.6-3.8
		l50.1,33.8c2.2,1.4,3.8,2.6,5,3.7c1.2,1,1.9,2.1,2.2,3.1s0.2,2.2-0.4,3.6c-0.5,1.4-1.4,3.1-2.6,5.2l3.5,2.4l21.2-31.4l-3.5-2.4
		c-1.5,2-2.9,3.5-4,4.5s-2.2,1.6-3.3,1.8c-1.1,0.1-2.3-0.1-3.7-0.8c-1.4-0.7-3.2-1.8-5.3-3.2l-50-33.8l3.2-4.8
		c1.4-2.1,2.7-3.7,4-4.9c1.3-1.1,2.6-1.8,4-2s3.2,0,5.3,0.5c2.1,0.5,4.6,1.3,7.6,2.6L2045.4,1217z"/>
	<path style="fill:#77331D;" d="M2073.4,1121.6l-11.9,24.3l3.8,1.9c1.2-1.9,2.2-3.3,3.1-4.3c0.9-1,1.6-1.6,2.3-1.8
		c0.7-0.2,1.4-0.1,2.1,0.4c0.7,0.4,1.5,1.2,2.4,2.1c1.6,1.7,3.3,3.5,5.1,5.6c1.7,2,3.5,4.1,5.2,6.2s3.4,4.1,4.9,6s2.9,3.6,4.1,5.1
		c-5.2,0-10.4,0-15.5-0.1s-10.1-0.2-15-0.3c-1.8,0-3.1-0.2-3.9-0.5c-0.9-0.3-1.3-1-1.3-2.1s0.4-2.8,1.1-5.1l-3.8-1.9l-14.7,30.1
		l3.8,1.9c0.8-1.3,1.7-2.3,2.4-3.2c0.8-0.8,1.6-1.5,2.6-2s2.1-0.8,3.6-1.1c1.4-0.2,3.3-0.4,5.5-0.4c4.1-0.1,7.8-0.1,11-0.1
		c3.3-0.1,6.2-0.1,8.9-0.1c2.6,0,5,0,7.2,0s4.2,0.1,6.2,0.2c0.8,0,1.5,0.1,2.1,0.2s1.3,0.2,2,0.5c0.7,0.2,1.5,0.6,2.4,1.1l13.2,6.4
		c2.4,1.1,4.3,2.2,5.7,3.1c1.3,0.9,2.2,1.9,2.7,2.9c0.4,1,0.5,2.2,0.2,3.6s-0.9,3.2-1.8,5.5l3.8,1.8l16.7-34.2l-3.8-1.8
		c-1.3,2.2-2.4,3.9-3.4,5.1s-2,1.9-3,2.2c-1.1,0.3-2.4,0.2-3.9-0.3s-3.5-1.4-5.9-2.5l-14.6-7.1c-1.3-0.6-2.3-1.2-3.1-1.7
		c-0.7-0.5-1.4-1.1-2-1.6c-0.6-0.6-1.2-1.3-1.9-2.2c-2.1-2.6-4-5-5.6-7c-1.6-2.1-3.1-4-4.4-5.7c-1.3-1.8-2.6-3.5-3.8-5.1
		c-1.2-1.7-2.5-3.5-3.8-5.3c-1.3-1.9-2.3-3.5-3-4.8s-1.2-2.6-1.4-3.8c-0.2-1.2-0.2-2.4,0-3.6c0.2-1.3,0.6-2.7,1.2-4.3L2073.4,1121.6
		z"/>
	<path id="院_颜色修正_1_" style="fill:#77331D;" d="M2021.9,459.1c-5.6-1.9-11.6-3.1-16.8-1.3c-2.8-0.1-3.9-2-4-3.8
		c0.9-1.7,2.5-3.8,1.2-7.1c-2.5-1.2-5.1-0.5-7.5,1.1c-19.1,22.5-40.2,38.3-59.5,56.3c-3.3,8.4-2.3,12.6,2.1,15.2
		c12.9-13.8,24.4-28.7,38.8-41.2c4,4.8,0.9,10,2.5,14.3c1.2,1.7,18.5,0.6,19.5-5.6c0.7-3.9-1.7-7.9,1.4-11.8
		c3.3-3.8,24.1-0.4,24.4-4.1C2025.5,467,2026.7,463.6,2021.9,459.1z M1999.5,468.1c-2.8,2.6-3.9,6.8-6.6,10
		c-1.2,4.9-5.7,5.7-8.4,8.2c-1-3.5-2.4-5.6-3.1-7.9l1.9-7.5l11.8-11.9c4.1,2.5,10.3,3.3,13.7,6
		C2004.8,465,2003.1,467.5,1999.5,468.1z"/>
	<path style="fill:#77331D;" d="M1982.2,503.8c4.2-3.1,42.6,22,49.6,34.7c-0.5,3.8-25.6,1.9-27.7,0.3c-0.3-0.3-0.4-5.2-3.6-3.9
		c-7.1,3.6-17,11.1-16.6,16.8c16.2,36.2,50.6,50.3,68.6,20.8c-1,11.6-6.7,21.1-6,28.4c0.1,2.5-3.9,3.9-7.9,4.7
		c-34.3,6.8-71.3-46.1-64.9-57.6c0.4-3.6,20.7-17.8,17.5-18.6c-16-3.7-28.9-3.3-35.3-4.4c-4.5-0.5-5.1-5.8-3.5-6.9
		c5.3-2.7,32.6,1.1,42.3,4.4c-2.5-3.6-14.2-10.1-16.2-13.2C1977.6,507.9,1979.2,505.8,1982.2,503.8z"/>
	<path style="fill:#77331D;" d="M2005.7,498.5c11.8,3.7,22.2,8,29.4,20.8c-0.7,3.6-6,4.4-8.1,2.8
		C2018.8,515,1998.8,503,2005.7,498.5z"/>
	<path style="fill:#77331D;" d="M2049.6,494c4-4.3,8.1-11.4-0.2-21.2c-2.7-3.2-3.6,10-11.7,14.7l-11.1-6.5c-0.2-1.6,1.7-4.1-1.7-4.9
		c-16-2.4-31.4,2.8-24.4,13.2c4.6,2.9,15.6-7.1,20.8-4c13.8,7.3,27.1,17.7,37.7,29.3c3.1,8.7-4.5,4.1-6.9,4
		c-5.3-0.3,5.3,14.9,13.1,16C2082.3,515,2045.4,495.1,2049.6,494z"/>
	<path style="fill:#77331D;" d="M1775,341.6L1775,341.6c-0.1-0.1-0.1-0.1-0.2-0.1L1775,341.6z"/>
	<path id="学_颜色修正_1_" style="fill:#77331D;" d="M1775,341.5C1775,341.6,1775,341.6,1775,341.5l-0.2-0.1
		C1774.9,341.5,1775,341.5,1775,341.5c0.6-8.3,29.5-32.4,24.9-33.5c-7.1-6-15.8-6.4-26.4-2.4c-1.8,0.6-0.9,4.1,0.3,5.2
		c1.1,1.3,7.1,1.9,7.6,3.2c0.3,1.3,0.8,3.3,0.1,5c-4-2.1-8.2-3.2-11-2.5c-2.5,1.7-4.2,4.7-3.8,6.6c1.6,1.5,5-0.1,6.7,2.6
		c-1.4,2.9-4,4.4-6.2,6.4c0-0.2-0.1-0.4-0.1-0.5c-3.3-2.3-5.5-5.1-6.5-8.9l4-4.9c0.9-1,2-3,1.3-4.8c1.4,1,3,1.8,4.6,2.9
		c1.3,0.5,4.6,0.6,3.6-2.1c-3.9-2.5-6.5-5.8-7.3-10l4.6-5.8c1.6-2.2,3.4-6.1-1.4-9c-2.5-1.3-5.7,6.8-8.3,6.5
		c-1.6-2.5-1.4-5.9-4.5-7.4c-4.3-0.3-6.5,3-5.3,6c0,3.3,2.2,5,3.7,7.6c0.2,1.7-7.6,2.5-10.5,3.8c-0.4,0.1-0.5,0.3-0.7,0.4
		c4.5-11,10.2-20.6,7.6-21.7c-0.9-2.5-6.4-2.3-9.7,0.3c-4.8,8.7-11.1,36.9-6.9,46.8c-0.2,0.1-0.6,0.1-0.8,0l-0.6,0.1
		c-6.1-8.8,2.5-31.5-0.5-31.9c-1.1-1.5-4.6-0.5-6.2,1.7c-1.4,6-0.7,22.9,3,29.6l-15.1-2.3c-1.4-1.7-0.4-5.3-5.7-5
		c-23.2,4.6-39.8,17.6-23.1,26.9c8.2,1.7,15.6-15.3,24.9-14.1c23.6,2.7,48.7,9,71,18.2c10.2,9-3,7-6.4,8
		c-7.4,2.2,17.6,15.5,28.7,13.3C1809.9,357.5,1791.1,347.7,1775,341.5z M1763.4,337.7c-2.5-0.8-4.8-1.5-6.1-2
		c-2.3-1-10.5-3.1-17.1-3.9c-2.3-6.3-0.2-14.9,2.8-23.1c0.4,0.1,0.9,0.4,1.5,0.4l13.9-2.1c1.3,1.2,2.5,2.3,4.1,3.3
		c-1.9,1-4.2,5.5-6.1,5.4c-1.3-2-1.2-4.9-3.9-6.4c-3.7-0.3-5.3,2.7-4.8,5c0.2,3.1,2.3,4.5,3.2,6.6c0.4,1.5-6.5,2.2-8.9,3.4
		c-2.9,1.5-2.4,2.7-0.4,3l12-1.8c3,2.9,6.5,5,10.2,7.6c0.5,0.2,1.5,0.4,2.2,0.2C1764.7,334.4,1763.9,335.8,1763.4,337.7z"/>
	<path style="fill:#77331D;" d="M1719.1,345.7c15.7-1.8,30.8-0.4,43.7,5.9c6.9,5.9,7.8,9.9,5.4,12.5l-18,5.1l-0.3,4.3
		c6.5,4.4,20.1,3.4,30.5,10.1c1.8,4.2-0.9,9.7-3.3,9.4c-5.1-0.1-23.3-9.2-29.1-7.6c-4.6,24.8-14.7,36.5-19.3,35.9
		c-9.1-4.4-16-11-20.6-26c11.2,9.1,17.7,11.7,18.2,9.1c2.5-0.2,7.7-8.3,8.8-19.6c-2.5-10.3-25.4-6.7-36.4-10.2
		c-6.8-1.6-7.8-8,4.9-9.4c10.2,1.9,20.4,5.5,30.6,6.8c1.3-1.9-0.3-5.1-0.7-7.6l9.8,0.9c1.9-0.9,3.9-3.1,1.8-6.1
		C1740.2,354.1,1712.3,356,1719.1,345.7z"/>
	<path style="fill:#77331D;" d="M1359.4,291.3c16-5,22.1,3,25.2,9.5c-0.8,5.7,41.4-28.3,55.9,0.8c-5,8.6-28.6,14.1-25.4,8
		c1.3-3.1,10.2-9.6-1.4-10.1c-19.2,6.8-38,17.6-53.7,30.4c-6.1,4.8,0.1,22.2-5.6,26c-16,3.7-14.3-16.6-3.6-34.4
		c3.1-3.7,4.7-0.2,6.7,0.3l13.3-10.1C1369.7,300,1354.2,293.1,1359.4,291.3z"/>
	<path style="fill:#77331D;" d="M1402,362.6c-2-0.1-3.2-1.9-1.6-5.6c4.8-5.7,9.9-10.9,15.4-11.2c5.3,2.5,15,35.3,18,52.7
		c2,5.5,12.4,7.4,15.1,12.7c1.2,4.6-6.2,6.6-10.7,7c-6.5-2.5-15.6-7.7-19.7-11.5c-5.9,4.3-6.9,18.4-12,20.5c-3.6,0.6-4-2.2-2.9-6.4
		c1.4-3.9,2.6-7.7,4.2-11.9c1-1.6,0.6-4.4-0.5-4.2c-3.1,0.3-6,0.7-9,1.2c-2.5-0.7-4.1-5.9-1.5-6.4c3.6-0.1,6.2-3,8-5.2
		c-3.4-9-7.7-17.7-9.6-27.3c0.7-2.5,2.6-2.9,4.7-3.2c1,0.1,2,4.3,3.2,5.1c2,0.5,4.7-1.5,6.8-1.2c1.5,1,2.5,3.1,2.2,4.6
		c-1.1,1.4-2.1,3.2-3.2,5c-0.7,1.6-1.4,4.6,1,3.6c1.3-1.5,2.7-1.6,3.9-1.4c1.4,0.9,2.5,3.1,1.6,3.8c-2.2,0.8-5.4,2.5-5.9,3.7
		c0.4,1.3,1,2.3,2.3,3.2c2.2,1.2,5.3,0.1,7.2-3.5c1.4-2.7-1-15.3-8.2-27.7C1407.3,358.4,1405.2,362.3,1402,362.6z"/>
	<path style="fill:#77331D;" d="M1377.7,364.2c-2.1-0.3-3.4-6-3.4-6c1.1-6,3.1-10.5,7.2-14.2c3.1-1.9,5.5,1.5,5.8,3.4
		C1387.8,351.3,1384.9,361.9,1377.7,364.2z"/>
	<path style="fill:#77331D;" d="M1387.3,334.6c-6.7-1.4-17.4,6.8-16.9,3.8c3.7-18.9,35.5-25.9,37.2-24.5c4.4,1.1,6.6,6.7,3.7,7.7
		c-7.5,2-15,4.7-16,8l3.5,11.2c0.7,1.2,3.2-0.7,3.9-3.2c0.7-1.9-2-2.7-3.5-6c-1.7-3.2,29.5-6,31.2,2.8c-0.4,3.3-3.7,6.1-8,7.2
		c-5.2-0.9-8.7-4.1-15.5-3.1l-32.7,78.4c-6.6,7.3-8.2,0.5-7.2-4.7c4.8-19.1,19.6-38.3,27.6-59
		C1395.3,351.8,1390.5,340.5,1387.3,334.6z"/>
	<path style="fill:#77331D;" d="M1151.6,464.6c13-3.9,5.6,6.9,5.3,10.8c-1.1,7.9,22.7-7,25.2-18.5c-27.1-27-57.6,23.1-58.8,16.7
		c-6-6.1-21.1-13-36.8-1.5c-5.2,3.9,18.4,9.2,24.5,18.9l-15.7,19.9c-2.3,0.3-5.5-3-7.4,2c-5.3,24,0.2,47,16.7,37.2
		c4.9-6.3-8.5-23.4-3.7-31.2C1113.6,499,1132.9,479.6,1151.6,464.6z"/>
	<path id="宜_颜色修正_1_" style="fill:#77331D;" d="M1204.4,518.8c-10.1,8.5-5.9,9.9-18.6,22.7l-32.5-44.2
		c-3.5-3.9-15.3-6.1-22.2,6.5c-13.5,30.8,17.8,50.5,29.5,67.3c3.5,3.9-16.9,19.7-25.4,30c-4.6,7.8-0.6,13.2,2.2,12.3
		c10-5.1,53.1-61,87.2-88.2C1233.2,516.4,1218.3,507.7,1204.4,518.8z M1173.9,558.3c-5.3,6.2-8.6-0.1-17.4-9.9c1.3-3,4.5-3.9,5-7.4
		c1.3-2.1-4.1-6.3-6.7-6c-2.2,0.6-3.9,1.8-4.9,4.3c-1.8,0.6-4-1.7-4.1-4.5c-0.1-2.2,1.6-5.5,5.2-8.8c0.3-2.2-5.8-8-7.6-5.4
		c-0.2,1.6-2.4,4.3-4.6,2.8c-2.3-1.6-3.6-4.2-3.8-7.9c0.5-1.8,0-3.6,5.4-7.6c3.5-2.7,21.2,25.7,31.9,38.6
		C1176.2,553.1,1175.4,556.3,1173.9,558.3z"/>
	<path style="fill:#77331D;" d="M1727.5,500.3c-4.5-1.6-8.9-3.1-13.5-4.5c-12.6-4-25.5-7.5-38.6-10.3c-13.1-2.9-12.4-2.3-24.9-3.6
		c-28.3,1.9-31.9,32-32,47.4c-0.2,21.3,1.6,49.2,27.1,54.8c6.6,0.5,20.5,3.1,38,5c39.9,4.3,70.9,6.5,109.8,16.6
		c17,4.4,38.8,15.2,44.2,19c21.8,15.2,28.3,31.9,30.1,91.9c0.2,6.8-0.1,23.3,0.3,27c0.1,0.5,0.1,5.8,0.2,14.8s0.4,21.8,0.9,37.3
		s1.2,33.6,2.2,53.4c2.3,43.3,2.9,86.2,8.8,129.4c4.6,33.8,13.7,86.7,31.7,115.9c25.3,41.1,44.2,38.6,57,21.3
		c30.8-60.2,48.1-128.4,48.1-200.6C2017,724.5,1896.4,562.3,1727.5,500.3z"/>
	<path style="fill:#77331D;" d="M1896,1217.5L1896,1217.5c-0.4,0.4-0.8,0.8-1.2,1.2c-0.4,0.4-0.8,0.8-1.2,1.2
		c-0.4,0.4-0.8,0.8-1.2,1.2c-7.8,7.5-16.3,6.1-26.1,6.1h-9.9h-9.9h-9.8h-9.9h-9.8h-9.9h-9.9h-9.9h-9.9h-9.9h-9.9h-9.8h-9.9h-9.9
		h-9.9h-9.9h-9.8h-9.9h-9.9h-9.8h-9.9h-9.9h-9.9h-9.8h-9.9h-9.9h-9.9h-9.9c-6.7,0.2-21.9,2.6-19.9-16.7l0,0
		c0.5-4.8,1.5-9.5,2.9-14.1c1.5-4.8,3.5-9.6,5.9-14.1c2.4-4.6,5.3-9.1,8.5-13.4s6.8-8.6,10.7-12.7c3.9-4.1,8.1-8.1,12.5-12.1
		c4.4-3.9,9.1-7.7,14-11.5c4.9-3.7,10-7.4,15.1-10.9c5.2-3.6,10.5-7.1,15.9-10.5s10.8-6.8,16.3-10.1c5.4-3.3,10.9-6.5,16.3-9.7
		s10.8-6.3,16-9.4s10.3-6.2,15.3-9.2c4.9-3,9.7-6,14.2-9s8.8-5.9,12.8-8.9c4-2.9,7.7-5.9,11.1-8.8c85.4-74.8,17.4-180.5-83.6-135.5
		c0.5-28-2.8-51.5-40.4-59.7c141.9-66,93.1-205.6-20.1-173.8c0,0-8.2-51.2,9.4-52.2c73.7,4,180,11.7,193.3,120.8
		c1.2,9.6,2.8,14.3,2.3,43.5s-4.7,104.5-0.3,163c7.5,99.2,35.4,198.4,87.4,237l0.3,0.2c1.5,1.1,2.9,2.1,4.4,3.1
		c0.2,0.1,0.3,0.2,0.5,0.3c1.5,1,3,1.9,4.6,2.8C1909.4,1203.3,1902.8,1210.6,1896,1217.5z"/>
	<path style="fill:#77331D;" d="M1551.7,511.9c-2.2-19.9-13-30.2-33-31.6c-3.4-0.2-9.3,0.8-12.6,1.3c-3.4,0.6-6.7,1.2-10,1.9
		c-3.3,0.7-6.6,1.4-9.9,2.1s-6.6,1.5-9.8,2.3c-3.3,0.8-6.5,1.6-9.7,2.5s-6.5,1.8-9.7,2.7c-3.2,1-6.4,1.9-9.6,2.9s-6.3,2.1-9.5,3.1
		c-3.1,1.1-6.2,2.2-9.4,3.3c-3.1,1.2-6.2,2.3-9.3,3.6c-3.1,1.2-6.1,2.5-9.2,3.8c-3,1.3-6,2.6-9.1,3.9c-3,1.4-6,2.7-8.9,4.1
		c-3,1.4-5.9,2.8-8.8,4.3s-5.8,3-8.7,4.5c-2.9,1.5-5.8,3.1-8.6,4.7c-2.9,1.6-5.7,3.2-8.5,4.9c-2.8,1.6-5.6,3.3-8.4,5.1
		c-2.8,1.7-5.5,3.5-8.2,5.3s-5.4,3.6-8.1,5.4c-2.7,1.8-5.3,3.7-8,5.6c-2.6,1.9-5.3,3.8-7.8,5.8c-2.6,1.9-5.1,3.9-7.7,5.9
		s-5.1,4-7.6,6.1c-2.5,2-5,4.1-7.4,6.2c-2.5,2.1-4.9,4.2-7.3,6.4s-4.8,4.4-7.1,6.6c-2.4,2.2-4.7,4.5-7,6.7c-2.3,2.3-4.6,4.6-6.8,6.9
		c-2.3,2.3-4.5,4.6-6.7,7s-4.4,4.8-6.5,7.2c-68.8,77.2-110.3,179-110.3,290.8c0,5.2,0.1,10.4,0.3,15.5c0.2,5.2,0.5,10.3,0.8,15.4
		c0.4,5.1,0.8,10.2,1.4,15.3c0.5,5.1,1.1,10.1,1.8,15.1c0.7,5,1.5,10,2.4,15c0.9,4.9,1.8,9.9,2.9,14.8c1,4.9,2.1,9.8,3.4,14.6
		c1.2,4.8,2.5,9.6,3.8,14.4s2.8,9.5,4.3,14.2s3.1,9.4,4.8,14c1.7,4.6,3.4,9.2,5.2,13.8c1.8,4.6,3.7,9.1,5.7,13.6s4,9,6.1,13.3
		c18.6,38.3,47.2,18.8,66-25c27.9-64.8,34.1-140.2,37.1-210.2c2-46.4,5.6-90.3,9.9-139c5-43.5,0.7-85.3,38.1-108.7
		c37.3-23.3,126.5-27.1,155.8-30.3s28.9-3.7,42.1-10.4C1547.6,572.1,1555.6,546.4,1551.7,511.9z"/>
	<path style="fill:#77331D;" d="M1678,961.9c63-49.5,106,16.6,35.8,57C1718.6,993.2,1707.5,968.5,1678,961.9z"/>
	<path style="fill:#77331D;" d="M1583.9,743.9c65.8-51.3,120.1,9.4,36.8,59C1623,776.9,1613.9,747.7,1583.9,743.9z"/>
</g>
<g>
	<path style="fill:#77331D;" d="M3084.6,532.4c-1.8-39.6-32.2-110.4-121.7-119.6c-29.9-2.7,34.5,89.1,25.3,141.3l-115.7,19.6
		c-8.9-6.1-9.4-27.4-31.4-16.1c-92.8,66-144.8,162.5-58,180.2c36.7-6.5,43.5-107.3,83.9-118.9c105.8-29,232.1-35.7,342.8-29.1
		c56.8,27.1-2.2,41.2-15.2,53.6c-28.4,23.8,99.5,46.4,143.7,14.7C3329.3,480.7,3069.2,558,3084.6,532.4z"/>
	<path style="fill:#77331D;" d="M6227.3,1219.8h-67.6v10.5c5.5,0.6,9.9,1.3,12.9,2.2c3.2,0.8,5.3,2,6.5,3.3c1.1,1.4,1.6,3.1,1.4,5.2
		s-0.8,4.7-2,7.8c-2,5.5-4.3,11.3-7,17.4c-2.6,6.2-5.2,12.3-8,18.5s-5.6,12-8,17.5c-2.6,5.5-4.9,10.4-6.8,14.7
		c-5.7-11.8-11.3-23.5-16.8-35c-5.4-11.5-10.7-22.8-15.6-33.8c-1.9-4-2.9-7.1-3.2-9.4c-0.2-2.2,0.8-4,3.2-5.3
		c2.5-1.2,6.7-2.3,12.7-3.1v-10.5h-83.2v10.5c3.7,0.4,7,1,9.7,1.8c2.7,0.7,5.1,2,7.2,3.5c2.1,1.6,4.2,3.9,6.3,6.9
		c2,3,4.2,6.9,6.6,11.7c4.7,9.2,8.9,17.4,12.6,24.8c3.7,7.3,7,13.9,10,19.8c2.9,5.9,5.6,11.3,7.9,16.2c2.3,4.9,4.5,9.6,6.4,14
		c0.9,1.7,1.5,3.4,2,4.9c0.4,1.6,0.8,3.2,0.9,5c0.2,1.8,0.3,4,0.3,6.6v36.6c0,6.7-0.2,12-0.7,16.1c-0.6,4-1.8,7.1-3.5,9.1
		c-1.8,2.1-4.4,3.5-7.9,4.4c-3.6,0.8-8.2,1.5-14.2,1.9v10.5h94.6v-10.5c-6.3-0.5-11.3-1.2-15-2.1c-3.7-0.8-6.5-2.3-8.3-4.3
		c-1.8-2.1-3-5.1-3.5-9.1s-0.8-9.4-0.7-16v-40.8c0-3.5,0.1-6.4,0.4-8.6c0.4-2.2,0.9-4.2,1.6-6.1s1.6-4.1,2.8-6.7
		c3.5-7.7,6.6-14.5,9.4-20.3c2.8-5.9,5.5-11.2,8-16.1c2.5-4.8,4.9-9.5,7.5-14c2.5-4.5,5-9.3,7.8-14.2c2.6-4.9,5.1-8.9,7.3-12
		c2.2-3.1,4.5-5.5,6.9-7.3s5.1-3.1,8.2-3.9c3.1-0.9,6.8-1.6,11.2-1.9L6227.3,1219.8L6227.3,1219.8L6227.3,1219.8L6227.3,1219.8z"/>
	<path style="fill:#77331D;" d="M5973,1269.8c-0.4-4.9-0.7-10-1.1-15.4c-0.3-5.4-0.6-10.6-0.9-15.9c-0.2-5.3-0.5-10.2-0.7-14.7
		c-0.3-4.6-0.4-8.5-0.5-11.9h-7.7c-2.3,3-4.7,5-7.1,6.3c-2.4,1.2-5.5,1.8-9.1,1.7H5836c-2.8,0-5.1-0.2-7.1-0.6
		c-1.9-0.5-3.6-1.3-5.1-2.4c-1.5-1.2-3-2.8-4.5-4.9h-7.6c-0.1,5.4-0.4,11.3-0.7,17.7c-0.4,6.4-0.9,13.1-1.3,20.2c-0.5,7-1,14-1.4,21
		h10.8c1.6-7.1,3.4-13.1,5.1-18.2c1.8-5.1,3.8-9,5.9-11.7c1.5-2,3.5-3.6,5.7-4.8c2.3-1.2,5.3-2.1,9-2.7c3.7-0.5,8.4-0.8,14.2-0.8
		h11.4v150.6c0,6.5-0.2,11.6-0.8,15.5c-0.6,3.9-1.7,6.8-3.5,8.8c-1.7,2-4.4,3.5-8,4.3s-8.2,1.5-14.2,1.9v10.5h94v-10.5
		c-6.1-0.4-11-1.1-14.7-1.9c-3.6-0.8-6.4-2.3-8.2-4.3c-1.8-2-3-4.9-3.6-8.8c-0.6-4-0.8-9.1-0.8-15.5v-150.6h14.3
		c6.3-0.1,11.5,0.4,15.7,1.5c4.2,1,7.5,2.9,10,5.5c2.3,2.6,4.5,6.5,6.3,11.6c1.8,4.9,3.6,11.4,5.5,19.4L5973,1269.8z"/>
	<path style="fill:#77331D;" d="M5732.8,1424.3v-10.5c-5.3-0.4-9.5-1.1-12.6-2c-3.2-0.9-5.6-2.3-7.1-4.4c-1.6-2-2.6-4.9-3.1-8.8
		c-0.5-3.8-0.7-8.8-0.7-15.1v-122.6c-0.1-6.5,0.2-11.7,0.7-15.6s1.5-6.8,3.1-8.8s3.9-3.5,7.1-4.3c3.2-0.9,7.3-1.5,12.6-1.9v-10.6
		h-87.6v10.6c5.3,0.4,9.4,1.1,12.6,1.9s5.5,2.3,7.1,4.3c1.5,2,2.6,4.9,3,8.8c0.5,3.9,0.7,9.1,0.7,15.6v122.6
		c0,6.4-0.2,11.4-0.8,15.3c-0.5,3.8-1.5,6.8-3.1,8.8s-4,3.4-7.1,4.3c-3.2,0.9-7.4,1.6-12.5,2v10.5L5732.8,1424.3L5732.8,1424.3z"/>
	<path style="fill:#77331D;" d="M5562.9,1267.9c-1.4-9.3-2.7-17.6-3.7-24.8c-1.1-7.2-1.8-13.8-2.3-19.8c-2.6-1-6.1-2.1-10.2-3.3
		c-4.1-1.2-8.8-2.2-13.9-3.1s-10.5-1.3-16.1-1.3c-11,0-20.7,1.6-29.1,4.7s-15.5,7.3-21.3,12.8c-5.7,5.5-10.1,11.8-13.1,19
		c-2.9,7.2-4.5,15-4.5,23.4c0.1,7.6,1.5,14.5,4.1,20.7c2.7,6.2,6.4,11.9,11.1,17s10.1,10,16.3,14.4c6.2,4.4,12.9,8.6,19.9,12.6
		c7.6,4.3,13.9,8.7,19.1,13.1c5.1,4.4,9,9.2,11.6,14.2c2.6,4.9,4,10.4,4,16.4c0,6.4-1.2,12-3.6,16.8c-2.4,4.9-5.8,8.6-10.2,11.3
		c-4.3,2.7-9.4,4-15.4,4.1c-5.8-0.1-11.1-1.2-15.9-3.6c-4.7-2.4-9-5.4-12.8-9.3s-7.2-8.1-10-12.7c-2.9-4.7-5.3-9.3-7.4-14
		c-2-4.7-3.6-9-4.8-13l-10.8,3.5c0.6,4.7,1.2,9.5,1.9,14.6c0.7,5,1.4,10,2.2,14.6c0.7,4.7,1.4,9,2.2,12.8c0.8,3.7,1.5,6.8,2.2,8.9
		c2.4,1,5,2,8,3.2c3,1.1,6.7,2.3,10.7,3.6c4.3,1.1,8.7,2.1,13.5,2.8c4.8,0.7,9.8,1,15,1c11.2,0,21.2-1.6,30.1-4.8
		c8.9-3.2,16.5-7.6,22.8-13.2s11.1-12.2,14.5-19.7s5-15.6,5.1-24.4c0-10.4-2.4-19.5-6.7-27.3c-4.4-7.8-10.6-14.8-18.3-20.9
		c-7.8-6.1-16.8-11.9-27.1-17.3c-8.1-4.7-14.8-9-20.1-13.2c-5.2-4.1-9.1-8.5-11.6-13c-2.5-4.6-3.8-9.9-3.8-15.9
		c0.1-6.3,1.3-11.7,3.8-16.3c2.5-4.6,5.7-8.2,9.9-10.8c4.1-2.6,8.6-3.8,13.7-3.9c6,0,11.2,1.3,15.6,3.8c4.3,2.5,8.1,5.7,11.1,9.8
		c3.1,4.1,5.7,8.6,7.9,13.5c2.1,4.9,4,9.9,5.7,14.9L5562.9,1267.9z"/>
	<path style="fill:#77331D;" d="M5367.2,1412.9c-3.1-2.4-6.4-5.5-9.8-9.4c-2-2.3-4.1-4.9-6.3-7.9c-2.1-3.1-4.5-6.6-7.1-10.8
		c-2.5-4.1-5.5-9.1-8.9-14.7c-2.2-3.7-4.6-7.7-6.9-12c-2.4-4.3-4.7-8.6-7-12.9c-2.2-4.3-4.2-8.2-6-11.9c-1.8-3.6-3.3-6.7-4.3-9.2
		c6.9-2.9,13.1-6.7,18.6-11.3c5.5-4.6,9.9-10.2,13-16.9c3.2-6.6,4.8-14.4,4.9-23.4c0-9.7-1.9-18-5.5-24.9s-8.6-12.4-14.8-16.8
		c-4-2.6-8.3-4.8-13-6.4c-4.6-1.7-10-2.9-15.9-3.6c-5.8-0.8-12.7-1.1-20.4-1.1h-85.1v10.6c5.2,0.5,9.4,1.1,12.5,1.9
		c3,0.8,5.4,2.2,7,4.1c1.5,1.9,2.6,4.7,3,8.5c0.5,3.7,0.7,8.8,0.7,15v123c0,6.5-0.2,11.7-0.7,15.6c-0.5,4-1.6,7-3.3,9
		c-1.6,2.1-4.1,3.6-7.4,4.5c-3.3,0.8-7.6,1.5-13.1,1.8v10.5h88v-10.5c-5.3-0.4-9.5-1-12.7-1.8c-3.2-0.9-5.6-2.4-7.2-4.5
		c-1.6-2-2.6-5-3.2-9c-0.5-3.9-0.8-9.2-0.7-15.6v-47.4h5.4c3.2,0.1,5.8,0.7,8,1.7c2.1,1.1,4,2.7,5.6,4.8c1.6,2.1,3.2,4.8,4.6,8.1
		c2.7,5.7,5.4,11.3,8.1,16.8c2.8,5.6,5.5,10.8,8.1,15.9c2.8,5.1,5.4,9.7,7.9,13.9c3,5.1,6.2,9.4,9.4,13.1c3.3,3.7,7,6.8,11.4,9.2
		c4.3,2.4,9.7,4.3,16,5.6c6.3,1.3,13.9,2.2,22.9,2.6c2.1,0.1,4.1,0.2,6,0.2c1.9,0.1,3.7,0.1,5.4,0.1l1.7-9.3
		C5373.3,1417.1,5370.3,1415.4,5367.2,1412.9z M5301,1299.8c-2.2,6.3-5.7,11.4-10.3,15.2c-3.3,2.8-7,4.9-11.1,6.2
		c-4.2,1.2-9.2,1.9-15.2,1.8h-8.6v-76.4c0-3.5,0.2-6,0.5-7.7s0.9-3.1,1.7-4.1c0.9-0.9,2.3-1.5,4.2-2c1.9-0.6,4.5-0.9,7.8-0.9
		c4.1-0.1,8.1,0.8,12.2,2.4c4,1.7,7.7,4.3,11,7.9s6,8.3,8,14c2,5.8,3,12.9,3.1,21.3C5304.4,1286,5303.2,1293.5,5301,1299.8z"/>
	<path style="fill:#77331D;" d="M5110.6,1372c-2.6,6.6-5.1,12.4-7.9,17.1c-2.6,4.8-5.3,8.9-8,12.1c-2.1,2.5-4.8,4.6-7.7,6.1
		c-2.9,1.5-6.4,2.6-10.5,3.2s-8.9,1-14.5,1c-5.7,0-10.7-0.2-14.8-0.7c-4.2-0.5-7.5-1.5-9.9-2.8c-2.5-1.2-4.2-3.7-5.3-7.6
		c-1-3.9-1.5-9.5-1.4-17v-57.6h18.1c6.3,0,11.3,0.1,15.1,0.5c3.9,0.5,6.9,1.4,9,2.9c2.2,1.4,3.9,3.9,5.1,7.1
		c1.2,3.3,2.4,7.8,3.5,13.5h10.8v-62.5h-10.8c-1.1,5.5-2.4,9.9-3.6,13.1c-1.3,3.2-3,5.5-5.2,7s-5.1,2.5-9,2.9
		c-3.8,0.4-8.8,0.5-15,0.5h-18.1V1244c-0.1-3.5,0.2-6,0.7-7.7c0.5-1.6,1.6-2.7,3.3-3.2c1.6-0.5,4.1-0.7,7.4-0.6h11.4
		c6.3,0,11.6,0.3,15.7,0.9c4.2,0.6,7.5,1.6,10.1,2.9c2.5,1.3,4.5,2.8,6,4.8c2.3,2.7,4.3,6.2,6.1,10.4c1.8,4.3,3.5,9.3,5,15.1
		l10.8-1.6c-0.3-4.5-0.7-9.1-1-13.9s-0.6-9.3-1-13.5c-0.3-4.3-0.5-8-0.7-11.1s-0.4-5.4-0.5-6.7H4967v10.5c5,0.4,9,1,12,1.7
		c3.1,0.8,5.3,2.1,6.9,4c1.6,1.8,2.6,4.6,3.1,8.4c0.6,3.7,0.8,8.8,0.8,15.2v124.3c0,6.4-0.2,11.6-0.8,15.4c-0.6,3.8-1.8,6.7-3.5,8.6
		c-1.9,1.9-4.5,3.3-8.1,4c-3.5,0.9-8.2,1.5-14,2v10.5h147.7c0.5-1.9,1.1-4.4,1.8-7.6c0.7-3.1,1.5-6.6,2.3-10.4s1.5-7.7,2.4-11.6
		c0.7-3.9,1.5-7.6,2.1-11.2c0.7-3.4,1.2-6.4,1.5-8.9L5110.6,1372z"/>
	<path style="fill:#77331D;" d="M4896.2,1219.8h-68v10.5c5.8,0.7,10.2,1.5,13.4,2.7c3.2,1,5.4,2.6,6.4,4.6c1.1,2,1.4,4.7,0.9,8.2
		c-0.6,3.4-1.6,7.9-3.2,13.2c-2.2,7.9-4.9,16.5-7.9,25.8c-2.9,9.3-6,18.8-9.4,28.6c-3.3,9.8-6.5,19.3-9.8,28.8
		c-3.2,9.3-6.2,18-9.2,26.1h-0.6c-2-5.8-4.1-12.3-6.6-19.4c-2.4-7.1-5-14.5-7.7-22.1c-2.6-7.6-5.3-15.3-7.9-22.9s-5.1-14.8-7.5-21.7
		c-2.4-6.9-4.5-13.1-6.3-18.6c-1.9-5.5-3.4-10-4.4-13.6c-1.5-4.8-2.1-8.5-1.9-11.1c0.1-2.5,1.6-4.4,4.5-5.6s7.6-2.2,14.2-3v-10.6
		h-87v10.6c4.4,0.4,8,1.1,10.9,2c3,0.9,5.6,2.3,7.7,4.3s4.1,4.9,6,8.6s3.8,8.6,5.9,14.7c2.5,6.7,5.4,14.9,8.8,24.6
		c3.5,9.6,7.3,20.3,11.4,32s8.3,23.9,12.7,36.4c4.5,12.7,8.8,25.4,13.1,38c4.3,12.7,8.4,24.9,12.3,36.6h14.6c4.5-13,9-26,13.7-39.1
		s9.2-25.9,13.7-38.3s8.7-24,12.7-34.9c4.1-10.9,7.7-20.5,10.8-29.1c3.2-8.5,5.9-15.3,7.9-20.5c2.9-7.6,5.6-13.6,8-18.1
		s4.8-7.8,7.4-10.1c2.5-2.3,5.3-4,8.6-4.9c3.2-0.9,7.1-1.7,11.7-2.2L4896.2,1219.8L4896.2,1219.8L4896.2,1219.8z"/>
	<path style="fill:#77331D;" d="M4627.2,1424.3v-10.5c-5.3-0.4-9.5-1.1-12.7-2c-3.1-0.9-5.5-2.3-7-4.4c-1.5-2-2.6-4.9-3.1-8.8
		c-0.5-3.8-0.7-8.8-0.7-15.1v-122.6c-0.1-6.5,0.1-11.7,0.7-15.6c0.5-3.9,1.5-6.8,3.1-8.8s3.9-3.5,7-4.3c3.2-0.9,7.4-1.5,12.7-1.9
		v-10.6h-87.6v10.6c5.3,0.4,9.4,1.1,12.6,1.9s5.5,2.3,7.1,4.3c1.5,2,2.6,4.9,3.1,8.8s0.7,9.1,0.7,15.6v122.6
		c0,6.4-0.3,11.4-0.8,15.3c-0.5,3.8-1.5,6.8-3.1,8.8s-4,3.4-7.1,4.3c-3.2,0.9-7.4,1.6-12.5,2v10.5L4627.2,1424.3L4627.2,1424.3z"/>
	<path style="fill:#77331D;" d="M4467.4,1219.8H4396v9.9c6.7,0.4,12,1.2,15.9,2.6c3.9,1.2,6.8,3.1,8.6,5.5c1.8,2.4,3,5.4,3.4,9.1
		c0.5,3.3,0.9,7.3,1.3,12.1c0.4,4.9,0.8,10.6,1.1,17.4c0.3,6.8,0.5,14.8,0.5,24v55.8h-1.3L4322,1219.8h-54.3v9.9
		c4.2,0.4,7.8,1.1,10.8,2.2c3,1,5.6,2.4,7.7,4.2c2.2,1.7,4.2,3.9,6,6.4c1.3,1.7,2.3,3.4,3,5.3c0.7,1.8,1.3,3.9,1.6,6.4
		c0.4,2.4,0.6,5.4,0.7,9c0,3.6,0.1,8,0.1,13.2v66.6c-0.1,13.1-0.4,24.1-1.1,32.6c-0.7,8.6-1.3,15.3-1.8,20.2
		c-0.5,4.1-1.5,7.3-3.2,10c-1.7,2.6-4.2,4.6-7.5,6s-7.8,2.2-13.4,2.5v10.2h72.4v-10.2c-7.2-0.4-12.8-1.3-16.8-2.7
		c-4-1.5-6.8-3.4-8.6-6.1c-1.7-2.7-2.8-6-3.2-10c-0.5-4.7-1.1-11.4-1.6-20c-0.5-8.5-0.9-19.4-0.9-32.6V1273h0.9l112.7,154.5h15.5
		v-127.1c0-9.2,0.2-17.2,0.5-24c0.4-6.8,0.8-12.6,1.3-17.4s1-8.8,1.4-12.1c0.4-3.8,1.4-6.9,2.9-9.3c1.6-2.4,4-4.3,7.2-5.6
		c3.3-1.2,7.6-2.1,13.1-2.3L4467.4,1219.8L4467.4,1219.8L4467.4,1219.8L4467.4,1219.8L4467.4,1219.8L4467.4,1219.8L4467.4,1219.8z"
		/>
	<path style="fill:#77331D;" d="M4203.8,1219.8h-72.4v10.5c6.9,0.3,12.4,1.1,16.3,2.5c4,1.3,6.9,3.2,8.7,5.6
		c1.8,2.4,2.9,5.5,3.3,9.1c0.4,3,0.8,6.5,1.2,10.6c0.4,4,0.6,9,0.9,14.8c0.2,5.8,0.4,12.9,0.4,21.2v37.3
		c0.1,25.7-3.8,44.8-11.5,57.3c-7.7,12.4-19.4,18.6-35.1,18.5c-15.2,0-26.5-5.8-33.8-17.1c-7.4-11.4-11-28.3-11-50.8v-77
		c-0.1-6.8,0.2-12.3,0.6-16.3c0.5-4.1,1.5-7.1,3-9.2s3.8-3.6,6.7-4.4c3-0.9,6.9-1.5,11.9-1.9v-10.6h-86v10.6
		c5.2,0.4,9.4,1.1,12.5,1.9c3.1,0.9,5.4,2.4,7,4.4c1.5,2.1,2.5,5.1,3,9.2s0.7,9.5,0.7,16.3v78c0,12.3,0.8,22.9,2.3,32
		s4,16.8,7.3,23.4c3.3,6.5,7.6,12,12.9,16.7c4.6,4,9.6,7.2,15.1,9.6c5.6,2.4,11.4,4.1,17.4,5.1c6.1,1.1,12.3,1.5,18.6,1.5
		c7,0,13.8-0.9,20.3-2.7c6.6-1.8,12.6-4.3,18.3-7.8c5.6-3.4,10.7-7.6,15-12.5c5.3-6.2,9.3-13.2,12.2-21.3c3-7.9,5-16.6,6.2-26.1
		c1.1-9.5,1.7-19.4,1.6-30V1294c0-6.3,0.1-11.9,0.2-16.6s0.3-8.8,0.5-12.4s0.5-6.8,0.8-9.6c0.3-2.9,0.7-5.6,1.1-8.2
		c0.4-3.4,1.4-6.4,3.1-8.9c1.7-2.4,4.2-4.3,7.6-5.6c3.3-1.4,7.7-2.1,13.1-2.3V1219.8L4203.8,1219.8L4203.8,1219.8L4203.8,1219.8
		L4203.8,1219.8z"/>
	<path style="fill:#77331D;" d="M3763.3,1219.8h-71.4v9.9c6.7,0.4,12,1.2,15.9,2.6c3.9,1.2,6.8,3.1,8.6,5.5c1.9,2.4,3,5.4,3.4,9.1
		c0.4,3.3,0.9,7.3,1.3,12.1c0.4,4.9,0.8,10.6,1.1,17.4s0.5,14.8,0.5,24v55.8h-1.3l-103.5-136.4h-54.3v9.9c4.2,0.4,7.8,1.1,10.8,2.2
		c3,1,5.6,2.4,7.7,4.2c2.2,1.7,4.2,3.9,5.9,6.4c1.3,1.7,2.3,3.4,3,5.3c0.7,1.8,1.3,3.9,1.6,6.4c0.4,2.4,0.6,5.4,0.7,9
		c0.1,3.6,0.1,8,0.1,13.2v66.6c-0.1,13.1-0.4,24.1-1.1,32.6c-0.7,8.6-1.3,15.3-1.8,20.2c-0.5,4.1-1.5,7.3-3.2,10
		c-1.6,2.6-4.2,4.6-7.5,6s-7.8,2.2-13.4,2.5v10.2h72.4v-10.2c-7.2-0.4-12.8-1.3-16.8-2.7c-4-1.5-6.8-3.4-8.6-6.1
		c-1.7-2.7-2.8-6-3.2-10c-0.5-4.7-1.1-11.4-1.6-20c-0.5-8.5-0.9-19.4-0.9-32.6V1273h1l112.7,154.5h15.6v-127.1
		c0-9.2,0.2-17.2,0.5-24c0.4-6.8,0.8-12.6,1.3-17.4s1-8.8,1.4-12.1c0.4-3.8,1.4-6.9,2.9-9.3s4-4.3,7.2-5.6c3.3-1.2,7.6-2.1,13.1-2.3
		L3763.3,1219.8L3763.3,1219.8L3763.3,1219.8L3763.3,1219.8z"/>
	<path style="fill:#77331D;" d="M3490.5,1424.3v-10.5c-5.3-0.4-9.5-1.1-12.6-2c-3.2-0.9-5.5-2.3-7.1-4.4c-1.5-2-2.6-4.9-3.1-8.8
		c-0.5-3.8-0.8-8.8-0.7-15.1v-122.6c-0.1-6.5,0.1-11.7,0.7-15.6c0.5-3.9,1.5-6.8,3.1-8.8s3.9-3.5,7.1-4.3c3.2-0.9,7.4-1.5,12.6-1.9
		v-10.6h-87.6v10.6c5.3,0.4,9.5,1.1,12.7,1.9s5.5,2.3,7.1,4.3c1.5,2,2.6,4.9,3.1,8.8s0.8,9.1,0.7,15.6v122.6
		c0.1,6.4-0.2,11.4-0.8,15.3c-0.5,3.8-1.5,6.8-3.1,8.8s-3.9,3.4-7.1,4.3c-3.2,0.9-7.3,1.6-12.5,2v10.5L3490.5,1424.3L3490.5,1424.3z
		"/>
	<path style="fill:#77331D;" d="M3316.2,1338.3c-4.7-6.8-11.3-12.2-19.7-16.3c-8.4-4-18.2-6.8-29.3-8.3v-1.3
		c5.5-1,10.8-2.6,16.2-4.9c5.3-2.3,10.2-5.2,14.6-9c4.4-3.7,7.9-8.2,10.5-13.6s4-11.7,4.1-18.9c-0.1-7.7-1.7-14.5-4.8-20.5
		s-7.4-10.8-12.6-14.6c-3.9-2.6-8.2-4.8-13-6.4c-4.7-1.7-10.1-2.9-16.2-3.6c-6-0.8-13-1.1-20.8-1.1h-85.1v10.6
		c5.3,0.4,9.6,1.1,12.8,1.9c3.1,0.8,5.5,2.3,7.1,4.3c1.5,2,2.5,5,3,8.8c0.5,3.9,0.7,9,0.6,15.4v122c0.1,6.4-0.2,11.7-0.7,15.5
		c-0.5,3.9-1.6,6.9-3.3,9c-1.6,2.1-4.2,3.5-7.6,4.4c-3.3,0.9-7.9,1.6-13.5,2v10.5h73.7c8.2,0,16.1-0.5,23.8-1.5s14.9-2.5,21.6-4.5
		c6.7-2,12.7-4.6,18.1-7.8c5.5-3.2,10.2-7.1,14.4-11.6c4.2-4.6,7.4-9.8,9.7-15.8s3.5-12.6,3.5-20.1
		C3323.3,1353.3,3321,1345.1,3316.2,1338.3z M3223.4,1250c0-4,0.3-7.2,0.7-9.6c0.5-2.5,1.3-4.1,2.4-5.1c0.9-1,2.3-1.8,4.2-2.5
		c1.9-0.6,4.6-1,7.9-1c3.9-0.1,7.8,0.6,11.5,2.1c3.7,1.4,7.1,3.7,10,6.8c3,3.2,5.4,7.2,7.2,12.3c1.8,5,2.7,11.1,2.7,18.3
		c0.1,13.3-3,23.1-9.3,29.3c-6.3,6.2-16.4,9.3-30,9.2h-7.3L3223.4,1250L3223.4,1250L3223.4,1250L3223.4,1250L3223.4,1250
		L3223.4,1250L3223.4,1250z M3275.5,1386.8c-2,5.7-4.7,10.4-8.1,14c-3.4,3.7-7.1,6.3-11.2,8.1c-4.1,1.7-8.3,2.6-12.4,2.7
		c-5,0-9-0.8-12.1-2.6c-3-1.7-5.1-4.7-6.4-8.9c-1.3-4.2-1.9-9.9-1.9-17.2V1322h6.3c15.9,0,28.1,3.7,36.4,11
		c8.3,7.3,12.5,18.3,12.5,33C3278.6,1374.1,3277.6,1381,3275.5,1386.8z"/>
	<path style="fill:#77331D;" d="M3080.8,1424.3v-10.5c-5.3-0.4-9.5-1.1-12.7-2s-5.5-2.3-7.1-4.4c-1.5-2-2.6-4.9-3.1-8.8
		c-0.5-3.8-0.7-8.8-0.7-15.1v-122.6c0-6.5,0.2-11.7,0.7-15.6s1.5-6.8,3.1-8.8s3.9-3.5,7.1-4.3c3.2-0.9,7.4-1.5,12.7-1.9v-10.6h-87.6
		v10.6c5.3,0.4,9.5,1.1,12.7,1.9s5.5,2.3,7.1,4.3s2.6,4.9,3.1,8.8s0.8,9.1,0.7,15.6v122.6c0,6.4-0.2,11.4-0.8,15.3
		c-0.5,3.8-1.5,6.8-3.1,8.8s-3.9,3.4-7.1,4.3c-3.2,0.9-7.3,1.6-12.5,2v10.5L3080.8,1424.3L3080.8,1424.3z"/>
	<path style="fill:#77331D;" d="M2921.7,1219.8H2854v10.5c5.5,0.6,9.8,1.3,12.9,2.2c3.1,0.8,5.3,2,6.4,3.3c1.2,1.4,1.7,3.1,1.4,5.2
		c-0.2,2.1-0.9,4.7-2.1,7.8c-2,5.5-4.3,11.3-7,17.4c-2.6,6.2-5.3,12.3-8.1,18.5s-5.5,12-8,17.5c-2.6,5.5-4.8,10.4-6.8,14.7
		c-5.7-11.8-11.3-23.5-16.8-35s-10.7-22.8-15.6-33.8c-1.9-4-3-7.1-3.2-9.4c-0.2-2.2,0.8-4,3.2-5.3c2.4-1.2,6.7-2.3,12.7-3.1v-10.5
		h-83v10.5c3.8,0.4,7,1,9.8,1.8c2.7,0.7,5.1,2,7.2,3.5c2.1,1.6,4.2,3.9,6.3,6.9c2,3,4.2,6.9,6.6,11.7c4.7,9.2,8.9,17.4,12.6,24.8
		c3.7,7.3,7,13.9,10,19.8c2.9,5.9,5.6,11.3,7.9,16.2c2.4,4.9,4.5,9.6,6.4,14c0.9,1.7,1.5,3.4,1.9,4.9c0.5,1.6,0.8,3.2,1,5
		s0.3,4,0.3,6.6v36.6c0.1,6.7-0.2,12-0.7,16.1c-0.6,4-1.8,7.1-3.5,9.1c-1.7,2.1-4.4,3.5-7.9,4.4c-3.5,0.8-8.3,1.5-14.2,1.9v10.5
		h94.6v-10.5c-6.3-0.5-11.3-1.2-15-2.1c-3.7-0.8-6.5-2.3-8.3-4.3c-1.8-2.1-3-5.1-3.6-9.1c-0.5-4-0.8-9.4-0.8-16v-40.8
		c0-3.5,0.2-6.4,0.5-8.6s0.8-4.2,1.5-6.1c0.8-1.9,1.6-4.1,2.8-6.7c3.5-7.7,6.6-14.5,9.4-20.3c2.9-5.9,5.5-11.2,8-16.1
		c2.5-4.8,5-9.5,7.4-14c2.5-4.5,5.1-9.3,7.8-14.2c2.6-4.9,5.1-8.9,7.3-12s4.5-5.5,6.9-7.3c2.3-1.8,5.1-3.1,8.2-3.9
		c3.1-0.9,6.8-1.6,11.2-1.9L2921.7,1219.8L2921.7,1219.8z"/>
	<path style="fill:#77331D;" d="M5673.5,660.2c-1.9-23.6,77-81.1,65.6-94.1c-9-18.4-16.1-33.3-46.7-32
		c-24.2,12.3-47.6,28.3-58.8,51.2c-9.6,8.9-19.2,6.3-25.4,1c-2.6-8.6-4.5-20.8-19.5-26.9c-12,4.4-18.1,15.1-20.6,28.3
		c12.4,136.5-3.9,257.5-7.1,380c16.9,38.4,34.3,48.7,57,42.6c-3.5-87.6-15.5-174.2-10.1-262.7c28.9,2.4,36.1,29.4,55.3,38.1
		c9.6,1.5,62.2-59.2,44.7-82.7C5697.3,688.1,5676.3,682.9,5673.5,660.2z M5661.5,691.9c12.4,20,0.3,37.7-0.4,54.4
		c-14.8-7.9-26.3-10.4-35.9-15.5l-18.5-30.6l-0.7-77.7c21.6-5.5,44.1-23.2,64.1-26c-13.8,13.3-11,27.2-20.5,41.2
		C5649.1,655.2,5659.7,672.6,5661.5,691.9z"/>
	<path style="fill:#77331D;" d="M5711.4,810.6c3.5-23.8,210.8-69.4,275.4-51.5c10.8,13.9-76.6,90.8-88.9,92.7
		c-1.9,0-18.6-15.6-24.6-0.8c-10.9,35.2-18.4,92.3,1.8,109.5c171.7,64.1,330-3.8,291.2-159.3c35.1,40.9,47.8,90.6,74.1,112.4
		c8.9,7.7,0.2,25.2-10,41.1c-88.8,135.8-383.3,85.9-400.4,27.4c-10.7-13,8.3-126.2-4.7-118.3c-64,41-104.8,85.1-129.1,102.7
		c-16.4,13.3-35.8-2.1-34-11c8.6-26.3,109.1-104.4,151.6-125.7c-20-3.3-79.4,13.9-96,10.5C5710,839.3,5708.1,827.3,5711.4,810.6z"/>
	<path style="fill:#77331D;" d="M5770.1,715.5c50.3-26.9,98.2-47.5,163.7-29.6c9.8,13.9-4.8,34.1-17,36.1
		C5867.1,725.9,5762.4,753.1,5770.1,715.5z"/>
	<path style="fill:#77331D;" d="M5827.3,487.3c59.4,4.6,69.3,41.4,70.6,68.5c-10.4,17.5,175.1-40.1,183.9,80.6
		c-28.6,22.2-113.4,8-95.1-8.8c8.5-7.9,47.9-17.9,9.3-36c-72.7-2.8-150.2,7.5-219,29.2c-26.9,7.2-29.8,76.4-54.3,81.9
		c-56.7-11-24.2-78.8,35.8-123.8c13.8-8.9,15.6,5.8,21.8,10.3l57.5-15.5C5848.8,531.6,5808.1,485.6,5827.3,487.3z"/>
	<path style="fill:#77331D;" d="M4991.1,643.9c0,0.1,0,0.1,0,0.2l-1.1-0.2C4990.4,643.9,4990.8,643.9,4991.1,643.9
		c-10.4-37.2,77.8-187.6,56-185.6c-40.4-14.9-78.8-3.1-118.9,31.1c-6.7,5.5,2.5,19.3,9.4,22c6.8,3.9,33.9-2.6,38,2
		c3.4,5.1,8.7,13.1,8.3,21.8c-20.8-2.8-40.6-1.2-51.7,6.2c-8.1,11.6-11,27.4-6.2,34.7c9.2,4.2,21.7-8.3,33.2,1
		c-1.8,14.8-10.3,25.6-16.9,37.5c-0.5-0.7-1-1.4-1.4-2.1c-18-5-32-13.4-42.2-28.7l9.9-27.6c2.4-5.7,3.9-16.4-1.8-23.2
		c7.8,2.2,15.9,3.2,24.8,5.6c6.2,0.1,21-4.6,12.2-14.5c-20.9-4.8-37.2-15-47.5-32.4l10.9-32.4c3.5-12,5-31.9-20.4-36.9
		c-12.9-2-14,38.7-26,41.5c-10.8-8.5-15.5-23.4-31.4-25.4c-19.4,5.6-23.5,23.1-13.8,34.6c5.3,14.2,17.6,18.5,27.8,27.5
		c3.6,7.2-29.2,22.7-40,33.1c-1.5,1-1.8,2.1-2.4,2.6c2.2-55,12.3-106.1-0.6-106.8c-7.7-9.7-31.6-0.1-41.7,16.3
		c-7.2,45.7,9.5,178.7,43.3,215.1c-0.8,0.6-2.2,1.5-3.3,1.2l-2.2,1.5c-40.3-28.8-38.6-141.6-52.3-138.6c-7.3-4.7-20.6,5.2-24.3,17.2
		c3.2,28.5,32.6,101.2,59.6,124.4l-69.5,13.7c-9-5.3-9.9-22.7-32.6-12.7c-93.8,56.3-145.6,139.2-58.4,153.7
		c38.1-5.5,43.9-91.5,86.2-100.8c106.9-25.1,225.9-37.3,337.5-32c58.3,23.1-2,35.1-15.3,45c-28.8,21.4,100.9,40,145.8,12.9
		C5167.8,659.1,5070.6,645.5,4991.1,643.9z M4934.3,645.4c-12.1,0.7-23.5,0.9-29.8,1c-11.7-0.6-50.3,3-80.5,9.7
		c-19.9-23.7-24.2-64.9-23.7-105.2c1.9-0.4,4.4,0.3,7-0.5l57.2-30.8c7.4,3.4,14.4,6.2,22.9,7.9c-6.7,7.4-9.9,30.7-17.9,32.9
		c-8.6-6.8-13-19.6-27-21.9c-16.8,4.8-19.1,20.1-12.9,29.5c5.5,13.1,16.8,16.1,24.2,23.8c3.8,5.8-24.7,19.7-33.4,28.8
		c-10.4,11.1-6.3,15.8,3,13.8l49.4-26.6c17.8,8,36,11.7,56.3,17.1c2.4,0.3,7-0.5,9.9-2.4C4935,629.1,4933.6,636.2,4934.3,645.4z"/>
	<path style="fill:#77331D;" d="M4991.2,644.1c0-0.1,0-0.2,0-0.2c-0.4,0-0.7,0-1.1,0L4991.2,644.1z"/>
	<path style="fill:#77331D;" d="M4754.1,750c65.8-32.3,133.5-50.2,199.4-42.8c39.1,14.8,49.7,30.9,43,45.9l-70.4,50.3l5.5,19.5
		c35.4,8.9,92.7-16.9,148.6-3.7c14.6,15.6,11.3,44,0.2,46.2c-22.3,7.5-115.8-3.7-138.4,12.6c19,115.5-6.9,182.3-27.9,187
		c-46.3-5-86.8-23.1-130.6-81.1c62.9,22.1,95.3,23.6,93.4,11.1c10.6-4.8,20.5-48.4,7.4-99.5c-27.1-40.8-121.1,10.4-174.3,12.4
		c-32.3,3.6-46.5-22.7,6.4-48.7c47.5-7.6,97.3-8.1,144-18.4c2.8-10.2-9.4-22.1-14.9-32.2l43.8-11.3c7-6.9,12-19.6-1.8-29.4
		C4859.3,753.4,4740.6,805.4,4754.1,750z"/>
	<path style="fill:#77331D;" d="M3922.1,396c77.7,2.3,91.8,46.7,95.5,80.1c-12.2,23.7,224-60.7,243.1,88.9
		c-34.8,29.9-146.5,18.3-123.1-3.7c10.4-11.5,59.2-26.5,9.4-46.4c-94.3,0.5-192.8,19.1-280.9,51.2c-33.9,11.6-33.5,97.4-63.9,105.3
		c-75.3-8.3-37.3-94.4,36.7-156.1c19.2-11.4,21.1,6,28.9,11.3l73.3-24C3953.8,450.2,3896.7,396.1,3922.1,396z"/>
	<path style="fill:#77331D;" d="M3999.7,773.9c-8.6-3.5-11.3-13.1,1.7-27.1c29.6-17.8,60-32.7,84.5-25.8
		c19.3,19.2,12.1,177.6-1.5,258.3c0.1,27.3,43,51.5,46.6,78.6c-1.5,21.9-37.3,19.4-57.4,14.4c-24.6-21-56.3-57.5-68.5-80.3
		c-32.2,9.8-58.1,70.2-83.5,71.4c-16.6-2.6-14-15.7-2.8-32.4c12.2-15.1,23.4-29.9,36.4-45.8c6.9-5.3,9.5-18.5,4.4-19.3
		c-14.1-3.4-27.2-6-41.1-8.6c-9.6-7-9-32.4,3.4-30.6c15.8,5,31.5-3.6,42.7-10.7c-1-44.7-6.6-89.4-0.6-134.2
		c6.9-9.7,15.7-8.7,25.3-7.1c4.3,1.8,2,21.9,6.3,27.3c7.8,5.1,22.7,0.7,31.5,5c5.1,6.9,6.2,17.6,2.6,23.6
		c-6.9,4.5-13.8,10.7-21.6,16.9c-5.3,5.9-13,18.3-0.9,17.4c7.9-4.4,14.1-2.7,19.2-0.1c4.5,6.1,6.2,17.4,1.1,19.3
		c-10.6,0-27.2,2.8-31.4,7.1c0,6.2,0.8,11.5,5.4,17.4c7.8,8.8,22.7,8.7,36.6-4.5c10.4-9.7,18.9-68.4,6.3-134
		C4029.3,763.3,4014.6,777.3,3999.7,773.9z"/>
	<path style="fill:#77331D;" d="M3891.4,743.9c-8.8-4.5-5.4-31.6-5.4-31.6c14-24.7,29.5-41.4,53.1-51.1
		c16.5-3.6,21.7,14.9,20.2,23.7C3955,702.3,3926.4,744.5,3891.4,743.9z"/>
	<path style="fill:#77331D;" d="M3978.2,628.6c-27.1-16.5-86.5,3.1-79.6-9.3c45-77.1,194.4-59.6,199.8-50.8
		c17.4,11.4,18.6,39.3,4.5,39.4c-35.8-2.5-72.4-2.3-82,10.8l-1.6,54.4c1,6.1,15,1.8,21.8-7.9c6.1-7-4.4-14.9-6.3-31.6
		c-2.6-16.6,138,18.6,132.2,59.9c-6.9,14-25.3,21.1-46.1,19.3c-21.1-12-31.6-31.2-63.2-37.2l-262.2,293.8
		c-40,21.9-36.7-10.5-24.5-31.5c50.1-76.4,144.1-138.1,210.2-216.4C3987.3,716.1,3983.4,659.3,3978.2,628.6z"/>
	<path style="fill:#77331D;" d="M3223,940.5c-60.7-2.2-51.1,15.7-134.3,20.1l25.7-253.3c0-24.4-33.6-68.6-96.1-46.8
		c-141.9,64.2-95.4,229.2-107.4,323.8c-0.2,24.4-119.3,15.3-180.3,24.4c-40.2,12.4-43.2,43.6-30.8,49.2
		c50,13.7,371.4-44.8,573.1-32.4C3329.1,1021.9,3305.2,945.8,3223,940.5z M3027.2,936.3c-7.5,34.7-20.2,43.2-31.4,45.5
		c-37.5,5-29.1-27.4-28.7-88.2c13.6-6.3,27.4,0.8,40.2-9.8c10.9-3,5.5-34.8-4.4-41.3c-9.2-4.8-19.1-5.9-30.1-0.6
		c-7.9-3.6-8.7-18.4-0.4-28.2c6.4-7.9,22.7-14.1,45.1-14.3c7.8-6.7,5-45.8-9.4-42.3c-5.7,5.1-21.5,7.3-24.4-4.8
		c-2.9-12.9,0.7-25.5,11.5-39c7.4-4.6,11-12.5,42.1-9.4C3057.8,705.5,3030.4,858.3,3027.2,936.3z"/>
</g>
</svg>
