<?xml version="1.0" encoding="utf-8"?>
<!-- Generator: Adobe Illustrator 25.3.1, SVG Export Plug-In . SVG Version: 6.00 Build 0)  -->
<svg version="1.0" id="图层_1" xmlns="http://www.w3.org/2000/svg" xmlns:xlink="http://www.w3.org/1999/xlink" x="0px" y="0px"
	 viewBox="0 0 320 90" style="enable-background:new 0 0 320 90;" xml:space="preserve">
<style type="text/css">
	.st0{fill:#793B2B;}
</style>
<g>
	<path id="外环" class="st0" d="M43.3,5C21.1,5,3.1,23,3.1,45.2c0,22.2,18,40.2,40.2,40.2c22.2,0,40.2-18,40.2-40.2
		C83.4,23,65.4,5,43.3,5z M43.3,84.1c-21.5,0-38.9-17.4-38.9-38.9c0-21.5,17.4-38.9,38.9-38.9c21.5,0,38.9,17.4,38.9,38.9
		C82.2,66.7,64.8,84.1,43.3,84.1z"/>
	<path id="内环" class="st0" d="M43.3,15.3c-16.5,0-29.9,13.4-29.9,29.9c0,16.5,13.4,29.9,29.9,29.9c16.5,0,29.9-13.4,29.9-29.9
		C73.2,28.7,59.8,15.3,43.3,15.3z M43.3,73.7c-15.7,0-28.5-12.8-28.5-28.5c0-15.7,12.8-28.5,28.5-28.5c15.7,0,28.5,12.8,28.5,28.5
		C71.7,60.9,59,73.7,43.3,73.7z"/>
	<path class="st0" d="M39.1,62.7c0,0,0,0.1,0,0.1l0,0c-0.1,0.9-0.9,0.9-1.6,0.9c-3.1,0-5.6,0-8.7,0l-0.2,0c-0.8,0-1.5,0-2.3,0
		c-0.5,0-0.7-0.1-1.1-0.4c0,0-0.1-0.1-0.1-0.1L25,63.1c-0.3-0.3-0.6-0.7-1-1.1c-0.2-0.2,0.3-0.1,2.4-3.1c2.1-3,2.8-8,3.1-13.1
		c0.2-3.3,0.1-6.5,0.5-9.8c0.2-1.6,0.9-3.3,1.8-4.3c1.3-1.6,4.7-2.8,6.7-3.1c1.1-0.2,2-0.2,2.4-0.1c0,0,0.1,0,0.1,0c0,0,0,0,0.1,0
		l0,0c0,0,0,0,0.1,0c0,0,0,0,0.1,0l0,0c0,0,0,0,0.1,0c0,0,0,0,0.1,0l0,0c0,0,0,0,0.1,0l0,0c0,0,0,0,0.1,0l0,0
		c0.9,0.8,0.4,2.8-0.1,3.7c-1,2.4-6.3,4-8.5,5.8c-1.4,1.7-0.5,3.5,1.8,2.5c2.3-1,4-1.9,5.5-2.8c2-1.2,4,1.5,1.1,3.6
		c-0.2,0.1-0.3,0.2-0.5,0.3L33,46.3c-2.2,1.4-0.7,4,1.7,2.6l7.7-4.6c1.9-1.4,5,0.9,1.7,3.3l-10,6.2c-2.7,1.7-1.4,4.7,1.6,3
		c3.1-1.7,5.8-3.4,8.6-5.5c3.3-2.5,5.6,0.7,1.4,3.4c-0.2,0.1-0.4,0.3-0.6,0.4c-0.2,0.1-0.4,0.3-0.6,0.4c-0.2,0.1-0.4,0.3-0.6,0.4
		c-0.2,0.1-0.4,0.3-0.6,0.4c-0.2,0.1-0.4,0.3-0.6,0.4c-0.2,0.1-0.4,0.3-0.6,0.4c-0.2,0.2-0.4,0.3-0.5,0.5c-0.2,0.2-0.3,0.3-0.5,0.5
		c-0.2,0.2-0.3,0.3-0.5,0.5c-0.1,0.2-0.3,0.4-0.4,0.6c-0.1,0.2-0.3,0.4-0.4,0.6c-0.1,0.2-0.2,0.4-0.3,0.6c-0.1,0.2-0.2,0.5-0.3,0.7
		c-0.1,0.2-0.1,0.5-0.2,0.8C39.2,62.3,39.2,62.5,39.1,62.7L39.1,62.7z"/>
	<path class="st0" d="M41.7,67.7c-0.1,0-0.2,0-0.3,0.1c-0.1,0.1-0.1,0.2-0.1,0.3c0,0.1,0,0.2,0.1,0.3c0.1,0.1,0.1,0.1,0.3,0.1
		c0.1,0,0.2,0,0.3-0.1C42,68.3,42,68.2,42,68c0-0.1,0-0.2-0.1-0.3C41.9,67.7,41.8,67.7,41.7,67.7z"/>
	<path class="st0" d="M48.7,67.6c-0.1,0-0.1,0-0.2,0.1c-0.1,0.1-0.1,0.1-0.1,0.2c0,0.1,0,0.2,0.1,0.2c0.1,0.1,0.1,0.1,0.2,0.1
		c0.1,0,0.1,0,0.2-0.1c0-0.1,0.1-0.1,0.1-0.2c0-0.1,0-0.2-0.1-0.2C48.8,67.7,48.8,67.6,48.7,67.6z"/>
	<path class="st0" d="M48.7,68.6c-0.1,0-0.2,0-0.2,0.1c-0.1,0.1-0.1,0.2-0.1,0.3c0,0.1,0,0.2,0.1,0.3c0.1,0.1,0.1,0.1,0.2,0.1
		c0.1,0,0.2,0,0.2-0.1C49,69.2,49,69.1,49,69c0-0.1,0-0.2-0.1-0.3C48.8,68.6,48.8,68.6,48.7,68.6z"/>
	<path id="_x31_978_颜色修正" class="st0" d="M57.7,66.7c0-0.1-0.1-0.1-0.3-0.1H29.8v0c-0.1,0-0.2,0-0.3,0.1c0,0,0,0.1,0,0.1
		c1.8,1.2,3.8,2.2,5.9,2.9l0.2,0.1c0.2,0,0.3,0.1,0.5,0.1c0.2,0,0.3,0.1,0.5,0.1c0.2,0,0.3,0.1,0.5,0.1c0.2,0,0.3,0.1,0.5,0.1
		c0.2,0,0.3,0.1,0.5,0.1c0.2,0,0.3,0.1,0.5,0.1c0.2,0,0.3,0.1,0.5,0.1c0.2,0,0.3,0,0.5,0.1c0.2,0,0.3,0,0.5,0.1c0.2,0,0.3,0,0.5,0.1
		c0.2,0,0.3,0,0.5,0c0.2,0,0.3,0,0.5,0c0.2,0,0.3,0,0.5,0c0.2,0,0.3,0,0.5,0c0.2,0,0.3,0,0.5,0c0.2,0,0.3,0,0.5,0l0.2,0h0h0l0.2,0
		c0.2,0,0.3,0,0.5,0c0.2,0,0.3,0,0.5,0c0.2,0,0.3,0,0.5,0c0.2,0,0.3,0,0.5,0c0.2,0,0.3,0,0.5,0c0.2,0,0.3,0,0.5,0
		c0.2,0,0.3,0,0.5-0.1c0.2,0,0.3,0,0.5-0.1c0.2,0,0.3,0,0.5-0.1c0.2,0,0.3,0,0.5-0.1c0.2,0,0.3-0.1,0.5-0.1c0.8-0.1,1.6-0.3,2.3-0.5
		l0.2-0.1C53.9,69,55.8,68,57.7,66.7C57.7,66.7,57.8,66.7,57.7,66.7z M38.8,69.7C38.8,69.7,38.8,69.7,38.8,69.7l-0.7,0c0,0,0,0,0,0
		v-1.5c0-0.1,0-0.1,0-0.1c-0.1,0.1-0.2,0.1-0.3,0.2c-0.1,0.1-0.2,0.1-0.4,0.2c0,0,0,0,0,0v-0.6c0,0,0,0,0,0c0.2-0.1,0.4-0.2,0.5-0.3
		c0.1-0.1,0.2-0.2,0.3-0.3c0-0.1,0-0.1,0.1-0.1h0.5c0,0,0,0,0,0V69.7z M42.4,69.4c-0.2,0.2-0.5,0.3-0.8,0.3c-0.2,0-0.4-0.1-0.6-0.2
		c-0.2-0.1-0.2-0.3-0.3-0.5c0,0,0,0,0,0h0.6c0,0,0,0,0,0c0,0.1,0.1,0.1,0.1,0.2c0,0,0.1,0.1,0.2,0.1c0.1,0,0.2-0.1,0.3-0.2
		c0.1-0.1,0.1-0.3,0.1-0.5c-0.1,0.1-0.2,0.1-0.2,0.1c-0.1,0-0.2,0-0.3,0c-0.3,0-0.5-0.1-0.6-0.2c-0.2-0.1-0.2-0.3-0.2-0.6
		c0-0.3,0.1-0.5,0.3-0.7c0.2-0.2,0.4-0.2,0.7-0.2c0.3,0,0.6,0.1,0.8,0.3c0.2,0.2,0.3,0.5,0.3,0.9C42.7,68.9,42.6,69.2,42.4,69.4z
		 M46.2,67.7C46.2,67.7,46.2,67.7,46.2,67.7c-0.2,0.2-0.3,0.4-0.4,0.5c-0.1,0.2-0.3,0.5-0.3,0.7c-0.1,0.2-0.1,0.5-0.1,0.7
		c0,0,0,0,0,0h-0.7c0,0,0,0,0,0c0.1-0.4,0.1-0.7,0.3-1c0.1-0.3,0.3-0.6,0.5-0.9c0,0,0,0,0,0h-1.2c0,0,0,0,0,0v-0.6c0,0,0,0,0,0h1.8
		c0.1,0,0.1,0,0.1,0.1V67.7z M49.6,69.3c-0.1,0.1-0.1,0.2-0.2,0.2c-0.1,0.1-0.2,0.1-0.3,0.1c-0.1,0-0.3,0-0.4,0
		c-0.3,0-0.5,0-0.6-0.1c-0.1-0.1-0.2-0.2-0.3-0.3c-0.1-0.1-0.1-0.3-0.1-0.4c0-0.1,0-0.3,0.1-0.4c0.1-0.1,0.2-0.2,0.3-0.2
		c-0.1-0.1-0.2-0.1-0.2-0.2c-0.1-0.1-0.1-0.2-0.1-0.3c0-0.2,0.1-0.4,0.3-0.5c0.1-0.1,0.3-0.1,0.6-0.1c0.3,0,0.6,0.1,0.7,0.2
		c0.2,0.1,0.2,0.3,0.2,0.5c0,0.1,0,0.2-0.1,0.3c0,0.1-0.1,0.1-0.2,0.2c0.1,0.1,0.2,0.1,0.3,0.3c0.1,0.1,0.1,0.2,0.1,0.3
		C49.7,69.1,49.7,69.2,49.6,69.3z"/>
	<path class="st0" d="M15.8,61.5L15.2,60l-0.2,0.1c0,0.1,0.1,0.2,0.1,0.3c0,0.1,0,0.1,0,0.2c0,0,0,0.1-0.1,0.1c0,0-0.1,0-0.2,0
		c-0.1,0-0.3,0-0.4,0c-0.2,0-0.3,0-0.5,0c-0.2,0-0.3,0-0.5,0c-0.1,0-0.3,0-0.4,0c0.2-0.2,0.4-0.5,0.6-0.7c0.2-0.2,0.4-0.5,0.6-0.7
		c0.1-0.1,0.1-0.1,0.2-0.2c0,0,0.1,0,0.1,0c0.1,0,0.1,0.1,0.2,0.2l0.2-0.1L14,57.6l-0.2,0.1c0,0.1,0,0.2,0.1,0.2c0,0.1,0,0.1,0,0.2
		c0,0.1,0,0.1-0.1,0.2c0,0.1-0.1,0.2-0.2,0.3c-0.1,0.2-0.3,0.4-0.4,0.5c-0.1,0.2-0.2,0.3-0.3,0.4c-0.1,0.1-0.2,0.2-0.3,0.3
		c-0.1,0.1-0.2,0.2-0.2,0.3c0,0-0.1,0.1-0.1,0.1c0,0-0.1,0.1-0.1,0.1c0,0-0.1,0-0.1,0.1l-0.8,0.4c-0.1,0.1-0.3,0.1-0.4,0.1
		c-0.1,0-0.2,0-0.2,0c-0.1,0-0.1-0.1-0.2-0.1c-0.1-0.1-0.1-0.2-0.2-0.3l-0.2,0.1l0.9,2l0.2-0.1c-0.1-0.1-0.1-0.3-0.1-0.3
		c0-0.1,0-0.2,0-0.2c0-0.1,0.1-0.1,0.2-0.2c0.1-0.1,0.2-0.1,0.3-0.2l0.9-0.4c0.1,0,0.1-0.1,0.2-0.1c0.1,0,0.1,0,0.1,0
		c0,0,0.1,0,0.2,0c0.2,0,0.4,0,0.5,0c0.2,0,0.3,0,0.4,0c0.1,0,0.3,0,0.4,0c0.1,0,0.2,0,0.4,0c0.1,0,0.2,0,0.3,0c0.1,0,0.2,0,0.2,0.1
		c0.1,0,0.1,0.1,0.2,0.1c0.1,0.1,0.1,0.1,0.2,0.2L15.8,61.5z"/>
	<path class="st0" d="M13.7,66.9l0.2-0.1c-0.1-0.1-0.1-0.2-0.1-0.3c0-0.1,0-0.1,0-0.2c0-0.1,0.1-0.1,0.1-0.2
		c0.1-0.1,0.2-0.1,0.3-0.2l2.4-1.6c0.1-0.1,0.2-0.1,0.3-0.2c0.1,0,0.2-0.1,0.2-0.1c0.1,0,0.1,0,0.2,0.1c0.1,0.1,0.1,0.1,0.2,0.2
		l0.2-0.1l-1.1-1.7l-0.2,0.1c0.1,0.1,0.1,0.2,0.1,0.3c0,0.1,0,0.1,0,0.2c0,0.1-0.1,0.1-0.1,0.2c-0.1,0.1-0.2,0.1-0.3,0.2l-2.4,1.6
		c-0.1,0.1-0.2,0.1-0.3,0.2c-0.1,0-0.2,0.1-0.2,0.1c-0.1,0-0.1,0-0.2-0.1c-0.1-0.1-0.1-0.1-0.2-0.2l-0.2,0.1L13.7,66.9z"/>
	<path id="B_颜色修正" class="st0" d="M20.5,68c0-0.1,0-0.2-0.1-0.3c0-0.1-0.1-0.2-0.2-0.3c-0.1-0.1-0.2-0.2-0.3-0.4l-1.3-1.5
		l-0.2,0.2c0.1,0.1,0.1,0.2,0.2,0.3c0,0.1,0,0.1,0,0.2c0,0.1-0.1,0.1-0.1,0.2c-0.1,0.1-0.2,0.2-0.3,0.3l-2.2,1.9
		c-0.1,0.1-0.2,0.2-0.3,0.2c-0.1,0.1-0.1,0.1-0.2,0.1c-0.1,0-0.1,0-0.2-0.1c-0.1,0-0.1-0.1-0.2-0.2L15,68.6l1.1,1.3
		c0.1,0.1,0.3,0.3,0.4,0.4c0.1,0.1,0.3,0.2,0.4,0.3c0.1,0.1,0.3,0.2,0.4,0.2c0.1,0,0.3,0.1,0.4,0.1c0.1,0,0.3,0,0.4-0.1
		c0.1,0,0.3-0.1,0.4-0.2c0.2-0.2,0.3-0.3,0.3-0.5c0-0.2,0-0.4,0-0.6c-0.1-0.2-0.2-0.4-0.3-0.6l0,0c0.1,0.1,0.2,0.1,0.3,0.2
		c0.1,0.1,0.3,0.1,0.4,0.1c0.1,0,0.3,0,0.4,0c0.1,0,0.3-0.1,0.4-0.2c0.1-0.1,0.2-0.3,0.3-0.4C20.5,68.4,20.6,68.2,20.5,68z
		 M17.9,69.8c-0.1,0.1-0.3,0.2-0.4,0.3c-0.1,0.1-0.3,0.1-0.4,0.1c-0.1,0-0.2,0-0.3-0.1c-0.1,0-0.2-0.1-0.2-0.2
		c-0.1-0.1-0.1-0.2-0.1-0.3c0-0.1,0-0.2,0.1-0.2c0.1-0.1,0.1-0.2,0.3-0.3l1.1-0.9l0.1,0.1c0.2,0.3,0.4,0.6,0.4,0.8
		C18.3,69.4,18.1,69.6,17.9,69.8z M19.8,67.6c0,0.1,0,0.2-0.1,0.3c-0.1,0.1-0.2,0.2-0.3,0.3c-0.2,0.2-0.5,0.3-0.7,0.3
		c-0.2,0-0.4-0.1-0.6-0.4L18,68l1.1-0.9c0.1-0.1,0.1-0.1,0.2-0.1c0.1,0,0.1,0,0.1,0c0,0,0.1,0,0.1,0c0,0,0.1,0.1,0.1,0.1
		c0.1,0.1,0.1,0.2,0.1,0.2C19.8,67.4,19.8,67.5,19.8,67.6z"/>
	<path class="st0" d="M20.8,74.4l0.2-0.2c-0.1-0.1-0.2-0.2-0.2-0.2c0-0.1-0.1-0.1-0.1-0.2c0-0.1,0-0.1,0.1-0.2
		c0-0.1,0.1-0.2,0.2-0.3l1.9-2.2c0.1-0.1,0.2-0.2,0.3-0.3c0.1-0.1,0.1-0.1,0.2-0.1c0.1,0,0.1,0,0.2,0c0.1,0,0.2,0.1,0.3,0.2l0.2-0.2
		l-1.6-1.4l-0.2,0.2c0.1,0.1,0.2,0.2,0.2,0.2c0,0.1,0.1,0.1,0.1,0.2c0,0.1,0,0.1-0.1,0.2c-0.1,0.1-0.1,0.2-0.2,0.3l-1.9,2.2
		c-0.1,0.1-0.2,0.2-0.2,0.3C20,73,19.9,73,19.8,73c-0.1,0-0.1,0-0.2,0c-0.1,0-0.2-0.1-0.3-0.2L19.2,73L20.8,74.4z"/>
	<path class="st0" d="M29,74l-1.4-0.9l-0.1,0.2c0.1,0.1,0.2,0.2,0.3,0.2c0.1,0.1,0.1,0.1,0.1,0.2c0,0.1,0,0.1,0,0.2
		c0,0.1-0.1,0.2-0.1,0.3c-0.1,0.1-0.1,0.2-0.2,0.4c-0.1,0.1-0.2,0.3-0.3,0.5l-0.7,1.1l0,0l-0.4-4L25,71.5l-0.1,0.2
		c0.1,0.1,0.1,0.1,0.2,0.2c0,0.1,0.1,0.1,0.1,0.2c0,0.1,0,0.1,0,0.2c0,0,0,0.1,0,0.1c0,0,0,0.1-0.1,0.1c0,0.1-0.1,0.1-0.1,0.2
		c0,0.1-0.1,0.2-0.2,0.3l-0.8,1.3c-0.2,0.3-0.3,0.5-0.4,0.6c-0.1,0.2-0.2,0.3-0.3,0.4c-0.1,0.1-0.1,0.1-0.2,0.2c-0.1,0-0.1,0-0.2,0
		c-0.1,0-0.2-0.1-0.3-0.1l-0.1,0.2l1.5,0.9l0.1-0.2c-0.1-0.1-0.2-0.2-0.3-0.3c-0.1-0.1-0.1-0.2-0.1-0.2c0-0.1,0-0.2,0.1-0.2
		c0-0.1,0.1-0.2,0.2-0.4c0.1-0.2,0.2-0.4,0.4-0.7l0.9-1.4l0,0l0.3,4.5l0.3,0.2l1.6-2.5c0.1-0.2,0.2-0.3,0.3-0.5
		c0.1-0.1,0.2-0.2,0.2-0.3c0.1-0.1,0.1-0.2,0.2-0.2c0.1-0.1,0.1-0.1,0.2-0.1c0.1,0,0.1,0,0.2,0c0.1,0,0.2,0.1,0.3,0.1L29,74z"/>
	<path class="st0" d="M36.8,76.7l-1.6-0.5l-0.1,0.2c0.2,0.1,0.3,0.1,0.4,0.2c0.1,0.1,0.1,0.1,0.2,0.2c0,0.1,0,0.1,0,0.2
		c0,0.1,0,0.2,0,0.2c0,0.1,0,0.2-0.1,0.3c0,0.1-0.1,0.3-0.1,0.5l-0.2,0.8c-0.2,0.6-0.4,1-0.6,1.2c-0.3,0.2-0.6,0.3-0.9,0.2
		c-0.3-0.1-0.6-0.3-0.7-0.6c-0.1-0.3-0.1-0.7,0.1-1.2l0.5-1.7c0-0.2,0.1-0.3,0.1-0.4c0-0.1,0.1-0.2,0.1-0.2c0,0,0.1-0.1,0.2-0.1
		c0.1,0,0.2,0,0.3,0l0.1-0.2l-2-0.6l-0.1,0.2c0.1,0,0.2,0.1,0.3,0.1c0.1,0,0.1,0.1,0.1,0.1c0,0.1,0,0.1,0,0.2c0,0.1,0,0.2-0.1,0.4
		L32,78.3c-0.1,0.3-0.1,0.5-0.2,0.7c0,0.2,0,0.4,0,0.6c0,0.2,0.1,0.3,0.2,0.5c0.1,0.1,0.2,0.2,0.3,0.3c0.1,0.1,0.2,0.2,0.4,0.2
		c0.1,0.1,0.3,0.1,0.4,0.2c0.2,0,0.3,0.1,0.5,0.1c0.2,0,0.3,0,0.5-0.1c0.2,0,0.3-0.1,0.4-0.2c0.2-0.1,0.3-0.2,0.4-0.4
		c0.1-0.2,0.2-0.3,0.3-0.6c0.1-0.2,0.2-0.4,0.2-0.7l0.2-0.8c0.1-0.2,0.1-0.3,0.1-0.5c0-0.1,0.1-0.2,0.1-0.3c0-0.1,0.1-0.2,0.1-0.2
		c0-0.1,0.1-0.1,0.1-0.2c0.1,0,0.1-0.1,0.2-0.1c0.1,0,0.2,0,0.3,0L36.8,76.7z"/>
	<path class="st0" d="M42.5,77.4l-1.7-0.2l0,0.2c0.2,0,0.3,0.1,0.4,0.1c0.1,0,0.1,0.1,0.2,0.2c0,0.1,0.1,0.1,0.1,0.2
		c0,0.1,0,0.2,0,0.3c0,0.1,0,0.3,0,0.4c0,0.2,0,0.3-0.1,0.6l-0.2,1.3l0,0l-2-3.5l-1.3-0.2l0,0.2c0.1,0,0.2,0,0.3,0.1
		c0.1,0,0.1,0.1,0.2,0.1c0,0,0.1,0.1,0.1,0.2c0,0,0,0.1,0.1,0.1c0,0,0,0.1,0,0.2c0,0.1,0,0.1,0,0.2c0,0.1,0,0.2,0,0.3l-0.2,1.6
		c0,0.3-0.1,0.6-0.1,0.8c0,0.2-0.1,0.4-0.1,0.5c0,0.1-0.1,0.2-0.1,0.2c0,0.1-0.1,0.1-0.2,0.1c-0.1,0-0.2,0-0.3,0l0,0.2l1.7,0.2
		l0-0.2c-0.2,0-0.3-0.1-0.4-0.1c-0.1,0-0.1-0.1-0.2-0.2c0-0.1,0-0.1,0-0.2c0-0.1,0-0.3,0-0.5c0-0.2,0-0.5,0.1-0.8l0.2-1.6l0,0
		l2.2,3.9l0.4,0l0.4-3c0-0.2,0.1-0.4,0.1-0.6c0-0.2,0.1-0.3,0.1-0.4c0-0.1,0-0.2,0.1-0.3c0-0.1,0.1-0.2,0.1-0.2
		c0-0.1,0.1-0.1,0.2-0.1c0.1,0,0.2,0,0.3,0L42.5,77.4z"/>
	<path class="st0" d="M46,82l0-0.2c-0.1,0-0.2,0-0.3,0c-0.1,0-0.1-0.1-0.2-0.1c0,0-0.1-0.1-0.1-0.2c0-0.1,0-0.2,0-0.4l-0.1-2.9
		c0-0.2,0-0.3,0-0.4c0-0.1,0-0.2,0.1-0.2c0,0,0.1-0.1,0.2-0.1c0.1,0,0.2,0,0.3-0.1l0-0.2l-2.1,0.1l0,0.2c0.1,0,0.2,0,0.3,0
		c0.1,0,0.1,0,0.2,0.1c0,0,0.1,0.1,0.1,0.2c0,0.1,0,0.2,0,0.4l0.1,2.9c0,0.1,0,0.3,0,0.4c0,0.1,0,0.2-0.1,0.2c0,0-0.1,0.1-0.2,0.1
		c-0.1,0-0.2,0-0.3,0.1l0,0.2L46,82z"/>
	<path class="st0" d="M51.7,76.2l-1.6,0.3l0,0.2c0.1,0,0.2,0,0.3,0c0.1,0,0.1,0,0.2,0.1c0,0,0.1,0.1,0.1,0.2c0,0.1,0,0.2,0,0.3
		c0,0.2,0,0.4-0.1,0.6c0,0.2-0.1,0.5-0.1,0.7c0,0.2-0.1,0.5-0.1,0.7c0,0.2-0.1,0.4-0.1,0.6l0,0c-0.1-0.1-0.1-0.3-0.2-0.4
		c-0.1-0.2-0.2-0.3-0.3-0.5c-0.1-0.2-0.2-0.3-0.3-0.5c-0.1-0.2-0.2-0.3-0.3-0.5c-0.1-0.2-0.2-0.3-0.2-0.4c-0.1-0.1-0.1-0.2-0.2-0.3
		c-0.1-0.1-0.1-0.2-0.1-0.2c0-0.1,0-0.1,0.1-0.2c0.1,0,0.2-0.1,0.3-0.1l0-0.2l-2,0.4l0,0.2c0.1,0,0.2,0,0.3,0c0.1,0,0.1,0,0.2,0.1
		c0.1,0,0.1,0.1,0.2,0.2c0.1,0.1,0.1,0.2,0.2,0.3c0.1,0.1,0.2,0.3,0.3,0.5c0.1,0.2,0.3,0.4,0.4,0.7c0.1,0.3,0.3,0.5,0.5,0.8
		c0.2,0.3,0.3,0.5,0.5,0.8c0.2,0.3,0.3,0.5,0.5,0.8l0.3-0.1c0-0.3,0.1-0.6,0.1-1c0-0.3,0.1-0.6,0.1-0.9c0-0.3,0.1-0.6,0.1-0.9
		c0-0.3,0.1-0.5,0.1-0.7c0-0.2,0.1-0.4,0.1-0.5c0-0.2,0.1-0.3,0.1-0.5c0-0.1,0.1-0.2,0.1-0.3c0-0.1,0.1-0.1,0.2-0.2
		c0.1,0,0.2-0.1,0.3-0.1L51.7,76.2z"/>
	<path class="st0" d="M57.3,77.9c0,0.2,0,0.3,0,0.4c0,0.1,0,0.2-0.1,0.3c0,0.1-0.1,0.1-0.1,0.2C57,79,57,79,56.9,79.1
		c-0.1,0-0.2,0.1-0.3,0.1c-0.1,0-0.2,0.1-0.3,0.1c-0.1,0-0.2,0-0.2,0c-0.1,0-0.1-0.1-0.2-0.1c-0.1-0.1-0.1-0.2-0.2-0.4l-0.5-1.3
		l0.4-0.1c0.1-0.1,0.3-0.1,0.3-0.1c0.1,0,0.2,0,0.2,0c0.1,0,0.1,0.1,0.2,0.1c0.1,0.1,0.1,0.1,0.2,0.3l0.2-0.1l-0.5-1.4L56,76.3
		c0,0.1,0,0.2,0,0.3c0,0.1,0,0.1-0.1,0.2c0,0.1-0.1,0.1-0.2,0.1c-0.1,0-0.2,0.1-0.3,0.1L55,77.2l-0.5-1.5c0-0.1,0-0.1,0-0.2
		c0,0,0-0.1,0-0.1c0,0,0.1,0,0.2-0.1l0.3-0.1c0.1-0.1,0.3-0.1,0.4-0.1c0.1,0,0.2,0,0.2,0c0.1,0,0.1,0,0.2,0.1c0.1,0,0.1,0.1,0.2,0.2
		c0.1,0.1,0.2,0.2,0.2,0.3l0.2-0.1c0-0.1-0.1-0.2-0.1-0.3c0-0.1-0.1-0.2-0.1-0.3c0-0.1-0.1-0.2-0.1-0.2c0-0.1-0.1-0.1-0.1-0.1
		l-3,1.1L53,76c0.1,0,0.2-0.1,0.3-0.1c0.1,0,0.1,0,0.2,0c0.1,0,0.1,0.1,0.1,0.2c0,0.1,0.1,0.2,0.1,0.3l1,2.7
		c0.1,0.1,0.1,0.3,0.1,0.3c0,0.1,0,0.2,0,0.2c0,0.1-0.1,0.1-0.1,0.2c-0.1,0-0.2,0.1-0.3,0.2l0.1,0.2l3.3-1.2c0,0,0-0.1,0-0.2
		c0-0.1,0-0.2,0-0.2c0-0.1,0-0.2,0-0.3c0-0.1,0-0.2,0-0.3c0-0.1,0-0.2,0-0.2L57.3,77.9z"/>
	<path id="R_颜色修正" class="st0" d="M63.4,75.8c-0.1,0-0.2,0-0.2,0c-0.1,0-0.2,0-0.3-0.1c-0.1,0-0.1,0-0.2-0.1
		c-0.1,0-0.2-0.1-0.3-0.1c-0.1-0.1-0.2-0.1-0.4-0.2c-0.1,0-0.2-0.1-0.3-0.2c-0.1-0.1-0.2-0.1-0.3-0.2c-0.1-0.1-0.2-0.1-0.3-0.2
		c-0.1-0.1-0.1-0.1-0.2-0.1c0.1-0.1,0.2-0.3,0.2-0.5c0.1-0.2,0.1-0.3,0.1-0.5c0-0.2-0.1-0.4-0.2-0.5c-0.1-0.2-0.3-0.3-0.4-0.4
		c-0.2-0.1-0.3-0.1-0.5-0.2c-0.1,0-0.2,0-0.3,0c-0.1,0-0.2,0.1-0.4,0.1c-0.1,0.1-0.3,0.1-0.4,0.2l-1.7,1l0.1,0.2
		c0.1-0.1,0.2-0.1,0.3-0.1c0.1,0,0.1,0,0.2,0c0.1,0,0.1,0.1,0.2,0.1c0.1,0.1,0.1,0.2,0.2,0.3l1.5,2.5c0.1,0.1,0.1,0.2,0.2,0.3
		c0,0.1,0.1,0.2,0,0.2c0,0.1,0,0.1-0.1,0.2c-0.1,0.1-0.1,0.1-0.2,0.2l0.1,0.2l1.8-1.1l-0.1-0.2c-0.1,0.1-0.2,0.1-0.3,0.1
		c-0.1,0-0.1,0-0.2,0c-0.1,0-0.1-0.1-0.2-0.1c-0.1-0.1-0.1-0.2-0.2-0.3l-0.6-1l0.1-0.1c0.1,0,0.1-0.1,0.2-0.1c0.1,0,0.1,0,0.2,0
		c0.1,0,0.1,0.1,0.2,0.1c0.1,0.1,0.2,0.2,0.4,0.2c0.1,0.1,0.2,0.2,0.4,0.2c0.1,0.1,0.2,0.1,0.3,0.2c0.1,0.1,0.2,0.1,0.4,0.1
		c0.1,0,0.2,0,0.3,0c0.1,0,0.2,0,0.4-0.1c0.1,0,0.3-0.1,0.5-0.2c0,0,0.1,0,0.1-0.1c0,0,0.1,0,0.1-0.1L63.4,75.8z M60.5,74.7
		c0,0.1-0.1,0.2-0.2,0.3c-0.1,0.1-0.2,0.2-0.3,0.2l-0.2,0.1l-0.9-1.5c0-0.1-0.1-0.1-0.1-0.2c0,0,0-0.1,0-0.1c0,0,0-0.1,0.1-0.1
		c0,0,0.1-0.1,0.1-0.1c0.1-0.1,0.2-0.1,0.3-0.1c0.1,0,0.2,0,0.3,0c0.1,0,0.2,0.1,0.3,0.2c0.1,0.1,0.2,0.2,0.3,0.4
		c0.1,0.2,0.2,0.3,0.2,0.5C60.5,74.4,60.5,74.6,60.5,74.7z"/>
	<path class="st0" d="M64.8,70.2c-0.2-0.1-0.3-0.3-0.4-0.4c-0.1-0.1-0.2-0.2-0.3-0.3c-0.1,0-0.1,0.1-0.2,0.1c-0.1,0-0.2,0.1-0.3,0.2
		c-0.1,0.1-0.2,0.1-0.3,0.2c-0.2,0.2-0.3,0.3-0.5,0.5c-0.1,0.2-0.2,0.4-0.2,0.6c0,0.2,0,0.4,0,0.5c0.1,0.2,0.1,0.3,0.3,0.5
		c0.1,0.1,0.2,0.2,0.4,0.3c0.1,0.1,0.3,0.1,0.5,0.1c0.2,0,0.3,0,0.5,0c0.2,0,0.4,0,0.6-0.1c0.2,0,0.4-0.1,0.5,0c0.2,0,0.3,0,0.4,0.1
		c0.1,0,0.2,0.1,0.3,0.2c0.1,0.1,0.2,0.2,0.2,0.4c0,0.1,0,0.2,0,0.4c0,0.1-0.1,0.2-0.2,0.3c-0.1,0.1-0.2,0.1-0.3,0.2
		c-0.1,0-0.2,0-0.4,0c-0.1,0-0.3,0-0.4-0.1c-0.1,0-0.2-0.1-0.3-0.1c-0.1-0.1-0.2-0.1-0.3-0.2l-0.1,0.2c0.1,0.1,0.2,0.2,0.3,0.2
		c0.1,0.1,0.2,0.2,0.3,0.2c0.1,0.1,0.2,0.1,0.2,0.2c0.1,0.1,0.1,0.1,0.2,0.1c0.1,0,0.1,0,0.2-0.1c0.1,0,0.2-0.1,0.2-0.1
		c0.1,0,0.2-0.1,0.3-0.2c0.1-0.1,0.2-0.1,0.3-0.2c0.2-0.2,0.4-0.3,0.5-0.5c0.1-0.2,0.2-0.4,0.2-0.6c0-0.2,0-0.4,0-0.6
		c-0.1-0.2-0.1-0.4-0.3-0.5c-0.2-0.2-0.3-0.3-0.5-0.4c-0.2-0.1-0.4-0.1-0.6-0.1c-0.2,0-0.5,0-0.8,0.1c-0.2,0-0.4,0.1-0.6,0.1
		c-0.2,0-0.3,0-0.4-0.1c-0.1,0-0.2-0.1-0.3-0.2c-0.1-0.1-0.2-0.2-0.2-0.4c0-0.1,0-0.2,0-0.3c0-0.1,0.1-0.2,0.2-0.3
		c0.1-0.1,0.2-0.1,0.3-0.2c0.1,0,0.2,0,0.3,0c0.1,0,0.2,0.1,0.3,0.1c0.1,0.1,0.2,0.1,0.3,0.2L64.8,70.2z"/>
	<path class="st0" d="M70.3,69.9l-0.2-0.2c-0.1,0.1-0.2,0.1-0.2,0.2c-0.1,0-0.1,0.1-0.2,0.1c-0.1,0-0.1,0-0.2-0.1
		c-0.1-0.1-0.2-0.1-0.3-0.2l-2.1-1.9c-0.1-0.1-0.2-0.2-0.3-0.3c-0.1-0.1-0.1-0.1-0.1-0.2c0-0.1,0-0.1,0-0.2c0-0.1,0.1-0.2,0.2-0.3
		l-0.2-0.2l-1.4,1.5l0.2,0.2c0.1-0.1,0.2-0.2,0.2-0.2c0.1,0,0.1-0.1,0.2-0.1c0.1,0,0.1,0,0.2,0.1c0.1,0.1,0.2,0.1,0.3,0.2l2.1,1.9
		c0.1,0.1,0.2,0.2,0.3,0.3c0.1,0.1,0.1,0.1,0.1,0.2c0,0.1,0,0.1,0,0.2c0,0.1-0.1,0.2-0.2,0.3l0.2,0.2L70.3,69.9z"/>
	<path class="st0" d="M70.9,63.1c-0.1-0.1-0.2-0.1-0.3-0.2c-0.1-0.1-0.2-0.1-0.3-0.2c-0.1-0.1-0.2-0.1-0.3-0.2
		c-0.1-0.1-0.2-0.1-0.2-0.1l-0.1,0.2c0,0.1,0,0.2,0,0.2c0,0.1,0,0.1-0.1,0.2l-1.5,2.2c0,0.1-0.1,0.1-0.1,0.1c0,0-0.1,0.1-0.1,0.1
		c0,0-0.1,0-0.2,0l-0.1,0.1c0.1,0.1,0.2,0.2,0.3,0.2c0.1,0.1,0.2,0.2,0.4,0.3c0.1,0.1,0.3,0.2,0.4,0.3l0.1-0.2
		c-0.1-0.1-0.2-0.2-0.3-0.3c-0.1-0.1-0.1-0.2-0.2-0.3c0-0.1,0-0.1,0-0.2c0-0.1,0-0.1,0.1-0.2c0-0.1,0.1-0.2,0.2-0.3l0.2-0.2l2.9,2
		c0.1,0.1,0.2,0.2,0.3,0.2c0.1,0.1,0.1,0.1,0.1,0.2c0,0.1,0,0.1,0,0.2c0,0.1-0.1,0.2-0.2,0.3l0.2,0.1l1.2-1.8l-0.2-0.1
		c-0.1,0.1-0.2,0.2-0.2,0.3C73,66,72.9,66,72.8,66.1c-0.1,0-0.1,0-0.2,0c-0.1,0-0.2-0.1-0.3-0.2l-2.9-2l0.2-0.3
		c0.1-0.1,0.2-0.2,0.2-0.3c0.1-0.1,0.2-0.1,0.2-0.1c0.1,0,0.2,0,0.3,0c0.1,0,0.3,0.1,0.4,0.1L70.9,63.1z"/>
	<path class="st0" d="M72.6,57.5l-0.7,1.4l0.2,0.1c0.1-0.1,0.1-0.2,0.2-0.3c0-0.1,0.1-0.1,0.1-0.1c0,0,0.1,0,0.1,0
		c0,0,0.1,0.1,0.1,0.1c0.1,0.1,0.2,0.2,0.3,0.3c0.1,0.1,0.2,0.2,0.3,0.4c0.1,0.1,0.2,0.2,0.3,0.4c0.1,0.1,0.2,0.2,0.2,0.3
		c-0.3,0-0.6,0-0.9,0c-0.3,0-0.6,0-0.9,0c-0.1,0-0.2,0-0.2,0c-0.1,0-0.1-0.1-0.1-0.1c0-0.1,0-0.2,0.1-0.3l-0.2-0.1l-0.9,1.8l0.2,0.1
		c0-0.1,0.1-0.1,0.1-0.2c0,0,0.1-0.1,0.2-0.1c0.1,0,0.1,0,0.2-0.1c0.1,0,0.2,0,0.3,0c0.2,0,0.5,0,0.6,0c0.2,0,0.4,0,0.5,0
		c0.2,0,0.3,0,0.4,0c0.1,0,0.2,0,0.4,0c0,0,0.1,0,0.1,0c0,0,0.1,0,0.1,0c0,0,0.1,0,0.1,0.1l0.8,0.4c0.1,0.1,0.3,0.1,0.3,0.2
		c0.1,0.1,0.1,0.1,0.2,0.2c0,0.1,0,0.1,0,0.2c0,0.1-0.1,0.2-0.1,0.3l0.2,0.1l1-2l-0.2-0.1c-0.1,0.1-0.1,0.2-0.2,0.3
		c-0.1,0.1-0.1,0.1-0.2,0.1c-0.1,0-0.1,0-0.2,0c-0.1,0-0.2-0.1-0.3-0.1l-0.9-0.4c-0.1,0-0.1-0.1-0.2-0.1c0,0-0.1-0.1-0.1-0.1
		c0,0-0.1-0.1-0.1-0.1c-0.1-0.2-0.2-0.3-0.3-0.4c-0.1-0.1-0.2-0.2-0.3-0.3c-0.1-0.1-0.2-0.2-0.2-0.3c-0.1-0.1-0.1-0.2-0.2-0.3
		c-0.1-0.1-0.1-0.2-0.2-0.3c0-0.1-0.1-0.2-0.1-0.2c0-0.1,0-0.1,0-0.2c0-0.1,0-0.2,0.1-0.3L72.6,57.5z"/>
	<path id="院_颜色修正" class="st0" d="M69.5,18.6c-0.3-0.1-0.7-0.2-1-0.1c-0.2,0-0.2-0.1-0.2-0.2c0.1-0.1,0.1-0.2,0.1-0.4
		c-0.1-0.1-0.3,0-0.4,0.1c-1.1,1.3-2.4,2.2-3.5,3.3c-0.2,0.5-0.1,0.7,0.1,0.9c0.8-0.8,1.4-1.7,2.3-2.4c0.2,0.3,0.1,0.6,0.1,0.8
		c0.1,0.1,1.1,0,1.1-0.3c0-0.2-0.1-0.5,0.1-0.7c0.2-0.2,1.4,0,1.4-0.2C69.7,19,69.8,18.8,69.5,18.6z M68.2,19.1
		c-0.2,0.2-0.2,0.4-0.4,0.6c-0.1,0.3-0.3,0.3-0.5,0.5c-0.1-0.2-0.1-0.3-0.2-0.5l0.1-0.4l0.7-0.7c0.2,0.1,0.6,0.2,0.8,0.4
		C68.5,18.9,68.4,19.1,68.2,19.1z"/>
	<path class="st0" d="M67.2,21.2c0.2-0.2,2.5,1.3,2.9,2c0,0.2-1.5,0.1-1.6,0c0,0,0-0.3-0.2-0.2c-0.4,0.2-1,0.7-1,1c1,2.1,3,3,4,1.2
		c-0.1,0.7-0.4,1.2-0.4,1.7c0,0.1-0.2,0.2-0.5,0.3c-2,0.4-4.2-2.7-3.8-3.4c0-0.2,1.2-1,1-1.1c-0.9-0.2-1.7-0.2-2.1-0.3
		c-0.3,0-0.3-0.3-0.2-0.4c0.3-0.2,1.9,0.1,2.5,0.3c-0.1-0.2-0.8-0.6-1-0.8C66.9,21.4,67,21.3,67.2,21.2z"/>
	<path class="st0" d="M68.6,20.9c0.7,0.2,1.3,0.5,1.7,1.2c0,0.2-0.4,0.3-0.5,0.2C69.4,21.9,68.2,21.2,68.6,20.9z"/>
	<path class="st0" d="M71.2,20.6c0.2-0.3,0.5-0.7,0-1.2c-0.2-0.2-0.2,0.6-0.7,0.9l-0.7-0.4c0-0.1,0.1-0.2-0.1-0.3
		c-0.9-0.1-1.8,0.2-1.4,0.8c0.3,0.2,0.9-0.4,1.2-0.2c0.8,0.4,1.6,1,2.2,1.7c0.2,0.5-0.3,0.2-0.4,0.2c-0.3,0,0.3,0.9,0.8,0.9
		C73.1,21.9,70.9,20.7,71.2,20.6z"/>
	<path class="st0" d="M55,11.7C55,11.7,55,11.7,55,11.7C55,11.7,55,11.7,55,11.7L55,11.7z"/>
	<path id="学_颜色修正" class="st0" d="M55,11.7C55,11.7,55,11.7,55,11.7L55,11.7C55,11.7,55,11.7,55,11.7c0-0.5,1.7-1.9,1.5-2
		c-0.4-0.4-0.9-0.4-1.6-0.1c-0.1,0-0.1,0.2,0,0.3C55,9.9,55.4,10,55.4,10c0,0.1,0,0.2,0,0.3c-0.2-0.1-0.5-0.2-0.6-0.1
		c-0.1,0.1-0.2,0.3-0.2,0.4c0.1,0.1,0.3,0,0.4,0.2c-0.1,0.2-0.2,0.3-0.4,0.4c0,0,0,0,0,0c-0.2-0.1-0.3-0.3-0.4-0.5l0.2-0.3
		c0.1-0.1,0.1-0.2,0.1-0.3c0.1,0.1,0.2,0.1,0.3,0.2c0.1,0,0.3,0,0.2-0.1c-0.2-0.1-0.4-0.3-0.4-0.6l0.3-0.3C54.9,9,55,8.8,54.7,8.6
		C54.6,8.5,54.4,9,54.2,9c-0.1-0.1-0.1-0.3-0.3-0.4c-0.3,0-0.4,0.2-0.3,0.4c0,0.2,0.1,0.3,0.2,0.4c0,0.1-0.4,0.1-0.6,0.2
		c0,0,0,0,0,0c0.3-0.6,0.6-1.2,0.4-1.3c0-0.1-0.4-0.1-0.6,0c-0.3,0.5-0.7,2.2-0.4,2.7c0,0,0,0,0,0l0,0c-0.4-0.5,0.1-1.9,0-1.9
		c-0.1-0.1-0.3,0-0.4,0.1c-0.1,0.4,0,1.3,0.2,1.7l-0.9-0.1c-0.1-0.1,0-0.3-0.3-0.3c-1.4,0.3-2.3,1-1.4,1.6c0.5,0.1,0.9-0.9,1.5-0.8
		c1.4,0.2,2.9,0.5,4.2,1.1c0.6,0.5-0.2,0.4-0.4,0.5c-0.4,0.1,1,0.9,1.7,0.8C57.1,12.6,56,12,55,11.7z M54.3,11.4
		c-0.1,0-0.3-0.1-0.4-0.1c-0.1-0.1-0.6-0.2-1-0.2c-0.1-0.4,0-0.9,0.2-1.4c0,0,0.1,0,0.1,0L54,9.6c0.1,0.1,0.1,0.1,0.2,0.2
		c-0.1,0.1-0.2,0.3-0.4,0.3c-0.1-0.1-0.1-0.3-0.2-0.4c-0.2,0-0.3,0.2-0.3,0.3c0,0.2,0.1,0.3,0.2,0.4c0,0.1-0.4,0.1-0.5,0.2
		c-0.2,0.1-0.1,0.2,0,0.2l0.7-0.1c0.2,0.2,0.4,0.3,0.6,0.4c0,0,0.1,0,0.1,0C54.4,11.3,54.4,11.3,54.3,11.4z"/>
	<path class="st0" d="M51.7,11.9c0.9-0.1,1.8,0,2.6,0.3c0.4,0.3,0.5,0.6,0.3,0.7l-1.1,0.3l0,0.3c0.4,0.3,1.2,0.2,1.8,0.6
		c0.1,0.2-0.1,0.6-0.2,0.6c-0.3,0-1.4-0.5-1.7-0.4c-0.3,1.5-0.9,2.1-1.1,2.1c-0.5-0.3-0.9-0.6-1.2-1.5c0.7,0.5,1,0.7,1.1,0.5
		c0.1,0,0.5-0.5,0.5-1.2c-0.1-0.6-1.5-0.4-2.1-0.6c-0.4-0.1-0.5-0.5,0.3-0.6c0.6,0.1,1.2,0.3,1.8,0.4c0.1-0.1,0-0.3,0-0.4l0.6,0.1
		c0.1-0.1,0.2-0.2,0.1-0.4C53,12.4,51.3,12.5,51.7,11.9z"/>
	<path class="st0" d="M30.6,8.7c0.9-0.3,1.3,0.2,1.5,0.6c0,0.3,2.4-1.7,3.3,0c-0.3,0.5-1.7,0.8-1.5,0.5c0.1-0.2,0.6-0.6-0.1-0.6
		c-1.1,0.4-2.2,1-3.2,1.8c-0.4,0.3,0,1.3-0.3,1.5c-0.9,0.2-0.8-1-0.2-2c0.2-0.2,0.3,0,0.4,0l0.8-0.6C31.2,9.2,30.3,8.8,30.6,8.7z"/>
	<path class="st0" d="M33.1,12.9c-0.1,0-0.2-0.1-0.1-0.3c0.3-0.3,0.6-0.6,0.9-0.7c0.3,0.1,0.9,2.1,1.1,3.1c0.1,0.3,0.7,0.4,0.9,0.7
		c0.1,0.3-0.4,0.4-0.6,0.4c-0.4-0.1-0.9-0.5-1.2-0.7c-0.3,0.3-0.4,1.1-0.7,1.2c-0.2,0-0.2-0.1-0.2-0.4c0.1-0.2,0.2-0.5,0.2-0.7
		c0.1-0.1,0-0.3,0-0.2c-0.2,0-0.4,0-0.5,0.1c-0.1,0-0.2-0.3-0.1-0.4c0.2,0,0.4-0.2,0.5-0.3c-0.2-0.5-0.5-1-0.6-1.6
		c0-0.1,0.2-0.2,0.3-0.2c0.1,0,0.1,0.3,0.2,0.3c0.1,0,0.3-0.1,0.4-0.1c0.1,0.1,0.1,0.2,0.1,0.3c-0.1,0.1-0.1,0.2-0.2,0.3
		c0,0.1-0.1,0.3,0.1,0.2c0.1-0.1,0.2-0.1,0.2-0.1c0.1,0.1,0.1,0.2,0.1,0.2c-0.1,0-0.3,0.1-0.3,0.2c0,0.1,0.1,0.1,0.1,0.2
		c0.1,0.1,0.3,0,0.4-0.2c0.1-0.2-0.1-0.9-0.5-1.6C33.4,12.7,33.3,12.9,33.1,12.9z"/>
	<path class="st0" d="M31.7,13c-0.1,0-0.2-0.4-0.2-0.4c0.1-0.4,0.2-0.6,0.4-0.8c0.2-0.1,0.3,0.1,0.3,0.2
		C32.3,12.2,32.1,12.9,31.7,13z"/>
	<path class="st0" d="M32.2,11.3c-0.4-0.1-1,0.4-1,0.2c0.2-1.1,2.1-1.5,2.2-1.4c0.3,0.1,0.4,0.4,0.2,0.5c-0.4,0.1-0.9,0.3-0.9,0.5
		l0.2,0.7c0,0.1,0.2,0,0.2-0.2c0-0.1-0.1-0.2-0.2-0.4c-0.1-0.2,1.7-0.4,1.8,0.2c0,0.2-0.2,0.4-0.5,0.4c-0.3-0.1-0.5-0.2-0.9-0.2
		l-1.9,4.6c-0.4,0.4-0.5,0-0.4-0.3c0.3-1.1,1.2-2.3,1.6-3.5C32.7,12.3,32.4,11.6,32.2,11.3z"/>
	<path class="st0" d="M18.4,18.9c0.8-0.2,0.3,0.4,0.3,0.6c-0.1,0.5,1.3-0.4,1.5-1.1c-1.6-1.6-3.4,1.4-3.5,1
		c-0.4-0.4-1.2-0.8-2.2-0.1c-0.3,0.2,1.1,0.5,1.4,1.1l-0.9,1.2c-0.1,0-0.3-0.2-0.4,0.1c-0.3,1.4,0,2.8,1,2.2
		c0.3-0.4-0.5-1.4-0.2-1.8C16.2,20.9,17.3,19.8,18.4,18.9z"/>
	<path id="宜_颜色修正" class="st0" d="M21.5,22.1c-0.6,0.5-0.3,0.6-1.1,1.3l-1.9-2.6c-0.2-0.2-0.9-0.4-1.3,0.4
		c-0.8,1.8,1,3,1.7,4c0.2,0.2-1,1.2-1.5,1.8c-0.3,0.5,0,0.8,0.1,0.7c0.6-0.3,3.1-3.6,5.1-5.2C23.2,21.9,22.3,21.4,21.5,22.1z
		 M19.7,24.4c-0.3,0.4-0.5,0-1-0.6c0.1-0.2,0.3-0.2,0.3-0.4c0.1-0.1-0.2-0.4-0.4-0.4c-0.1,0-0.2,0.1-0.3,0.3c-0.1,0-0.2-0.1-0.2-0.3
		c0-0.1,0.1-0.3,0.3-0.5c0-0.1-0.3-0.5-0.4-0.3c0,0.1-0.1,0.3-0.3,0.2c-0.1-0.1-0.2-0.2-0.2-0.5c0-0.1,0-0.2,0.3-0.4
		c0.2-0.2,1.2,1.5,1.9,2.3C19.8,24.1,19.8,24.3,19.7,24.4z"/>
	<path class="st0" d="M52.2,21c-0.3-0.1-0.5-0.2-0.8-0.3c-0.7-0.2-1.5-0.4-2.3-0.6c-0.8-0.2-0.7-0.1-1.5-0.2
		c-1.7,0.1-1.9,1.9-1.9,2.8c0,1.3,0.1,2.9,1.6,3.2c0.4,0,1.2,0.2,2.2,0.3c2.3,0.3,4.2,0.4,6.5,1c1,0.3,2.3,0.9,2.6,1.1
		c1.3,0.9,1.7,1.9,1.8,5.4c0,0.4,0,1.4,0,1.6c0,0,0,0.3,0,0.9c0,0.5,0,1.3,0.1,2.2c0,0.9,0.1,2,0.1,3.1c0.1,2.5,0.2,5.1,0.5,7.6
		c0.3,2,0.8,5.1,1.9,6.8c1.5,2.4,2.6,2.3,3.3,1.3c1.8-3.5,2.8-7.5,2.8-11.8C69.2,34.2,62.2,24.6,52.2,21z"/>
	<path class="st0" d="M62.1,63.1L62.1,63.1C62.1,63.2,62.1,63.2,62.1,63.1C62,63.2,62,63.3,62,63.3c0,0,0,0-0.1,0.1
		c-0.5,0.4-1,0.4-1.5,0.4l-0.6,0l-0.6,0l-0.6,0h-0.6l-0.6,0l-0.6,0l-0.6,0h-0.6l-0.6,0h-0.6l-0.6,0l-0.6,0l-0.6,0h-0.6l-0.6,0
		l-0.6,0l-0.6,0H50l-0.6,0h-0.6l-0.6,0h-0.6l-0.6,0l-0.6,0l-0.6,0l-0.6,0h-0.6l-0.6,0c-0.4,0-1.3,0.2-1.2-1h0c0-0.3,0.1-0.6,0.2-0.8
		c0.1-0.3,0.2-0.6,0.3-0.8c0.1-0.3,0.3-0.5,0.5-0.8c0.2-0.3,0.4-0.5,0.6-0.7c0.2-0.2,0.5-0.5,0.7-0.7c0.3-0.2,0.5-0.5,0.8-0.7
		c0.3-0.2,0.6-0.4,0.9-0.6c0.3-0.2,0.6-0.4,0.9-0.6c0.3-0.2,0.6-0.4,1-0.6c0.3-0.2,0.6-0.4,1-0.6c0.3-0.2,0.6-0.4,0.9-0.6
		c0.3-0.2,0.6-0.4,0.9-0.5c0.3-0.2,0.6-0.4,0.8-0.5c0.3-0.2,0.5-0.3,0.8-0.5c0.2-0.2,0.5-0.3,0.7-0.5c5-4.4,1-10.6-4.9-8
		c0-1.6-0.2-3-2.4-3.5c8.3-3.9,5.5-12.1-1.2-10.2c0,0-0.5-3,0.6-3.1c4.3,0.2,10.6,0.7,11.4,7.1c0.1,0.6,0.2,0.8,0.1,2.6
		c0,1.7-0.3,6.1,0,9.6c0.4,5.8,2.1,11.7,5.1,13.9l0,0c0.1,0.1,0.2,0.1,0.3,0.2c0,0,0,0,0,0c0.1,0.1,0.2,0.1,0.3,0.2
		C62.9,62.3,62.5,62.7,62.1,63.1z"/>
	<path class="st0" d="M41.9,21.7c-0.1-1.2-0.8-1.8-1.9-1.9c-0.2,0-0.5,0-0.7,0.1c-0.2,0-0.4,0.1-0.6,0.1c-0.2,0-0.4,0.1-0.6,0.1
		c-0.2,0-0.4,0.1-0.6,0.1c-0.2,0-0.4,0.1-0.6,0.1c-0.2,0.1-0.4,0.1-0.6,0.2c-0.2,0.1-0.4,0.1-0.6,0.2c-0.2,0.1-0.4,0.1-0.6,0.2
		c-0.2,0.1-0.4,0.1-0.5,0.2c-0.2,0.1-0.4,0.1-0.5,0.2c-0.2,0.1-0.4,0.1-0.5,0.2c-0.2,0.1-0.4,0.2-0.5,0.2c-0.2,0.1-0.4,0.2-0.5,0.2
		c-0.2,0.1-0.3,0.2-0.5,0.3c-0.2,0.1-0.3,0.2-0.5,0.3c-0.2,0.1-0.3,0.2-0.5,0.3c-0.2,0.1-0.3,0.2-0.5,0.3c-0.2,0.1-0.3,0.2-0.5,0.3
		c-0.2,0.1-0.3,0.2-0.5,0.3c-0.2,0.1-0.3,0.2-0.5,0.3c-0.2,0.1-0.3,0.2-0.5,0.3c-0.2,0.1-0.3,0.2-0.5,0.3c-0.2,0.1-0.3,0.2-0.5,0.3
		c-0.2,0.1-0.3,0.2-0.4,0.4c-0.1,0.1-0.3,0.2-0.4,0.4c-0.1,0.1-0.3,0.2-0.4,0.4c-0.1,0.1-0.3,0.3-0.4,0.4c-0.1,0.1-0.3,0.3-0.4,0.4
		c-0.1,0.1-0.3,0.3-0.4,0.4c-0.1,0.1-0.3,0.3-0.4,0.4c-0.1,0.1-0.3,0.3-0.4,0.4c-4,4.5-6.5,10.5-6.5,17.1c0,0.3,0,0.6,0,0.9
		c0,0.3,0,0.6,0,0.9c0,0.3,0,0.6,0.1,0.9c0,0.3,0.1,0.6,0.1,0.9c0,0.3,0.1,0.6,0.1,0.9c0.1,0.3,0.1,0.6,0.2,0.9
		c0.1,0.3,0.1,0.6,0.2,0.9c0.1,0.3,0.1,0.6,0.2,0.8c0.1,0.3,0.2,0.6,0.3,0.8c0.1,0.3,0.2,0.6,0.3,0.8c0.1,0.3,0.2,0.5,0.3,0.8
		c0.1,0.3,0.2,0.5,0.3,0.8c0.1,0.3,0.2,0.5,0.4,0.8c1.1,2.2,2.8,1.1,3.9-1.5c1.6-3.8,2-8.2,2.2-12.4c0.1-2.7,0.3-5.3,0.6-8.2
		c0.3-2.6,0-5,2.2-6.4c2.2-1.4,7.4-1.6,9.2-1.8c1.7-0.2,1.7-0.2,2.5-0.6C41.7,25.2,42.1,23.7,41.9,21.7z"/>
	<path class="st0" d="M49.3,48.1c3.7-2.9,6.2,1,2.1,3.3C51.7,50,51.1,48.5,49.3,48.1z"/>
	<path class="st0" d="M43.8,35.3c3.9-3,7.1,0.5,2.2,3.5C46.1,37.3,45.6,35.5,43.8,35.3z"/>
	<path class="st0" d="M132.1,23.1c-0.1-2.3-1.9-6.5-7.1-7c-1.8-0.2,2,5.2,1.5,8.3l-6.8,1.1c-0.5-0.4-0.6-1.6-1.8-0.9
		c-5.5,3.9-8.5,9.5-3.4,10.6c2.2-0.4,2.6-6.3,4.9-7c6.2-1.7,13.6-2.1,20.1-1.7c3.3,1.6-0.1,2.4-0.9,3.1c-1.7,1.4,5.8,2.7,8.4,0.9
		C146.5,20.1,131.2,24.6,132.1,23.1z"/>
	<path class="st0" d="M316.8,63.4h-4V64c0.3,0,0.6,0.1,0.8,0.1c0.2,0,0.3,0.1,0.4,0.2c0.1,0.1,0.1,0.2,0.1,0.3c0,0.1,0,0.3-0.1,0.5
		c-0.1,0.3-0.3,0.7-0.4,1c-0.2,0.4-0.3,0.7-0.5,1.1c-0.2,0.4-0.3,0.7-0.5,1c-0.2,0.3-0.3,0.6-0.4,0.9c-0.3-0.7-0.7-1.4-1-2
		c-0.3-0.7-0.6-1.3-0.9-2c-0.1-0.2-0.2-0.4-0.2-0.5c0-0.1,0-0.2,0.2-0.3c0.1-0.1,0.4-0.1,0.7-0.2v-0.6h-4.9V64
		c0.2,0,0.4,0.1,0.6,0.1c0.2,0,0.3,0.1,0.4,0.2c0.1,0.1,0.2,0.2,0.4,0.4c0.1,0.2,0.2,0.4,0.4,0.7c0.3,0.5,0.5,1,0.7,1.5
		c0.2,0.4,0.4,0.8,0.6,1.2c0.2,0.3,0.3,0.7,0.5,0.9c0.1,0.3,0.3,0.6,0.4,0.8c0.1,0.1,0.1,0.2,0.1,0.3c0,0.1,0,0.2,0.1,0.3
		c0,0.1,0,0.2,0,0.4v2.1c0,0.4,0,0.7,0,0.9c0,0.2-0.1,0.4-0.2,0.5c-0.1,0.1-0.3,0.2-0.5,0.3c-0.2,0-0.5,0.1-0.8,0.1v0.6h5.6v-0.6
		c-0.4,0-0.7-0.1-0.9-0.1c-0.2,0-0.4-0.1-0.5-0.3c-0.1-0.1-0.2-0.3-0.2-0.5c0-0.2,0-0.5,0-0.9v-2.4c0-0.2,0-0.4,0-0.5
		c0-0.1,0-0.2,0.1-0.4c0-0.1,0.1-0.2,0.2-0.4c0.2-0.4,0.4-0.8,0.6-1.2c0.2-0.3,0.3-0.7,0.5-0.9c0.1-0.3,0.3-0.6,0.4-0.8
		c0.1-0.3,0.3-0.5,0.5-0.8c0.2-0.3,0.3-0.5,0.4-0.7c0.1-0.2,0.3-0.3,0.4-0.4c0.1-0.1,0.3-0.2,0.5-0.2c0.2-0.1,0.4-0.1,0.7-0.1
		L316.8,63.4L316.8,63.4z"/>
	<path class="st0" d="M301.9,66.3c0-0.3,0-0.6-0.1-0.9c0-0.3,0-0.6-0.1-0.9c0-0.3,0-0.6,0-0.9c0-0.3,0-0.5,0-0.7h-0.4
		c-0.1,0.2-0.3,0.3-0.4,0.4c-0.1,0.1-0.3,0.1-0.5,0.1h-6.5c-0.2,0-0.3,0-0.4,0c-0.1,0-0.2-0.1-0.3-0.1c-0.1-0.1-0.2-0.2-0.3-0.3
		h-0.4c0,0.3,0,0.7,0,1c0,0.4-0.1,0.8-0.1,1.2c0,0.4-0.1,0.8-0.1,1.2h0.6c0.1-0.4,0.2-0.8,0.3-1.1c0.1-0.3,0.2-0.5,0.3-0.7
		c0.1-0.1,0.2-0.2,0.3-0.3c0.1-0.1,0.3-0.1,0.5-0.2c0.2,0,0.5,0,0.8,0h0.7v8.8c0,0.4,0,0.7,0,0.9c0,0.2-0.1,0.4-0.2,0.5
		c-0.1,0.1-0.3,0.2-0.5,0.3c-0.2,0-0.5,0.1-0.8,0.1v0.6h5.5v-0.6c-0.4,0-0.6-0.1-0.9-0.1c-0.2,0-0.4-0.1-0.5-0.3
		c-0.1-0.1-0.2-0.3-0.2-0.5c0-0.2,0-0.5,0-0.9v-8.8h0.8c0.4,0,0.7,0,0.9,0.1c0.2,0.1,0.4,0.2,0.6,0.3c0.1,0.2,0.3,0.4,0.4,0.7
		c0.1,0.3,0.2,0.7,0.3,1.1L301.9,66.3z"/>
	<path class="st0" d="M287.7,75.3v-0.6c-0.3,0-0.6-0.1-0.7-0.1c-0.2-0.1-0.3-0.1-0.4-0.3c-0.1-0.1-0.2-0.3-0.2-0.5
		c0-0.2,0-0.5,0-0.9v-7.2c0-0.4,0-0.7,0-0.9c0-0.2,0.1-0.4,0.2-0.5c0.1-0.1,0.2-0.2,0.4-0.3c0.2-0.1,0.4-0.1,0.7-0.1v-0.6h-5.1V64
		c0.3,0,0.6,0.1,0.7,0.1c0.2,0,0.3,0.1,0.4,0.3c0.1,0.1,0.2,0.3,0.2,0.5c0,0.2,0,0.5,0,0.9v7.2c0,0.4,0,0.7,0,0.9
		c0,0.2-0.1,0.4-0.2,0.5c-0.1,0.1-0.2,0.2-0.4,0.3c-0.2,0.1-0.4,0.1-0.7,0.1v0.6H287.7z"/>
	<path class="st0" d="M277.8,66.2c-0.1-0.5-0.2-1-0.2-1.5c-0.1-0.4-0.1-0.8-0.1-1.2c-0.2-0.1-0.4-0.1-0.6-0.2
		c-0.2-0.1-0.5-0.1-0.8-0.2c-0.3-0.1-0.6-0.1-0.9-0.1c-0.6,0-1.2,0.1-1.7,0.3c-0.5,0.2-0.9,0.4-1.3,0.8c-0.3,0.3-0.6,0.7-0.8,1.1
		c-0.2,0.4-0.3,0.9-0.3,1.4c0,0.4,0.1,0.8,0.2,1.2c0.2,0.4,0.4,0.7,0.7,1c0.3,0.3,0.6,0.6,1,0.8c0.4,0.3,0.8,0.5,1.2,0.7
		c0.4,0.3,0.8,0.5,1.1,0.8c0.3,0.3,0.5,0.5,0.7,0.8c0.2,0.3,0.2,0.6,0.2,1c0,0.4-0.1,0.7-0.2,1c-0.1,0.3-0.3,0.5-0.6,0.7
		c-0.3,0.2-0.6,0.2-0.9,0.2c-0.3,0-0.7-0.1-0.9-0.2c-0.3-0.1-0.5-0.3-0.8-0.5c-0.2-0.2-0.4-0.5-0.6-0.7c-0.2-0.3-0.3-0.5-0.4-0.8
		c-0.1-0.3-0.2-0.5-0.3-0.8l-0.6,0.2c0,0.3,0.1,0.6,0.1,0.9c0,0.3,0.1,0.6,0.1,0.9c0,0.3,0.1,0.5,0.1,0.8c0,0.2,0.1,0.4,0.1,0.5
		c0.1,0.1,0.3,0.1,0.5,0.2c0.2,0.1,0.4,0.1,0.6,0.2c0.3,0.1,0.5,0.1,0.8,0.2c0.3,0,0.6,0.1,0.9,0.1c0.7,0,1.2-0.1,1.8-0.3
		c0.5-0.2,1-0.4,1.3-0.8c0.4-0.3,0.7-0.7,0.9-1.2c0.2-0.4,0.3-0.9,0.3-1.4c0-0.6-0.1-1.1-0.4-1.6c-0.3-0.5-0.6-0.9-1.1-1.2
		c-0.5-0.4-1-0.7-1.6-1c-0.5-0.3-0.9-0.5-1.2-0.8c-0.3-0.2-0.5-0.5-0.7-0.8c-0.1-0.3-0.2-0.6-0.2-0.9c0-0.4,0.1-0.7,0.2-1
		c0.1-0.3,0.3-0.5,0.6-0.6c0.2-0.1,0.5-0.2,0.8-0.2c0.4,0,0.7,0.1,0.9,0.2c0.3,0.1,0.5,0.3,0.7,0.6c0.2,0.2,0.3,0.5,0.5,0.8
		c0.1,0.3,0.2,0.6,0.3,0.9L277.8,66.2z"/>
	<path class="st0" d="M266.3,74.7c-0.2-0.1-0.4-0.3-0.6-0.5c-0.1-0.1-0.2-0.3-0.4-0.5c-0.1-0.2-0.3-0.4-0.4-0.6
		c-0.1-0.2-0.3-0.5-0.5-0.9c-0.1-0.2-0.3-0.5-0.4-0.7c-0.1-0.3-0.3-0.5-0.4-0.8c-0.1-0.3-0.2-0.5-0.4-0.7c-0.1-0.2-0.2-0.4-0.3-0.5
		c0.4-0.2,0.8-0.4,1.1-0.7c0.3-0.3,0.6-0.6,0.8-1c0.2-0.4,0.3-0.8,0.3-1.4c0-0.6-0.1-1.1-0.3-1.5c-0.2-0.4-0.5-0.7-0.9-1
		c-0.2-0.2-0.5-0.3-0.8-0.4c-0.3-0.1-0.6-0.2-0.9-0.2c-0.3,0-0.7-0.1-1.2-0.1h-5V64c0.3,0,0.6,0.1,0.7,0.1c0.2,0,0.3,0.1,0.4,0.2
		c0.1,0.1,0.2,0.3,0.2,0.5c0,0.2,0,0.5,0,0.9v7.2c0,0.4,0,0.7,0,0.9c0,0.2-0.1,0.4-0.2,0.5s-0.2,0.2-0.4,0.3c-0.2,0-0.4,0.1-0.8,0.1
		v0.6h5.2v-0.6c-0.3,0-0.6-0.1-0.7-0.1c-0.2-0.1-0.3-0.1-0.4-0.3c-0.1-0.1-0.2-0.3-0.2-0.5c0-0.2,0-0.5,0-0.9v-2.8h0.3
		c0.2,0,0.3,0,0.5,0.1c0.1,0.1,0.2,0.2,0.3,0.3c0.1,0.1,0.2,0.3,0.3,0.5c0.2,0.3,0.3,0.7,0.5,1c0.2,0.3,0.3,0.6,0.5,0.9
		c0.2,0.3,0.3,0.6,0.5,0.8c0.2,0.3,0.4,0.6,0.6,0.8c0.2,0.2,0.4,0.4,0.7,0.5c0.3,0.1,0.6,0.3,0.9,0.3s0.8,0.1,1.3,0.2
		c0.1,0,0.2,0,0.4,0c0.1,0,0.2,0,0.3,0l0.1-0.5C266.6,74.9,266.4,74.8,266.3,74.7z M262.4,68c-0.1,0.4-0.3,0.7-0.6,0.9
		c-0.2,0.2-0.4,0.3-0.7,0.4c-0.2,0.1-0.5,0.1-0.9,0.1h-0.5v-4.5c0-0.2,0-0.4,0-0.5c0-0.1,0.1-0.2,0.1-0.2c0.1-0.1,0.1-0.1,0.2-0.1
		c0.1,0,0.3-0.1,0.5-0.1c0.2,0,0.5,0,0.7,0.1c0.2,0.1,0.5,0.2,0.6,0.5c0.2,0.2,0.4,0.5,0.5,0.8c0.1,0.3,0.2,0.8,0.2,1.2
		C262.6,67.2,262.5,67.7,262.4,68z"/>
	<path class="st0" d="M251.2,72.3c-0.2,0.4-0.3,0.7-0.5,1c-0.2,0.3-0.3,0.5-0.5,0.7c-0.1,0.1-0.3,0.3-0.5,0.4
		c-0.2,0.1-0.4,0.1-0.6,0.2c-0.2,0-0.5,0.1-0.9,0.1c-0.3,0-0.6,0-0.9,0c-0.2,0-0.4-0.1-0.6-0.2c-0.1-0.1-0.2-0.2-0.3-0.4
		c-0.1-0.2-0.1-0.6-0.1-1v-3.4h1.1c0.4,0,0.7,0,0.9,0c0.2,0,0.4,0.1,0.5,0.2c0.1,0.1,0.2,0.2,0.3,0.4c0.1,0.2,0.1,0.5,0.2,0.8h0.6
		v-3.7h-0.6c-0.1,0.3-0.1,0.6-0.2,0.8c-0.1,0.2-0.2,0.3-0.3,0.4c-0.1,0.1-0.3,0.1-0.5,0.2c-0.2,0-0.5,0-0.9,0h-1.1v-3.9
		c0-0.2,0-0.4,0-0.4c0-0.1,0.1-0.2,0.2-0.2c0.1,0,0.2,0,0.4,0h0.7c0.4,0,0.7,0,0.9,0.1c0.2,0,0.4,0.1,0.6,0.2
		c0.1,0.1,0.3,0.2,0.4,0.3c0.1,0.2,0.3,0.4,0.4,0.6c0.1,0.3,0.2,0.5,0.3,0.9L251,66c0-0.3,0-0.5-0.1-0.8c0-0.3,0-0.5-0.1-0.8
		c0-0.3,0-0.5,0-0.7c0-0.2,0-0.3,0-0.4h-8V64c0.3,0,0.5,0.1,0.7,0.1c0.2,0,0.3,0.1,0.4,0.2c0.1,0.1,0.2,0.3,0.2,0.5
		c0,0.2,0,0.5,0,0.9V73c0,0.4,0,0.7,0,0.9c0,0.2-0.1,0.4-0.2,0.5c-0.1,0.1-0.3,0.2-0.5,0.2c-0.2,0.1-0.5,0.1-0.8,0.1v0.6h8.7
		c0-0.1,0.1-0.3,0.1-0.4c0-0.2,0.1-0.4,0.1-0.6c0-0.2,0.1-0.5,0.1-0.7c0-0.2,0.1-0.4,0.1-0.7c0-0.2,0.1-0.4,0.1-0.5L251.2,72.3z"/>
	<path class="st0" d="M238.6,63.4h-4V64c0.3,0,0.6,0.1,0.8,0.2c0.2,0.1,0.3,0.2,0.4,0.3c0.1,0.1,0.1,0.3,0.1,0.5
		c0,0.2-0.1,0.5-0.2,0.8c-0.1,0.5-0.3,1-0.5,1.5c-0.2,0.5-0.4,1.1-0.5,1.7c-0.2,0.6-0.4,1.1-0.6,1.7c-0.2,0.5-0.4,1.1-0.5,1.5h0
		c-0.1-0.3-0.2-0.7-0.4-1.1c-0.1-0.4-0.3-0.8-0.5-1.3c-0.2-0.4-0.3-0.9-0.5-1.3c-0.2-0.4-0.3-0.9-0.4-1.3c-0.1-0.4-0.3-0.8-0.4-1.1
		c-0.1-0.3-0.2-0.6-0.3-0.8c-0.1-0.3-0.1-0.5-0.1-0.7c0-0.1,0.1-0.3,0.3-0.3c0.2-0.1,0.4-0.1,0.8-0.2v-0.6H227V64
		c0.3,0,0.5,0.1,0.6,0.1c0.2,0.1,0.3,0.1,0.5,0.3c0.1,0.1,0.2,0.3,0.4,0.5c0.1,0.2,0.2,0.5,0.3,0.9c0.1,0.4,0.3,0.9,0.5,1.4
		c0.2,0.6,0.4,1.2,0.7,1.9c0.2,0.7,0.5,1.4,0.7,2.1c0.3,0.7,0.5,1.5,0.8,2.2c0.3,0.7,0.5,1.5,0.7,2.1h0.9c0.3-0.8,0.5-1.5,0.8-2.3
		c0.3-0.8,0.5-1.5,0.8-2.2c0.3-0.7,0.5-1.4,0.7-2c0.2-0.6,0.4-1.2,0.6-1.7c0.2-0.5,0.3-0.9,0.5-1.2c0.2-0.4,0.3-0.8,0.5-1.1
		c0.1-0.3,0.3-0.5,0.4-0.6c0.1-0.1,0.3-0.2,0.5-0.3c0.2-0.1,0.4-0.1,0.7-0.1L238.6,63.4L238.6,63.4z"/>
	<path class="st0" d="M222.8,75.3v-0.6c-0.3,0-0.6-0.1-0.7-0.1c-0.2-0.1-0.3-0.1-0.4-0.3c-0.1-0.1-0.2-0.3-0.2-0.5
		c0-0.2,0-0.5,0-0.9v-7.2c0-0.4,0-0.7,0-0.9c0-0.2,0.1-0.4,0.2-0.5c0.1-0.1,0.2-0.2,0.4-0.3c0.2-0.1,0.4-0.1,0.7-0.1v-0.6h-5.2V64
		c0.3,0,0.6,0.1,0.7,0.1c0.2,0,0.3,0.1,0.4,0.3c0.1,0.1,0.2,0.3,0.2,0.5c0,0.2,0,0.5,0,0.9v7.2c0,0.4,0,0.7,0,0.9
		c0,0.2-0.1,0.4-0.2,0.5c-0.1,0.1-0.2,0.2-0.4,0.3c-0.2,0.1-0.4,0.1-0.7,0.1v0.6H222.8z"/>
	<path class="st0" d="M213.4,63.4h-4.2v0.6c0.4,0,0.7,0.1,0.9,0.2c0.2,0.1,0.4,0.2,0.5,0.3c0.1,0.1,0.2,0.3,0.2,0.5
		c0,0.2,0.1,0.4,0.1,0.7c0,0.3,0,0.6,0.1,1c0,0.4,0,0.9,0,1.4v3.3h-0.1l-6.1-8h-3.2v0.6c0.2,0,0.5,0.1,0.6,0.1
		c0.2,0.1,0.3,0.1,0.5,0.2c0.1,0.1,0.2,0.2,0.4,0.4c0.1,0.1,0.1,0.2,0.2,0.3c0,0.1,0.1,0.2,0.1,0.4c0,0.1,0,0.3,0,0.5
		c0,0.2,0,0.5,0,0.8v3.9c0,0.8,0,1.4-0.1,1.9c0,0.5-0.1,0.9-0.1,1.2c0,0.2-0.1,0.4-0.2,0.6c-0.1,0.2-0.2,0.3-0.4,0.3
		c-0.2,0.1-0.5,0.1-0.8,0.1v0.6h4.3v-0.6c-0.4,0-0.8-0.1-1-0.2c-0.2-0.1-0.4-0.2-0.5-0.4c-0.1-0.2-0.2-0.3-0.2-0.6
		c0-0.3-0.1-0.7-0.1-1.2c0-0.5,0-1.1-0.1-1.9v-4.1h0.1l6.6,9.1h0.9v-7.4c0-0.5,0-1,0-1.4c0-0.4,0-0.7,0.1-1c0-0.3,0.1-0.5,0.1-0.7
		c0-0.2,0.1-0.4,0.2-0.5c0.1-0.1,0.2-0.3,0.4-0.3c0.2-0.1,0.4-0.1,0.8-0.1L213.4,63.4L213.4,63.4z"/>
	<path class="st0" d="M197.9,63.4h-4.3V64c0.4,0,0.7,0.1,1,0.1c0.2,0.1,0.4,0.2,0.5,0.3c0.1,0.1,0.2,0.3,0.2,0.5
		c0,0.2,0,0.4,0.1,0.6c0,0.2,0,0.5,0.1,0.9c0,0.3,0,0.8,0,1.2v2.2c0,1.5-0.2,2.6-0.7,3.4c-0.5,0.7-1.1,1.1-2.1,1.1
		c-0.9,0-1.6-0.3-2-1c-0.4-0.7-0.6-1.7-0.6-3v-4.5c0-0.4,0-0.7,0-1c0-0.2,0.1-0.4,0.2-0.5c0.1-0.1,0.2-0.2,0.4-0.3
		c0.2-0.1,0.4-0.1,0.7-0.1v-0.6h-5.1V64c0.3,0,0.6,0.1,0.7,0.1c0.2,0.1,0.3,0.1,0.4,0.3c0.1,0.1,0.1,0.3,0.2,0.5c0,0.2,0,0.6,0,1
		v4.6c0,0.7,0,1.3,0.1,1.9c0.1,0.5,0.2,1,0.4,1.4c0.2,0.4,0.4,0.7,0.8,1c0.3,0.2,0.6,0.4,0.9,0.6c0.3,0.1,0.7,0.2,1,0.3
		c0.4,0.1,0.7,0.1,1.1,0.1c0.4,0,0.8-0.1,1.2-0.2c0.4-0.1,0.7-0.3,1.1-0.5c0.3-0.2,0.6-0.4,0.9-0.7c0.3-0.4,0.5-0.8,0.7-1.2
		c0.2-0.5,0.3-1,0.4-1.5c0.1-0.6,0.1-1.1,0.1-1.8v-2c0-0.4,0-0.7,0-1c0-0.3,0-0.5,0-0.7c0-0.2,0-0.4,0-0.6c0-0.2,0-0.3,0.1-0.5
		c0-0.2,0.1-0.4,0.2-0.5c0.1-0.1,0.2-0.3,0.4-0.3c0.2-0.1,0.5-0.1,0.8-0.1L197.9,63.4L197.9,63.4z"/>
	<path class="st0" d="M172,63.4h-4.2v0.6c0.4,0,0.7,0.1,0.9,0.2c0.2,0.1,0.4,0.2,0.5,0.3c0.1,0.1,0.2,0.3,0.2,0.5
		c0,0.2,0.1,0.4,0.1,0.7c0,0.3,0,0.6,0.1,1c0,0.4,0,0.9,0,1.4v3.3h-0.1l-6.1-8h-3.2v0.6c0.2,0,0.5,0.1,0.6,0.1
		c0.2,0.1,0.3,0.1,0.5,0.2c0.1,0.1,0.2,0.2,0.3,0.4c0.1,0.1,0.1,0.2,0.2,0.3s0.1,0.2,0.1,0.4c0,0.1,0,0.3,0,0.5c0,0.2,0,0.5,0,0.8
		v3.9c0,0.8,0,1.4-0.1,1.9c0,0.5-0.1,0.9-0.1,1.2c0,0.2-0.1,0.4-0.2,0.6c-0.1,0.2-0.2,0.3-0.4,0.3c-0.2,0.1-0.5,0.1-0.8,0.1v0.6h4.3
		v-0.6c-0.4,0-0.8-0.1-1-0.2c-0.2-0.1-0.4-0.2-0.5-0.4c-0.1-0.2-0.2-0.3-0.2-0.6c0-0.3-0.1-0.7-0.1-1.2c0-0.5-0.1-1.1-0.1-1.9v-4.1
		h0.1l6.6,9.1h0.9v-7.4c0-0.5,0-1,0-1.4c0-0.4,0-0.7,0.1-1c0-0.3,0.1-0.5,0.1-0.7c0-0.2,0.1-0.4,0.2-0.5c0.1-0.1,0.2-0.3,0.4-0.3
		c0.2-0.1,0.4-0.1,0.8-0.1L172,63.4L172,63.4z"/>
	<path class="st0" d="M156,75.3v-0.6c-0.3,0-0.6-0.1-0.7-0.1c-0.2-0.1-0.3-0.1-0.4-0.3c-0.1-0.1-0.2-0.3-0.2-0.5c0-0.2,0-0.5,0-0.9
		v-7.2c0-0.4,0-0.7,0-0.9c0-0.2,0.1-0.4,0.2-0.5c0.1-0.1,0.2-0.2,0.4-0.3c0.2-0.1,0.4-0.1,0.7-0.1v-0.6h-5.1V64
		c0.3,0,0.6,0.1,0.7,0.1c0.2,0,0.3,0.1,0.4,0.3c0.1,0.1,0.2,0.3,0.2,0.5c0,0.2,0,0.5,0,0.9v7.2c0,0.4,0,0.7,0,0.9
		c0,0.2-0.1,0.4-0.2,0.5c-0.1,0.1-0.2,0.2-0.4,0.3c-0.2,0.1-0.4,0.1-0.7,0.1v0.6H156z"/>
	<path class="st0" d="M145.7,70.3c-0.3-0.4-0.7-0.7-1.2-1c-0.5-0.2-1.1-0.4-1.7-0.5v-0.1c0.3-0.1,0.6-0.2,1-0.3
		c0.3-0.1,0.6-0.3,0.9-0.5c0.3-0.2,0.5-0.5,0.6-0.8c0.2-0.3,0.2-0.7,0.2-1.1c0-0.5-0.1-0.9-0.3-1.2c-0.2-0.4-0.4-0.6-0.7-0.9
		c-0.2-0.2-0.5-0.3-0.8-0.4c-0.3-0.1-0.6-0.2-1-0.2c-0.4,0-0.8-0.1-1.2-0.1h-5V64c0.3,0,0.6,0.1,0.8,0.1c0.2,0,0.3,0.1,0.4,0.3
		c0.1,0.1,0.1,0.3,0.2,0.5c0,0.2,0,0.5,0,0.9v7.1c0,0.4,0,0.7,0,0.9c0,0.2-0.1,0.4-0.2,0.5c-0.1,0.1-0.2,0.2-0.4,0.3
		c-0.2,0.1-0.5,0.1-0.8,0.1v0.6h4.3c0.5,0,0.9,0,1.4-0.1c0.5-0.1,0.9-0.1,1.3-0.3c0.4-0.1,0.7-0.3,1.1-0.5c0.3-0.2,0.6-0.4,0.8-0.7
		c0.2-0.3,0.4-0.6,0.6-0.9c0.1-0.3,0.2-0.7,0.2-1.2C146.1,71.2,146,70.7,145.7,70.3z M140.3,65.1c0-0.2,0-0.4,0-0.6
		c0-0.1,0.1-0.2,0.1-0.3c0.1-0.1,0.1-0.1,0.2-0.1c0.1,0,0.3-0.1,0.5-0.1c0.2,0,0.5,0,0.7,0.1c0.2,0.1,0.4,0.2,0.6,0.4
		c0.2,0.2,0.3,0.4,0.4,0.7c0.1,0.3,0.2,0.6,0.2,1.1c0,0.8-0.2,1.4-0.5,1.7c-0.4,0.4-1,0.5-1.8,0.5h-0.4L140.3,65.1L140.3,65.1z
		 M143.3,73.1c-0.1,0.3-0.3,0.6-0.5,0.8c-0.2,0.2-0.4,0.4-0.7,0.5c-0.2,0.1-0.5,0.2-0.7,0.2c-0.3,0-0.5,0-0.7-0.1
		c-0.2-0.1-0.3-0.3-0.4-0.5c-0.1-0.2-0.1-0.6-0.1-1v-3.6h0.4c0.9,0,1.6,0.2,2.1,0.6c0.5,0.4,0.7,1.1,0.7,1.9
		C143.5,72.4,143.4,72.8,143.3,73.1z"/>
	<path class="st0" d="M131.9,75.3v-0.6c-0.3,0-0.6-0.1-0.7-0.1c-0.2-0.1-0.3-0.1-0.4-0.3c-0.1-0.1-0.2-0.3-0.2-0.5
		c0-0.2,0-0.5,0-0.9v-7.2c0-0.4,0-0.7,0-0.9c0-0.2,0.1-0.4,0.2-0.5c0.1-0.1,0.2-0.2,0.4-0.3c0.2-0.1,0.4-0.1,0.7-0.1v-0.6h-5.2V64
		c0.3,0,0.6,0.1,0.7,0.1c0.2,0,0.3,0.1,0.4,0.3c0.1,0.1,0.2,0.3,0.2,0.5c0,0.2,0,0.5,0,0.9v7.2c0,0.4,0,0.7,0,0.9
		c0,0.2-0.1,0.4-0.2,0.5c-0.1,0.1-0.2,0.2-0.4,0.3c-0.2,0.1-0.4,0.1-0.7,0.1v0.6H131.9z"/>
	<path class="st0" d="M122.5,63.4h-4V64c0.3,0,0.6,0.1,0.8,0.1c0.2,0,0.3,0.1,0.4,0.2c0.1,0.1,0.1,0.2,0.1,0.3
		c0,0.1-0.1,0.3-0.1,0.5c-0.1,0.3-0.3,0.7-0.4,1c-0.2,0.4-0.3,0.7-0.5,1.1c-0.2,0.4-0.3,0.7-0.5,1c-0.2,0.3-0.3,0.6-0.4,0.9
		c-0.3-0.7-0.7-1.4-1-2c-0.3-0.7-0.6-1.3-0.9-2c-0.1-0.2-0.2-0.4-0.2-0.5c0-0.1,0-0.2,0.2-0.3c0.1-0.1,0.4-0.1,0.7-0.2v-0.6h-4.9V64
		c0.2,0,0.4,0.1,0.6,0.1c0.2,0,0.3,0.1,0.4,0.2c0.1,0.1,0.2,0.2,0.4,0.4c0.1,0.2,0.2,0.4,0.4,0.7c0.3,0.5,0.5,1,0.7,1.5
		c0.2,0.4,0.4,0.8,0.6,1.2c0.2,0.3,0.3,0.7,0.5,0.9c0.1,0.3,0.3,0.6,0.4,0.8c0,0.1,0.1,0.2,0.1,0.3c0,0.1,0,0.2,0.1,0.3
		c0,0.1,0,0.2,0,0.4v2.1c0,0.4,0,0.7,0,0.9c0,0.2-0.1,0.4-0.2,0.5c-0.1,0.1-0.3,0.2-0.5,0.3c-0.2,0-0.5,0.1-0.8,0.1v0.6h5.6v-0.6
		c-0.4,0-0.7-0.1-0.9-0.1c-0.2,0-0.4-0.1-0.5-0.3c-0.1-0.1-0.2-0.3-0.2-0.5c0-0.2,0-0.5,0-0.9v-2.4c0-0.2,0-0.4,0-0.5
		c0-0.1,0-0.2,0.1-0.4c0-0.1,0.1-0.2,0.2-0.4c0.2-0.4,0.4-0.8,0.6-1.2c0.2-0.3,0.3-0.7,0.5-0.9c0.1-0.3,0.3-0.6,0.4-0.8
		c0.1-0.3,0.3-0.5,0.5-0.8c0.2-0.3,0.3-0.5,0.4-0.7c0.1-0.2,0.3-0.3,0.4-0.4c0.1-0.1,0.3-0.2,0.5-0.2c0.2-0.1,0.4-0.1,0.7-0.1
		C122.5,64,122.5,63.4,122.5,63.4z"/>
	<path class="st0" d="M284.3,30.6c-0.1-1.4,4.5-4.8,3.9-5.5c-0.5-1.1-0.9-2-2.7-1.9c-1.4,0.7-2.8,1.7-3.5,3
		c-0.6,0.5-1.1,0.4-1.5,0.1c-0.2-0.5-0.3-1.2-1.1-1.6c-0.7,0.3-1.1,0.9-1.2,1.7c0.7,8-0.2,15.1-0.4,22.3c1,2.2,2,2.9,3.4,2.5
		c-0.2-5.1-0.9-10.2-0.6-15.4c1.7,0.1,2.1,1.7,3.3,2.2c0.6,0.1,3.7-3.5,2.6-4.8C285.7,32.2,284.4,31.9,284.3,30.6z M283.6,32.4
		c0.7,1.2,0,2.2,0,3.2c-0.9-0.5-1.5-0.6-2.1-0.9l-1.1-1.8l0-4.6c1.3-0.3,2.6-1.4,3.8-1.5c-0.8,0.8-0.6,1.6-1.2,2.4
		C282.8,30.3,283.4,31.3,283.6,32.4z"/>
	<path class="st0" d="M286.5,39.4c0.2-1.4,12.4-4.1,16.2-3c0.6,0.8-4.5,5.3-5.2,5.4c-0.1,0-1.1-0.9-1.4,0c-0.6,2.1-1.1,5.4,0.1,6.4
		c10.1,3.8,19.4-0.2,17.1-9.3c2.1,2.4,2.8,5.3,4.4,6.6c0.5,0.5,0,1.5-0.6,2.4c-5.2,8-22.5,5-23.5,1.6c-0.6-0.8,0.5-7.4-0.3-6.9
		c-3.8,2.4-6.2,5-7.6,6c-1,0.8-2.1-0.1-2-0.6c0.5-1.5,6.4-6.1,8.9-7.4c-1.2-0.2-4.7,0.8-5.6,0.6C286.4,41.1,286.3,40.4,286.5,39.4z"
		/>
	<path class="st0" d="M289.9,33.8c3-1.6,5.8-2.8,9.6-1.7c0.6,0.8-0.3,2-1,2.1C295.6,34.4,289.5,36,289.9,33.8z"/>
	<path class="st0" d="M293.3,20.4c3.5,0.3,4.1,2.4,4.1,4c-0.6,1,10.3-2.4,10.8,4.7c-1.7,1.3-6.7,0.5-5.6-0.5c0.5-0.5,2.8-1,0.5-2.1
		c-4.3-0.2-8.8,0.4-12.9,1.7c-1.6,0.4-1.8,4.5-3.2,4.8c-3.3-0.6-1.4-4.6,2.1-7.3c0.8-0.5,0.9,0.3,1.3,0.6l3.4-0.9
		C294.6,23,292.2,20.3,293.3,20.4z"/>
	<path class="st0" d="M244.2,29.6C244.2,29.6,244.2,29.6,244.2,29.6L244.2,29.6C244.1,29.6,244.1,29.6,244.2,29.6
		c-0.6-2.2,4.6-11,3.3-10.9c-2.4-0.9-4.6-0.2-7,1.8c-0.4,0.3,0.1,1.1,0.6,1.3c0.4,0.2,2-0.2,2.2,0.1c0.2,0.3,0.5,0.8,0.5,1.3
		c-1.2-0.2-2.4-0.1-3,0.4c-0.5,0.7-0.6,1.6-0.4,2c0.5,0.2,1.3-0.5,1.9,0.1c-0.1,0.9-0.6,1.5-1,2.2c0,0-0.1-0.1-0.1-0.1
		c-1.1-0.3-1.9-0.8-2.5-1.7l0.6-1.6c0.1-0.3,0.2-1-0.1-1.4c0.5,0.1,0.9,0.2,1.5,0.3c0.4,0,1.2-0.3,0.7-0.9c-1.2-0.3-2.2-0.9-2.8-1.9
		l0.6-1.9c0.2-0.7,0.3-1.9-1.2-2.2c-0.8-0.1-0.8,2.3-1.5,2.4c-0.6-0.5-0.9-1.4-1.8-1.5c-1.1,0.3-1.4,1.4-0.8,2
		c0.3,0.8,1,1.1,1.6,1.6c0.2,0.4-1.7,1.3-2.3,1.9c-0.1,0.1-0.1,0.1-0.1,0.2c0.1-3.2,0.7-6.2,0-6.3c-0.5-0.6-1.9,0-2.5,1
		c-0.4,2.7,0.6,10.5,2.5,12.6c0,0-0.1,0.1-0.2,0.1l-0.1,0.1c-2.4-1.7-2.3-8.3-3.1-8.1c-0.4-0.3-1.2,0.3-1.4,1
		c0.2,1.7,1.9,5.9,3.5,7.3l-4.1,0.8c-0.5-0.3-0.6-1.3-1.9-0.7c-5.5,3.3-8.6,8.2-3.4,9c2.2-0.3,2.6-5.4,5.1-5.9
		c6.3-1.5,13.3-2.2,19.8-1.9c3.4,1.4-0.1,2.1-0.9,2.6c-1.7,1.3,5.9,2.3,8.6,0.8C254.5,30.5,248.8,29.7,244.2,29.6z M240.8,29.7
		c-0.7,0-1.4,0.1-1.8,0.1c-0.7,0-3,0.2-4.7,0.6c-1.2-1.4-1.4-3.8-1.4-6.2c0.1,0,0.3,0,0.4,0l3.4-1.8c0.4,0.2,0.8,0.4,1.3,0.5
		c-0.4,0.4-0.6,1.8-1.1,1.9c-0.5-0.4-0.8-1.2-1.6-1.3c-1,0.3-1.1,1.2-0.8,1.7c0.3,0.8,1,0.9,1.4,1.4c0.2,0.3-1.5,1.2-2,1.7
		c-0.6,0.7-0.4,0.9,0.2,0.8l2.9-1.6c1,0.5,2.1,0.7,3.3,1c0.1,0,0.4,0,0.6-0.1C240.9,28.8,240.8,29.2,240.8,29.7z"/>
	<path class="st0" d="M244.2,29.6C244.2,29.6,244.2,29.6,244.2,29.6C244.1,29.6,244.1,29.6,244.2,29.6L244.2,29.6z"/>
	<path class="st0" d="M230.2,35.8c3.9-1.9,7.8-2.9,11.7-2.5c2.3,0.9,2.9,1.8,2.5,2.7l-4.1,2.9l0.3,1.1c2.1,0.5,5.5-1,8.7-0.2
		c0.9,0.9,0.7,2.6,0,2.7c-1.3,0.4-6.8-0.2-8.1,0.7c1.1,6.8-0.4,10.7-1.6,11c-2.7-0.3-5.1-1.4-7.7-4.8c3.7,1.3,5.6,1.4,5.5,0.6
		c0.6-0.3,1.2-2.8,0.4-5.8c-1.6-2.4-7.1,0.6-10.2,0.7c-1.9,0.2-2.7-1.3,0.4-2.9c2.8-0.4,5.7-0.5,8.5-1.1c0.2-0.6-0.6-1.3-0.9-1.9
		l2.6-0.7c0.4-0.4,0.7-1.2-0.1-1.7C236.4,36,229.4,39.1,230.2,35.8z"/>
	<path class="st0" d="M181.3,15.1c4.6,0.1,5.4,2.7,5.6,4.7c-0.7,1.4,13.2-3.6,14.3,5.2c-2,1.8-8.6,1.1-7.2-0.2
		c0.6-0.7,3.5-1.6,0.6-2.7c-5.5,0-11.3,1.1-16.5,3c-2,0.7-2,5.7-3.8,6.2c-4.4-0.5-2.2-5.5,2.2-9.1c1.1-0.7,1.2,0.4,1.7,0.7l4.3-1.4
		C183.2,18.3,179.8,15.1,181.3,15.1z"/>
	<path class="st0" d="M185.9,37.2c-0.5-0.2-0.7-0.8,0.1-1.6c1.7-1,3.5-1.9,5-1.5c1.1,1.1,0.7,10.4-0.1,15.1c0,1.6,2.5,3,2.7,4.6
		c-0.1,1.3-2.2,1.1-3.4,0.8c-1.4-1.2-3.3-3.4-4-4.7c-1.9,0.6-3.4,4.1-4.9,4.2c-1-0.2-0.8-0.9-0.2-1.9c0.7-0.9,1.4-1.8,2.1-2.7
		c0.4-0.3,0.6-1.1,0.3-1.1c-0.8-0.2-1.6-0.4-2.4-0.5c-0.6-0.4-0.5-1.9,0.2-1.8c0.9,0.3,1.9-0.2,2.5-0.6c-0.1-2.6-0.4-5.2,0-7.9
		c0.4-0.6,0.9-0.5,1.5-0.4c0.3,0.1,0.1,1.3,0.4,1.6c0.5,0.3,1.3,0,1.9,0.3c0.3,0.4,0.4,1,0.1,1.4c-0.4,0.3-0.8,0.6-1.3,1
		c-0.3,0.3-0.8,1.1-0.1,1c0.5-0.3,0.8-0.2,1.1,0c0.3,0.4,0.4,1,0.1,1.1c-0.6,0-1.6,0.2-1.8,0.4c0,0.4,0,0.7,0.3,1
		c0.5,0.5,1.3,0.5,2.1-0.3c0.6-0.6,1.1-4,0.4-7.8C187.6,36.6,186.8,37.4,185.9,37.2z"/>
	<path class="st0" d="M179.5,35.5c-0.5-0.3-0.3-1.8-0.3-1.8c0.8-1.4,1.7-2.4,3.1-3c1-0.2,1.3,0.9,1.2,1.4
		C183.3,33,181.6,35.5,179.5,35.5z"/>
	<path class="st0" d="M184.6,28.7c-1.6-1-5.1,0.2-4.7-0.5c2.6-4.5,11.4-3.5,11.7-3c1,0.7,1.1,2.3,0.3,2.3c-2.1-0.1-4.3-0.1-4.8,0.6
		l-0.1,3.2c0.1,0.4,0.9,0.1,1.3-0.5c0.4-0.4-0.3-0.9-0.4-1.8c-0.1-1,8.1,1.1,7.8,3.5c-0.4,0.8-1.5,1.2-2.7,1.1
		c-1.2-0.7-1.9-1.8-3.7-2.2l-15.4,17.2c-2.3,1.3-2.2-0.6-1.4-1.8c2.9-4.5,8.5-8.1,12.4-12.7C185.2,33.9,184.9,30.5,184.6,28.7z"/>
	<path class="st0" d="M140.2,47c-3.6-0.1-3,0.9-7.9,1.2l1.5-14.8c0-1.4-2-4-5.6-2.7c-8.3,3.8-5.6,13.4-6.3,19c0,1.4-7,0.9-10.6,1.4
		c-2.4,0.7-2.5,2.6-1.8,2.9c2.9,0.8,21.8-2.6,33.7-1.9C146.5,51.8,145.1,47.3,140.2,47z M128.7,46.7c-0.4,2-1.2,2.5-1.8,2.7
		c-2.2,0.3-1.7-1.6-1.7-5.2c0.8-0.4,1.6,0,2.4-0.6c0.6-0.2,0.3-2-0.3-2.4c-0.5-0.3-1.1-0.3-1.8,0c-0.5-0.2-0.5-1.1,0-1.7
		c0.4-0.5,1.3-0.8,2.7-0.8c0.5-0.4,0.3-2.7-0.6-2.5c-0.3,0.3-1.3,0.4-1.4-0.3c-0.2-0.8,0-1.5,0.7-2.3c0.4-0.3,0.6-0.7,2.5-0.6
		C130.5,33.2,128.9,42.2,128.7,46.7z"/>
</g>
</svg>
