<?xml version="1.0" encoding="utf-8"?>
<!-- Generator: Adobe Illustrator 16.0.0, SVG Export Plug-In . SVG Version: 6.00 Build 0)  -->
<!DOCTYPE svg PUBLIC "-//W3C//DTD SVG 1.1//EN" "http://www.w3.org/Graphics/SVG/1.1/DTD/svg11.dtd">
<svg version="1.1" id="图层_1" xmlns="http://www.w3.org/2000/svg" xmlns:xlink="http://www.w3.org/1999/xlink" x="0px" y="0px"
	 width="800px" height="200px" viewBox="0 0 800 200" enable-background="new 0 0 800 200" xml:space="preserve">
<g>
	<g>
		<path id="外环_1_" fill="#211B5B" d="M109.608,4.23c-53.365,0-96.632,43.264-96.632,96.629c0,53.368,43.267,96.64,96.632,96.64
			c53.364,0,96.631-43.271,96.631-96.64C206.237,47.494,162.971,4.23,109.608,4.23z M109.608,194.476
			c-51.701,0-93.614-41.912-93.614-93.618c0-51.701,41.913-93.611,93.614-93.611c51.699,0,93.612,41.91,93.612,93.611
			C203.219,152.563,161.306,194.476,109.608,194.476z"/>
		<path id="内环_1_" fill="#211B5B" d="M109.604,28.93c-39.725,0-71.93,32.204-71.93,71.931c0,39.728,32.205,71.933,71.93,71.933
			c39.729,0,71.936-32.205,71.936-71.933C181.54,61.134,149.333,28.93,109.604,28.93z M109.604,169.388
			c-37.845,0-68.525-30.684-68.525-68.526c0-37.844,30.682-68.529,68.525-68.529c37.85,0,68.527,30.685,68.527,68.529
			C178.131,138.706,147.454,169.388,109.604,169.388z"/>
		<path fill="#211B5B" d="M99.655,143.134c-0.012,0.082-0.02,0.162-0.026,0.244l-0.004,0.057c-0.277,2.229-2.207,2.063-3.951,2.105
			c-7.388-0.01-13.437-0.014-20.825-0.033h-0.5c-1.85-0.004-3.693-0.004-5.543-0.004c-1.207-0.006-1.741-0.229-2.564-1.066
			c-0.114-0.117-0.229-0.227-0.34-0.348l-0.15-0.156c-0.793-0.82-1.562-1.662-2.298-2.535c-0.435-0.508,0.771-0.215,5.728-7.432
			s6.646-19.277,7.5-31.545c0.543-7.845,0.185-15.747,1.139-23.543c0.473-3.853,2.217-7.944,4.232-10.451
			c3.133-3.903,11.238-6.644,16.073-7.488c2.574-0.449,4.711-0.49,5.886-0.227c0.065,0.017,0.127,0.029,0.188,0.048
			c0.059,0.019,0.117,0.038,0.175,0.06l0,0c0.06,0.021,0.116,0.042,0.167,0.065c0.055,0.024,0.107,0.05,0.16,0.077l0,0
			c0.05,0.025,0.1,0.057,0.15,0.085c0.049,0.029,0.096,0.061,0.143,0.095l0,0c0.044,0.03,0.09,0.064,0.133,0.1l0,0
			c0.044,0.034,0.089,0.071,0.126,0.109l0,0c2.085,1.925,1.026,6.687-0.136,8.826c-2.52,5.797-15.168,9.557-20.373,13.841
			c-3.449,4.041-1.244,8.322,4.33,5.951c5.576-2.371,9.505-4.6,13.172-6.817c4.748-2.877,9.723,3.55,2.569,8.615
			c-0.359,0.254-0.743,0.534-1.147,0.823l-18.754,11.048c-5.329,3.398-1.589,9.646,4.016,6.322l18.623-11.077
			c4.566-3.417,12.082,2.102,4.063,7.942l-23.987,14.883c-6.398,4.07-3.431,11.211,3.895,7.229
			c7.441-4.088,13.988-8.277,20.766-13.273c8.049-5.928,13.369,1.75,3.43,8.25c-0.471,0.354-0.947,0.709-1.425,1.057
			c-0.479,0.344-0.955,0.689-1.437,1.025c-0.48,0.338-0.958,0.689-1.435,1.025c-0.474,0.338-0.948,0.682-1.416,1.029
			c-0.47,0.338-0.933,0.688-1.388,1.045c-0.455,0.352-0.903,0.703-1.339,1.07c-0.44,0.363-0.868,0.734-1.283,1.121
			c-0.417,0.371-0.819,0.768-1.208,1.174c-0.389,0.4-0.763,0.813-1.117,1.248c-0.355,0.43-0.697,0.871-1.017,1.326
			c-0.318,0.463-0.619,0.934-0.898,1.43c-0.28,0.494-0.534,1.008-0.766,1.543c-0.231,0.529-0.442,1.088-0.623,1.666
			c-0.179,0.578-0.333,1.178-0.458,1.807c-0.107,0.533-0.182,1.088-0.25,1.652h-0.004V143.134L99.655,143.134L99.655,143.134z"/>
		<path fill="#211B5B" d="M105.839,154.933c-0.264,0-0.476,0.082-0.623,0.256c-0.149,0.168-0.224,0.408-0.224,0.711
			c0,0.301,0.074,0.537,0.222,0.709c0.146,0.158,0.355,0.246,0.625,0.246c0.275,0,0.485-0.088,0.634-0.246
			c0.145-0.172,0.219-0.408,0.219-0.723c0-0.297-0.076-0.535-0.224-0.697C106.319,155.015,106.108,154.933,105.839,154.933z"/>
		<path fill="#211B5B" d="M122.659,154.901c-0.195,0-0.359,0.061-0.482,0.191c-0.127,0.121-0.188,0.281-0.188,0.479
			c0,0.201,0.063,0.373,0.189,0.492c0.129,0.123,0.3,0.189,0.511,0.189c0.188,0,0.344-0.066,0.463-0.189
			c0.119-0.119,0.181-0.271,0.181-0.477c0-0.201-0.062-0.367-0.188-0.494C123.014,154.964,122.854,154.901,122.659,154.901z"/>
		<path fill="#211B5B" d="M122.659,157.218c-0.201,0-0.379,0.082-0.531,0.24c-0.148,0.158-0.225,0.375-0.225,0.654
			c0,0.258,0.076,0.469,0.231,0.639c0.162,0.16,0.34,0.242,0.545,0.242c0.195,0,0.37-0.086,0.529-0.246
			c0.153-0.174,0.229-0.383,0.229-0.646c0-0.256-0.079-0.467-0.236-0.637C123.048,157.3,122.866,157.218,122.659,157.218z"/>
		<path id="_x31_978_颜色修正_1_" fill="#211B5B" d="M144.382,152.571c-0.119-0.133-0.342-0.209-0.68-0.209H77.276l0,0
			c-0.338,0-0.563,0.076-0.683,0.209c-0.103,0.119-0.007,0.17,0.1,0.238c4.405,2.934,9.136,5.27,14.241,7l0.496,0.141
			c0.368,0.105,0.733,0.197,1.104,0.303c0.373,0.09,0.745,0.182,1.119,0.268c0.372,0.092,0.747,0.178,1.124,0.258
			c0.376,0.078,0.755,0.164,1.133,0.238c0.38,0.074,0.759,0.141,1.143,0.213c0.385,0.072,0.767,0.135,1.149,0.201
			c0.387,0.063,0.772,0.121,1.155,0.174c0.391,0.053,0.777,0.107,1.168,0.156c0.391,0.057,0.779,0.1,1.172,0.146
			c0.39,0.037,0.784,0.082,1.179,0.115c0.396,0.035,0.791,0.074,1.186,0.104c0.396,0.023,0.793,0.063,1.192,0.076
			c0.4,0.035,0.801,0.053,1.201,0.068c0.399,0.021,0.803,0.031,1.204,0.045c0.404,0.012,0.808,0.018,1.212,0.029
			c0.406,0.004,0.81,0.008,1.219,0.008l0.389-0.004h0.013h0.002l0.399,0.004c0.405,0,0.813-0.004,1.216-0.008
			c0.407-0.014,0.808-0.02,1.211-0.029c0.403-0.014,0.802-0.023,1.206-0.045c0.398-0.018,0.8-0.033,1.199-0.068
			c0.397-0.014,0.797-0.053,1.193-0.076c0.395-0.029,0.789-0.066,1.185-0.104c0.394-0.033,0.788-0.078,1.182-0.115
			c0.389-0.047,0.782-0.096,1.168-0.146c0.394-0.049,0.78-0.104,1.166-0.156c0.387-0.053,0.774-0.111,1.157-0.174
			c0.387-0.066,0.77-0.129,1.152-0.201c1.889-0.338,3.77-0.762,5.623-1.277l0.494-0.143c5.103-1.73,9.836-4.066,14.243-6.998
			C144.391,152.741,144.487,152.694,144.382,152.571z M98.915,159.896c0,0.006,0,0.006-0.004,0.006h-1.639
			c-0.007,0-0.014,0-0.014-0.006v-3.719c0-0.139,0.023-0.223-0.08-0.143c-0.238,0.17-0.472,0.318-0.697,0.43
			c-0.248,0.125-0.555,0.25-0.931,0.355c-0.009,0.008-0.01,0.008-0.01,0v-1.326c0-0.004,0.001-0.004,0.013-0.018
			c0.553-0.178,0.979-0.395,1.286-0.643c0.272-0.223,0.487-0.48,0.658-0.791c0.067-0.129,0.064-0.137,0.202-0.137h1.207
			c0.01,0,0.008,0.008,0.008,0.012V159.896z M107.639,159.239c-0.47,0.559-1.13,0.834-1.984,0.834c-0.592,0-1.067-0.145-1.435-0.426
			c-0.363-0.281-0.571-0.664-0.619-1.146c-0.003-0.02,0.001-0.02,0.015-0.02h1.436c0.008,0,0.008,0,0.011,0.014
			c0.052,0.17,0.138,0.307,0.243,0.389c0.113,0.084,0.259,0.133,0.438,0.133c0.291,0,0.521-0.127,0.687-0.379
			c0.168-0.246,0.274-0.617,0.306-1.102c-0.179,0.146-0.373,0.244-0.576,0.311c-0.203,0.068-0.416,0.104-0.638,0.104
			c-0.636,0-1.137-0.168-1.509-0.516c-0.37-0.344-0.555-0.824-0.555-1.428c0-0.676,0.213-1.201,0.633-1.592
			c0.427-0.389,1.003-0.582,1.738-0.582c0.808,0,1.429,0.266,1.865,0.793c0.434,0.521,0.652,1.277,0.652,2.266
			C108.347,157.901,108.11,158.681,107.639,159.239z M116.72,155.063c0,0.061-0.026,0.07-0.075,0.107
			c-0.395,0.363-0.695,0.736-0.966,1.156c-0.335,0.533-0.604,1.125-0.8,1.773c-0.153,0.504-0.256,1.107-0.311,1.795
			c0,0.004-0.004,0.004-0.008,0.004h-1.621c-0.004,0-0.006-0.004-0.006-0.004c0.126-0.963,0.331-1.77,0.609-2.418
			c0.271-0.65,0.703-1.34,1.298-2.076c0.008-0.006,0.011-0.016-0.002-0.016h-2.89c-0.007,0-0.007,0-0.007,0v-1.373
			c0-0.014,0-0.014,0.007-0.014h4.418c0.319,0,0.354-0.016,0.354,0.262L116.72,155.063L116.72,155.063z M124.881,158.995
			c-0.136,0.266-0.303,0.459-0.5,0.598s-0.441,0.236-0.732,0.309c-0.295,0.063-0.607,0.102-0.941,0.102
			c-0.622,0-1.098-0.076-1.428-0.225c-0.332-0.145-0.583-0.359-0.751-0.652c-0.171-0.287-0.261-0.605-0.261-0.955
			c0-0.354,0.082-0.641,0.242-0.883c0.162-0.238,0.409-0.426,0.745-0.553c-0.258-0.137-0.444-0.293-0.563-0.459
			c-0.16-0.236-0.242-0.502-0.242-0.799c0-0.492,0.231-0.896,0.697-1.207c0.36-0.244,0.839-0.363,1.435-0.363
			c0.789,0,1.368,0.152,1.747,0.451c0.376,0.301,0.563,0.674,0.563,1.133c0,0.27-0.073,0.518-0.226,0.744
			c-0.112,0.174-0.291,0.336-0.532,0.5c0.32,0.152,0.558,0.355,0.717,0.604c0.154,0.248,0.236,0.527,0.236,0.836
			C125.086,158.47,125.014,158.749,124.881,158.995z"/>
		<path fill="#211B5B" d="M43.626,140.022l-1.617-3.467l-0.541,0.248c0.104,0.299,0.169,0.543,0.196,0.723
			c0.03,0.18,0.027,0.316-0.014,0.41c-0.04,0.096-0.117,0.162-0.23,0.199c-0.111,0.037-0.261,0.063-0.451,0.078
			c-0.326,0.025-0.678,0.049-1.059,0.059c-0.381,0.008-0.761,0.021-1.145,0.025c-0.383,0.004-0.748,0.004-1.098,0
			c-0.343-0.004-0.652-0.004-0.921-0.004c0.459-0.576,0.923-1.141,1.384-1.695c0.465-0.551,0.92-1.096,1.371-1.629
			c0.157-0.188,0.293-0.314,0.404-0.385c0.111-0.063,0.227-0.055,0.348,0.041c0.121,0.1,0.276,0.289,0.469,0.578l0.539-0.246
			l-1.996-4.287l-0.54,0.246c0.064,0.213,0.105,0.395,0.136,0.551c0.023,0.158,0.018,0.313-0.014,0.459
			c-0.027,0.152-0.098,0.314-0.202,0.492c-0.099,0.178-0.25,0.395-0.44,0.633c-0.357,0.455-0.677,0.863-0.963,1.229
			c-0.285,0.367-0.545,0.689-0.773,0.988c-0.23,0.283-0.446,0.549-0.645,0.785c-0.197,0.236-0.386,0.463-0.567,0.664
			c-0.072,0.08-0.14,0.15-0.208,0.207c-0.068,0.064-0.145,0.125-0.232,0.178s-0.198,0.115-0.332,0.178l-1.882,0.873
			c-0.342,0.166-0.623,0.275-0.842,0.346c-0.223,0.072-0.405,0.082-0.556,0.039c-0.146-0.039-0.284-0.139-0.414-0.299
			c-0.128-0.164-0.275-0.395-0.438-0.688l-0.542,0.254l2.272,4.869l0.54-0.248c-0.127-0.334-0.213-0.617-0.254-0.822
			c-0.044-0.217-0.038-0.396,0.024-0.533c0.062-0.146,0.188-0.275,0.377-0.4c0.195-0.123,0.464-0.262,0.806-0.418l2.08-0.973
			c0.185-0.09,0.338-0.146,0.461-0.186c0.123-0.037,0.239-0.063,0.354-0.066c0.114-0.014,0.253-0.02,0.409-0.023
			c0.476,0.004,0.899,0.01,1.267,0.014c0.371,0.01,0.711,0.02,1.019,0.027c0.311,0.018,0.612,0.031,0.903,0.043
			c0.293,0.016,0.6,0.039,0.916,0.053c0.318,0.029,0.584,0.066,0.798,0.1c0.209,0.041,0.391,0.107,0.541,0.188
			c0.145,0.078,0.276,0.18,0.395,0.324c0.122,0.141,0.242,0.307,0.365,0.525L43.626,140.022z"/>
		<path fill="#211B5B" d="M38.547,153.224l0.499-0.322c-0.144-0.264-0.242-0.486-0.296-0.664c-0.056-0.18-0.059-0.336-0.009-0.48
			c0.049-0.129,0.155-0.27,0.321-0.408c0.162-0.141,0.397-0.305,0.695-0.496l5.81-3.771c0.309-0.213,0.563-0.357,0.765-0.457
			c0.199-0.1,0.374-0.145,0.516-0.137c0.147,0.014,0.287,0.084,0.426,0.203c0.139,0.125,0.302,0.307,0.488,0.555l0.5-0.32
			l-2.713-4.184l-0.498,0.322c0.143,0.271,0.242,0.484,0.3,0.664c0.058,0.176,0.061,0.328,0.013,0.473
			c-0.049,0.139-0.159,0.283-0.331,0.426c-0.167,0.143-0.413,0.314-0.722,0.51l-5.813,3.781c-0.296,0.191-0.543,0.338-0.747,0.432
			c-0.195,0.092-0.367,0.133-0.51,0.119c-0.145-0.012-0.288-0.082-0.425-0.205c-0.14-0.125-0.3-0.299-0.483-0.535l-0.498,0.324
			L38.547,153.224z"/>
		<path id="B_颜色修正_1_" fill="#211B5B" d="M54.946,155.882c-0.027-0.26-0.094-0.518-0.195-0.777
			c-0.107-0.27-0.254-0.545-0.449-0.83c-0.191-0.285-0.436-0.596-0.725-0.926l-3.175-3.652l-0.446,0.393
			c0.183,0.242,0.313,0.449,0.393,0.623c0.082,0.156,0.105,0.322,0.075,0.459c-0.03,0.145-0.12,0.303-0.271,0.463
			c-0.146,0.166-0.362,0.371-0.643,0.607l-5.199,4.521c-0.277,0.244-0.506,0.43-0.692,0.547c-0.187,0.125-0.354,0.189-0.504,0.195
			c-0.15,0.006-0.307-0.047-0.473-0.154c-0.16-0.119-0.358-0.285-0.586-0.514l-0.451,0.391l2.748,3.158
			c0.304,0.354,0.618,0.672,0.951,0.969c0.323,0.291,0.657,0.553,0.995,0.758c0.334,0.215,0.671,0.373,1.007,0.484
			c0.334,0.115,0.675,0.17,1.021,0.178c0.347,0.008,0.693-0.057,1.034-0.178c0.343-0.115,0.674-0.318,0.99-0.586
			c0.42-0.373,0.683-0.781,0.797-1.238c0.115-0.453,0.104-0.928-0.038-1.438c-0.136-0.508-0.379-1.029-0.729-1.555l0.038-0.043
			c0.249,0.195,0.523,0.355,0.816,0.5c0.294,0.143,0.602,0.242,0.924,0.287c0.321,0.049,0.652,0.027,0.975-0.055
			c0.33-0.09,0.651-0.27,0.968-0.533c0.327-0.293,0.562-0.611,0.7-0.963C54.944,156.618,54.991,156.259,54.946,155.882z
			 M48.559,160.218c-0.353,0.301-0.686,0.518-1.006,0.635c-0.326,0.129-0.627,0.182-0.909,0.172c-0.28-0.02-0.53-0.072-0.759-0.186
			c-0.223-0.111-0.412-0.256-0.564-0.436c-0.188-0.217-0.303-0.418-0.338-0.605c-0.035-0.199,0.011-0.396,0.141-0.605
			c0.126-0.209,0.345-0.455,0.654-0.713l2.602-2.264l0.235,0.271c0.592,0.688,0.888,1.342,0.884,1.969
			C49.497,159.087,49.181,159.669,48.559,160.218z M53.217,154.778c-0.02,0.24-0.104,0.492-0.25,0.76
			c-0.146,0.258-0.374,0.521-0.674,0.783c-0.57,0.508-1.105,0.744-1.602,0.693c-0.498-0.037-1.005-0.354-1.512-0.951l-0.273-0.305
			l2.547-2.215c0.177-0.158,0.326-0.268,0.449-0.338c0.123-0.064,0.227-0.1,0.307-0.086c0.072,0.006,0.156,0.045,0.251,0.104
			c0.097,0.055,0.209,0.148,0.325,0.281c0.15,0.174,0.264,0.365,0.342,0.578C53.208,154.298,53.237,154.53,53.217,154.778z"/>
		<path fill="#211B5B" d="M55.537,171.14l0.392-0.451c-0.212-0.215-0.367-0.395-0.469-0.555c-0.104-0.16-0.148-0.301-0.138-0.449
			c0.007-0.146,0.071-0.311,0.191-0.486c0.122-0.189,0.298-0.41,0.53-0.68l4.546-5.221c0.238-0.281,0.443-0.5,0.611-0.648
			c0.164-0.152,0.317-0.24,0.459-0.275c0.143-0.025,0.3,0,0.464,0.082c0.167,0.086,0.376,0.219,0.62,0.396l0.394-0.453l-3.761-3.26
			l-0.391,0.447c0.212,0.215,0.366,0.395,0.472,0.549c0.104,0.152,0.15,0.307,0.141,0.455c-0.007,0.145-0.07,0.305-0.198,0.49
			c-0.122,0.191-0.312,0.428-0.554,0.695l-4.545,5.232c-0.232,0.271-0.431,0.48-0.596,0.627c-0.167,0.139-0.318,0.232-0.46,0.25
			c-0.142,0.023-0.301,0-0.467-0.07c-0.167-0.09-0.372-0.215-0.608-0.393l-0.39,0.449L55.537,171.14z"/>
		<path fill="#211B5B" d="M75.394,170.292l-3.438-2.154l-0.307,0.492c0.314,0.217,0.548,0.408,0.696,0.592
			c0.151,0.182,0.234,0.352,0.247,0.521c0.018,0.178-0.023,0.355-0.113,0.555c-0.074,0.158-0.172,0.371-0.297,0.609
			c-0.124,0.248-0.279,0.539-0.471,0.873c-0.189,0.334-0.418,0.715-0.693,1.156l-1.673,2.68l-0.062-0.043l-0.896-9.658l-2.613-1.639
			l-0.308,0.494c0.196,0.143,0.354,0.279,0.471,0.426c0.117,0.135,0.206,0.279,0.257,0.43c0.051,0.145,0.085,0.313,0.092,0.486
			c0.008,0.115,0.004,0.232-0.016,0.34c-0.021,0.107-0.063,0.223-0.121,0.35c-0.056,0.131-0.138,0.277-0.24,0.443
			c-0.104,0.178-0.234,0.393-0.392,0.637l-1.999,3.199c-0.401,0.637-0.743,1.154-1.03,1.553c-0.281,0.387-0.517,0.688-0.694,0.898
			c-0.14,0.184-0.288,0.311-0.447,0.389c-0.158,0.07-0.342,0.096-0.545,0.055c-0.205-0.037-0.449-0.129-0.724-0.281l-0.306,0.496
			l3.487,2.174l0.306-0.484c-0.337-0.234-0.581-0.443-0.729-0.635c-0.149-0.188-0.226-0.367-0.23-0.551
			c0-0.186,0.044-0.375,0.145-0.582c0.115-0.244,0.293-0.574,0.518-1.004c0.232-0.424,0.545-0.955,0.939-1.592l2.093-3.357
			l0.048,0.029l0.796,10.818l0.767,0.471l3.813-6.102c0.273-0.439,0.52-0.813,0.739-1.133c0.219-0.318,0.407-0.588,0.577-0.801
			c0.168-0.221,0.31-0.408,0.428-0.553c0.133-0.168,0.273-0.289,0.422-0.354s0.321-0.084,0.518-0.041
			c0.189,0.037,0.42,0.133,0.687,0.285L75.394,170.292z"/>
		<path fill="#211B5B" d="M93.974,176.696l-3.952-1.133l-0.162,0.57c0.369,0.123,0.656,0.252,0.853,0.389
			c0.199,0.145,0.326,0.293,0.39,0.453c0.063,0.168,0.076,0.344,0.049,0.539c-0.03,0.168-0.064,0.371-0.112,0.596
			c-0.045,0.232-0.105,0.5-0.186,0.816c-0.075,0.328-0.178,0.711-0.308,1.152l-0.582,2.035c-0.398,1.402-0.907,2.377-1.525,2.932
			c-0.611,0.559-1.35,0.711-2.207,0.463c-0.83-0.234-1.354-0.732-1.58-1.459c-0.225-0.736-0.16-1.711,0.192-2.943l1.206-4.189
			c0.103-0.373,0.199-0.658,0.288-0.879c0.093-0.209,0.19-0.363,0.306-0.449c0.112-0.092,0.259-0.137,0.434-0.143
			c0.178,0,0.405,0.029,0.684,0.084l0.162-0.57l-4.697-1.354l-0.167,0.58c0.277,0.104,0.496,0.203,0.652,0.295
			c0.155,0.098,0.257,0.217,0.313,0.354c0.053,0.133,0.058,0.318,0.023,0.551c-0.037,0.227-0.111,0.521-0.219,0.893l-1.223,4.268
			c-0.191,0.66-0.314,1.252-0.369,1.768c-0.06,0.518-0.047,0.977,0.033,1.387c0.084,0.404,0.23,0.773,0.449,1.1
			c0.188,0.297,0.413,0.551,0.678,0.76c0.264,0.225,0.556,0.406,0.875,0.555c0.318,0.152,0.653,0.281,1.002,0.381
			c0.379,0.107,0.759,0.16,1.14,0.164c0.383,0.014,0.756-0.045,1.116-0.137c0.361-0.098,0.699-0.246,1.016-0.445
			c0.383-0.258,0.715-0.574,1.001-0.967c0.287-0.389,0.53-0.826,0.744-1.326c0.207-0.492,0.396-1.025,0.555-1.607l0.535-1.85
			c0.129-0.459,0.249-0.848,0.35-1.152c0.103-0.299,0.194-0.555,0.275-0.771c0.083-0.209,0.164-0.402,0.237-0.566
			c0.076-0.195,0.182-0.346,0.314-0.451c0.129-0.109,0.298-0.182,0.505-0.191c0.203-0.023,0.456,0.008,0.75,0.078L93.974,176.696z"
			/>
		<path fill="#211B5B" d="M107.776,178.312l-4.031-0.496l-0.071,0.566c0.379,0.064,0.669,0.146,0.883,0.248
			c0.212,0.096,0.362,0.219,0.444,0.371c0.089,0.145,0.131,0.324,0.131,0.543c0.001,0.182,0.001,0.408-0.007,0.686
			c-0.011,0.279-0.028,0.6-0.062,0.99c-0.028,0.379-0.075,0.826-0.139,1.334l-0.384,3.137l-0.072-0.012l-4.895-8.381l-3.063-0.375
			l-0.066,0.578c0.238,0.045,0.44,0.105,0.605,0.182c0.161,0.08,0.303,0.17,0.413,0.281c0.109,0.121,0.212,0.248,0.291,0.4
			c0.061,0.107,0.101,0.211,0.13,0.318c0.026,0.104,0.039,0.229,0.039,0.369c0,0.137-0.007,0.305-0.027,0.508
			c-0.022,0.197-0.053,0.445-0.086,0.738l-0.461,3.748c-0.098,0.742-0.188,1.354-0.277,1.824c-0.094,0.48-0.178,0.855-0.248,1.121
			c-0.049,0.225-0.133,0.4-0.244,0.545c-0.113,0.135-0.268,0.229-0.468,0.281c-0.203,0.055-0.462,0.066-0.777,0.041l-0.07,0.576
			l4.082,0.502l0.068-0.574c-0.401-0.064-0.711-0.154-0.927-0.26c-0.213-0.107-0.359-0.248-0.441-0.404
			c-0.076-0.162-0.115-0.355-0.113-0.588c0.006-0.266,0.019-0.645,0.045-1.123c0.029-0.482,0.088-1.1,0.178-1.85l0.481-3.914h0.054
			l5.289,9.467l0.895,0.111l0.878-7.146c0.063-0.512,0.126-0.955,0.192-1.336c0.063-0.385,0.121-0.705,0.181-0.979
			c0.058-0.268,0.11-0.496,0.157-0.674c0.049-0.207,0.123-0.381,0.231-0.506c0.104-0.125,0.255-0.211,0.448-0.252
			c0.191-0.049,0.439-0.055,0.742-0.031L107.776,178.312z"/>
		<path fill="#211B5B" d="M116.298,189.454l-0.021-0.592c-0.3-0.018-0.539-0.043-0.722-0.088c-0.182-0.049-0.317-0.123-0.411-0.238
			c-0.092-0.115-0.157-0.271-0.194-0.488c-0.037-0.215-0.056-0.5-0.067-0.855l-0.24-6.924c-0.018-0.367-0.014-0.662,0.004-0.885
			c0.02-0.229,0.07-0.396,0.153-0.518c0.083-0.115,0.216-0.203,0.39-0.256c0.179-0.059,0.42-0.104,0.726-0.137l-0.021-0.592
			l-4.977,0.17l0.02,0.6c0.302,0.012,0.543,0.037,0.723,0.084c0.182,0.039,0.316,0.113,0.414,0.23c0.089,0.109,0.154,0.275,0.19,0.5
			c0.034,0.215,0.06,0.516,0.069,0.887l0.242,6.918c0.017,0.359,0.011,0.648-0.016,0.867c-0.021,0.217-0.073,0.385-0.158,0.504
			c-0.087,0.117-0.221,0.203-0.396,0.256c-0.178,0.057-0.415,0.1-0.707,0.135l0.021,0.594L116.298,189.454z"/>
		<path fill="#211B5B" d="M129.942,175.386l-3.789,0.74l0.113,0.582c0.332-0.025,0.59-0.025,0.78,0
			c0.19,0.029,0.328,0.086,0.41,0.189c0.09,0.094,0.138,0.244,0.146,0.438c0.009,0.199-0.002,0.455-0.034,0.773
			c-0.041,0.463-0.096,0.967-0.159,1.518c-0.063,0.549-0.138,1.115-0.216,1.697c-0.082,0.588-0.16,1.154-0.246,1.717
			c-0.08,0.553-0.155,1.068-0.232,1.549l-0.036,0.006c-0.17-0.293-0.357-0.633-0.571-0.992c-0.207-0.369-0.431-0.752-0.66-1.148
			c-0.229-0.406-0.458-0.795-0.69-1.195c-0.225-0.396-0.446-0.771-0.648-1.129c-0.208-0.363-0.395-0.688-0.56-0.969
			c-0.165-0.287-0.3-0.531-0.398-0.709c-0.137-0.254-0.212-0.453-0.229-0.6c-0.017-0.141,0.049-0.264,0.196-0.363
			c0.144-0.096,0.399-0.205,0.757-0.318l-0.097-0.588l-4.87,0.945l0.116,0.59c0.246-0.025,0.457-0.029,0.632-0.01
			c0.173,0.025,0.332,0.07,0.475,0.162c0.146,0.082,0.285,0.223,0.433,0.408c0.146,0.188,0.312,0.436,0.497,0.748
			c0.208,0.348,0.459,0.773,0.751,1.273c0.298,0.5,0.623,1.059,0.976,1.66c0.355,0.605,0.722,1.24,1.11,1.898
			c0.384,0.656,0.763,1.314,1.146,1.965c0.378,0.664,0.743,1.293,1.088,1.9l0.798-0.154c0.112-0.768,0.227-1.545,0.345-2.318
			c0.116-0.785,0.235-1.543,0.353-2.279c0.115-0.744,0.229-1.438,0.335-2.09c0.105-0.645,0.206-1.223,0.294-1.723
			c0.085-0.506,0.16-0.91,0.219-1.229c0.08-0.459,0.158-0.818,0.247-1.1c0.082-0.277,0.177-0.492,0.293-0.645
			c0.108-0.154,0.25-0.279,0.415-0.365c0.17-0.09,0.379-0.18,0.628-0.254L129.942,175.386z"/>
		<path fill="#211B5B" d="M143.415,179.706c-0.004,0.406-0.034,0.76-0.085,1.07c-0.048,0.314-0.113,0.574-0.196,0.797
			c-0.063,0.188-0.163,0.34-0.289,0.477c-0.13,0.141-0.294,0.258-0.501,0.371c-0.205,0.111-0.458,0.225-0.757,0.332
			c-0.307,0.109-0.575,0.201-0.809,0.256c-0.229,0.053-0.422,0.078-0.574,0.053c-0.161-0.02-0.304-0.127-0.434-0.313
			c-0.131-0.191-0.265-0.48-0.405-0.877l-1.116-3.068l0.965-0.352c0.337-0.127,0.605-0.215,0.816-0.264
			c0.217-0.055,0.392-0.066,0.534-0.025c0.146,0.041,0.281,0.137,0.409,0.285c0.131,0.148,0.279,0.361,0.449,0.643l0.575-0.211
			l-1.208-3.328l-0.576,0.215c0.047,0.314,0.066,0.566,0.063,0.77c-0.006,0.189-0.054,0.344-0.144,0.467
			c-0.082,0.125-0.224,0.232-0.416,0.336c-0.196,0.09-0.463,0.197-0.795,0.316l-0.965,0.355l-1.296-3.563
			c-0.069-0.184-0.104-0.324-0.108-0.422c-0.004-0.104,0.029-0.18,0.104-0.232c0.077-0.057,0.202-0.113,0.376-0.176l0.608-0.221
			c0.341-0.127,0.634-0.215,0.868-0.254c0.239-0.053,0.438-0.068,0.6-0.053c0.16,0.025,0.299,0.066,0.41,0.143
			c0.176,0.098,0.354,0.248,0.531,0.439c0.176,0.189,0.364,0.424,0.557,0.701l0.55-0.277c-0.104-0.238-0.212-0.482-0.324-0.723
			c-0.11-0.248-0.215-0.484-0.312-0.709c-0.098-0.223-0.185-0.41-0.258-0.576s-0.125-0.285-0.158-0.357l-7.305,2.66l0.205,0.563
			c0.271-0.074,0.5-0.125,0.676-0.145c0.177-0.018,0.322,0.008,0.445,0.082c0.123,0.064,0.231,0.199,0.334,0.385
			c0.103,0.193,0.216,0.459,0.338,0.811l2.399,6.594c0.128,0.344,0.211,0.615,0.256,0.834c0.04,0.213,0.033,0.385-0.023,0.521
			c-0.059,0.141-0.175,0.254-0.347,0.371c-0.174,0.111-0.414,0.24-0.713,0.371l0.205,0.566l7.882-2.869
			c-0.007-0.111-0.025-0.258-0.048-0.438c-0.022-0.184-0.045-0.381-0.077-0.592c-0.034-0.227-0.064-0.445-0.1-0.674
			c-0.038-0.223-0.069-0.434-0.104-0.633c-0.033-0.193-0.063-0.363-0.095-0.512L143.415,179.706z"/>
		<path id="R_颜色修正_1_" fill="#211B5B" d="M158.162,174.46c-0.173,0.031-0.37,0.037-0.597,0.006
			c-0.223-0.031-0.475-0.084-0.752-0.188c-0.164-0.043-0.342-0.111-0.53-0.189c-0.195-0.088-0.418-0.182-0.665-0.307
			c-0.248-0.129-0.531-0.281-0.855-0.459c-0.217-0.115-0.449-0.248-0.693-0.387c-0.239-0.139-0.479-0.271-0.713-0.418
			c-0.232-0.135-0.445-0.268-0.641-0.396c-0.188-0.123-0.342-0.23-0.465-0.32c0.252-0.34,0.445-0.713,0.578-1.092
			c0.133-0.385,0.182-0.785,0.143-1.199c-0.042-0.418-0.188-0.842-0.445-1.281c-0.286-0.471-0.618-0.818-1-1.051
			c-0.379-0.223-0.785-0.348-1.226-0.371c-0.263-0.008-0.53,0.01-0.803,0.07c-0.274,0.055-0.568,0.148-0.876,0.281
			c-0.31,0.131-0.65,0.313-1.026,0.537l-4.143,2.492l0.307,0.512c0.263-0.129,0.481-0.211,0.654-0.268
			c0.178-0.055,0.333-0.055,0.465-0.004c0.13,0.045,0.264,0.152,0.397,0.322c0.132,0.16,0.293,0.396,0.474,0.705l3.586,5.971
			c0.194,0.311,0.331,0.57,0.419,0.775c0.089,0.215,0.123,0.395,0.104,0.533c-0.019,0.15-0.093,0.299-0.226,0.434
			c-0.136,0.139-0.329,0.295-0.585,0.475l0.305,0.51l4.286-2.574l-0.308-0.508c-0.271,0.137-0.5,0.23-0.676,0.285
			c-0.183,0.051-0.34,0.051-0.479-0.004c-0.14-0.057-0.275-0.174-0.415-0.354c-0.145-0.176-0.305-0.42-0.49-0.738l-1.384-2.303
			l0.263-0.152c0.146-0.09,0.296-0.137,0.427-0.15c0.138-0.012,0.278,0.014,0.42,0.07c0.138,0.057,0.294,0.143,0.459,0.262
			c0.294,0.191,0.585,0.375,0.879,0.564c0.294,0.184,0.581,0.361,0.856,0.529c0.283,0.166,0.547,0.314,0.796,0.455
			c0.296,0.156,0.577,0.281,0.844,0.359c0.263,0.078,0.537,0.117,0.815,0.109c0.281-0.01,0.594-0.076,0.942-0.189
			c0.343-0.123,0.744-0.301,1.197-0.545c0.097-0.057,0.19-0.111,0.291-0.162c0.093-0.053,0.182-0.098,0.261-0.146L158.162,174.46z
			 M150.992,171.95c-0.078,0.236-0.199,0.441-0.363,0.623c-0.168,0.189-0.396,0.363-0.687,0.535l-0.42,0.252l-2.229-3.709
			c-0.104-0.172-0.167-0.297-0.198-0.385c-0.032-0.094-0.042-0.174-0.028-0.242c0.017-0.072,0.063-0.148,0.138-0.236
			c0.079-0.078,0.2-0.172,0.354-0.27c0.202-0.123,0.421-0.201,0.667-0.242c0.243-0.039,0.498-0.018,0.765,0.061
			c0.269,0.082,0.535,0.229,0.806,0.457c0.268,0.227,0.524,0.541,0.774,0.949c0.246,0.41,0.406,0.803,0.479,1.17
			C151.122,171.284,151.104,171.632,150.992,171.95z"/>
		<path fill="#211B5B" d="M161.533,160.962c-0.403-0.352-0.761-0.67-1.064-0.938c-0.31-0.277-0.584-0.529-0.823-0.781
			c-0.15,0.064-0.336,0.145-0.56,0.242c-0.224,0.102-0.463,0.221-0.718,0.373c-0.256,0.148-0.508,0.328-0.755,0.529
			c-0.479,0.4-0.839,0.822-1.097,1.266c-0.254,0.441-0.407,0.889-0.459,1.334c-0.052,0.451-0.015,0.881,0.119,1.303
			c0.136,0.426,0.355,0.814,0.658,1.174c0.278,0.332,0.592,0.58,0.934,0.754c0.339,0.178,0.709,0.283,1.102,0.334
			c0.392,0.049,0.805,0.057,1.235,0.02c0.431-0.043,0.877-0.102,1.338-0.189c0.478-0.082,0.909-0.127,1.291-0.119
			c0.385,0.008,0.723,0.064,1.017,0.189c0.295,0.119,0.555,0.311,0.774,0.566c0.231,0.279,0.384,0.57,0.455,0.863
			c0.072,0.301,0.06,0.588-0.032,0.863c-0.091,0.273-0.267,0.521-0.525,0.738c-0.247,0.209-0.521,0.344-0.813,0.414
			c-0.292,0.074-0.584,0.096-0.893,0.066c-0.305-0.029-0.605-0.096-0.899-0.186c-0.295-0.1-0.573-0.217-0.831-0.34
			c-0.26-0.121-0.49-0.258-0.689-0.377l-0.338,0.545c0.195,0.178,0.396,0.373,0.607,0.561c0.217,0.195,0.424,0.377,0.628,0.555
			c0.208,0.178,0.397,0.334,0.565,0.465c0.173,0.133,0.313,0.23,0.427,0.291c0.144-0.037,0.297-0.088,0.469-0.143
			c0.168-0.057,0.373-0.139,0.603-0.234c0.221-0.1,0.445-0.223,0.68-0.367c0.23-0.141,0.467-0.314,0.702-0.512
			c0.479-0.406,0.854-0.84,1.125-1.303c0.271-0.455,0.44-0.922,0.507-1.402c0.068-0.467,0.037-0.936-0.089-1.381
			c-0.128-0.449-0.351-0.859-0.667-1.244c-0.378-0.445-0.814-0.76-1.286-0.938c-0.478-0.178-0.996-0.258-1.56-0.238
			c-0.563,0.023-1.166,0.094-1.812,0.238c-0.517,0.1-0.963,0.152-1.344,0.17c-0.382,0.01-0.709-0.041-0.988-0.15
			c-0.28-0.105-0.527-0.283-0.745-0.549c-0.227-0.271-0.366-0.549-0.422-0.846c-0.063-0.291-0.044-0.568,0.04-0.828
			c0.087-0.27,0.243-0.492,0.459-0.678c0.26-0.219,0.534-0.348,0.813-0.402c0.279-0.049,0.556-0.039,0.839,0.025
			c0.28,0.066,0.556,0.17,0.832,0.303c0.271,0.141,0.534,0.281,0.787,0.438L161.533,160.962z"/>
		<path fill="#211B5B" d="M174.647,160.405l-0.442-0.396c-0.221,0.207-0.405,0.355-0.567,0.459
			c-0.155,0.098-0.308,0.145-0.455,0.129c-0.142-0.008-0.306-0.076-0.484-0.199c-0.18-0.129-0.4-0.307-0.661-0.545l-5.147-4.635
			c-0.274-0.238-0.489-0.455-0.64-0.619c-0.144-0.17-0.231-0.328-0.258-0.473c-0.026-0.137,0.001-0.293,0.084-0.459
			c0.086-0.166,0.223-0.367,0.406-0.611l-0.441-0.396l-3.331,3.703l0.441,0.391c0.218-0.203,0.402-0.355,0.561-0.461
			c0.156-0.104,0.307-0.145,0.455-0.131c0.142,0.008,0.307,0.074,0.492,0.205s0.412,0.318,0.688,0.563l5.146,4.639
			c0.266,0.244,0.47,0.443,0.614,0.611c0.139,0.166,0.223,0.322,0.248,0.467c0.022,0.137-0.007,0.293-0.088,0.465
			c-0.083,0.16-0.218,0.365-0.394,0.6l0.441,0.4L174.647,160.405z"/>
		<path fill="#211B5B" d="M176.119,144.015c-0.241-0.141-0.492-0.287-0.757-0.441c-0.258-0.156-0.521-0.311-0.771-0.465
			c-0.259-0.15-0.497-0.301-0.714-0.438c-0.223-0.137-0.414-0.256-0.57-0.355l-0.251,0.371c0.071,0.199,0.094,0.367,0.075,0.521
			c-0.026,0.154-0.096,0.314-0.217,0.492l-3.488,5.17c-0.092,0.139-0.174,0.244-0.255,0.316c-0.085,0.084-0.171,0.143-0.274,0.172
			c-0.102,0.041-0.229,0.055-0.383,0.063l-0.24,0.352c0.247,0.178,0.514,0.377,0.805,0.6c0.289,0.225,0.593,0.453,0.907,0.697
			c0.313,0.25,0.625,0.492,0.941,0.736l0.345-0.512c-0.275-0.303-0.507-0.57-0.691-0.814c-0.182-0.246-0.305-0.463-0.36-0.656
			c-0.046-0.133-0.061-0.27-0.045-0.418c0.013-0.145,0.066-0.314,0.161-0.51c0.091-0.193,0.229-0.416,0.414-0.695l0.363-0.531
			l7.073,4.771c0.306,0.203,0.538,0.371,0.706,0.525c0.166,0.143,0.27,0.291,0.309,0.438c0.037,0.148,0.021,0.318-0.052,0.514
			c-0.073,0.193-0.194,0.438-0.366,0.73l0.493,0.334l2.995-4.445l-0.492-0.336c-0.217,0.279-0.404,0.496-0.562,0.646
			c-0.156,0.143-0.31,0.225-0.462,0.25c-0.153,0.02-0.325-0.018-0.527-0.117c-0.199-0.098-0.449-0.246-0.754-0.453l-7.072-4.779
			l0.455-0.668c0.199-0.299,0.386-0.529,0.567-0.691c0.179-0.16,0.371-0.26,0.569-0.279c0.199-0.029,0.445-0.01,0.741,0.057
			c0.296,0.07,0.657,0.193,1.08,0.369L176.119,144.015z"/>
		<path fill="#211B5B" d="M180.075,130.53l-1.678,3.436l0.535,0.266c0.168-0.266,0.313-0.471,0.437-0.604
			c0.118-0.141,0.229-0.221,0.325-0.248c0.102-0.029,0.2-0.014,0.303,0.055c0.096,0.064,0.213,0.156,0.34,0.301
			c0.232,0.236,0.468,0.498,0.717,0.785c0.248,0.287,0.493,0.576,0.736,0.873c0.242,0.297,0.473,0.578,0.693,0.859
			c0.213,0.26,0.404,0.508,0.574,0.717c-0.735,0-1.465,0-2.187-0.02c-0.72-0.008-1.429-0.023-2.123-0.045
			c-0.25-0.004-0.435-0.016-0.56-0.066c-0.118-0.039-0.182-0.141-0.188-0.287c0-0.162,0.05-0.402,0.154-0.729l-0.534-0.266
			l-2.073,4.25l0.533,0.264c0.12-0.186,0.235-0.338,0.341-0.453c0.109-0.121,0.232-0.217,0.365-0.281
			c0.138-0.07,0.305-0.115,0.508-0.148c0.205-0.037,0.464-0.053,0.771-0.059c0.58-0.012,1.099-0.018,1.56-0.025
			c0.46-0.008,0.879-0.012,1.253-0.014c0.371-0.006,0.709,0,1.021,0c0.308,0.006,0.6,0.014,0.87,0.021
			c0.11,0.006,0.209,0.021,0.297,0.033c0.09,0.012,0.187,0.037,0.284,0.064c0.094,0.039,0.21,0.086,0.344,0.154l1.864,0.912
			c0.341,0.162,0.604,0.313,0.801,0.436c0.19,0.129,0.313,0.266,0.375,0.404c0.062,0.141,0.071,0.313,0.028,0.514
			c-0.046,0.205-0.13,0.463-0.258,0.771l0.537,0.258l2.356-4.828l-0.533-0.258c-0.181,0.307-0.345,0.547-0.479,0.707
			c-0.138,0.174-0.284,0.277-0.431,0.324c-0.151,0.031-0.334,0.027-0.551-0.051c-0.218-0.07-0.497-0.182-0.835-0.355l-2.06-1.012
			c-0.185-0.084-0.331-0.166-0.438-0.236c-0.104-0.07-0.198-0.148-0.273-0.23c-0.081-0.08-0.17-0.188-0.273-0.313
			c-0.296-0.365-0.56-0.695-0.786-0.986c-0.229-0.287-0.434-0.563-0.617-0.811c-0.188-0.244-0.366-0.492-0.535-0.723
			c-0.172-0.244-0.354-0.49-0.538-0.754c-0.179-0.262-0.322-0.488-0.421-0.672c-0.102-0.199-0.169-0.377-0.199-0.537
			c-0.029-0.172-0.031-0.336,0.004-0.516c0.03-0.186,0.09-0.387,0.174-0.619L180.075,130.53z"/>
		<path id="院_颜色修正_1_" fill="#211B5B" d="M172.792,36.897c-0.788-0.268-1.635-0.436-2.37-0.189
			c-0.398-0.02-0.551-0.286-0.568-0.531c0.133-0.24,0.356-0.544,0.168-1c-0.353-0.168-0.715-0.072-1.056,0.156
			c-2.7,3.185-5.676,5.411-8.406,7.956c-0.471,1.188-0.321,1.787,0.298,2.151c1.828-1.945,3.452-4.057,5.49-5.829
			c0.565,0.683,0.133,1.414,0.356,2.021c0.171,0.244,2.621,0.091,2.752-0.792c0.093-0.551-0.242-1.119,0.189-1.663
			c0.474-0.545,3.41-0.056,3.451-0.581C173.302,38.008,173.477,37.534,172.792,36.897z M169.629,38.177
			c-0.396,0.36-0.548,0.963-0.927,1.411c-0.168,0.698-0.813,0.815-1.188,1.155c-0.146-0.49-0.337-0.794-0.434-1.113l0.27-1.057
			l1.674-1.675c0.582,0.354,1.45,0.469,1.939,0.846C170.379,37.726,170.138,38.083,169.629,38.177z"/>
		<path fill="#211B5B" d="M167.19,43.213c0.593-0.433,6.024,3.11,7.017,4.899c-0.071,0.53-3.611,0.27-3.917,0.041
			c-0.04-0.038-0.055-0.735-0.507-0.55c-0.998,0.512-2.4,1.567-2.341,2.375c2.283,5.114,7.15,7.112,9.694,2.945
			c-0.135,1.639-0.942,2.977-0.85,4.013c0.021,0.362-0.543,0.547-1.11,0.661c-4.852,0.962-10.071-6.518-9.166-8.14
			c0.051-0.515,2.918-2.513,2.469-2.628c-2.264-0.523-4.091-0.47-4.997-0.623c-0.64-0.073-0.721-0.825-0.491-0.977
			c0.754-0.375,4.604,0.151,5.979,0.621c-0.357-0.508-2.001-1.434-2.285-1.868C166.54,43.795,166.756,43.496,167.19,43.213z"/>
		<path fill="#211B5B" d="M170.511,42.461c1.663,0.52,3.132,1.126,4.149,2.935c-0.092,0.51-0.844,0.625-1.149,0.398
			C172.365,44.796,169.533,43.097,170.511,42.461z"/>
		<path fill="#211B5B" d="M176.721,41.836c0.561-0.605,1.146-1.607-0.022-3c-0.376-0.451-0.504,1.414-1.658,2.074l-1.565-0.925
			c-0.039-0.229,0.244-0.583-0.248-0.692c-2.257-0.346-4.429,0.394-3.45,1.864c0.646,0.415,2.208-0.998,2.938-0.564
			c1.944,1.03,3.832,2.502,5.328,4.146c0.432,1.229-0.63,0.582-0.982,0.565c-0.756-0.038,0.75,2.114,1.846,2.262
			C181.34,44.796,176.116,41.983,176.721,41.836z"/>
		<path fill="#211B5B" d="M137.911,20.289c0-0.001,0-0.002,0-0.005c-0.01-0.007-0.021-0.01-0.029-0.01L137.911,20.289z"/>
		<path id="学_颜色修正_1_" fill="#211B5B" d="M137.911,20.283c0,0.003,0,0.004,0,0.005l-0.029-0.016
			C137.89,20.273,137.901,20.28,137.911,20.283c0.089-1.176,4.168-4.572,3.522-4.737c-1.007-0.846-2.229-0.902-3.737-0.338
			c-0.25,0.09-0.127,0.582,0.045,0.729c0.153,0.179,0.998,0.273,1.07,0.45c0.044,0.181,0.116,0.466,0.014,0.711
			c-0.569-0.297-1.154-0.456-1.55-0.359c-0.348,0.248-0.6,0.67-0.534,0.932c0.22,0.215,0.711-0.015,0.941,0.374
			c-0.202,0.402-0.559,0.627-0.873,0.896c-0.004-0.021-0.011-0.048-0.018-0.072c-0.469-0.325-0.782-0.714-0.916-1.259l0.57-0.688
			c0.125-0.142,0.28-0.431,0.186-0.684c0.201,0.145,0.424,0.255,0.656,0.417c0.178,0.065,0.651,0.083,0.5-0.292
			c-0.551-0.353-0.916-0.813-1.033-1.417l0.648-0.816c0.226-0.308,0.476-0.865-0.205-1.269c-0.353-0.191-0.805,0.964-1.178,0.923
			c-0.221-0.357-0.203-0.833-0.639-1.052c-0.615-0.042-0.914,0.418-0.755,0.851c0.006,0.46,0.319,0.712,0.518,1.075
			c0.03,0.241-1.071,0.349-1.489,0.533c-0.055,0.014-0.072,0.044-0.098,0.05c0.633-1.552,1.447-2.914,1.082-3.066
			c-0.12-0.356-0.906-0.329-1.369,0.038c-0.68,1.233-1.565,5.219-0.969,6.609c-0.033,0.007-0.078,0.021-0.108,0.001l-0.08,0.021
			c-0.861-1.241,0.351-4.457-0.076-4.515c-0.159-0.208-0.644-0.063-0.87,0.244c-0.203,0.851-0.105,3.237,0.428,4.18l-2.14-0.324
			c-0.203-0.247-0.049-0.754-0.804-0.705c-3.277,0.645-5.621,2.485-3.264,3.799c1.153,0.238,2.207-2.167,3.517-1.995
			c3.334,0.386,6.878,1.266,10.032,2.569c1.438,1.267-0.418,0.984-0.906,1.132c-1.044,0.318,2.494,2.189,4.063,1.878
			C142.831,22.543,140.175,21.148,137.911,20.283z M136.26,19.739c-0.354-0.105-0.686-0.217-0.867-0.281
			c-0.33-0.137-1.478-0.433-2.412-0.553c-0.332-0.886-0.029-2.111,0.398-3.261c0.063,0.012,0.124,0.053,0.207,0.057l1.963-0.291
			c0.18,0.177,0.352,0.327,0.578,0.461c-0.271,0.145-0.602,0.78-0.854,0.76c-0.18-0.284-0.172-0.698-0.554-0.904
			c-0.528-0.04-0.754,0.377-0.671,0.712c0.021,0.431,0.318,0.637,0.448,0.931c0.053,0.205-0.913,0.312-1.256,0.479
			c-0.414,0.211-0.345,0.389-0.059,0.425l1.695-0.253c0.431,0.417,0.917,0.71,1.445,1.076c0.063,0.033,0.205,0.058,0.31,0.033
			C136.45,19.28,136.336,19.472,136.26,19.739z"/>
		<path fill="#211B5B" d="M130.005,20.875c2.22-0.25,4.354-0.063,6.171,0.834c0.969,0.829,1.107,1.399,0.762,1.761l-2.546,0.716
			l-0.04,0.615c0.926,0.619,2.84,0.473,4.313,1.429c0.257,0.597-0.13,1.376-0.47,1.327c-0.72-0.018-3.289-1.305-4.107-1.069
			c-0.645,3.504-2.076,5.151-2.729,5.067c-1.281-0.621-2.258-1.557-2.916-3.67c1.576,1.28,2.492,1.658,2.568,1.28
			c0.354-0.028,1.087-1.174,1.24-2.776c-0.361-1.451-3.591-0.956-5.141-1.446c-0.966-0.23-1.105-1.13,0.688-1.327
			c1.444,0.271,2.881,0.771,4.328,0.958c0.188-0.263-0.044-0.725-0.098-1.071l1.379,0.127c0.271-0.126,0.547-0.438,0.25-0.86
			C132.992,22.061,129.042,22.323,130.005,20.875z"/>
		<path fill="#211B5B" d="M79.16,13.178c2.267-0.714,3.116,0.421,3.558,1.347c-0.113,0.801,5.854-3.995,7.907,0.114
			c-0.708,1.211-4.046,2-3.592,1.128c0.182-0.435,1.439-1.354-0.194-1.425c-2.717,0.957-5.37,2.484-7.595,4.289
			c-0.861,0.676,0.011,3.138-0.789,3.673c-2.255,0.518-2.021-2.342-0.504-4.859c0.438-0.517,0.67-0.036,0.946,0.039l1.879-1.426
			C80.618,14.417,78.431,13.435,79.16,13.178z"/>
		<path fill="#211B5B" d="M85.179,23.267c-0.28-0.012-0.455-0.264-0.219-0.797c0.675-0.806,1.406-1.54,2.18-1.59
			c0.751,0.356,2.125,4.985,2.544,7.44c0.277,0.783,1.755,1.051,2.13,1.793c0.175,0.649-0.882,0.934-1.515,0.992
			c-0.919-0.355-2.199-1.091-2.778-1.623c-0.834,0.606-0.975,2.604-1.696,2.894c-0.502,0.09-0.559-0.313-0.402-0.905
			c0.201-0.555,0.375-1.093,0.594-1.68c0.143-0.225,0.09-0.629-0.069-0.599c-0.44,0.043-0.845,0.096-1.271,0.162
			c-0.349-0.1-0.581-0.841-0.211-0.911c0.505-0.013,0.872-0.421,1.125-0.736c-0.477-1.275-1.083-2.506-1.361-3.852
			c0.104-0.348,0.367-0.409,0.662-0.458c0.142,0.008,0.274,0.61,0.452,0.719c0.275,0.07,0.662-0.205,0.958-0.171
			c0.22,0.146,0.355,0.442,0.312,0.65c-0.154,0.202-0.292,0.449-0.455,0.706c-0.092,0.225-0.191,0.659,0.149,0.508
			c0.183-0.204,0.378-0.218,0.551-0.193c0.192,0.13,0.353,0.438,0.226,0.543c-0.308,0.109-0.759,0.355-0.836,0.521
			c0.064,0.176,0.14,0.325,0.33,0.447c0.314,0.174,0.746,0.021,1.011-0.496c0.2-0.384-0.14-2.159-1.157-3.919
			C85.929,22.667,85.649,23.215,85.179,23.267z"/>
		<path fill="#211B5B" d="M81.758,23.491c-0.301-0.041-0.475-0.853-0.475-0.853c0.155-0.852,0.434-1.489,1.02-2.005
			c0.443-0.27,0.775,0.21,0.816,0.48C83.175,21.657,82.772,23.159,81.758,23.491z"/>
		<path fill="#211B5B" d="M83.106,19.304c-0.943-0.204-2.465,0.954-2.387,0.531c0.527-2.671,5.012-3.667,5.253-3.467
			c0.617,0.152,0.931,0.944,0.525,1.089c-1.061,0.286-2.115,0.659-2.257,1.132l0.498,1.584c0.092,0.164,0.447-0.101,0.553-0.448
			c0.104-0.262-0.278-0.387-0.498-0.845c-0.24-0.452,4.17-0.852,4.41,0.394c-0.058,0.472-0.516,0.861-1.137,1.021
			c-0.729-0.136-1.225-0.583-2.195-0.439l-4.625,11.083c-0.935,1.031-1.164,0.067-1.021-0.661c0.685-2.698,2.777-5.419,3.899-8.333
			C84.247,21.728,83.567,20.135,83.106,19.304z"/>
		<path fill="#211B5B" d="M49.795,37.676c1.843-0.55,0.792,0.975,0.751,1.52c-0.159,1.122,3.204-0.987,3.557-2.608
			c-3.827-3.816-8.143,3.256-8.313,2.359c-0.853-0.857-2.984-1.833-5.203-0.209c-0.729,0.55,2.604,1.307,3.461,2.671l-2.222,2.815
			c-0.326,0.044-0.772-0.426-1.043,0.278c-0.757,3.392,0.034,6.639,2.366,5.256c0.698-0.896-1.207-3.313-0.525-4.402
			C44.427,42.53,47.151,39.794,49.795,37.676z"/>
		<path id="宜_颜色修正_1_" fill="#211B5B" d="M57.255,45.335c-1.421,1.193-0.841,1.4-2.636,3.204l-4.588-6.252
			c-0.498-0.549-2.159-0.861-3.133,0.913c-1.907,4.358,2.517,7.136,4.174,9.518c0.495,0.555-2.393,2.787-3.59,4.244
			c-0.656,1.102-0.089,1.87,0.306,1.744c1.415-0.715,7.504-8.618,12.33-12.472C61.324,45,59.231,43.771,57.255,45.335z
			 M52.951,50.918c-0.747,0.882-1.218-0.02-2.453-1.403c0.179-0.421,0.637-0.545,0.712-1.048c0.186-0.29-0.585-0.896-0.944-0.841
			c-0.309,0.083-0.554,0.255-0.696,0.604c-0.25,0.082-0.573-0.237-0.582-0.63c-0.018-0.308,0.226-0.784,0.73-1.245
			c0.039-0.309-0.823-1.137-1.076-0.762c-0.029,0.23-0.338,0.605-0.649,0.39c-0.331-0.23-0.504-0.588-0.539-1.118
			c0.075-0.257-0.007-0.507,0.764-1.075c0.496-0.38,2.993,3.634,4.515,5.46C53.269,50.186,53.158,50.639,52.951,50.918z"/>
		<path fill="#211B5B" d="M131.19,42.722c-0.631-0.222-1.263-0.437-1.903-0.638c-1.788-0.569-3.608-1.059-5.461-1.463
			s-1.751-0.317-3.522-0.507c-4.004,0.269-4.503,4.522-4.527,6.698c-0.037,3.016,0.224,6.946,3.83,7.751
			c0.93,0.067,2.893,0.438,5.375,0.71c5.639,0.61,10.022,0.924,15.517,2.34c2.401,0.616,5.479,2.148,6.25,2.686
			c3.081,2.153,4.002,4.502,4.258,12.987c0.031,0.968-0.019,3.286,0.048,3.813c0.008,0.069,0.014,0.811,0.033,2.091
			c0.02,1.278,0.053,3.088,0.118,5.272c0.07,2.188,0.167,4.754,0.318,7.55c0.329,6.12,0.403,12.181,1.243,18.283
			c0.653,4.766,1.94,12.252,4.481,16.377c3.581,5.799,6.248,5.453,8.055,3.006c4.352-8.512,6.802-18.148,6.802-28.358
			C172.104,74.409,155.063,51.478,131.19,42.722z"/>
		<path fill="#211B5B" d="M155,144.089h-0.003c-0.055,0.063-0.114,0.115-0.171,0.174c-0.057,0.057-0.113,0.115-0.173,0.174
			c-0.059,0.053-0.115,0.111-0.176,0.17c-1.096,1.063-2.302,0.855-3.69,0.855h-1.394L148,145.464h-1.392h-1.395l-1.393,0.008h-1.392
			h-1.394h-1.395h-1.393h-1.396h-1.39l-1.392,0.006h-1.393h-1.396h-1.393l-1.392,0.004l-1.394,0.006h-1.396h-1.394h-1.391h-1.394
			h-1.394h-1.393l-1.395,0.002h-1.391h-1.393h-1.395h-1.396c-0.945,0.025-3.095,0.373-2.806-2.352h-0.002
			c0.07-0.684,0.208-1.342,0.413-1.986c0.212-0.688,0.495-1.354,0.837-2.002c0.341-0.65,0.744-1.279,1.198-1.895
			c0.455-0.607,0.963-1.207,1.513-1.785c0.548-0.588,1.145-1.148,1.771-1.707c0.628-0.555,1.288-1.096,1.979-1.625
			c0.688-0.521,1.407-1.041,2.137-1.537c0.731-0.51,1.483-0.996,2.246-1.484c0.758-0.479,1.529-0.959,2.3-1.422
			c0.77-0.471,1.542-0.922,2.306-1.377c0.762-0.449,1.52-0.893,2.261-1.328c0.739-0.445,1.461-0.875,2.161-1.305
			c0.699-0.426,1.37-0.852,2.012-1.279c0.641-0.41,1.25-0.838,1.818-1.256c0.566-0.412,1.089-0.83,1.564-1.246
			c12.064-10.566,2.455-25.506-11.809-19.155c0.064-3.965-0.389-7.271-5.705-8.434c20.061-9.326,13.15-29.053-2.846-24.566
			c0,0-1.16-7.241,1.32-7.378c10.412,0.566,25.435,1.656,27.317,17.068c0.166,1.359,0.396,2.021,0.323,6.154
			c-0.07,4.134-0.671,14.765-0.047,23.038c1.06,14.008,5,28.033,12.348,33.494l0.037,0.029c0.205,0.148,0.414,0.293,0.621,0.436
			c0.021,0.012,0.045,0.027,0.068,0.045c0.214,0.137,0.426,0.268,0.645,0.393C156.895,142.083,155.971,143.116,155,144.089z"/>
		<path fill="#211B5B" d="M106.342,44.364c-0.313-2.808-1.835-4.263-4.656-4.464c-0.479-0.033-1.313,0.109-1.783,0.189
			c-0.477,0.084-0.946,0.174-1.414,0.262c-0.47,0.096-0.935,0.192-1.401,0.295c-0.465,0.106-0.929,0.213-1.389,0.328
			c-0.463,0.114-0.921,0.231-1.375,0.354c-0.456,0.126-0.914,0.253-1.364,0.386c-0.451,0.135-0.903,0.271-1.352,0.417
			c-0.448,0.141-0.894,0.291-1.338,0.442c-0.441,0.154-0.883,0.313-1.322,0.473c-0.438,0.165-0.876,0.332-1.312,0.502
			c-0.434,0.172-0.866,0.35-1.294,0.53c-0.431,0.181-0.854,0.367-1.279,0.559c-0.424,0.191-0.844,0.384-1.262,0.583
			c-0.42,0.199-0.838,0.404-1.25,0.609c-0.417,0.208-0.824,0.42-1.23,0.64c-0.408,0.216-0.813,0.438-1.217,0.663
			c-0.403,0.227-0.802,0.458-1.198,0.691c-0.396,0.234-0.792,0.474-1.183,0.715c-0.391,0.245-0.779,0.49-1.162,0.742
			c-0.384,0.25-0.768,0.505-1.146,0.768c-0.38,0.255-0.754,0.521-1.127,0.789c-0.372,0.265-0.742,0.538-1.108,0.814
			c-0.366,0.273-0.729,0.553-1.088,0.836c-0.361,0.283-0.719,0.569-1.069,0.863c-0.354,0.287-0.705,0.583-1.05,0.881
			c-0.35,0.3-0.691,0.598-1.031,0.908c-0.338,0.305-0.674,0.614-1.006,0.927c-0.334,0.313-0.664,0.629-0.991,0.952
			c-0.326,0.321-0.647,0.645-0.966,0.97c-0.317,0.326-0.632,0.656-0.942,0.992c-0.314,0.335-0.621,0.673-0.923,1.013
			c-9.722,10.918-15.597,25.293-15.596,41.095c0,0.733,0.016,1.468,0.041,2.196c0.027,0.73,0.065,1.457,0.113,2.186
			c0.05,0.717,0.116,1.441,0.191,2.152c0.075,0.721,0.162,1.434,0.264,2.143c0.098,0.709,0.21,1.418,0.333,2.113
			c0.122,0.705,0.257,1.395,0.405,2.092c0.146,0.686,0.303,1.375,0.474,2.061c0.168,0.688,0.35,1.361,0.542,2.037
			c0.19,0.67,0.394,1.346,0.608,2.012c0.213,0.664,0.438,1.32,0.67,1.975c0.24,0.658,0.486,1.313,0.743,1.951
			c0.256,0.646,0.523,1.281,0.801,1.92c0.277,0.631,0.563,1.266,0.864,1.879c2.625,5.412,6.667,2.654,9.326-3.525
			c3.939-9.16,4.814-19.822,5.25-29.714c0.288-6.559,0.798-12.765,1.403-19.65c0.707-6.143,0.107-12.061,5.383-15.355
			c5.274-3.294,17.88-3.834,22.024-4.282c4.146-0.452,4.078-0.517,5.947-1.465C105.768,52.861,106.89,49.237,106.342,44.364z"/>
		<path fill="#211B5B" d="M124.198,107.96c8.91-6.999,14.979,2.346,5.063,8.063C129.934,112.382,128.364,108.894,124.198,107.96z"/>
		<path fill="#211B5B" d="M110.899,77.155c9.297-7.246,16.982,1.323,5.201,8.342C116.417,81.816,115.133,77.687,110.899,77.155z"/>
	</g>
	<g>
		<path d="M322.996,47.25c-0.259-5.602-4.556-15.596-17.191-16.903c-4.229-0.374,4.875,12.595,3.58,19.967l-16.352,2.774
			c-1.25-0.858-1.335-3.869-4.444-2.282c-13.111,9.322-20.47,22.969-8.191,25.464c5.188-0.916,6.145-15.167,11.857-16.811
			c14.956-4.103,32.799-5.052,48.445-4.116c8.027,3.832-0.305,5.82-2.146,7.572c-4.018,3.356,14.063,6.562,20.313,2.08
			C357.573,39.947,320.807,50.875,322.996,47.25z"/>
		<path d="M767.154,144.407H757.6v1.488c0.777,0.074,1.395,0.176,1.816,0.311c0.447,0.113,0.752,0.277,0.918,0.473
			c0.168,0.184,0.232,0.43,0.189,0.73c-0.021,0.287-0.111,0.652-0.281,1.096c-0.285,0.771-0.609,1.588-0.99,2.459
			c-0.361,0.873-0.732,1.744-1.129,2.611c-0.402,0.873-0.789,1.691-1.137,2.48c-0.373,0.781-0.691,1.477-0.965,2.078
			c-0.805-1.66-1.6-3.318-2.371-4.938c-0.764-1.631-1.51-3.229-2.207-4.785c-0.264-0.564-0.416-1.004-0.449-1.324
			c-0.027-0.316,0.115-0.568,0.449-0.744c0.346-0.172,0.939-0.324,1.799-0.447v-1.488h-11.754v1.488
			c0.523,0.053,0.986,0.141,1.373,0.248c0.377,0.107,0.717,0.285,1.012,0.494c0.305,0.229,0.596,0.555,0.889,0.979
			c0.283,0.418,0.594,0.973,0.938,1.652c0.664,1.293,1.254,2.459,1.777,3.502c0.521,1.025,0.986,1.957,1.404,2.803
			c0.41,0.822,0.787,1.6,1.121,2.293c0.324,0.689,0.631,1.355,0.902,1.98c0.123,0.252,0.207,0.479,0.281,0.693
			c0.057,0.221,0.109,0.449,0.127,0.707c0.031,0.252,0.043,0.568,0.043,0.939v5.178c0.002,0.943-0.033,1.699-0.105,2.271
			c-0.076,0.564-0.248,0.996-0.494,1.291c-0.248,0.291-0.621,0.494-1.115,0.623c-0.512,0.119-1.168,0.215-2.01,0.271v1.484h13.373
			v-1.484c-0.887-0.068-1.602-0.166-2.123-0.297c-0.525-0.117-0.922-0.332-1.176-0.613c-0.258-0.293-0.424-0.723-0.498-1.283
			c-0.076-0.564-0.115-1.32-0.105-2.264v-5.766c0-0.5,0.021-0.902,0.059-1.219c0.053-0.309,0.121-0.59,0.227-0.854
			c0.092-0.268,0.227-0.586,0.387-0.947c0.494-1.092,0.932-2.047,1.334-2.875c0.395-0.832,0.773-1.586,1.129-2.277
			c0.355-0.678,0.691-1.332,1.057-1.986c0.35-0.619,0.709-1.299,1.104-2.004c0.371-0.689,0.715-1.252,1.033-1.691
			c0.313-0.432,0.641-0.783,0.975-1.023c0.334-0.248,0.719-0.441,1.162-0.559c0.434-0.129,0.967-0.223,1.582-0.275v-1.48h0.012
			H767.154L767.154,144.407z"/>
		<path d="M731.209,151.472c-0.061-0.695-0.094-1.414-0.154-2.184c-0.043-0.752-0.084-1.506-0.131-2.252
			c-0.033-0.738-0.074-1.443-0.102-2.082c-0.037-0.645-0.055-1.205-0.064-1.68h-1.086c-0.32,0.426-0.654,0.715-1.006,0.889
			c-0.344,0.164-0.775,0.252-1.285,0.244h-15.527c-0.393,0-0.723-0.025-1.002-0.09c-0.266-0.066-0.512-0.176-0.727-0.346
			c-0.209-0.166-0.436-0.393-0.645-0.689h-1.078c-0.016,0.756-0.049,1.592-0.104,2.498c-0.061,0.908-0.123,1.859-0.189,2.855
			c-0.07,0.98-0.145,1.971-0.201,2.975h1.531c0.232-1.004,0.477-1.854,0.73-2.578c0.246-0.715,0.529-1.271,0.834-1.648
			c0.219-0.289,0.49-0.518,0.807-0.688c0.328-0.174,0.756-0.301,1.273-0.377c0.523-0.068,1.191-0.105,2.008-0.105h1.615v21.289
			c0.002,0.914-0.031,1.641-0.109,2.201c-0.078,0.539-0.244,0.965-0.492,1.236c-0.24,0.289-0.623,0.492-1.123,0.611
			c-0.506,0.121-1.162,0.211-2.002,0.271v1.484h13.283v-1.484c-0.861-0.061-1.563-0.154-2.084-0.271
			c-0.512-0.119-0.896-0.322-1.16-0.611c-0.254-0.271-0.422-0.697-0.5-1.236c-0.078-0.561-0.117-1.287-0.117-2.201v-21.289h2.021
			c0.898-0.014,1.635,0.059,2.225,0.205c0.59,0.137,1.064,0.404,1.412,0.777c0.332,0.375,0.633,0.912,0.887,1.643
			c0.254,0.688,0.512,1.605,0.779,2.732L731.209,151.472z"/>
		<path d="M697.273,173.31v-1.484c-0.754-0.061-1.342-0.15-1.791-0.283c-0.445-0.123-0.779-0.332-1.002-0.625
			c-0.223-0.289-0.367-0.691-0.438-1.234c-0.072-0.547-0.104-1.244-0.094-2.139V150.22c-0.01-0.922,0.021-1.652,0.094-2.199
			c0.07-0.549,0.215-0.967,0.438-1.244c0.225-0.289,0.557-0.496,1.002-0.607c0.449-0.123,1.037-0.219,1.791-0.271v-1.488h-12.385
			v1.488c0.742,0.053,1.32,0.15,1.777,0.271c0.453,0.111,0.783,0.318,1.008,0.607c0.217,0.277,0.365,0.695,0.43,1.244
			c0.072,0.547,0.104,1.277,0.1,2.199v17.324c0.004,0.9-0.033,1.609-0.109,2.162c-0.07,0.539-0.209,0.945-0.434,1.23
			c-0.227,0.277-0.566,0.49-1.008,0.609c-0.455,0.127-1.047,0.219-1.764,0.279v1.482h12.385V173.31z"/>
		<path d="M673.248,151.208c-0.201-1.322-0.385-2.488-0.523-3.512c-0.148-1.016-0.264-1.951-0.332-2.797
			c-0.369-0.148-0.855-0.293-1.445-0.459c-0.58-0.176-1.236-0.314-1.963-0.438c-0.719-0.123-1.482-0.178-2.279-0.184
			c-1.559,0.006-2.926,0.219-4.121,0.662c-1.189,0.434-2.186,1.033-3.006,1.811c-0.813,0.773-1.436,1.664-1.857,2.688
			c-0.414,1.021-0.627,2.125-0.627,3.303c0.01,1.072,0.207,2.047,0.582,2.928c0.373,0.877,0.895,1.684,1.563,2.396
			c0.662,0.732,1.432,1.41,2.307,2.033s1.818,1.213,2.814,1.773c1.074,0.611,1.965,1.232,2.697,1.852
			c0.717,0.621,1.266,1.297,1.639,2c0.371,0.693,0.564,1.473,0.564,2.326c0,0.9-0.174,1.697-0.506,2.377
			c-0.336,0.686-0.824,1.215-1.438,1.586c-0.611,0.385-1.334,0.563-2.178,0.58c-0.818-0.018-1.566-0.176-2.248-0.5
			c-0.662-0.334-1.271-0.773-1.807-1.318c-0.539-0.553-1.008-1.154-1.414-1.799c-0.406-0.666-0.754-1.324-1.039-1.973
			c-0.289-0.656-0.512-1.273-0.68-1.836l-1.527,0.496c0.084,0.662,0.164,1.344,0.268,2.061c0.096,0.711,0.197,1.406,0.314,2.064
			c0.096,0.666,0.197,1.27,0.313,1.811c0.111,0.531,0.215,0.961,0.313,1.268c0.332,0.135,0.707,0.283,1.139,0.445
			c0.426,0.15,0.941,0.322,1.514,0.504c0.604,0.158,1.234,0.285,1.91,0.389c0.678,0.096,1.385,0.146,2.127,0.146
			c1.58,0,2.99-0.232,4.246-0.68c1.26-0.445,2.344-1.07,3.223-1.873c0.896-0.791,1.566-1.719,2.047-2.781
			c0.479-1.063,0.717-2.215,0.717-3.451c0-1.463-0.332-2.758-0.947-3.855c-0.619-1.107-1.49-2.088-2.586-2.955
			c-1.104-0.869-2.369-1.688-3.828-2.447c-1.15-0.662-2.092-1.277-2.84-1.869c-0.742-0.578-1.289-1.197-1.646-1.84
			c-0.357-0.648-0.539-1.404-0.539-2.24c0.006-0.881,0.184-1.645,0.533-2.299c0.348-0.656,0.811-1.152,1.396-1.525
			c0.58-0.361,1.221-0.541,1.936-0.545c0.842,0.004,1.58,0.184,2.201,0.525c0.609,0.354,1.145,0.809,1.574,1.393
			c0.439,0.578,0.803,1.221,1.115,1.914c0.307,0.699,0.572,1.406,0.801,2.109L673.248,151.208z"/>
		<path d="M645.596,171.702c-0.436-0.34-0.895-0.775-1.385-1.322c-0.289-0.318-0.574-0.689-0.885-1.125
			c-0.291-0.434-0.633-0.93-1.004-1.521c-0.359-0.574-0.777-1.281-1.26-2.078c-0.311-0.529-0.645-1.092-0.977-1.693
			c-0.34-0.609-0.674-1.221-0.986-1.816c-0.305-0.611-0.598-1.164-0.842-1.678c-0.256-0.518-0.461-0.951-0.602-1.299
			c0.98-0.408,1.855-0.949,2.625-1.6c0.781-0.652,1.398-1.438,1.84-2.381c0.451-0.934,0.688-2.043,0.688-3.311
			c-0.004-1.369-0.264-2.549-0.771-3.527c-0.52-0.977-1.221-1.766-2.096-2.369c-0.561-0.377-1.176-0.682-1.838-0.902
			c-0.65-0.242-1.408-0.41-2.24-0.516c-0.826-0.102-1.799-0.156-2.883-0.156h-12.027v1.488c0.732,0.066,1.326,0.158,1.766,0.275
			c0.426,0.117,0.764,0.314,0.99,0.58c0.219,0.268,0.361,0.668,0.426,1.197c0.074,0.521,0.098,1.238,0.098,2.125v17.389
			c0,0.904-0.029,1.645-0.105,2.201c-0.074,0.563-0.232,0.988-0.465,1.273c-0.23,0.293-0.578,0.506-1.041,0.633
			c-0.455,0.119-1.076,0.205-1.846,0.256v1.492h12.434v-1.492c-0.756-0.051-1.346-0.137-1.795-0.256
			c-0.451-0.127-0.789-0.34-1.02-0.633c-0.225-0.285-0.371-0.711-0.451-1.273c-0.072-0.557-0.107-1.297-0.104-2.201v-6.715h0.76
			c0.445,0.021,0.82,0.096,1.127,0.254c0.303,0.146,0.564,0.371,0.787,0.678c0.232,0.297,0.447,0.686,0.646,1.145
			c0.373,0.799,0.76,1.592,1.146,2.373c0.393,0.789,0.77,1.525,1.148,2.24c0.393,0.723,0.762,1.369,1.117,1.963
			c0.426,0.715,0.877,1.332,1.328,1.855c0.469,0.518,0.996,0.955,1.605,1.309c0.615,0.342,1.365,0.594,2.258,0.789
			c0.885,0.186,1.961,0.313,3.234,0.375c0.301,0.018,0.584,0.033,0.855,0.033c0.264,0.008,0.525,0.008,0.76,0.008l0.232-1.311
			C646.451,172.292,646.027,172.046,645.596,171.702z M636.234,155.708c-0.318,0.9-0.801,1.615-1.459,2.156
			c-0.463,0.402-0.98,0.691-1.57,0.871c-0.594,0.172-1.307,0.258-2.146,0.254h-1.213v-10.797c0-0.49,0.021-0.852,0.068-1.092
			c0.051-0.242,0.131-0.438,0.246-0.582c0.125-0.121,0.33-0.203,0.598-0.277c0.268-0.082,0.637-0.125,1.107-0.125
			c0.578-0.006,1.148,0.113,1.727,0.334c0.564,0.238,1.086,0.604,1.559,1.119c0.467,0.504,0.842,1.166,1.123,1.982
			c0.285,0.822,0.43,1.832,0.441,3.002C636.715,153.778,636.551,154.833,636.234,155.708z"/>
		<path d="M609.33,165.919c-0.361,0.943-0.727,1.754-1.111,2.428c-0.371,0.674-0.754,1.256-1.133,1.719
			c-0.303,0.355-0.678,0.643-1.088,0.861c-0.414,0.205-0.902,0.354-1.484,0.445c-0.582,0.09-1.258,0.139-2.051,0.139
			c-0.803,0.006-1.516-0.031-2.094-0.094c-0.596-0.074-1.066-0.207-1.402-0.402c-0.355-0.172-0.604-0.523-0.75-1.078
			c-0.139-0.541-0.209-1.342-0.201-2.393v-8.148h2.564c0.887-0.004,1.602,0.021,2.137,0.066c0.541,0.063,0.969,0.189,1.268,0.408
			c0.307,0.207,0.547,0.547,0.717,1c0.18,0.477,0.342,1.104,0.502,1.91h1.52v-8.824h-1.52c-0.16,0.771-0.336,1.387-0.508,1.852
			c-0.18,0.451-0.418,0.775-0.729,0.984c-0.303,0.215-0.725,0.359-1.264,0.412c-0.539,0.059-1.244,0.074-2.123,0.074h-2.564v-9.453
			c-0.008-0.486,0.031-0.844,0.109-1.08c0.068-0.234,0.225-0.387,0.453-0.453c0.238-0.064,0.588-0.096,1.055-0.088h1.619
			c0.895,0,1.635,0.047,2.221,0.139c0.598,0.086,1.064,0.227,1.426,0.402c0.355,0.178,0.637,0.398,0.842,0.674
			c0.326,0.383,0.617,0.887,0.867,1.477c0.254,0.609,0.488,1.32,0.709,2.125l1.521-0.223c-0.041-0.633-0.094-1.289-0.143-1.959
			c-0.043-0.68-0.092-1.314-0.137-1.916c-0.041-0.604-0.068-1.133-0.102-1.572c-0.035-0.447-0.051-0.758-0.07-0.947h-19.34v1.486
			c0.703,0.051,1.271,0.146,1.697,0.246c0.434,0.105,0.748,0.293,0.98,0.561c0.225,0.262,0.365,0.654,0.443,1.191
			c0.08,0.523,0.111,1.248,0.111,2.146v17.561c0,0.914-0.031,1.637-0.123,2.168c-0.076,0.539-0.246,0.943-0.484,1.219
			c-0.27,0.264-0.635,0.457-1.145,0.568c-0.484,0.121-1.158,0.207-1.977,0.275v1.494h20.877c0.072-0.275,0.152-0.635,0.256-1.08
			c0.1-0.439,0.219-0.93,0.328-1.467c0.105-0.547,0.219-1.096,0.332-1.648c0.104-0.555,0.207-1.076,0.297-1.58
			c0.092-0.488,0.17-0.914,0.215-1.254L609.33,165.919z"/>
		<path d="M579.031,144.407h-9.611v1.488c0.82,0.092,1.445,0.215,1.896,0.371c0.447,0.141,0.762,0.369,0.908,0.656
			c0.152,0.273,0.191,0.66,0.123,1.15c-0.078,0.482-0.225,1.113-0.451,1.863c-0.32,1.117-0.691,2.324-1.111,3.643
			c-0.412,1.311-0.854,2.662-1.324,4.049c-0.459,1.387-0.922,2.73-1.389,4.063c-0.451,1.318-0.883,2.545-1.297,3.689h-0.092
			c-0.279-0.82-0.58-1.738-0.936-2.736c-0.344-1-0.701-2.037-1.088-3.119c-0.371-1.08-0.74-2.166-1.111-3.238
			c-0.369-1.068-0.725-2.092-1.057-3.066c-0.332-0.982-0.633-1.848-0.891-2.625c-0.264-0.779-0.477-1.422-0.615-1.918
			c-0.215-0.678-0.303-1.197-0.27-1.566c0.023-0.357,0.232-0.625,0.639-0.793c0.408-0.18,1.082-0.32,2.01-0.422v-1.488h-12.301
			v1.488c0.613,0.053,1.133,0.145,1.535,0.275c0.422,0.127,0.789,0.326,1.094,0.609c0.293,0.283,0.58,0.691,0.842,1.225
			c0.266,0.52,0.541,1.205,0.836,2.068c0.344,0.955,0.762,2.107,1.246,3.479c0.496,1.361,1.029,2.877,1.613,4.521
			c0.574,1.648,1.178,3.371,1.799,5.15c0.627,1.793,1.25,3.578,1.857,5.369c0.604,1.791,1.189,3.508,1.742,5.168h2.064
			c0.633-1.836,1.281-3.672,1.932-5.525c0.666-1.857,1.299-3.664,1.936-5.412c0.637-1.75,1.23-3.396,1.797-4.934
			c0.578-1.533,1.08-2.9,1.523-4.109c0.451-1.191,0.822-2.164,1.115-2.896c0.41-1.074,0.789-1.922,1.123-2.551
			c0.334-0.643,0.682-1.111,1.039-1.43c0.348-0.332,0.76-0.563,1.211-0.703c0.457-0.129,1.012-0.234,1.652-0.311v-1.482H579.031
			L579.031,144.407z"/>
		<path d="M541.014,173.31v-1.484c-0.756-0.061-1.344-0.15-1.795-0.283c-0.445-0.123-0.775-0.332-1-0.625
			c-0.213-0.289-0.365-0.691-0.432-1.234c-0.076-0.547-0.102-1.244-0.094-2.139V150.22c-0.008-0.922,0.018-1.652,0.094-2.199
			c0.066-0.549,0.219-0.967,0.432-1.244c0.225-0.289,0.555-0.496,1-0.607c0.451-0.123,1.039-0.219,1.795-0.271v-1.488h-12.385v1.488
			c0.742,0.053,1.332,0.15,1.781,0.271c0.453,0.111,0.777,0.318,1,0.607c0.219,0.277,0.371,0.695,0.439,1.244
			c0.07,0.547,0.104,1.277,0.104,2.199v17.324c0,0.9-0.043,1.609-0.111,2.162c-0.08,0.539-0.221,0.945-0.445,1.23
			c-0.223,0.277-0.563,0.49-0.998,0.609c-0.453,0.127-1.041,0.219-1.77,0.279v1.482h12.385V173.31z"/>
		<path d="M518.428,144.407H508.33v1.398c0.951,0.049,1.697,0.176,2.25,0.357c0.561,0.18,0.957,0.441,1.223,0.777
			c0.254,0.336,0.414,0.766,0.475,1.293c0.07,0.459,0.131,1.027,0.191,1.709c0.063,0.689,0.111,1.498,0.152,2.463
			c0.039,0.955,0.07,2.092,0.07,3.391v7.877h-0.188l-14.635-19.266h-7.67v1.4c0.588,0.053,1.104,0.156,1.523,0.303
			c0.42,0.141,0.783,0.34,1.092,0.586c0.309,0.244,0.596,0.547,0.84,0.906c0.18,0.238,0.324,0.486,0.426,0.748
			c0.104,0.256,0.178,0.545,0.225,0.891c0.055,0.35,0.086,0.775,0.098,1.277c0.002,0.498,0.02,1.127,0.02,1.857v9.406
			c-0.012,1.857-0.063,3.398-0.148,4.611c-0.098,1.223-0.186,2.168-0.262,2.859c-0.061,0.574-0.213,1.037-0.451,1.414
			c-0.234,0.365-0.588,0.648-1.064,0.842c-0.471,0.191-1.102,0.314-1.893,0.355v1.439h10.23v-1.439
			c-1.02-0.059-1.807-0.188-2.367-0.389c-0.563-0.211-0.967-0.488-1.213-0.855c-0.238-0.379-0.396-0.842-0.455-1.412
			c-0.076-0.666-0.154-1.604-0.23-2.814c-0.078-1.213-0.125-2.75-0.129-4.611v-9.859h0.137l15.93,21.838h2.199v-17.965
			c0-1.303,0.027-2.439,0.076-3.396c0.051-0.959,0.109-1.775,0.178-2.463c0.066-0.682,0.141-1.248,0.193-1.711
			c0.053-0.535,0.189-0.982,0.408-1.318c0.225-0.338,0.566-0.604,1.02-0.787c0.467-0.176,1.08-0.285,1.854-0.33v-1.389h-0.006l0,0
			l0,0V144.407L518.428,144.407z"/>
		<path d="M481.172,144.407h-10.23v1.488c0.979,0.037,1.744,0.15,2.311,0.348c0.57,0.188,0.969,0.453,1.227,0.793
			c0.254,0.35,0.398,0.773,0.459,1.289c0.055,0.424,0.117,0.918,0.17,1.49c0.059,0.564,0.094,1.268,0.135,2.086
			c0.039,0.814,0.047,1.818,0.047,2.998v5.268c0.014,3.633-0.535,6.328-1.627,8.092c-1.098,1.758-2.746,2.625-4.963,2.623
			c-2.146,0-3.742-0.816-4.779-2.416c-1.041-1.607-1.557-4.002-1.551-7.182v-10.885c-0.006-0.961,0.021-1.734,0.086-2.311
			c0.076-0.57,0.211-1.002,0.424-1.287c0.211-0.299,0.533-0.51,0.951-0.635c0.418-0.123,0.979-0.219,1.684-0.271v-1.488h-12.166
			v1.488c0.738,0.053,1.326,0.15,1.77,0.271c0.432,0.125,0.764,0.336,0.988,0.635c0.213,0.285,0.354,0.723,0.424,1.287
			c0.076,0.584,0.1,1.35,0.096,2.311v11.025c0,1.732,0.109,3.238,0.328,4.514c0.217,1.291,0.561,2.387,1.033,3.305
			c0.473,0.91,1.076,1.699,1.83,2.359c0.643,0.57,1.357,1.016,2.141,1.35c0.779,0.342,1.6,0.582,2.459,0.727
			c0.855,0.158,1.736,0.215,2.625,0.215c0.99,0,1.953-0.123,2.871-0.379c0.93-0.244,1.783-0.615,2.59-1.096
			c0.795-0.482,1.514-1.074,2.123-1.768c0.744-0.879,1.313-1.863,1.725-3.008c0.424-1.121,0.711-2.354,0.875-3.688
			c0.152-1.338,0.236-2.748,0.232-4.25v-4.809c0-0.896,0.004-1.678,0.018-2.355c0.016-0.664,0.049-1.248,0.08-1.752
			c0.021-0.5,0.063-0.959,0.107-1.355c0.043-0.406,0.098-0.795,0.15-1.166c0.057-0.484,0.195-0.906,0.439-1.254
			c0.24-0.338,0.596-0.607,1.072-0.793c0.473-0.203,1.096-0.297,1.855-0.326v-1.492h-0.008V144.407L481.172,144.407L481.172,144.407
			z"/>
		<path d="M418.916,144.407h-10.092v1.398c0.947,0.049,1.695,0.176,2.254,0.357c0.551,0.18,0.957,0.441,1.211,0.777
			c0.266,0.336,0.418,0.766,0.484,1.293c0.055,0.459,0.129,1.027,0.188,1.709c0.061,0.689,0.105,1.498,0.146,2.463
			c0.045,0.955,0.07,2.092,0.07,3.391v7.877h-0.18l-14.631-19.266h-7.677v1.4c0.591,0.053,1.103,0.156,1.526,0.303
			c0.42,0.141,0.783,0.34,1.093,0.586c0.302,0.244,0.588,0.547,0.838,0.906c0.183,0.238,0.321,0.486,0.426,0.748
			c0.104,0.256,0.18,0.545,0.228,0.891c0.054,0.35,0.077,0.775,0.091,1.277c0.007,0.498,0.019,1.127,0.019,1.857v9.406
			c-0.011,1.857-0.055,3.398-0.147,4.611c-0.103,1.223-0.182,2.168-0.256,2.859c-0.075,0.574-0.219,1.037-0.464,1.414
			c-0.232,0.365-0.585,0.648-1.061,0.842c-0.472,0.191-1.108,0.314-1.896,0.355v1.439h10.236v-1.439
			c-1.012-0.059-1.81-0.188-2.371-0.389c-0.559-0.211-0.964-0.488-1.214-0.855c-0.239-0.379-0.396-0.842-0.458-1.412
			c-0.077-0.666-0.15-1.604-0.229-2.814c-0.079-1.213-0.121-2.75-0.127-4.611v-9.859h0.134l15.935,21.838h2.199v-17.965
			c0-1.303,0.025-2.439,0.066-3.396c0.055-0.959,0.117-1.775,0.189-2.463c0.063-0.682,0.131-1.248,0.189-1.711
			c0.051-0.535,0.193-0.982,0.412-1.318c0.213-0.338,0.561-0.604,1.016-0.787c0.465-0.176,1.078-0.285,1.846-0.33v-1.389h0.006
			V144.407L418.916,144.407z"/>
		<path d="M380.358,173.31v-1.484c-0.744-0.061-1.338-0.15-1.787-0.283c-0.445-0.123-0.773-0.332-1-0.625
			c-0.219-0.289-0.371-0.691-0.435-1.234c-0.072-0.547-0.104-1.244-0.091-2.139V150.22c-0.012-0.922,0.019-1.652,0.091-2.199
			c0.068-0.549,0.216-0.967,0.435-1.244c0.223-0.289,0.555-0.496,1-0.607c0.449-0.123,1.041-0.219,1.787-0.271v-1.488h-12.384v1.488
			c0.749,0.053,1.338,0.15,1.793,0.271c0.446,0.111,0.776,0.318,1,0.607c0.214,0.277,0.372,0.695,0.435,1.244
			c0.07,0.547,0.106,1.277,0.099,2.199v17.324c0.009,0.9-0.03,1.609-0.104,2.162c-0.075,0.539-0.215,0.945-0.439,1.23
			c-0.223,0.277-0.56,0.49-1.001,0.609c-0.448,0.127-1.04,0.219-1.773,0.279v1.482h12.376V173.31z"/>
		<path d="M355.727,161.157c-0.671-0.967-1.598-1.725-2.785-2.297c-1.193-0.572-2.565-0.963-4.138-1.172v-0.18
			c0.775-0.146,1.534-0.379,2.289-0.703c0.752-0.32,1.445-0.742,2.068-1.271c0.619-0.525,1.117-1.166,1.485-1.93
			c0.374-0.758,0.57-1.65,0.576-2.67c-0.007-1.092-0.241-2.055-0.681-2.902c-0.444-0.844-1.041-1.529-1.788-2.061
			c-0.547-0.371-1.16-0.672-1.828-0.896c-0.67-0.24-1.427-0.408-2.287-0.514c-0.853-0.107-1.83-0.156-2.933-0.156h-12.027v1.488
			c0.754,0.053,1.36,0.145,1.809,0.275c0.444,0.115,0.778,0.326,0.997,0.609c0.214,0.283,0.355,0.705,0.423,1.252
			c0.063,0.555,0.097,1.273,0.092,2.178v17.236c0.005,0.916-0.028,1.654-0.099,2.205c-0.075,0.549-0.229,0.975-0.467,1.26
			c-0.23,0.297-0.588,0.506-1.071,0.629c-0.47,0.123-1.108,0.225-1.909,0.277v1.484h10.409c1.159,0,2.278-0.068,3.364-0.203
			c1.089-0.139,2.105-0.348,3.055-0.633c0.949-0.281,1.802-0.648,2.555-1.102c0.779-0.453,1.446-1,2.032-1.631
			c0.591-0.646,1.046-1.393,1.376-2.242c0.329-0.842,0.49-1.785,0.497-2.834C356.733,163.282,356.397,162.116,355.727,161.157z
			 M342.612,148.677c0-0.563,0.039-1.008,0.104-1.342c0.076-0.354,0.189-0.59,0.346-0.727c0.125-0.139,0.326-0.258,0.598-0.354
			c0.267-0.084,0.645-0.139,1.113-0.139c0.549-0.006,1.098,0.088,1.623,0.291c0.521,0.215,1,0.529,1.418,0.977
			c0.428,0.441,0.764,1.021,1.018,1.734c0.25,0.713,0.376,1.559,0.38,2.584c0.014,1.877-0.423,3.258-1.315,4.143
			c-0.893,0.873-2.308,1.311-4.242,1.307h-1.037v-8.475h-0.006l0,0H342.612L342.612,148.677z M349.974,168.007
			c-0.284,0.813-0.665,1.473-1.148,1.982c-0.479,0.514-1.007,0.895-1.583,1.143c-0.584,0.24-1.165,0.367-1.754,0.371
			c-0.711,0.008-1.278-0.105-1.708-0.357c-0.418-0.244-0.72-0.672-0.899-1.264c-0.182-0.594-0.272-1.4-0.266-2.436v-8.594h0.897
			c2.253,0,3.968,0.512,5.138,1.551c1.177,1.041,1.768,2.584,1.775,4.668C350.411,166.218,350.265,167.192,349.974,168.007z"/>
		<path d="M322.455,173.31v-1.484c-0.746-0.061-1.343-0.15-1.792-0.283c-0.446-0.123-0.775-0.332-0.999-0.625
			c-0.218-0.289-0.368-0.691-0.434-1.234c-0.075-0.547-0.102-1.244-0.099-2.139V150.22c-0.003-0.922,0.022-1.652,0.099-2.199
			c0.065-0.549,0.216-0.967,0.434-1.244c0.224-0.289,0.553-0.496,0.999-0.607c0.449-0.123,1.046-0.219,1.792-0.271v-1.488h-12.386
			v1.488c0.75,0.053,1.338,0.15,1.791,0.271c0.446,0.111,0.775,0.318,1,0.607c0.223,0.277,0.369,0.695,0.435,1.244
			c0.077,0.547,0.106,1.277,0.101,2.199v17.324c0.007,0.9-0.033,1.609-0.107,2.162c-0.072,0.539-0.215,0.945-0.439,1.23
			c-0.222,0.277-0.559,0.49-1.004,0.609c-0.45,0.127-1.035,0.219-1.771,0.279v1.482h12.381V173.31z"/>
		<path d="M299.965,144.407h-9.561v1.488c0.779,0.074,1.393,0.176,1.824,0.311c0.439,0.113,0.75,0.277,0.911,0.473
			c0.172,0.184,0.24,0.43,0.202,0.73c-0.03,0.287-0.127,0.652-0.287,1.096c-0.287,0.771-0.615,1.588-0.986,2.459
			c-0.363,0.873-0.746,1.744-1.139,2.611c-0.397,0.873-0.777,1.691-1.141,2.48c-0.364,0.781-0.68,1.477-0.957,2.078
			c-0.807-1.66-1.597-3.318-2.371-4.938c-0.769-1.631-1.51-3.229-2.207-4.785c-0.271-0.564-0.418-1.004-0.448-1.324
			c-0.037-0.316,0.114-0.568,0.448-0.744c0.344-0.172,0.943-0.324,1.801-0.447v-1.488h-11.768v1.488
			c0.533,0.053,0.993,0.141,1.383,0.248c0.379,0.107,0.715,0.285,1.014,0.494c0.299,0.229,0.601,0.555,0.883,0.979
			c0.287,0.418,0.6,0.973,0.939,1.652c0.661,1.293,1.252,2.459,1.777,3.502c0.521,1.025,0.984,1.957,1.405,2.803
			c0.411,0.822,0.786,1.6,1.113,2.293c0.331,0.689,0.637,1.355,0.911,1.98c0.121,0.252,0.209,0.479,0.274,0.693
			c0.069,0.221,0.108,0.449,0.136,0.707c0.03,0.252,0.04,0.568,0.04,0.939v5.178c0.007,0.943-0.032,1.699-0.103,2.271
			c-0.087,0.564-0.253,0.996-0.498,1.291c-0.243,0.291-0.622,0.494-1.122,0.623c-0.501,0.119-1.169,0.215-2.005,0.271v1.484h13.374
			v-1.484c-0.888-0.068-1.597-0.166-2.126-0.297c-0.519-0.117-0.919-0.332-1.169-0.613c-0.257-0.293-0.427-0.723-0.503-1.283
			c-0.072-0.564-0.111-1.32-0.107-2.264v-5.766c0-0.5,0.023-0.902,0.07-1.219c0.043-0.309,0.111-0.59,0.209-0.854
			c0.107-0.268,0.232-0.586,0.396-0.947c0.491-1.092,0.936-2.047,1.33-2.875c0.406-0.832,0.783-1.586,1.136-2.277
			c0.354-0.678,0.7-1.332,1.051-1.986c0.353-0.619,0.713-1.299,1.104-2.004c0.375-0.689,0.717-1.252,1.037-1.691
			c0.311-0.432,0.64-0.783,0.979-1.023c0.33-0.248,0.718-0.441,1.16-0.559c0.432-0.129,0.964-0.223,1.588-0.275V144.407
			L299.965,144.407z"/>
		<path d="M688.879,65.312c-0.266-3.332,10.879-11.459,9.275-13.303c-1.266-2.595-2.27-4.706-6.607-4.519
			c-3.42,1.736-6.729,4.001-8.305,7.235c-1.355,1.257-2.707,0.892-3.586,0.143c-0.363-1.211-0.637-2.945-2.75-3.794
			c-1.695,0.622-2.553,2.138-2.908,3.993c1.754,19.293-0.547,36.388-1,53.703c2.391,5.428,4.854,6.887,8.063,6.02
			c-0.492-12.377-2.189-24.625-1.43-37.134c4.076,0.345,5.096,4.162,7.818,5.383c1.357,0.222,8.797-8.37,6.314-11.682
			C692.244,69.256,689.287,68.529,688.879,65.312z M687.184,69.794c1.76,2.826,0.051,5.327-0.049,7.682
			c-2.092-1.112-3.715-1.47-5.072-2.185l-2.611-4.326l-0.098-10.988c3.049-0.78,6.236-3.273,9.068-3.676
			c-1.945,1.877-1.557,3.844-2.896,5.826C685.428,64.617,686.922,67.072,687.184,69.794z"/>
		<path d="M694.234,86.579c0.492-3.368,29.799-9.809,38.926-7.278c1.525,1.956-10.832,12.827-12.563,13.099
			c-0.264,0-2.633-2.207-3.479-0.114c-1.543,4.971-2.598,13.042,0.258,15.476c24.271,9.064,46.645-0.529,41.164-22.514
			c4.965,5.785,6.754,12.81,10.475,15.878c1.26,1.097,0.039,3.565-1.41,5.813c-12.549,19.188-54.168,12.146-56.588,3.869
			c-1.518-1.84,1.168-17.84-0.67-16.724c-9.049,5.797-14.809,12.025-18.254,14.515c-2.32,1.881-5.057-0.297-4.807-1.549
			c1.211-3.721,15.418-14.75,21.426-17.758c-2.834-0.468-11.223,1.958-13.568,1.481C694.043,90.636,693.771,88.929,694.234,86.579z"
			/>
		<path d="M702.527,73.134c7.105-3.809,13.879-6.708,23.143-4.182c1.375,1.964-0.684,4.823-2.408,5.097
			C716.244,74.609,701.451,78.451,702.527,73.134z"/>
		<path d="M710.617,40.88c8.402,0.653,9.803,5.855,9.98,9.685c-1.477,2.477,24.74-5.674,25.99,11.395
			c-4.043,3.137-16.025,1.129-13.443-1.242c1.199-1.119,6.768-2.531,1.314-5.089c-10.27-0.398-21.234,1.063-30.945,4.134
			c-3.807,1.019-4.217,10.792-7.678,11.58c-8.016-1.553-3.414-11.133,5.055-17.497c1.951-1.267,2.203,0.815,3.074,1.446l8.127-2.186
			C713.656,47.146,707.902,40.643,710.617,40.88z"/>
		<path d="M592.445,63.015c0.006,0.008,0,0.018,0.006,0.029l-0.162-0.035C592.34,63.012,592.398,63.015,592.445,63.015
			c-1.477-5.258,10.988-26.512,7.918-26.231c-5.713-2.11-11.131-0.438-16.805,4.397c-0.939,0.776,0.348,2.728,1.332,3.11
			c0.955,0.551,4.793-0.37,5.369,0.287c0.482,0.729,1.23,1.858,1.174,3.082c-2.941-0.399-5.732-0.17-7.301,0.873
			c-1.145,1.632-1.564,3.868-0.873,4.904c1.297,0.593,3.072-1.179,4.684,0.142c-0.258,2.084-1.457,3.622-2.393,5.294
			c-0.063-0.096-0.135-0.191-0.193-0.287c-2.547-0.703-4.521-1.895-5.965-4.063l1.404-3.9c0.332-0.809,0.547-2.315-0.26-3.276
			c1.1,0.309,2.242,0.456,3.5,0.794c0.883,0.005,2.973-0.656,1.73-2.059c-2.947-0.679-5.266-2.126-6.709-4.572l1.539-4.582
			c0.498-1.699,0.709-4.515-2.887-5.214c-1.818-0.284-1.977,5.471-3.668,5.861c-1.527-1.204-2.193-3.305-4.434-3.585
			c-2.742,0.787-3.316,3.265-1.955,4.896c0.744,2.013,2.492,2.614,3.932,3.886c0.508,1.023-4.127,3.208-5.645,4.679
			c-0.215,0.147-0.248,0.302-0.342,0.371c0.318-7.775,1.746-14.999-0.094-15.093c-1.08-1.368-4.459-0.018-5.895,2.305
			c-1.021,6.461,1.348,25.257,6.115,30.396c-0.119,0.081-0.311,0.211-0.471,0.175l-0.311,0.211
			c-5.689-4.075-5.451-20.017-7.389-19.59c-1.031-0.666-2.916,0.732-3.428,2.427c0.449,4.024,4.609,14.313,8.412,17.58l-9.826,1.938
			c-1.271-0.755-1.398-3.209-4.6-1.803c-13.262,7.953-20.578,19.675-8.256,21.722c5.391-0.782,6.203-12.932,12.182-14.242
			c15.109-3.547,31.92-5.271,47.695-4.524c8.242,3.268-0.285,4.961-2.166,6.358c-4.07,3.028,14.262,5.649,20.609,1.826
			C617.41,65.167,603.67,63.241,592.445,63.015z M584.41,63.223c-1.705,0.098-3.322,0.128-4.215,0.141
			c-1.65-0.085-7.104,0.428-11.379,1.368c-2.813-3.344-3.424-9.173-3.346-14.866c0.275-0.052,0.617,0.043,0.986-0.077l8.086-4.354
			c1.045,0.486,2.039,0.873,3.242,1.116c-0.943,1.046-1.396,4.343-2.535,4.652c-1.225-0.955-1.848-2.774-3.82-3.089
			c-2.371,0.674-2.701,2.847-1.824,4.175c0.789,1.852,2.387,2.275,3.42,3.359c0.541,0.817-3.494,2.791-4.723,4.065
			c-1.477,1.57-0.896,2.229,0.42,1.947l6.982-3.762c2.518,1.134,5.084,1.652,7.957,2.413c0.344,0.049,0.986-0.07,1.396-0.341
			C584.514,60.926,584.316,61.934,584.41,63.223z"/>
		<path d="M592.451,63.043c-0.006-0.012,0-0.021-0.006-0.029c-0.057,0-0.102-0.002-0.156-0.006L592.451,63.043z"/>
		<path d="M558.949,78.01c9.293-4.57,18.865-7.102,28.176-6.043c5.52,2.088,7.023,4.358,6.076,6.492l-9.957,7.108l0.781,2.751
			c5,1.259,13.104-2.389,21.01-0.523c2.061,2.215,1.594,6.218,0.035,6.531c-3.154,1.063-16.365-0.523-19.563,1.776
			c2.689,16.326-0.977,25.767-3.938,26.429c-6.549-0.711-12.266-3.264-18.455-11.467c8.891,3.123,13.467,3.34,13.197,1.561
			c1.492-0.682,2.896-6.834,1.041-14.063c-3.828-5.77-17.113,1.471-24.627,1.758c-4.57,0.502-6.582-3.203,0.908-6.884
			c6.719-1.075,13.758-1.144,20.357-2.594c0.393-1.449-1.33-3.12-2.111-4.549l6.195-1.595c0.982-0.975,1.693-2.775-0.252-4.15
			C573.814,78.485,557.033,85.843,558.949,78.01z"/>
		<path d="M441.348,27.986c10.98,0.322,12.979,6.606,13.492,11.325c-1.725,3.346,31.662-8.584,34.363,12.569
			c-4.924,4.229-20.707,2.591-17.402-0.529c1.467-1.631,8.363-3.747,1.33-6.558c-13.324,0.064-27.24,2.707-39.703,7.231
			c-4.791,1.645-4.742,13.761-9.037,14.886c-10.646-1.167-5.262-13.339,5.186-22.056c2.711-1.607,2.98,0.852,4.078,1.602
			l10.363-3.386C445.83,35.645,437.766,27.997,441.348,27.986z"/>
		<path d="M452.32,81.39c-1.219-0.489-1.598-1.849,0.238-3.827c4.18-2.512,8.477-4.619,11.947-3.651
			c2.734,2.714,1.707,25.1-0.207,36.507c0.014,3.854,6.076,7.27,6.582,11.096c-0.213,3.102-5.273,2.75-8.105,2.039
			c-3.484-2.965-7.957-8.135-9.682-11.35c-4.559,1.383-8.217,9.928-11.799,10.094c-2.342-0.373-1.98-2.227-0.396-4.582
			c1.721-2.125,3.303-4.215,5.139-6.471c0.98-0.75,1.352-2.604,0.625-2.723c-1.994-0.477-3.852-0.848-5.813-1.211
			c-1.363-0.988-1.266-4.582,0.475-4.328c2.229,0.709,4.451-0.516,6.033-1.504c-0.145-6.321-0.932-12.637-0.092-18.965
			c0.98-1.363,2.219-1.224,3.578-1c0.615,0.257,0.275,3.097,0.883,3.852c1.104,0.719,3.211,0.104,4.457,0.705
			c0.729,0.981,0.877,2.488,0.359,3.335c-0.973,0.643-1.951,1.516-3.051,2.396c-0.746,0.838-1.836,2.583-0.131,2.458
			c1.119-0.619,1.986-0.39,2.709-0.015c0.641,0.867,0.881,2.46,0.164,2.727c-1.506,0.006-3.844,0.395-4.445,1.006
			c0.006,0.871,0.117,1.621,0.764,2.459c1.104,1.243,3.211,1.235,5.16-0.635c1.477-1.367,2.68-9.667,0.896-18.933
			C456.502,79.89,454.438,81.876,452.32,81.39z"/>
		<path d="M437.012,77.143c-1.244-0.631-0.771-4.462-0.771-4.462c1.975-3.485,4.166-5.849,7.512-7.224
			c2.332-0.506,3.068,2.103,2.852,3.351C446,71.272,441.957,77.235,437.012,77.143z"/>
		<path d="M449.277,60.85c-3.824-2.332-12.225,0.433-11.25-1.311c6.367-10.903,27.475-8.425,28.23-7.183
			c2.461,1.615,2.629,5.56,0.633,5.567c-5.063-0.354-10.23-0.33-11.584,1.534l-0.225,7.684c0.146,0.865,2.115,0.254,3.088-1.117
			c0.855-0.992-0.617-2.109-0.889-4.459c-0.357-2.348,19.51,2.63,18.678,8.458c-0.973,1.981-3.566,2.982-6.514,2.729
			c-2.984-1.691-4.477-4.407-8.93-5.26l-37.053,41.52c-5.656,3.098-5.186-1.48-3.467-4.449c7.09-10.791,20.379-19.52,29.717-30.583
			C450.578,73.223,450.021,65.195,449.277,60.85z"/>
		<path d="M342.548,104.931c-8.583-0.309-7.223,2.211-18.979,2.838l3.634-35.796c-0.002-3.442-4.744-9.698-13.588-6.614
			c-20.062,9.078-13.485,32.4-15.179,45.758c-0.023,3.453-16.861,2.154-25.484,3.453c-5.677,1.746-6.107,6.166-4.355,6.947
			c7.063,1.943,52.488-6.332,80.996-4.572C357.551,116.438,354.174,105.681,342.548,104.931z M314.887,104.335
			c-1.06,4.898-2.859,6.107-4.437,6.428c-5.295,0.707-4.119-3.861-4.06-12.468c1.917-0.887,3.874,0.107,5.687-1.389
			c1.536-0.426,0.775-4.912-0.625-5.833c-1.306-0.682-2.699-0.84-4.261-0.084c-1.123-0.508-1.236-2.598-0.054-3.979
			c0.904-1.121,3.201-1.993,6.375-2.019c1.097-0.944,0.707-6.47-1.329-5.979c-0.81,0.719-3.043,1.032-3.439-0.674
			c-0.407-1.827,0.096-3.603,1.633-5.513c1.053-0.649,1.552-1.771,5.953-1.333C319.2,71.726,315.333,93.32,314.887,104.335z"/>
	</g>
</g>
</svg>
